<svg fill="none" height="291" viewBox="0 0 301 291" width="301" xmlns="http://www.w3.org/2000/svg"><path d="m153.445 288.068c-2.633 0-5.282-.075-7.873-.222-17.79-.962-35.227-5.339-51.3607-12.895 0 0-.1645-.08-.2065-.101-.121-.053-.2249-.1-.3303-.152l-.1424-.071c-4.4848-2.125-8.852-4.489-13.0827-7.083-16.7736-10.303-31.2114-23.994-42.3892-40.198-.4827-.694-.9575-1.398-1.4317-2.109-.7176-1.09-1.4274-2.2-2.1173-3.314-8.6609-13.891-14.7938-29.206-18.1147-45.236-.5582-2.668-1.0445-5.414-1.4446-8.157-.6909-4.736-1.1391-9.504-1.3427-14.286-.01-.095-.0128-.174-.0146-.23-.0818-2.023-.1239-4.015-.1239-5.92 0-.695.0073-1.382.0228-2.068.0624-4.713.3639-9.421.9031-14.104.1574-1.392.3546-2.893.6208-4.718l.1094-.691c.0313-.226.0783-.511.126-.787.2706-1.699.5453-3.241.8344-4.686 1.2242-6.266 2.8811-12.44 4.9586-18.478l.1204-.355c1.8597-5.3648 4.0491-10.6099 6.5556-15.7051.051-.1146.1395-.2927.2286-.4706l1.9941.9006-1.9611-.9675c.2556-.5183.5118-1.0373.7838-1.5485 7.805-15.2852 18.3614-29.0004 31.1397-40.4577 1.8917-1.7008 3.935-3.4387 6.0737-5.1644l.6008-.4849h.0157l.136-.1075c.1809-.1423.3616-.2855.5489-.4278 2.1059-1.6568 4.3991-3.344 6.7891-4.9964.1701-.1161.9135-.6237.9135-.6237 3.3205-2.2512 6.7641-4.3763 10.2355-6.3172.9726-.5417 1.9423-1.075 2.9276-1.5933.749-.3936 1.5041-.7836 2.2654-1.1697 1.859-.934 3.5255-1.7336 5.0989-2.4455.4457-.2093.9277-.4229 1.409-.6301.2264-.1032.4884-.2192.7589-.3353 2.3981-1.0444 4.8081-2.0121 7.1521-2.872.354-.1345.731-.2706 1.107-.4058 1.108-.4051 2.298-.8173 3.732-1.2936l.336-.1111.018-.0007s.596-.195.687-.2243l.255-.2562.596-.0043c1.481-.4635 2.802-.8565 4.027-1.1982l.56-.1677h.023c.111-.0306.221-.0598.334-.089 5.551-1.5138 11.191-2.6819 16.887-3.49774.848-.12532 1.714-.23781 2.588-.34177 13.557-1.69249 27.287-1.40762 40.762.84571 3.641.6065 7.271 1.3619 10.785 2.2447 1.925.4799 3.891 1.0202 6.005 1.651 6.459 1.9259 12.768 4.323 18.877 7.1721l.05.0214c.181.0769.37.1631.552.2499 5.178 2.4361 10.202 5.1889 15.042 8.2429 1.656 1.0416 3.286 2.1201 4.845 3.2051.779.5369 1.569 1.0886 2.343 1.6539 1.542 1.1028 3.097 2.2761 4.604 3.4729.684.5311 1.38 1.0843 2.067 1.6517.562.4578 1.132.9312 1.696 1.4196 2.206 1.8411 4.448 3.8531 6.63 5.9533 4.141 3.9592 8.035 8.1695 11.659 12.607 2.818 3.4483 5.465 7.0169 7.866 10.6074 1.852 2.7517 3.666 5.6799 5.388 8.6979.728 1.2836 1.316 2.3487 1.854 3.3582.76 1.4132 1.532 2.9211 2.289 4.4732l-1.912 1.0706 1.957-.9769c.029.059.058.1174.085.1765 1.278 2.6318 2.466 5.2855 3.53 7.8876.177.4208.357.8686.537 1.3178l.369.9135v.0185c4.358 11.1515 7.259 22.8185 8.632 34.7125.62 5.393.931 10.817.932 16.246.017 15.253-2.465 30.407-7.347 44.858-1.094 3.256-2.364 6.584-3.77 9.888l-.275.647c-.147.343-.294.684-.447 1.029-.576 1.323-1.214 2.703-1.942 4.2-.057.13-.117.257-.18.386l-.047.097c-.651 1.347-1.338 2.698-2.043 4.023-.095.193-.197.384-.298.573l-.07.131c-.358.671-.715 1.333-1.087 1.996-.366.651-.727 1.292-1.096 1.925-1.014 1.751-1.816 3.088-2.599 4.33-1.367 2.194-2.798 4.355-4.246 6.414-2.454 3.487-5.071 6.869-7.778 10.051-1.773 2.088-3.649 4.168-5.575 6.183-4.47 4.674-9.258 9.034-14.33 13.049-3.116 2.47-6.405 4.852-9.774 7.079-4.698 3.107-9.581 5.924-14.623 8.436-.723.366-1.465.729-2.208 1.086-9.173 4.381-18.8 7.743-28.707 10.023-10.345 2.376-20.925 3.573-31.539 3.57z" fill="#fff"/><path d="m153.446 10.2997c7.684-.0043 15.356.6321 22.935 1.9027 3.587.5978 7.125 1.3342 10.615 2.209 1.99.4958 3.958 1.0425 5.912 1.6257 6.395 1.9049 12.641 4.2808 18.685 7.1081h.007c.153.0656.314.1385.467.2114 5.103 2.3992 10.053 5.1115 14.821 8.1214 1.611 1.0134 3.198 2.0632 4.761 3.1494.773.5322 1.545 1.0717 2.303 1.6258 1.539 1.1008 3.05 2.2405 4.535 3.4191.685.5322 1.363 1.0717 2.034 1.6258.554.452 1.108.9113 1.655 1.3851 2.245 1.8738 4.428 3.8324 6.547 5.876 4.079 3.8983 7.914 8.0446 11.482 12.4154 2.741 3.3536 5.322 6.8335 7.742 10.4398 1.874 2.7849 3.643 5.6402 5.308 8.5661.619 1.0935 1.232 2.1944 1.822 3.3025.78 1.4508 1.531 2.9234 2.253 4.4034.036.0801.08.1603.116.2405 1.24 2.5516 2.401 5.147 3.485 7.7861.255.6051.496 1.2175.744 1.8298v.0073c4.375 11.0899 7.282 22.7049 8.646 34.5489.612 5.31.919 10.65.919 15.995.015 15.015-2.428 29.931-7.232 44.157-1.108 3.296-2.355 6.547-3.711 9.733-.029.073-.066.153-.095.226-.204.474-.401.94-.612 1.414-.613 1.407-1.261 2.8-1.932 4.178-.066.153-.139.298-.212.452-.648 1.341-1.319 2.661-2.019 3.973-.109.226-.233.452-.35.67-.35.657-.7 1.305-1.064 1.954-.357.635-.715 1.269-1.079 1.896-.831 1.436-1.677 2.865-2.559 4.265-1.342 2.15-2.736 4.257-4.185 6.32-2.406 3.419-4.957 6.717-7.655 9.893-1.771 2.085-3.601 4.114-5.489 6.088-4.4 4.602-9.113 8.895-14.107 12.845-3.098 2.457-6.306 4.78-9.623 6.97-4.623 3.059-9.429 5.832-14.391 8.303-.722.365-1.451.722-2.18 1.072-9.027 4.314-18.5 7.621-28.25 9.864-10.184 2.341-20.6 3.52-31.049 3.514-2.603 0-5.186-.073-7.75-.219-17.51-.955-34.673-5.264-50.5584-12.692-.0583-.029-.1239-.059-.1895-.095-.1021-.044-.2042-.088-.3062-.139l-.1312-.065c-4.429-2.096-8.7415-4.43-12.9185-6.992-16.529-10.121-30.7462-23.603-41.7297-39.571-.4812-.693-.9478-1.386-1.4144-2.085-.7069-1.072-1.3995-2.156-2.0777-3.252-8.5201-13.677-14.5569-28.752-17.8321-44.529-.5541-2.647-1.0279-5.322-1.4216-8.027-.687-4.7-1.1298-9.433-1.3269-14.18-.006-.023-.0084-.048-.0073-.072-.0802-1.947-.1216-3.903-.1239-5.869 0-.678.0073-1.349.0219-2.02.0599-4.646.3568-9.286.8894-13.902.175-1.553.3864-3.106.6124-4.651.0364-.212.0656-.431.1021-.649.0364-.255.0802-.518.1239-.773.2479-1.553.5176-3.098.8238-4.629 1.2268-6.291 2.8981-12.486 5.0012-18.54v-.007c1.8289-5.2802 3.9837-10.4419 6.4519-15.4554.0729-.1603.1531-.3207.2333-.4811.2551-.5176.5103-1.0352.78-1.5456 7.6977-15.0507 18.0935-28.5601 30.6704-39.8561 1.9464-1.7497 3.9415-3.4459 5.9853-5.0886h.0073c.1969-.1604.401-.3208.6051-.4812.2114-.1677.4229-.3354.6416-.503 2.1798-1.7131 4.4155-3.3583 6.7071-4.9356.2989-.2041.5978-.4082.8967-.6051v-.0073c3.2587-2.2089 6.6171-4.2818 10.0752-6.2186.955-.5322 1.91-1.0571 2.8796-1.5674.7364-.3864 1.48-.7728 2.2309-1.1519 1.6549-.8311 3.3244-1.6403 5.0157-2.4058.452-.2114.9113-.4155 1.3706-.6124.2552-.1166.503-.226.7582-.3353 2.3108-1.0061 4.6588-1.949 7.0428-2.8287.364-.1385.729-.2697 1.093-.4009 1.218-.4448 2.45-.8676 3.682-1.2759.014 0 .022-.0072.036-.0072.241-.0802.489-.1604.729-.2406.248-.0802.503-.1604.751-.2333l.007-.0054.008.0054c.007-.0073.007-.0073.014-.0073 1.415-.4447 2.836-.8748 4.272-1.2758h.008c.095-.0292.197-.0583.291-.0875h.008c.189-.0583.379-.1094.576-.1604 5.471-1.4938 11.029-2.6455 16.643-3.4483.839-.1239 1.684-.2333 2.537-.3354 5.708-.715 11.454-1.0729 17.206-1.0716zm0-4.37422c-5.934.0002-11.862.36949-17.75 1.10572-.964.11526-1.833.23023-2.633.34841-5.777.82822-11.497 2.01324-17.128 3.54829l-.051.0133h-.058l-.636.1935-.105.0314-.026.0077-.058.0161c-1.157.323-2.393.6892-3.763 1.1146h-1.177l-.514.5237-.563.1869c-1.412.468-2.657.8995-3.807 1.3195-.362.1303-.742.2675-1.123.4122-2.375.8717-4.8162 1.8526-7.2577 2.9154-.2492.1068-.5117.2225-.7819.3455-.5034.2162-.9842.4312-1.4305.6396-1.581.7161-3.2661 1.5244-5.1495 2.4703-.7796.3937-1.5437.7905-2.3002 1.1874-1.1168.588-2.1768 1.1744-2.9764 1.6198-3.5264 1.9715-7.0238 4.1301-10.4004 6.4189l-1.9198 1.3014v.0239c-2.0689 1.4547-4.0479 2.9235-5.9105 4.387l-.0862.0663h-.0246l-1.2095.9705c-2.1686 1.7504-4.2418 3.5132-6.1621 5.2393-12.9778 11.6378-23.6994 25.5679-31.6278 41.0921-.2901.5499-.556 1.0893-.8133 1.6112-.0942.1887-.1853.3727-.2698.5558-2.5356 5.1593-4.7512 10.4699-6.6342 15.9018l-.2405.695v.011c-2.0558 6.026-3.6996 12.184-4.9203 18.433-.2883 1.442-.5664 3.003-.8462 4.753-.0464.271-.0921.549-.1312.821-.0173.105-.0332.211-.0493.316-.0129.086-.0256.171-.04.255l-.0096.055-.008.056c-.2692 1.839-.4696 3.363-.6308 4.794-.5475 4.755-.8534 9.535-.9167 14.322-.0146.694-.0218 1.388-.0218 2.09 0 1.944.0422 3.962.1254 5.997.0025.101.008.199.0166.297.2077 4.839.6622 9.665 1.3618 14.458.4049 2.782.899 5.572 1.4686 8.292 3.3733 16.281 9.6029 31.836 18.4001 45.945.7138 1.151 1.4351 2.28 2.1398 3.348.5879.882 1.0385 1.546 1.4727 2.172 11.3504 16.449 26.0094 30.348 43.0391 40.807 4.2969 2.634 8.7321 5.036 13.2865 7.194l.0212.01.0673.034c.1333.067.263.126.3923.183.0364.018.0729.036.1084.053l.052.026.0484.022c16.3876 7.675 34.1006 12.122 52.1696 13.098 2.63.149 5.321.225 7.991.225 10.779.003 21.524-1.213 32.03-3.625 10.061-2.317 19.838-5.731 29.154-10.18.819-.393 1.558-.756 2.267-1.114 5.113-2.549 10.066-5.408 14.832-8.56 3.422-2.261 6.763-4.681 9.928-7.19 5.15-4.077 10.012-8.504 14.551-13.251 1.957-2.047 3.861-4.159 5.661-6.277 2.749-3.233 5.407-6.668 7.899-10.208 1.469-2.09 2.922-4.284 4.318-6.523.788-1.249 1.603-2.608 2.634-4.389.37-.637.737-1.288 1.104-1.94.413-.734.794-1.444 1.113-2.042l.058-.109c.111-.207.223-.418.328-.629.711-1.336 1.405-2.702 2.061-4.06l.056-.115c.065-.135.129-.27.189-.406.733-1.508 1.376-2.9 1.965-4.252.16-.358.312-.713.464-1.069l.161-.375.024-.054.021-.054.006-.013c.022-.051.044-.103.065-.153 1.423-3.346 2.708-6.718 3.819-10.021 4.956-14.675 7.476-30.063 7.46-45.552-.001-5.512-.317-11.02-.947-16.496-1.379-11.943-4.275-23.662-8.618-34.8725v-.0271l-.319-.7967-.213-.529c-.18-.4482-.36-.8953-.546-1.3387-1.077-2.6324-2.279-5.3174-3.572-7.9819-.032-.0676-.065-.1355-.099-.203l.011.0254-.024-.0532-.025-.0523c-.769-1.5764-1.554-3.1098-2.332-4.5576-.539-1.0107-1.135-2.0918-1.87-3.3877-1.758-3.0784-3.6-6.0522-5.483-8.8511-2.431-3.6347-5.12-7.2605-7.985-10.7662-3.683-4.5089-7.64-8.787-11.848-12.81-2.199-2.1166-4.469-4.1536-6.733-6.0448-.503-.4347-1.036-.8813-1.725-1.4429-.634-.5238-1.327-1.0779-2.097-1.6764-1.519-1.2057-3.092-2.3916-4.675-3.5249-.859-.6278-1.725-1.2283-2.384-1.6823-1.568-1.0917-3.227-2.1892-4.913-3.2497-4.92-3.1039-10.027-5.902-15.291-8.3784-.183-.087-.397-.1843-.601-.2719l-.03-.0125c-6.194-2.8863-12.591-5.3155-19.139-7.268-2.145-.6402-4.142-1.1894-6.103-1.6777-3.565-.89495-7.252-1.66218-10.953-2.27916-7.817-1.30798-15.729-1.96432-23.654-1.96226z" fill="#000"/><path d="m207.64 90.6562c-16.135 2.7786-19.986 3.9648-27.168 14.7868-7.345 11.081-16.964 24.681-28.029 41.678l-29.004-13.552-11.634 20.214s31.197 20.034 42.718 23.934c8.628 2.909 10.659-.878 17.044-7.54 7.085-7.409 27.932-31.587 27.932-31.587z" fill="#fff" stroke="#000" stroke-miterlimit="10" stroke-width=".75"/><path d="m152.441 147.121c4.875 1.625 10.107 6.32 11.017 9.115-2.827-8.579-7.263-10.139-9.619-11.276z" fill="#000"/><path d="m87.1861 101.055 1.9823-1.8515c.3021-.2156.6506-.3573 1.0174-.4138.3669-.0564.7419-.026 1.0949.0889l22.4883 5.1674c1.137.323 2.19.89 3.085 1.661.895.772 1.611 1.73 2.098 2.807l17.874 45.497c.21.369.303.793.268 1.216-.034.423-.196.826-.463 1.156l-2.047 1.917c-.302.224-.653.371-1.023.431-.371.059-.75.028-1.106-.09l-22.488-5.167c-1.137-.323-2.19-.89-3.086-1.661-.895-.772-1.611-1.73-2.098-2.807l-17.8735-45.497c-.23-.382-.3276-.83-.2776-1.274.05-.443.2448-.858.5542-1.18z" fill="#000"/><path d="m114.209 107.116c1.176.825 2.112 1.946 2.714 3.25l17.873 45.497c.199.36.292.769.269 1.18s-.161.807-.399 1.143l1.934-1.787c.272-.328.437-.73.475-1.153.038-.424-.054-.849-.264-1.22l-17.873-45.496c-.561-1.232-1.422-2.305-2.503-3.12z" fill="#000"/><path d="m134.78 155.96-17.874-45.496c-.495-1.075-1.215-2.03-2.113-2.801-.897-.771-1.95-1.34-3.086-1.668l-22.4886-5.151c-2.0798-.487-3.136.748-2.3561 2.73l17.8737 45.497c.487 1.077 1.203 2.034 2.098 2.806s1.948 1.339 3.085 1.662l22.489 5.167c2.096.471 3.152-.747 2.372-2.746z" fill="#000"/><path d="m117.282 120.099-3.348-8.531c-.092-.201-.227-.379-.395-.522-.169-.143-.366-.248-.58-.306l-4.208-.975c-.39-.081-.585.146-.439.52.65 1.625 2.681 6.841 3.347 8.514.095.198.228.376.393.521s.358.255.566.324l4.225.959c.39.097.585-.13.439-.504z" fill="#fff" stroke="#000" stroke-miterlimit="10" stroke-width=".75"/><path d="m113.82 113.648c-.239-.501-.583-.946-1.009-1.302-.427-.356-.925-.616-1.461-.761-1.008-.228-1.544.308-1.186 1.218.238.502.582.946 1.009 1.303.426.356.924.616 1.46.761 1.008.227 1.544-.309 1.187-1.219z" fill="#fff" stroke="#000" stroke-miterlimit="10" stroke-width=".75"/><path d="m115.445 117.954c-.239-.502-.583-.946-1.009-1.302-.427-.356-.925-.616-1.461-.761-1.008-.228-1.544.308-1.186 1.218.238.502.582.946 1.009 1.302.426.357.924.616 1.46.762 1.008.227 1.544-.309 1.187-1.219z" fill="#fff" stroke="#000" stroke-miterlimit="10" stroke-width=".75"/><path d="m92.3225 128.971c-2.6486-2.957-2.486-3.412-1.4137-5.184.7916-1.406 1.9081-2.603 3.2563-3.491 1.3483-.888 2.8893-1.44 4.4944-1.611 2.8275-.227 5.6705-.601 7.2145 0 1.544.602.634 3.786-2.957 5.005-5.6387 1.934-5.4437 3.51-5.4437 3.51 2.4078-.842 4.8597-1.553 7.3447-2.129 2.88-.115 5.765-.001 8.628.341 2.486.13 3.25 3.25-.715 4.761l4.549.227c3.25.163 4.436 1.625 2.194 3.916-.728.746-1.682 1.232-2.713 1.381 0 0 3.249-.373 3.525.732.537 3.152-1.429 4.208-7.961 6.905-6.224 2.568-7.166 6.175-5.622 8.433 0 0-2.763-1.235-5.233-2.567-1.8193-.991-3.3955-2.145-2.9243-4.875 0 0-3.6722.472-4.1434-1.771-.2364-1.663-.1146-3.359.3572-4.972-.6992-.3-1.2993-.792-1.7306-1.418-.4313-.627-.6763-1.364-.7067-2.124-.166-1.442.1481-2.898.8937-4.143z" fill="#fff" stroke="#000" stroke-miterlimit="10" stroke-width=".75"/><path d="m112.731 130.157c-1.367-.13-2.744-.13-4.111 0-1.34.337-2.618.885-3.786 1.625-2.351 1.329-4.585 2.857-6.6778 4.566 2.5158-.977 4.9448-2.162 7.2628-3.543 1.084-.708 2.232-1.311 3.429-1.803 1.308-.214 2.604-.496 3.883-.845z" fill="#000"/><path d="m116.759 135.682c-1.478-.261-2.998-.144-4.419.341-1.401.463-2.756 1.056-4.047 1.771-2.561 1.371-4.974 3.004-7.197 4.874 2.655-1.157 5.248-2.453 7.767-3.883 2.417-1.515 5.094-2.568 7.896-3.103z" fill="#000"/><path d="m275.427 212.227c-.109.226-.233.452-.35.671-.35.656-.7 1.304-1.064 1.953-.358.635-.715 1.269-1.079 1.896-.831 1.436-1.677 2.865-2.559 4.265-1.342 2.15-2.737 4.257-4.185 6.32-2.406 3.419-4.957 6.717-7.655 9.893-1.771 2.085-3.601 4.114-5.489 6.088-4.4 4.603-9.114 8.895-14.107 12.845-3.098 2.457-6.306 4.78-9.623 6.97-4.623 3.059-9.429 5.832-14.391 8.303-.722.365-1.451.722-2.18 1.072-9.027 4.314-18.5 7.621-28.25 9.864-1.728-10.447-2.865-21.711-2.041-30.918.845-9.39 2.216-18.357 3.601-25.837.335-1.845.678-3.602 1.006-5.249.459-2.275.897-4.345 1.298-6.168 1.195-5.417 2.07-8.675 2.07-8.675l80.449-8.545 1.859 6.226z" fill="#fff" stroke="#000" stroke-miterlimit="10" stroke-width=".75"/><path d="m280.297 201.984c-.03.073-.066.153-.095.226-.204.474-.401.94-.613 1.414-.612 1.407-1.261 2.8-1.931 4.178-.066.153-.139.299-.212.452-.649 1.341-1.319 2.661-2.019 3.973-.11.226-.234.452-.35.671-.35.656-.7 1.305-1.065 1.953-.357.635-.714 1.269-1.079 1.896-.831 1.436-1.676 2.865-2.559 4.265-11.766 1.757-28.111 4.141-41.605 5.898-.012.005-.024.007-.037.007-11.081 1.436-20.23 2.449-23.314 2.347-2.039-.078-4.071-.272-6.088-.583-4.495-.692-8.932-1.718-13.275-3.069-.802-.255-1.254-.408-1.254-.408l1.4-5.548 1.407-5.577.75.116 8.311 1.247 76.068-12.241 7.414-1.195z" fill="#000"/><path d="m280.203 202.21c-.204.474-.401.94-.613 1.414-.612 1.407-1.261 2.8-1.932 4.178-.065.153-.138.299-.211.452-.649 1.341-1.32 2.661-2.019 3.973-.11.226-.234.452-.35.671-.35.656-.7 1.305-1.065 1.953-.357.635-.714 1.269-1.079 1.896-14.391 3.856-31.129 7.502-44.164 10.163-.012.005-.024.007-.037.007-12.729 2.602-21.907 4.257-21.907 4.257-2.63-.367-5.169-1.212-7.495-2.493-4.363-2.346-8.475-5.133-12.269-8.318-.292-.241-.584-.474-.861-.707-.233-.197-.459-.387-.678-.569 1.874-8.588 3.296-15.66 3.653-19.429 1.247-13.239-.153-25.428 0-31.632.141-4.91-.846-9.786-2.887-14.253-2.297-5.293-5.242-9.718-6.022-16.06-.178-1.498-.239-3.006-.182-4.513.262-7.05 2.916-14.296 6.226-20.26.009-.023.021-.045.036-.066 1.183-2.148 2.511-4.213 3.973-6.182 3.924-5.33 8.178-10.4089 12.737-15.2073 0 0 2.187-.3791 4.585-.8238 1.728-.3208 3.565-.678 4.775-.9551.037-.0072.066-.0145.095-.0218.642-.1094 1.283-.2042 1.925-.2771 2.094-.261 4.204-.3658 6.313-.3134.336-.0292.729-.0802 1.174-.1386h.022c4.469-.6051 14.012-2.3547 23.161-.5832.547.1021 1.094.2187 1.641.3499 1.006.2479 1.902.4521 2.741.6343h.007c2.705.5978 4.702.9113 7.181 1.3487h.014c1.298.2406 2.691.5322 3.974.802.004.0041.009.0067.014.0072.124.0292.248.0511.372.0802 1.721.3791 3.208.7291 3.966.9113.343.0875.532.1313.532.1313 4.258 3.5941 9.492 18.8964 6.758 37.1664-.24 1.574-.612 3.462-1.049 5.569-1.101 5.264-2.625 11.905-3.5 18.576v.015c-.284 2.201-.503 4.396-.612 6.546-.146 2.513-.093 5.034.16 7.539.54 5.008 5.278 11.883 9.295 22.381 1.456 3.77 2.642 7.639 3.551 11.577.02.067.037.135.051.204z" fill="#e55b2d"/><path d="m203.054 91.4846s-8.258-1.0742-17.632 5.0437c-9.373 6.1177-18.746 23.8257-18.746 23.8257l1.305 3.52c4.294 2.761 8.346 5.882 12.111 9.33 0 0 7.729-1.311 8.639-1.406s17.283-18.572 17.283-18.572z" fill="#e55b2d"/><path d="m193.519 15.2297c11.521-14.250182 26.99-17.35367 41.418-13.99014 8.547 1.99857 17.435 7.05192 19.938 16.07004 7.1 0 11.894 7.5556 12.739 21.1233s2.307 34.4799-2.097 41.3693c-.961 1.6038-2.257 2.9812-3.799 4.0384-1.543 1.0572-3.295 1.7692-5.137 2.0874 2.503-1.8007 4.242-4.4728 4.874-7.4906-2.117 3.1177-5.067 5.5781-8.514 7.1007-5.248 2.5836-9.847 3.6885-17.874 3.9647-9.749.3412-19.498-1.0561-24.048-3.0873 2.373-1.0113 4.249-2.9219 5.216-5.3133 0 0-4.371 5.5406-13.519 2.6648 4.046-.8612 6.337-5.7358 6.418-14.0389v-15.7452c-4.988-2.2586-10.171-3.2498-13.112-8.8393-2.059-4.2103-2.532-9.021-1.333-13.5515-1.093.893-1.974 2.0184-2.579 3.2944-.604 1.2761-.916 2.6707-.914 4.0825-1.952-3.7572-2.772-8.0003-2.36-12.2143.413-4.214 2.04-8.2176 4.683-11.525z" fill="#000"/><path d="m246.653 84.1568c0-2.9897.568-18.0036.568-18.0036.13 1.1212 5.541 4.2247 10.465-1.5111 4.923-5.7358 5.297-11.8778 2.421-15.8263-3.25-4.3546-10.367-4.1759-13.292 2.8598-4.696 1.0724-6.776-6.1093-3.136-12.9987-.26-8.7418-9.229-8.3518-13.649-19.6609-11.292 5.8333-21.724 1.0724-28.955 9.538-1.495 4.2246-2.681 10.8704-2.811 22.7482-.179 19.3523 3.558 23.9832 8.791 26.3717 3.119 1.43 6.97 1.8362 12.999 1.3974l-.325 4.9884c-.147 2.5185 0 3.591-2.373 4.3872-1.625.5199-4.874 1.2024-4.874 1.2024s-7.101 6.6295 8.384 8.8393c23.138 3.2494 35.861-7.8152 35.861-7.8152s-1.625-.2601-5.525-.9915c-3.899-.7315-4.549-2.5353-4.549-5.5251z" fill="#fff" stroke="#000" stroke-miterlimit="10" stroke-width=".75"/><path d="m253.947 62.6923c0 .6261-.249 1.2264-.692 1.669-.443.4425-1.044.691-1.67.6908s-1.226-.249-1.669-.6918-.691-1.0433-.691-1.6694c0-.6262.248-1.2267.691-1.6695s1.043-.6916 1.669-.6918 1.227.2483 1.67.6908c.443.4426.692 1.0429.692 1.669z" fill="#fff"/><path d="m219.973 79.1034c10.708-.9915 20.977-4.4033 23.414-9.2617-.036 1.5626-.453 3.0927-1.215 4.4576-.761 1.3648-1.845 2.5231-3.156 3.3743-6.109 3.5259-19.303 5.2158-19.303 5.2158z" fill="#000"/><path d="m213.474 131.636c-5.265-3.933-7.913-5.444-10.351-6.142-2.437-.699-11.065-4.258-14.347-5.086-2.096-.52-2.941 2.811-.276 5.086 2.047 1.771 7.377 4.078 9.749 5.362 2.372 1.283 6.922 6.857 6.922 6.857z" fill="#fff" stroke="#000" stroke-miterlimit="10" stroke-width=".75"/><path d="m287.372 106.06c-5.216-11.114-9.75-12.1702-22.277-13.6328-11.862 11.5688-2.243 37.4538-2.243 37.4538l6.354 31.181s-31.426-8.449-34.984-10.724-13.096-12.528-16.249-15.599c-4.354-4.192-6.499-3.623-8.725-3.25-7.247 1.089-8.84 1.625-10.383 2.681-.452.313-.816.734-1.061 1.226-.244.492-.36 1.037-.337 1.585-1.933.244-4.874.195-5.183 3.348-.159.835-.198 1.688-.114 2.534-.49.079-.934.333-1.251.715-1.625 1.853 1.137 8.287 2.892 9.847 1.219 1.105 2.974 1.235 5.265.926 1.95-.26 1.04-2.242 1.04-2.242l2.73.162c5.898 4.176 6.19 12.479 13.99 14.315 3.223.321 6.41.935 9.521 1.836 16.785 5.639 44.294 22.749 59.243 24.016 14.624 1.251 14.169-6.499 14.397-15.453.162-8.026-7.426-59.843-12.625-70.925z" fill="#fff" stroke="#000" stroke-miterlimit="10" stroke-width=".75"/><path d="m268.588 158.007.617 3.055c6.646 1.706 13.828 6.499 15.42 10.123-1.283-5.752-4.338-10.058-16.037-13.178z" fill="#000"/><path d="m197.417 136.933 8.596-1.739-8.417.553c-.129.381-.19.783-.179 1.186z" fill="#000"/><path d="m192.121 142.815 9.912-1.284-9.928.13c-.035.384-.03.771.016 1.154z" fill="#000"/><path d="m193.422 147.186c.329.5.79.899 1.332 1.153.515.263 1.061.46 1.625.585l-.13-.097c.26.52.536 1.023.829 1.527l.195-.26c-.282-.058-.573-.055-.853.01-.281.064-.544.188-.772.364-.405.342-.704.793-.861 1.3.252-.428.596-.794 1.007-1.073.405-.243.885-.329 1.349-.243h.39l-.179-.342-.829-1.527v-.081h-.097c-.554-.105-1.097-.257-1.625-.455-.518-.183-.989-.477-1.381-.861z" fill="#000"/><path d="m196.055 148.469c1.19.159 2.389.246 3.591.26.218.74.647 1.401 1.235 1.901.607.578 1.247 1.121 1.917 1.625l-2.73-.162c-.38-.472-.853-.859-1.39-1.139s-1.126-.445-1.73-.486z" fill="#000"/><path d="m223.683 98.8179s-7.484 4.3751-11.233 9.5301c0 0-5.624-8.28-5.624-12.185 0-3.9055.816-5.5021.816-5.5021s3.532-1.8985 6.592-1.4007c0 0 8.184 5.8076 9.449 9.5577z" fill="#fff" stroke="#000" stroke-miterlimit="10" stroke-width=".75"/><path d="m227.445 99.0558s5.939 4.1372 7.189 9.9172c0 0 11.908-3.281 16.967-7.186 5.06-3.9056 9.079-10.2734 9.079-10.2734s-6.183-2.489-10.346-2.3366c-3.149.6817-6.253 1.5539-9.295 2.6118-5.468 1.8608-13.594 7.267-13.594 7.267z" fill="#fff" stroke="#000" stroke-miterlimit="10" stroke-width=".75"/><path d="m264.449 137.713s22.71-8.867 29.605-4.509l1.402-1.432c.823-.84 1.407-1.885 1.69-3.027.284-1.141.256-2.338-.08-3.466-2.333-7.825-8.129-25.4118-13.926-28.4912-7.498-3.9836-17.926-5.4482-19.391-5.4482-.905.003-1.809.0881-2.699.2545l-9.448 20.7139z" fill="#e55b2d"/><path d="m264.449 137.713c-5.317-7.365-9.265-14.523-10.777-21.312" stroke="#000" stroke-miterlimit="10" stroke-width=".75"/><path d="m180.092 133.204c.332-4.391 2.05-14.233 9.549-26.106" stroke="#000" stroke-miterlimit="10" stroke-width=".75"/><path d="m214.925 271.431c-.722.365-1.451.722-2.18 1.072-4.389-5.132-8.77-12.926-10.921-24.546 0 0 5.06 12.809 13.101 23.474z" fill="#000"/><path d="m177.03 238.384-47.963-220.4878c-.377-1.8429-1.217-3.5593-2.442-4.9866-1.304-1.5262-2.994-2.6739-4.894-3.3229-1.899-.64898-3.938-.77539-5.903-.366l-107.10967 23.2925c-2.89477.6576-5.41004 2.4376-6.99305 4.9488-1.583008 2.5112-2.104236 5.5482-1.449134 8.4436l.007291.0072 17.263463 79.3622 21.747 100.009c.1896.277.3791.546.5686.824 2.8751 4.188 5.9833 8.211 9.3098 12.05l-28.0094-128.747-12.31334-56.6088c-.97691-4.4981-.96962-7.509-.28433-9.5722.18773-.6238.48117-1.2107.86755-1.7351.0729-.0948.14581-.1895.21871-.2843h.00729c.02249-.033.04683-.0646.0729-.0948l.05103-.051c.00729-.0146.02188-.0219.02917-.0365.02006-.0281.04198-.0549.06561-.0802h.00729c.07701-.0903.15982-.1755.24782-.2551 0-.002.0008-.0038.0022-.0052.0014-.0013.0032-.0021.0051-.0021.158-.1594.3287-.3057.5104-.4374h.0145c.0875-.0729.175-.1385.2698-.2042h.0146c.0875-.0656.1822-.1239.277-.1822h.0146c.0452-.0345.0941-.0639.1458-.0875.051-.0292.0948-.0583.1458-.0875h.0146c.102-.0583.2041-.1093.3062-.1604h.0073s0-.0073.0072 0c.0326-.0198.0667-.0369.1021-.051.0656-.0365.1385-.0656.2041-.1021h.0146c.1094-.051.2114-.0947.3208-.1385h.0146c.054-.0263.1101-.0482.1677-.0656.051-.0219.1093-.0437.1676-.0656h.0146c.1094-.0438.2187-.0875.3354-.1239h.0073c.051-.0146.0947-.0292.1458-.0438.1458-.051.2916-.0948.4374-.1385l.1531-.0437c.1822-.0511.3645-.0948.554-.1458.4447-.1167.904-.2188 1.3706-.3208l19.2027-4.1774c.1128-.0229.2275-.0351.3426-.0364.0511 0 .1094.0073.175.0073l.0073.0073c.0173-.0007.0346.0017.051.0072.0365.0073.0802.0146.124.0219.0073 0 .0073.0073.0146 0 .051.0219.1093.0365.1603.0583h.0073c.1263.0479.2482.1065.3645.175h.0073c.0511.0365.1094.0729.1604.1167h.0146c.0716.0593.1397.1225.2041.1895.0383.032.0748.0661.1094.1021.0263.0248.0506.0517.0729.0802.0379.0379.0721.0794.1021.1239.1299.1683.2469.3462.3499.5322.0039.0043.0073.009.0103.0139.0143.0269.0275.0548.0412.0823.1464.2878.2541.5938.3202.9099v.0072l.1385.6562c.0848.4032.2043.7984.3572 1.181 0 .0019.0008.0038.0021.0052.0014.0013.0032.0021.0052.0021.0373.1082.0836.2131.1385.3135.051.0947.1021.1895.1531.277.0475.0886.1011.1739.1604.2552l.0875.1093c.0243.0382.0511.0747.0802.1094l.0145.0073c.0073.0073.0146.0218.0292.0364.1106.1187.2327.2261.3645.3208.0583.0437.1094.0802.1677.1166.0073-.0073.0073 0 .0146.0073.0729.0365.1385.0729.2114.1021.0516.0262.1052.0482.1604.0656.0176.0024.0348.0073.051.0146h.0073c.07.0305.1435.0525.2187.0656.1167.0219.2406.0437.3572.0583.9156.0214 1.8293-.0916 2.712-.3353l35.9632-7.8225h.0072l8.4276-1.8372c.6165-.1182 1.2252-.274 1.8226-.4666.3112-.1045.6096-.2439.8894-.4155.1736-.1084.3328-.2382.4739-.3864.6197-.6489.8603-1.6622.4885-3.3973l-.0802-.3937-.0584-.2624c-.1886-.7654-.1035-1.5727.2406-2.2819.0045-.0274.0172-.0529.0365-.0729.0123-.0355.0322-.0678.0583-.0948.0627-.1044.136-.2021.2187-.2916.0128-.0207.0274-.0402.0437-.0583.0206-.0278.0451-.0524.073-.0729h.0072c.0334-.0419.0727-.0788.1167-.1094.0073 0 .0073 0 .0146-.0073.0457-.0357.0945-.0674.1458-.0947.0568-.0387.118-.0705.1822-.0948.0073-.0073.0073-.0073.0146-.0073.0371-.019.0762-.0336.1167-.0437.0545-.0213.1105-.0384.1676-.0511l13.5377-2.9453.015-.0072 5.621-1.2175.022-.0073c.051-.0073.095-.0219.146-.0292.007 0 .021-.0073.029-.0073.08-.0146.153-.0291.233-.051h.022c.002 0 .004-.0008.005-.0021.001-.0014.002-.0033.002-.0052.131-.0219.27-.051.401-.0729h.022c.007 0 .007 0 .007-.0073.132-.0219.27-.0437.401-.0656.066-.0073.131-.0219.197-.0292.08-.0145.153-.0218.226-.0291.073-.0146.146-.0219.219-.0292.019-.006.038-.0085.058-.0073.022 0 .044-.0073.066-.0073.024-.0059.048-.0084.073-.0073.291-.0291.575-.051.859-.0583.123-.0044.244-.0038.366-.0041.159.0005.319 0 .474.0114.099.0056.196.011.293.0166.035.0027.07.0035.105.0065.12.0125.236.0287.355.0423.037.0049.074.0112.111.0167.188.0292.376.0671.557.1074.051.0146.109.0219.16.0364.095.0219.183.0511.278.0802.094.0292.189.0584.277.0875.094.0292.189.0656.277.1021.087.0364.182.0729.269.1166 2.508 1.13 4.571 3.9878 5.891 10.0825l4.053 18.6268 4.936 22.7093 1.99 9.1348 1.99 9.1347 1.991 9.1348v.0073l1.983 9.1276 1.99 9.127v.008l1.983 9.142 1.99 9.134 1.99 9.128v.007l1.983 9.142 1.991 9.128 1.99 9.142 1.983 9.142 1.99 9.127 1.99 9.142 1.983 9.142 1.99 9.128 1.991 9.142 1.881 8.654c.036.16.065.32.087.481h.007c.008.043.015.094.022.138.284 1.727.164 3.496-.35 5.169-.007.053-.022.104-.043.153-.051.153-.102.306-.161.452-.006.026-.016.05-.029.073-.036.088-.066.168-.102.248 0 .015-.007.022-.007.029-.008.007-.008.015-.015.029-.022.043-.042.086-.058.131-.11.248-.219.489-.35.729-.015.03-.037.066-.051.095-.437.811-.981 1.559-1.619 2.224-1.28 1.337-2.93 2.263-4.738 2.661h-.008l-82.9123 18.029v.007c1.0426.678 2.0949 1.341 3.1567 1.99 2.0704 1.269 4.1773 2.484 6.3207 3.645l80.6669-17.547c2.895-.659 5.41-2.439 6.994-4.949 1.584-2.511 2.108-5.547 1.456-8.444z" fill="#000"/><path d="m168.822 237.736c-.029.138-.058.269-.088.408-.011.014-.016.033-.014.051l-.109.394c-.009.039-.021.079-.037.116-.021.095-.051.188-.087.277-.051.153-.102.306-.161.452-.022.066-.051.132-.073.197-.02.052-.047.1-.068.151-.004.01-.008.02-.012.031-.018.044-.042.085-.06.129-.108.248-.219.492-.345.729-.018.034-.039.066-.057.099-.435.811-.979 1.558-1.616 2.222-1.28 1.337-2.93 2.264-4.738 2.661h-.008l-82.9123 18.036v-.007c-.3499-.226-.7072-.452-1.0571-.692-3.4848-2.304-6.8505-4.761-10.0971-7.371-1.5601-1.247-3.0911-2.53-4.5929-3.849-.0729-.066-.1458-.131-.2187-.19-.0656-.065-.1385-.124-.2041-.182-.226-.197-.4447-.394-.6707-.598-.0511-.044-.1021-.087-.1531-.138-.0511-.044-.1021-.088-.1604-.139-.9332-.846-1.8566-1.701-2.7703-2.566-2.6609-2.53-5.2174-5.162-7.6694-7.895-.5614-.627-1.1155-1.254-1.6622-1.889l-28.0094-128.776-12.31336-56.6017c-.18044-.8293-.3164-1.592-.43159-2.3236-.00816-.0519-.01631-.1036-.02442-.1552-.05227-.3426-.09966-.678-.13852-.9997-.00313-.0273-.00546-.053-.00867-.0802-.0783-.6724-.12992-1.3049-.1504-1.892l-.00051-.0099c-.00824-.237-.0086-.463-.00787-.6867 0-.11.00087-.2197.00342-.3266.00474-.2013.0121-.3992.02435-.5899.00729-.116.01852-.2266.02851-.3387.02828-.3129.06673-.6112.11533-.8948.01866-.1094.03433-.2228.05584-.3281.02916-.143.06496-.277.09966-.4125.02851-.1118.05737-.223.08938-.3298.01924-.064.03332-.1353.05373-.1975.02187-.0678.05023-.1272.07385-.1929.02515-.0697.05183-.1371.07837-.2045.053-.1345.10695-.2675.16622-.3937.0226-.0483.0479-.0931.07152-.1403.19343-.3875.42941-.7522.70359-1.0875.05103-.0623.10097-.1262.15419-.1857.02223-.0248.04199-.0532.06437-.0776.08019-.0875.16771-.175.25521-.2552 0-.0019.0007-.0037.0021-.0051s.0032-.0021.0051-.0021c.0773-.0788.1602-.1518.2479-.2187.0802-.073.1676-.1459.2625-.2188h.0073s0-.0073.0072 0c.0875-.0729.175-.1385.2698-.2041 0 0 0 .0073.0073 0h.0073c.0875-.0656.1822-.1239.277-.1822h.0073c0-.0073.0073 0 .0073 0 .0948-.0657.1968-.1167.2916-.175h.0146c.102-.0583.2041-.1094.3062-.1604h.0073c0-.0073 0-.0073.0072 0 .1021-.0583.2042-.1021.3062-.1531h.0146c.1094-.051.2114-.0948.3208-.1385h.0073c.0073-.0073.0073 0 .0073 0 .1093-.051.2187-.0875.3353-.1312h.0073s0-.0073.0073 0c.1094-.0438.2187-.0875.3354-.124h.0073c.8742-.2772 1.7624-.5084 2.6609-.6926l19.2027-4.1773c.231-.0486.4699-.0461.6999.0073.0073 0 .0073.0073.0146 0 .051.0219.1093.0364.1603.0583h.0073c.1263.0479.2482.1064.3645.175h.0073c.0511.0364.1094.0729.1604.1166h.0073c.1121.0888.2192.1837.3208.2843.0073.0073 0 .0073 0 .0073.1073.1099.2071.2268.2989.35.0437.0656.0875.1385.1385.2041.0365.0656.0729.1385.1094.2114.1621.3075.2799.6364.3499.9769v.0073l.1458.6488c.0609.2839.1388.5639.2333.8384.1889.7759.6592 1.4539 1.3195 1.9028.0073-.0073.0073 0 .0146.0073.0981.0534.2001.0994.3051.1376.0393.0154.0772.0326.1178.0447h.0073c.0701.0304.1435.0525.2187.0656 1.0313.1183 2.0759.024 3.0693-.2771l35.9631-7.8225h.0073l8.4276-1.8371c.6164-.1183 1.2251-.2741 1.8225-.4666.3137-.0984.6128-.2381.8895-.4156.2069-.1229.394-.2767.5548-.4559.0298-.0339.0583-.0695.086-.1056.0568-.0702.1092-.1439.1567-.2207.0776-.1262.1426-.2598.1941-.3987.2357-.8519.2332-1.7521-.0073-2.6027l-.0875-.4009-.051-.2552c-.1519-.5205-.1603-1.0724-.0243-1.5973.1361-.5249.4114-1.0032.7971-1.3844.0073 0 .0073 0 .0145-.0073.0458-.0358.0946-.0675.1458-.0948.1467-.0951.3099-.1619.4812-.1968l13.5385-2.9453.014-.0073 5.621-1.2175.022-.0073c.051-.0073.095-.0218.146-.0291.087-.0219.175-.0365.262-.0584.01.0003.02-.0022.029-.0073.132-.0218.27-.051.401-.0729.008 0 .022-.0072.029-.0072.132-.0219.27-.0438.401-.0657.066-.0072.132-.0218.197-.0291.088-.0146.168-.0292.248-.0365.131-.0146.263-.0364.394-.0437.29-.0295.577-.0489.861-.0583.078-.003.156-.0031.234-.0043.204-.0024.406 0 .607.0101.127.0059.254.0153.381.0265.145.0132.288.0308.432.0516.204.0291.406.0679.606.1131.053.0121.105.025.158.0384 1.394.3468 2.641 1.1303 3.559 2.2361.19.2187.372.4592.554.7144.175.2552.35.5249.525.8165.272.4673.518.9492.736 1.4435.081.175.153.3572.234.5395.226.5613.444 1.1591.648 1.8153.27.8748.525 1.8371.759 2.9015l8.989 41.3288 1.99 9.1348 1.983 9.1347 1.99 9.1421 1.983 9.1279 1.99 9.134 1.983 9.142 1.991 9.135 1.982 9.135 1.991 9.142 1.99 9.135 1.983 9.142 1.99 9.135 1.983 9.134 1.99 9.142 1.991 9.135 1.983 9.135 1.99 9.142 1.881 8.654c.036.16.065.32.087.481.028.1.045.202.051.306.03.153.051.306.066.459.122 1.151.07 2.313-.153 3.449z" fill="#fff" stroke="#000" stroke-miterlimit="10" stroke-width=".75"/><path d="m124.113 27.7293 4.052 18.6292-115.2478 25.0673-4.05207-18.6292c-2.56998-11.8155 1.64837-13.3449 7.01797-14.5129l19.2003-4.1761c1.1159-.2428 2.3037.8257 2.6463 2.4011l.1429.6561c.8009 3.6825 2.819 3.2573 5.2871 2.7205l44.3939-9.6555c2.4943-.5425 4.4964-.978 3.6926-4.6736l-.1428-.6562c-.3426-1.5753.2811-3.0378 1.4167-3.2848l19.1939-4.1748c5.389-1.1728 10.044-.5354 12.399 10.2889z" fill="#e55b2d"/><g fill="#fff"><path d="m70.3688 28.9763-12.1044 2.6328c-.1966.0411-.4014.0032-.5704-.1054-.1689-.1086-.2884-.2792-.3327-.475-.043-.1974-.0063-.4037.1022-.5741.1084-.1704.2798-.291.4768-.3356l12.1043-2.6328c.0983-.0214.1999-.0232.2988-.0054.099.0179.1935.0551.2782.1094.0846.0544.1577.1249.215.2076.0574.0826.0979.1757.1193.274.0413.1977.0027.4037-.1073.5732-.1099.1694-.2824.2885-.4798.3313z"/><path d="m32.7385 39.2857-.1439.2238-.0821.1279c-.2856-.1839-.6045-.3098-.9387-.3705-.3342-.0606-.6771-.0548-1.009.017-.332.0719-.6465.2084-.9257.4019-.2792.1934-.5175.4399-.7014.7254l-.0027.0043-.12-.0771-.2252-.1504.1907-.2614c.1365-.1716.2917-.3276.4626-.465.2048-.1609.4304-.2933.6707-.3937.1246-.0187.2438-.0634.35-.1312l.3215-.07.243-.0528c.2299-.0228.4618-.0179.6906.0146.1668.0246.3313.0624.4921.113.1697.0519.334.1197.4909.2026l.2355.1344z"/><path d="m29.6394 40.8464-.3582-.2246c.1514-.2383.3482-.4445.5792-.6067.231-.1623.4917-.2775.7673-.339.2755-.0615.5604-.0681.8385-.0195.2781.0487.5439.1516.7822.303l.0197.0126-.2312.3596c-.1902-.1234-.4028-.2081-.6258-.2493-.2229-.0412-.4518-.0381-.6735.0091-.2218.0473-.432.1377-.6188.2662s-.3464.2926-.4698.4828l-.008.0123z"/><path d="m31.8103 40.6769-.2246.3582c-.0978-.0631-.2072-.1064-.3217-.1273-.1146-.0208-.2321-.0189-.3459.0056-.1139.0246-.2218.0713-.3175.1375-.0958.0663-.1776.1508-.2407.2486l-.0017.0026-.3582-.2246c.1925-.2865.4879-.488.825-.5626s.6899-.0166.9853.162z"/><path d="m31.295 41.3733c.0129.053.0098.1085-.0089.1597s-.0522.0956-.0962.1278c-.0439.0321-.0965.0505-.1509.0528s-.1083-.0116-.1548-.0399c-.0466-.0283-.0837-.0698-.1066-.1192-.023-.0494-.0307-.1045-.0224-.1584.0084-.0538.0325-.104.0694-.1441s.0848-.0683.1377-.0812l.0065-.0015c.0692-.0169.1423-.0056.2032.0314s.1046.0967.1215.166z"/><path d="m14.7697 43.7509c-.0386-.2022.0044-.4114.1195-.582s.2931-.2888.495-.3287.4114.0017.5828.1157.2907.2912.3319.4929c.0412.2016.001.4114-.1119.5835s-.2893.2926-.4907.3351c-.2014.0426-.4114.0037-.5842-.108-.1729-.1118-.2945-.2874-.3383-.4885z"/><path d="m17.1784 43.2269c-.0394-.2028.003-.4129.1179-.5845s.2931-.2908.4956-.3316c.2025-.0407.4128.0003.5852.1141s.2927.2912.3348.4934c.042.2022.0024.4128-.1103.5859-.1126.1731-.2892.2947-.4912.338-.2019.0434-.4128.0052-.5866-.1064-.1738-.1115-.2965-.2873-.3412-.489z"/><path d="m19.5801 42.7043c-.0384-.2021.0047-.4111.1199-.5815.1151-.1704.293-.2883.4948-.328.2018-.0398.4112.002.5823.116.1712.1141.2903.2912.3313.4927s.0007.4111-.1122.583c-.113.1719-.2893.2922-.4906.3345-.2012.0424-.4111.0034-.5837-.1084-.1726-.1117-.294-.2873-.3377-.4883z"/><path d="m21.984 42.1817c-.0407-.2039.0009-.4156.1159-.5888s.2939-.2938.4976-.3354.4156-.0009.5893.1134c.1737.1142.2951.2926.3376.4961s.0026.4156-.1109.5898c-.1134.1742-.2913.2963-.4946.3397-.2034.0434-.4156.0044-.5903-.1083s-.2976-.2901-.3418-.4932z"/><path d="m24.3933 41.6578c-.0394-.2028.0029-.4129.1179-.5845.1149-.1716.293-.2908.4955-.3315.2025-.0408.4129.0002.5852.114.1724.1138.2928.2912.3348.4934.0421.2022.0025.4129-.1102.586s-.2893.2946-.4912.3379c-.2019.0434-.4128.0052-.5867-.1064-.1738-.1115-.2965-.2873-.3412-.489z"/><path d="m113.598 21.0092-6.219 1.356.627 2.8505 6.211-1.3487zm-5.84 1.582 5.577-1.2102.489 2.2381-5.578 1.2175z"/><path d="m112.005 21.845-4.011.8723.414 1.9037 4.011-.8724z"/><path d="m114.29 21.5405-.552.12.336 1.5425.551-.1199z"/><path d="m22.2903 61.9216-4.1008-2.4495 2.7127-3.931.6481.4498-2.2316 3.2355 3.3754 2.023z"/><path d="m116.046 38.207v-.0073c-.076-.341-.251-.6519-.503-.8934s-.571-.4027-.915-.4633c-.344-.0605-.698-.0177-1.018.1231-.32.1407-.59.3732-.778.6678-.187.2947-.283.6383-.276.9876.008.3492.119.6883.319.9744.201.2861.482.5063.807.6328.326.1265.682.1536 1.023.0779l-.008-.0146c.454-.0999.851-.3749 1.103-.7653.253-.3904.341-.8646.246-1.3197zm-1.465 1.6185c-.328.0696-.67.0061-.951-.1764s-.478-.4692-.547-.7969c-.07-.3277-.007-.6697.176-.9506.182-.281.469-.4779.797-.5476v-.0218h.022c.161-.0326.327-.033.489-.0011.161.0318.315.0953.452.1868s.254.2091.345.3462c.092.137.155.2907.186.4523.008 0 .008.0073.008.0146.034.1622.036.3297.005.4926-.031.163-.093.3183-.184.4571s-.208.2584-.345.3519c-.137.0934-.291.159-.453.1929zm1.465-1.6185v-.0073c-.076-.341-.251-.6519-.503-.8934s-.571-.4027-.915-.4633c-.344-.0605-.698-.0177-1.018.1231-.32.1407-.59.3732-.778.6678-.187.2947-.283.6383-.276.9876.008.3492.119.6883.319.9744.201.2861.482.5063.807.6328.326.1265.682.1536 1.023.0779l-.008-.0146c.454-.0999.851-.3749 1.103-.7653.253-.3904.341-.8646.246-1.3197zm-1.465 1.6185c-.328.0696-.67.0061-.951-.1764s-.478-.4692-.547-.7969c-.07-.3277-.007-.6697.176-.9506.182-.281.469-.4779.797-.5476v-.0218h.022c.161-.0326.327-.033.489-.0011.161.0318.315.0953.452.1868s.254.2091.345.3462c.092.137.155.2907.186.4523.008 0 .008.0073.008.0146.034.1622.036.3297.005.4926-.031.163-.093.3183-.184.4571s-.208.2584-.345.3519c-.137.0934-.291.159-.453.1929zm1.465-1.6185v-.0073c-.076-.341-.251-.6519-.503-.8934s-.571-.4027-.915-.4633c-.344-.0605-.698-.0177-1.018.1231-.32.1407-.59.3732-.778.6678-.187.2947-.283.6383-.276.9876.008.3492.119.6883.319.9744.201.2861.482.5063.807.6328.326.1265.682.1536 1.023.0779l-.008-.0146c.454-.0999.851-.3749 1.103-.7653.253-.3904.341-.8646.246-1.3197zm-1.465 1.6185c-.328.0696-.67.0061-.951-.1764s-.478-.4692-.547-.7969c-.07-.3277-.007-.6697.176-.9506.182-.281.469-.4779.797-.5476v-.0218h.022c.161-.0326.327-.033.489-.0011.161.0318.315.0953.452.1868s.254.2091.345.3462c.092.137.155.2907.186.4523.008 0 .008.0073.008.0146.034.1622.036.3297.005.4926-.031.163-.093.3183-.184.4571s-.208.2584-.345.3519c-.137.0934-.291.159-.453.1929zm1.465-1.6185v-.0073c-.076-.341-.251-.6519-.503-.8934s-.571-.4027-.915-.4633c-.344-.0605-.698-.0177-1.018.1231-.32.1407-.59.3732-.778.6678-.187.2947-.283.6383-.276.9876.008.3492.119.6883.319.9744.201.2861.482.5063.807.6328.326.1265.682.1536 1.023.0779l-.008-.0146c.454-.0999.851-.3749 1.103-.7653.253-.3904.341-.8646.246-1.3197zm-1.465 1.6185c-.328.0696-.67.0061-.951-.1764s-.478-.4692-.547-.7969c-.07-.3277-.007-.6697.176-.9506.182-.281.469-.4779.797-.5476v-.0218h.022c.161-.0326.327-.033.489-.0011.161.0318.315.0953.452.1868s.254.2091.345.3462c.092.137.155.2907.186.4523.008 0 .008.0073.008.0146.034.1622.036.3297.005.4926-.031.163-.093.3183-.184.4571s-.208.2584-.345.3519c-.137.0934-.291.159-.453.1929zm2.653-1.5529c-.033-.0109-.062-.0311-.084-.0583-.022-.0271-.036-.06-.039-.0948l-.073-.3353c-.01-.0332-.011-.0686-.002-.102.009-.0335.027-.0638.053-.0876l.605-.5467-1.575-1.7206-.598.5468c-.026.0241-.058.0408-.092.0485-.035.0077-.071.0061-.105-.0047-.094-.0365-.196-.0657-.291-.0948-.033-.0087-.062-.0262-.085-.0507-.024-.0244-.04-.0548-.046-.0878l-.175-.802-2.297.5031.175.8019c.004.0323.001.0652-.011.0957-.011.0305-.03.0577-.055.0793-.076.0906-.145.1882-.204.2916-.025.0256-.057.0433-.092.0511s-.071.0052-.104-.0074l-.781-.2479-.721 2.2163.787.2552c.032.0115.06.031.081.0565.022.0256.037.0563.043.0893.006.0493.015.0981.029.1458.007.051.022.102.029.1458.01.0339.011.0695.003.1039-.008.0343-.024.0662-.046.0929l-.613.5468 1.575 1.7205.605-.5541c.026-.0244.058-.0414.092-.0491.035-.0077.071-.0058.105.0054.092.0358.187.0651.284.0875.034.0098.065.0285.089.0541.025.0257.042.0573.05.0917l.175.7946 2.296-.503-.182-.8311c-.007-.0339-.005-.0691.005-.1022s.028-.0631.053-.0873c.082-.0578.158-.1237.226-.1969.024-.0243.055-.0413.089-.049.033-.0077.068-.0059.101.0053l.787.2551.722-2.2235zm-.255 1.8882-.299-.0948c-.12-.0462-.25-.0564-.376-.0292s-.241.0906-.331.1823c-.055.0593-.116.1131-.182.1604-.1.0804-.176.1872-.218.3083-.043.1211-.05.2517-.023.377l.066.2989-1.312.2916-.059-.2843c-.025-.1249-.085-.2401-.173-.3328s-.199-.1592-.322-.1921c-.083-.0165-.163-.0409-.241-.0729-.12-.0435-.25-.0522-.376-.0251-.125.027-.239.0888-.331.1782l-.233.2187-.904-.9915.226-.2114c.102-.0878.175-.2043.21-.3343.035-.1299.03-.2675-.014-.3947l-.058-.2625c-.015-.1334-.068-.2597-.153-.3633-.086-.1036-.2-.18-.328-.2199l-.292-.0948.409-1.2758.299.0948c.12.0432.25.0517.375.0246.125-.027.24-.0886.332-.1777l.182-.175c.1-.0784.176-.1839.219-.304.043-.12.05-.2498.022-.374l-.066-.3062 1.312-.2843.066.3062c.027.1245.089.2388.178.3302s.201.1563.325.1874l.24.0802c.12.0435.249.0523.373.0252s.237-.089.327-.1783l.234-.2114.904.9915-.234.2114c-.101.0884-.173.2053-.207.3353s-.028.2672.018.3937l.051.2333c.011.1338.062.2611.146.3652.085.1041.199.1802.328.2181l.299.102zm-.933-1.9611c-.076-.341-.251-.6519-.503-.8934s-.571-.4027-.915-.4633c-.344-.0605-.698-.0177-1.018.1231-.32.1407-.59.3732-.778.6678-.187.2947-.283.6383-.276.9876.008.3492.119.6883.319.9744.201.2861.482.5063.807.6328.326.1265.682.1536 1.023.0779l-.008-.0146c.454-.0999.851-.3749 1.103-.7653.253-.3904.341-.8646.246-1.3197zm-1.465 1.6258c-.328.0696-.67.0061-.951-.1764s-.478-.4692-.547-.7969c-.07-.3277-.007-.6697.176-.9506.182-.281.469-.4779.797-.5476v-.0218h.022c.161-.0326.327-.033.489-.0011.161.0318.315.0953.452.1868s.254.2091.345.3462c.092.137.155.2907.186.4523.008 0 .008.0073.008.0146.034.1622.036.3297.005.4926-.031.163-.093.3183-.184.4571s-.208.2584-.345.3519c-.137.0934-.291.159-.453.1929zm1.465-1.6185v-.0073c-.076-.341-.251-.6519-.503-.8934s-.571-.4027-.915-.4633c-.344-.0605-.698-.0177-1.018.1231-.32.1407-.59.3732-.778.6678-.187.2947-.283.6383-.276.9876.008.3492.119.6883.319.9744.201.2861.482.5063.807.6328.326.1265.682.1536 1.023.0779l-.008-.0146c.454-.0999.851-.3749 1.103-.7653.253-.3904.341-.8646.246-1.3197zm-1.465 1.6185c-.328.0696-.67.0061-.951-.1764s-.478-.4692-.547-.7969c-.07-.3277-.007-.6697.176-.9506.182-.281.469-.4779.797-.5476v-.0218h.022c.161-.0326.327-.033.489-.0011.161.0318.315.0953.452.1868s.254.2091.345.3462c.092.137.155.2907.186.4523.008 0 .008.0073.008.0146.034.1622.036.3297.005.4926-.031.163-.093.3183-.184.4571s-.208.2584-.345.3519c-.137.0934-.291.159-.453.1929zm1.465-1.6185v-.0073c-.076-.341-.251-.6519-.503-.8934s-.571-.4027-.915-.4633c-.344-.0605-.698-.0177-1.018.1231-.32.1407-.59.3732-.778.6678-.187.2947-.283.6383-.276.9876.008.3492.119.6883.319.9744.201.2861.482.5063.807.6328.326.1265.682.1536 1.023.0779l-.008-.0146c.454-.0999.851-.3749 1.103-.7653.253-.3904.341-.8646.246-1.3197zm-1.465 1.6185c-.328.0696-.67.0061-.951-.1764s-.478-.4692-.547-.7969c-.07-.3277-.007-.6697.176-.9506.182-.281.469-.4779.797-.5476v-.0218h.022c.161-.0326.327-.033.489-.0011.161.0318.315.0953.452.1868s.254.2091.345.3462c.092.137.155.2907.186.4523.008 0 .008.0073.008.0146.034.1622.036.3297.005.4926-.031.163-.093.3183-.184.4571s-.208.2584-.345.3519c-.137.0934-.291.159-.453.1929z"/><path d="m97.3404 64.7296-70.6373 15.3642.9623 4.4243 70.6374-15.3642z" stroke="#000" stroke-miterlimit="10" stroke-width=".75"/></g><path d="m97.3782 64.6736-4.5227.9837.9837 4.5228 4.5227-.9838z" fill="#e55b2d"/><path d="m97.2834 68.3582-.3465.3985-.9718-.8336-.3557-.3076c.0515-.0354.0978-.0779.1375-.1261.0757-.0909.1277-.1991.1516-.3149l.3796.323z" fill="#fff"/><path d="m95.9609 66.1799c-.2311-.1943-.5299-.2889-.8307-.2629s-.5789.1704-.7732.4014c-.1943.2311-.2889.5299-.2629.8307.0259.3007.1703.5789.4014.7732.2063.1731.467.2679.7363.2679s.53-.0948.7363-.2679c.0452-.0426.0866-.089.124-.1385.0764-.0853.1402-.181.1895-.2843.0941-.2255.1138-.475.0561-.7124s-.1897-.4501-.3768-.6072zm-.1167 1.1592c-.0168.0652-.0494.1252-.0948.175v-.0219c-.0427.045-.089.0865-.1385.1239-.1353.0912-.2988.1311-.4609.1123s-.3121-.0949-.4231-.2146c-.1109-.1197-.1753-.2751-.1817-.4382-.0063-.163.0459-.323.1471-.451.0003-.0038.0019-.0073.0046-.01s.0062-.0043.01-.0046c.0506-.0719.1149-.1332.1893-.1803.0743-.047.1572-.0789.2439-.0938.0868-.015.1756-.0126.2614.007.0858.0195.1669.0558.2386.1068.1103.0805.1937.1925.2393.3213.0455.1288.051.2684.0158.4004-.0058.0587-.0232.1157-.0509.1677z" fill="#fff"/><path d="m28.0527 80.7152-.2363.0514.5839 2.6849.2363-.0514z" fill="#000"/><path d="m121.598 56.683c-.092-.4196-.012-.8582.22-1.2194s.598-.6154 1.018-.7067c.419-.0913.858-.0121 1.219.22.361.2322.615.5983.707 1.0179l.001.0066.081.374c.483-.4626.802-1.07.909-1.7302s-.005-1.3371-.318-1.9283c-.312-.5911-.809-1.0641-1.415-1.3474-.606-.2832-1.288-.3613-1.942-.2223-.654.1391-1.245.4875-1.683.9927-.438.5051-.7 1.1393-.745 1.8065-.046.6673.128 1.3311.494 1.8908.366.5598.904.985 1.533 1.2113zm.738-3.8338c.118-.0364.242-.0492.365-.0376s.242.0473.352.105c.109.0578.205.1365.284.2317s.138.2049.175.323c.015.0506.026.1025.033.155.023.1778-.005.3584-.081.5207s-.197.2995-.348.3954c-.152.0959-.327.1466-.506.146-.18-.0006-.355-.0524-.506-.1493s-.271-.2348-.346-.3976-.101-.3436-.077-.5212.099-.3445.215-.4811c.116-.1367.268-.2373.44-.29z" fill="#e55b2d"/><path d="m124.056 56.925-.009.0035.009-.0035c.191-.0975.371-.2137.539-.3469-.168.1332-.348.2494-.539.3469z" fill="#e55b2d"/><path d="m133.109 69.056-115.2477 25.0674 1.9875 9.1376 115.2472-25.0676z" fill="#fff" stroke="#000" stroke-miterlimit="10" stroke-width=".75"/><path d="m137.084 87.3308-115.2481 25.0672 1.9875 9.137 115.2476-25.0669z" fill="#fff" stroke="#000" stroke-miterlimit="10" stroke-width=".75"/><path d="m141.056 105.599-115.2474 25.067 1.9874 9.138 115.248-25.068z" fill="#fff" stroke="#000" stroke-miterlimit="10" stroke-width=".75"/><path d="m145.033 123.874-115.2478 25.067 1.9874 9.137 115.2474-25.067z" fill="#fff" stroke="#000" stroke-miterlimit="10" stroke-width=".75"/><path d="m149.007 142.148-115.2472 25.068 1.9874 9.137 115.2478-25.067z" fill="#fff" stroke="#000" stroke-miterlimit="10" stroke-width=".75"/><path d="m152.982 160.423-115.2476 25.067 1.9874 9.138 115.2472-25.068z" fill="#fff" stroke="#000" stroke-miterlimit="10" stroke-width=".75"/><path d="m156.959 178.698-115.2481 25.067 1.9875 9.137 115.2476-25.067z" fill="#fff" stroke="#000" stroke-miterlimit="10" stroke-width=".75"/><path d="m160.931 196.972-115.2474 25.068 1.9874 9.137 115.248-25.067z" fill="#fff" stroke="#000" stroke-miterlimit="10" stroke-width=".75"/><path d="m166.896 224.387h-.014l-108.3708 23.57c-2.6609-2.53-5.2174-5.162-7.6694-7.896l114.0492-24.816h.015z" fill="#fff" stroke="#000" stroke-miterlimit="10" stroke-width=".75"/><path d="m168.821 237.736c-.029.138-.059.269-.088.408-.011.014-.016.033-.014.051l-.11.394c-.008.04-.021.079-.036.116-.022.095-.051.188-.088.277-.051.153-.102.306-.16.452-.022.066-.051.132-.073.197-.022.037-.036.08-.058.124-.008.022-.015.037-.022.058-.695 1.603-1.772 3.012-3.135 4.105l-87.6587 19.071c-3.4847-2.303-6.8504-4.76-10.0971-7.37l101.5688-22.097h.007c.007.044.015.095.022.138.013.056.023.112.029.168.029.153.051.306.066.459.139 1.15.088 2.316-.153 3.449z" fill="#fff" stroke="#000" stroke-miterlimit="10" stroke-width=".75"/><path d="m140.804 183.263-82.236 17.887-15.1325-69.574 35.4332-35.048 46.8033 17.161z" fill="#e55b2d"/><path d="m119.242 106.474-72.9608 15.869 16.3323 75.088 72.9615-15.87z" fill="#fff" stroke="#000" stroke-miterlimit="10" stroke-width=".75"/><path d="m129.459 131.104 11.345 52.159-82.2363 17.887-11.345-52.159c3.967 1.234 7.8963 2.579 11.8404 3.866 3.9442 1.287 7.8727 2.66 11.7947 4.035 4.3436 1.511 8.7076 3.053 13.0918 4.625l.1094-.099c-.0394.008-.0528.073-.0802.106l9.799 3.52c2.4708-2.421 4.957-4.866 7.4452-7.27-.033.007-.072-.047-.117-.064.044.019.09.03.138.032 3.316-3.233 6.648-6.449 9.994-9.647 3.002-2.867 6.016-5.718 9.043-8.553 3.086-2.816 6.082-5.668 9.178-8.438z" fill="#e55b2d"/><path d="m129.459 131.104c-2.814 3.059-5.703 6.053-8.557 9.052s-5.776 5.966-8.693 8.931c-3.039 3.094-6.089 6.169-9.151 9.222l-.275.287-8.157 8.106-.4112.385-.5208-.182-10.7751-3.995-.3805-.138c-4.0634-1.508-8.1206-3.041-12.1717-4.598-3.8678-1.473-7.7347-2.974-11.6009-4.503-3.8474-1.569-7.7131-3.066-11.5431-4.68 3.967 1.234 7.8963 2.579 11.8404 3.866 3.9442 1.287 7.8728 2.66 11.7947 4.034 4.3436 1.512 8.7076 3.054 13.0918 4.626l9.8281 3.527c2.4708-2.421 4.957-4.867 7.4453-7.271 3.316-3.233 6.648-6.448 9.994-9.647 3.002-2.866 6.016-5.717 9.043-8.552 3.107-2.848 6.102-5.7 9.199-8.47z" fill="#000"/><path d="m84.0537 161.419c-.0394.009-.0528.073-.0802.107l-1.073 1.388c-1.6828 2.188-3.4337 4.315-5.229 6.397-2.1974 2.54-4.4407 5.09-6.7223 7.56-2.2816 2.469-4.6139 4.895-7.0101 7.279-2.3963 2.384-4.8143 4.732-7.3688 6.958 2.019-2.728 4.1678-5.334 6.3543-7.893 2.1865-2.558 4.4537-5.093 6.7237-7.553 2.2699-2.46 4.6241-4.911 7.0138-7.294 1.9037-1.898 3.8512-3.786 5.8579-5.591.4646-.424.9306-.842 1.4112-1.256z" fill="#000"/><path d="m138.432 173.302c-3.248-.964-6.443-2.091-9.593-3.269-3.151-1.177-6.291-2.433-9.414-3.706s-6.2-2.653-9.255-4.085c-2.484-1.151-4.961-2.358-7.386-3.646-.526-.27-1.039-.544-1.554-.824-.033.008-.072-.046-.117-.064.044.02.09.031.138.032l1.808.569c2.576.815 5.118 1.72 7.651 2.654 3.164 1.175 6.284 2.435 9.397 3.724 3.112 1.289 6.2 2.652 9.253 4.078s6.102 2.894 9.072 4.537z" fill="#000"/><path d="m106.921 144.936-14.1829-9.583 9.5829-14.183-5.5608-3.757-9.5831 14.182-14.1834-9.583-3.7574 5.561 14.1833 9.583-9.5838 14.183 5.561 3.758 9.5839-14.183 14.1823 9.583z" fill="#e55b2d"/><path d="m223.682 98.8179s-4.202 14.6851-2.484 25.3081" stroke="#000" stroke-miterlimit="10" stroke-width=".75"/><path d="m226.79 105.14c.261-1.031-.082-2.008-.768-2.182-.685-.174-1.453.521-1.714 1.553-.262 1.031.082 2.008.767 2.182s1.453-.522 1.715-1.553z" fill="#000"/><path d="m225.763 112.739c.106-1.059-.379-1.974-1.082-2.045-.704-.07-1.36.731-1.466 1.79s.379 1.974 1.082 2.044c.704.071 1.36-.731 1.466-1.789z" fill="#000"/><path d="m225.04 120.448c.003-1.064-.568-1.928-1.275-1.93s-1.282.859-1.285 1.923.568 1.928 1.275 1.93 1.283-.859 1.285-1.923z" fill="#000"/></svg>