<svg fill="none" height="324" viewBox="0 0 300 324" width="300" xmlns="http://www.w3.org/2000/svg"><path d="m149.997 321.592c-2.778 0-5.573-.079-8.307-.235-18.77-1.014-37.169-5.633-54.1919-13.605 0 0-.1734-.084-.2193-.107-.1322-.058-.2419-.108-.3523-.162l-.145-.073c-4.7318-2.241-9.3396-4.736-13.8033-7.473-17.698-10.871-32.9314-25.317-44.7251-42.414-.5101-.732-1.0111-1.476-1.5114-2.227-.7399-1.121-1.4895-2.294-2.2332-3.493-9.139-14.657-15.60999-30.817-19.11322-47.731-.58967-2.814-1.10274-5.711-1.52411-8.607-.73021-5-1.20333-10.034-1.4175-15.083-.01054-.095-.01277-.175-.01431-.231-.08638-2.116-.13077-4.218-.13077-6.248 0-.732.0077-1.457.02408-2.181.06505-4.974.38299-9.94.95259-14.881.16307-1.45.37115-3.034.65506-4.978l.11492-.73c.03385-.24.08262-.537.13223-.825.28768-1.803.57691-3.43.8819-4.95 1.29167-6.611 3.0396-13.125 5.23123-19.495l.1269-.375c1.9629-5.661 4.2729-11.195 6.9169-16.571.0496-.11.1323-.277.2154-.446.311-.629.5904-1.196.8856-1.753 8.2357-16.1286 19.3746-30.6005 32.8583-42.6897 1.9999-1.7984 4.1555-3.6312 6.4075-5.4491l.634-.5116h.0173l.0781-.0615c.2111-.1668.423-.3343.6408-.5011 2.2332-1.7563 4.6528-3.5373 7.1677-5.274.172-.118.9623-.6581.9623-.6581 3.5076-2.3775 7.1407-4.6198 10.7997-6.6653 1.0262-.5716 2.0508-1.1343 3.0896-1.6811.7903-.4154 1.5869-.8268 2.3896-1.2342 1.9546-.9825 3.7131-1.8261 5.3792-2.5803.4717-.2209.9796-.4462 1.4873-.6648.2404-.1097.5154-.2313.7985-.353 2.5293-1.1013 5.0713-2.1221 7.5472-3.0307.3749-.1419.7722-.2855 1.1692-.4282 1.1703-.4274 2.4253-.8623 3.9383-1.3649l.354-.1172.028-.0037s.622-.2036.719-.2344l.27-.2696.624-.0046c1.563-.489 2.957-.9036 4.25-1.2642l.59-.1769h.025c.117-.0323.235-.0631.355-.0946 5.857-1.5967 11.806-2.829 17.815-3.6898.895-.1323 1.808-.251 2.73-.3606 14.304-1.7858 28.791-1.4852 43.009.8922 3.842.64 7.671 1.4371 11.379 2.3685 15.132 3.7945 29.565 9.969 42.759 18.2928 1.74 1.0937 3.461 2.2318 5.112 3.3818.823.5665 1.656 1.1486 2.473 1.7451 1.634 1.1692 3.275 2.4067 4.859 3.6649.721.5589 1.454 1.1426 2.18 1.7421 14.151 11.5317 26.043 25.5863 35.073 41.4518.781 1.38 1.402 2.504 1.955 3.542.804 1.496 1.618 3.086 2.414 4.719 0 0 .12.245.153.317 9.717 20.1 14.762 42.137 14.757 64.461-.005 22.325-5.059 44.36-14.785 64.455-.819 1.692-1.675 3.371-2.544 4.984-4.962 9.297-10.905 18.036-17.726 26.069-1.871 2.202-3.85 4.397-5.883 6.524-4.717 4.932-9.769 9.533-15.121 13.769-3.292 2.609-6.762 5.123-10.314 7.469-24.119 15.95-52.406 24.433-81.323 24.389z" fill="#fff"/><path d="m149.996 28.5147c8.108-.0045 16.203.6671 24.2 2.0077 3.784.6307 7.517 1.4076 11.199 2.3307 14.896 3.7352 29.103 9.8134 42.092 18.0072 1.699 1.0693 3.374 2.177 5.023 3.323.815.5616 1.63 1.1308 2.43 1.7154 1.623 1.1615 3.218 2.364 4.785 3.6076.723.5615 1.438 1.1307 2.146 1.7153 13.925 11.3641 25.634 25.2006 34.537 40.8144.654 1.154 1.3 2.315 1.923 3.484.823 1.531 1.616 3.085 2.377 4.647.039.084.085.169.123.253 9.578 19.791 14.554 41.493 14.554 63.48 0 21.986-4.976 43.688-14.554 63.479-.8 1.654-1.633 3.287-2.5 4.9-4.885 9.154-10.736 17.759-17.453 25.668-1.869 2.2-3.8 4.341-5.792 6.423-4.642 4.857-9.616 9.385-14.884 13.554-3.27 2.592-6.654 5.043-10.154 7.353-23.741 15.704-51.587 24.055-80.052 24.007-2.746 0-5.472-.077-8.177-.231-18.474-1.008-36.584-5.554-53.3443-13.391-.0616-.031-.1308-.062-.2-.1-.1077-.047-.2154-.093-.3231-.147l-.1384-.069c-4.6731-2.211-9.2232-4.674-13.6305-7.377-17.4399-10.678-32.4406-24.904-44.0296-41.752-.5077-.731-1-1.462-1.4923-2.2-.7461-1.131-1.4769-2.274-2.1922-3.431-8.9897-14.431-15.3592-30.336-18.81495-46.983-.5846-2.793-1.08459-5.616-1.49996-8.469-.72481-4.96-1.19209-9.954-1.39996-14.962-.00636-.025-.00896-.051-.0077-.076-.08451-2.054-.1281-4.118-.13076-6.193 0-.715.00769-1.423.02307-2.13.0633-4.903.37652-9.799.93844-14.669.18461-1.639.40768-3.277.64614-4.908.03846-.223.06923-.454.10769-.684.03846-.27.08461-.547.13077-.816.26153-1.638.54613-3.269.8692-4.884 1.29443-6.637 3.05782-13.174 5.27682-19.561v-.008c1.9298-5.571 4.2033-11.017 6.8075-16.307.0769-.169.1615-.339.2461-.508.2693-.546.5385-1.092.8231-1.631 8.1219-15.8799 19.0906-30.1339 32.3607-42.0524 2.0539-1.8461 4.1589-3.6358 6.3152-5.3691h.0077c.2077-.1692.4231-.3385.6385-.5077.223-.1769.4461-.3538.6769-.5308 2.3-1.8074 4.6589-3.5433 7.0767-5.2075.3154-.2154.6308-.4308.9462-.6385v-.0077c3.4383-2.3307 6.9818-4.5178 10.6305-6.5613 1.0076-.5616 2.0153-1.1154 3.0383-1.6538.7769-.4077 1.5615-.8154 2.3538-1.2154 1.7461-.8769 3.5076-1.7307 5.2922-2.5384.4769-.2231.9615-.4384 1.4461-.6461.2692-.1231.5308-.2385.8-.3539 2.4385-1.0615 4.9154-2.0563 7.4306-2.9845.3846-.1462.7695-.2846 1.1535-.4231 1.285-.4692 2.585-.9153 3.885-1.3461.015 0 .023-.0077.038-.0077.254-.0846.516-.1692.769-.2538.262-.0846.531-.1692.793-.2462l.007-.0057.008.0057c.008-.0077.008-.0077.016-.0077 1.492-.4692 2.992-.923 4.507-1.3461h.008c.1-.0307.208-.0615.308-.0923h.007c.2-.0615.4-.1154.608-.1692 5.772-1.5761 11.637-2.7913 17.561-3.6384.885-.1307 1.777-.2461 2.677-.3538 6.022-.7544 12.084-1.1321 18.153-1.1308zm0-4.6152c-6.261.0002-12.515.3898-18.728 1.1666-1.016.1217-1.934.2429-2.777.3676-6.097.8742-12.134 2.1248-18.077 3.7449l-.05.0131h-.061l-.671.2043-.111.033-.026.0076-.062.0171c-1.221.3409-2.526.7273-3.971 1.1761h-1.207l-.002.002h-.021l-.551.5498-.597.1979c-1.49.4939-2.804.9491-4.0164 1.3923-.3818.1374-.7834.2821-1.1855.4347-2.505.9198-5.0811 1.9547-7.6575 3.0762-.2632.1128-.5399.2347-.8249.3645-.5307.2281-1.0384.4549-1.5094.675-1.6677.7553-3.4453 1.6077-5.4332 2.6062-.8231.4154-1.6288.8342-2.427 1.2529-1.178.6203-2.2968 1.2389-3.1404 1.7091-3.7202 2.0797-7.4102 4.3573-10.9734 6.7727l-2.0258 1.3732v.0251c-2.1827 1.5347-4.2733 3.0865-6.2414 4.6326l-.0859.0662h-.026l-1.2761 1.024c-2.288 1.8468-4.4756 3.7066-6.5018 5.5279-13.6935 12.2794-25.0063 26.9776-33.3714 43.3579-.3099.588-.5931 1.162-.8668 1.718-.0875.174-.1843.37-.2757.567-2.6753 5.444-5.013 11.047-6.99984 16.778l-.25384.734v.011c-2.16898 6.358-3.90339 12.856-5.19125 19.45-.3043 1.521-.59783 3.169-.8929 5.014-.04885.286-.09715.579-.13846.866-.01839.112-.03546.224-.05238.336-.0137.091-.02708.181-.04216.269l-.01.058-.00846.058c-.28461 1.946-.49598 3.553-.665596 5.058-.577368 5.018-.9000815 10.061-.9668987 15.111-.01576882.733-.0236153 1.465-.0236153 2.205 0 2.048.0446137 4.177.132458 6.33.002615.105.008436.209.017462.311.219182 5.106.698743 10.198 1.43681 15.255.42722 2.935.94867 5.879 1.54958 8.749 3.55926 17.179 10.13219 33.591 19.41439 48.477.7552 1.219 1.5165 2.41 2.2579 3.534.6172.926 1.0928 1.627 1.5538 2.29 11.9761 17.356 27.443 32.021 45.4112 43.057 4.534 2.779 9.2138 5.313 14.0195 7.59l.0142.007.0751.038c.1423.071.2802.134.4172.195.0383.019.0762.037.1138.055l.0549.028.0517.024c17.291 8.097 35.98 12.789 55.045 13.819 2.775.157 5.614.238 8.431.238 29.369.044 58.099-8.573 82.597-24.772 3.611-2.387 7.136-4.94 10.476-7.588 5.434-4.301 10.564-8.973 15.353-13.981 2.065-2.16 4.074-4.389 5.973-6.623 6.93-8.162 12.967-17.041 18.009-26.486.876-1.628 1.747-3.336 2.582-5.062 9.879-20.412 15.012-42.795 15.014-65.472s-5.125-45.061-15-65.476c-.033-.071-.068-.142-.103-.212l.012.027-.026-.056-.027-.056c-.811-1.662-1.638-3.28-2.46-4.808-.564-1.06-1.194-2.2-1.972-3.5742-9.174-16.1201-21.256-30.3998-35.636-42.1151-.672-.5558-1.403-1.1403-2.213-1.7692-1.601-1.2708-3.26-2.5219-4.932-3.719-.907-.6624-1.82-1.296-2.516-1.7751-1.654-1.1518-3.404-2.3098-5.183-3.4287-13.402-8.4538-28.061-14.7246-43.43-18.5781-3.765-.9452-7.656-1.7549-11.56-2.4057-8.248-1.3801-16.596-2.0726-24.958-2.0704z" fill="#000"/><path d="m280.831 9.91513v227.46387c-.8 1.653-1.633 3.287-2.5 4.899-4.885 9.155-10.736 17.76-17.453 25.669-1.869 2.2-3.8 4.341-5.792 6.423-4.642 4.857-9.616 9.385-14.884 13.553h-103.228c-4.308 0-7.808-4.438-7.808-9.915v-268.09287c0-5.47678 3.5-9.91513 7.808-9.91513h136.05c4.315.00015384 7.807 4.4385 7.807 9.91513z" fill="#000"/><path d="m278.332 20.1534v222.1256c-4.885 9.154-10.736 17.759-17.453 25.668h-129.035v-247.7936z" fill="#fff" stroke="#000" stroke-miterlimit="10" stroke-width=".75"/><path d="m224.988 10.1973h-39.999c-.531 0-.962.4305-.962.9615v1.0692c0 .531.431.9615.962.9615h39.999c.531 0 .961-.4305.961-.9615v-1.0692c0-.531-.43-.9615-.961-.9615z" fill="#fff" stroke="#000" stroke-miterlimit="10" stroke-width=".75"/><path d="m204.997 283.106c2.995 0 5.423-2.428 5.423-5.423s-2.428-5.423-5.423-5.423-5.423 2.428-5.423 5.423 2.428 5.423 5.423 5.423z" fill="#fff" stroke="#000" stroke-miterlimit="10" stroke-width=".75"/><path d="m266.05 54.1808h-121.874v1.7153h121.874z" fill="#000"/><path d="m266.05 59.5037h-121.874v1.7154h121.874z" fill="#000"/><path d="m266.05 221.6h-121.874v1.715h121.874z" fill="#000"/><path d="m266.05 226.923h-121.874v1.715h121.874z" fill="#000"/><path d="m178.22 236.272-4.322 6.773-3.353-3.392 1.13-1.115 1.954 1.984 3.422-5.358c-1.165-.823-2.598-1.174-4.011-.983s-2.701.911-3.605 2.013c-.904 1.103-1.357 2.507-1.268 3.93.09 1.423.715 2.76 1.75 3.741 1.036.98 2.404 1.532 3.83 1.545 1.426.012 2.803-.516 3.856-1.478 1.052-.962 1.7-2.287 1.815-3.709.115-1.421-.313-2.833-1.198-3.951z" fill="#16ca4d"/><path d="m187.906 239.715c.003-.405.076-.805.215-1.185.143-.387.359-.742.638-1.046.297-.336.664-.603 1.074-.782.411-.179.855-.267 1.303-.257.54-.009 1.072.129 1.539.4.418.243.757.601.977 1.031l-.962.7c-.077-.174-.183-.332-.315-.469-.116-.118-.248-.219-.393-.3-.141-.072-.291-.126-.446-.162-.149-.03-.301-.045-.454-.046-.288-.007-.574.059-.83.193-.232.121-.434.291-.593.5-.158.21-.278.447-.353.699-.175.525-.175 1.091 0 1.616.085.258.218.498.392.708.17.2.376.368.608.492.238.122.501.185.769.184.155-.002.31-.023.461-.061.159-.033.312-.09.454-.169.146-.085.281-.188.4-.308.126-.135.228-.291.3-.462l1.039.6c-.104.246-.255.469-.447.654-.193.189-.413.347-.653.469-.49.263-1.037.401-1.593.4-.445.004-.885-.096-1.284-.292-.38-.19-.719-.451-1-.769-.28-.318-.502-.682-.654-1.077-.146-.404-.212-.832-.192-1.261z" fill="#16ca4d"/><path d="m200.379 238.579c-.154-.41-.386-.787-.684-1.108-.279-.323-.622-.585-1.008-.769-.401-.201-.844-.301-1.292-.293-.443-.006-.882.086-1.285.27-.387.187-.735.449-1.023.769-.284.311-.511.671-.669 1.061-.163.398-.246.824-.246 1.254.002.632.179 1.25.512 1.786.332.537.808.97 1.372 1.253.409.193.856.29 1.308.284.455.014.908-.075 1.323-.261.381-.175.726-.42 1.016-.723.288-.304.512-.663.661-1.054.162-.398.246-.824.246-1.254.001-.416-.077-.829-.231-1.215zm-1.215 1.984c-.081.256-.206.495-.369.708-.167.202-.371.372-.6.5-.257.122-.538.186-.823.184-.28.007-.557-.054-.808-.176-.228-.127-.431-.294-.6-.493-.16-.211-.285-.448-.369-.7-.085-.266-.129-.543-.131-.823.016-.262.068-.521.154-.769.082-.253.207-.489.369-.7.165-.218.379-.394.626-.513.246-.119.516-.178.79-.172.267-.007.532.054.769.177.238.108.444.275.6.485.17.207.298.444.377.7.092.264.139.543.138.823-.003.261-.044.52-.123.769z" fill="#16ca4d"/><path d="m202.82 238.838v4.2h-1.269v-6.554h.984l3.416 4.3v-4.292h1.277v6.546h-1.039z" fill="#16ca4d"/><path d="m208.588 243.038v-6.554h4.407v1.115h-3.13v1.692h2.6v1.031h-2.6v2.716z" fill="#16ca4d"/><path d="m213.889 243.038v-6.554h1.277v6.554z" fill="#16ca4d"/><path d="m220.341 240.571c.361-.159.663-.428.861-.769.214-.349.323-.752.316-1.162 0-.264-.052-.525-.154-.769-.1-.258-.246-.495-.431-.7-.185-.209-.41-.378-.661-.5-.262-.126-.549-.189-.839-.185h-2.9v6.554h1.254v-2.2h1.254l1.338 2.2h1.454zm-.169-1.492c-.033.125-.093.24-.177.338-.069.094-.158.17-.262.223-.098.056-.21.085-.323.085h-1.6v-2.123h1.539c.114-.002.228.024.33.077.109.054.206.13.285.223.088.098.156.213.2.338.053.135.079.279.077.423-.001.142-.024.282-.069.416z" fill="#16ca4d"/><path d="m228.01 243.038v-4.339l-1.684 3.231h-.692l-1.693-3.231v4.339h-1.253v-6.554h1.369l1.938 3.731 1.954-3.731h1.361v6.554z" fill="#16ca4d"/><path d="m235.204 241.922v1.116h-4.554v-6.554h4.47v1.115h-3.2v1.539h2.761v1.038h-2.761v1.708z" fill="#16ca4d"/><path d="m241.609 238.486c-.125-.386-.332-.74-.608-1.038-.281-.308-.628-.547-1.015-.7-.446-.186-.925-.275-1.408-.262h-2.377v6.554h2.4c.457.007.912-.074 1.339-.238.382-.147.729-.374 1.017-.666s.51-.642.652-1.027c.284-.851.284-1.771 0-2.623zm-1.216 2.123c-.076.253-.201.488-.369.693-.166.195-.373.35-.608.454-.264.114-.55.171-.838.169h-1.108v-4.323h1.108c.285-.007.568.045.831.154.235.098.443.251.607.446.174.198.303.432.377.684.094.28.138.574.131.87.006.29-.038.579-.13.853z" fill="#16ca4d"/><path d="m253.181 209.654h-96.367v-81.521l48.176-30.5993 48.191 30.5993z" fill="#16ca4d"/><path d="m247.742 93.6567h-85.498v109.7583h85.498z" fill="#fff" stroke="#000" stroke-miterlimit="10" stroke-width=".75"/><path d="m199.789 159.324-19.576-19.814 6.577-6.5 11.438 11.576 23.753-37.245 7.8 4.969z" fill="#16ca4d"/><path d="m253.181 148.578v61.076h-96.367v-61.076c4.139 2.308 8.208 4.8 12.308 7.2s8.161 4.892 12.215 7.385c4.515 2.746 9.03 5.546 13.53 8.361l.146-.085c-.046 0-.076.077-.115.1 3.364 2.077 6.731 4.167 10.1 6.269 3.354-2.115 6.73-4.246 10.1-6.33-.039 0-.07-.069-.116-.1.046.031.095.057.146.077 4.498-2.805 9.008-5.595 13.531-8.369 4.056-2.477 8.123-4.934 12.199-7.369 4.139-2.377 8.185-4.831 12.323-7.139z" fill="#16ca4d"/><g fill="#000"><path d="m253.181 148.578c-3.892 2.731-7.853 5.385-11.776 8.046-3.923 2.662-7.916 5.262-11.9 7.869-4.154 2.723-8.315 5.421-12.484 8.092l-.377.262-11.1 7.077-.554.33-.538-.33-11.085-7.092-.392-.247c-4.179-2.676-8.346-5.379-12.5-8.107-3.969-2.592-7.93-5.223-11.884-7.854-3.954-2.63-7.884-5.353-11.777-8.046 4.139 2.308 8.208 4.8 12.308 7.2s8.161 4.892 12.215 7.385c4.515 2.746 9.03 5.546 13.53 8.361 3.385 2.087 6.762 4.182 10.131 6.284 3.354-2.115 6.73-4.246 10.1-6.33 4.497-2.805 9.007-5.595 13.53-8.369 4.056-2.477 8.123-4.933 12.2-7.369 4.169-2.4 8.215-4.854 12.353-7.162z"/><path d="m194.997 171.401c-.046 0-.076.077-.115.1l-1.538 1.292c-2.416 2.039-4.893 3.992-7.408 5.892-3.077 2.308-6.207 4.616-9.361 6.816-3.154 2.199-6.354 4.353-9.615 6.438-3.262 2.084-6.539 4.123-9.939 5.992 2.923-2.561 5.962-4.954 9.031-7.277s6.223-4.615 9.361-6.823c3.139-2.207 6.369-4.369 9.623-6.453 2.592-1.662 5.231-3.3 7.915-4.831.623-.362 1.246-.708 1.885-1.062z"/><path d="m252.949 197.931c-3.4-1.869-6.7-3.908-9.938-5.992-3.239-2.085-6.477-4.254-9.631-6.438-3.154-2.185-6.292-4.477-9.361-6.816-2.5-1.9-4.977-3.846-7.377-5.876l-1.538-1.308c-.039 0-.07-.069-.116-.1.046.031.095.057.146.077.639.361 1.262.707 1.885 1.069 2.685 1.538 5.308 3.169 7.915 4.831 3.254 2.084 6.438 4.253 9.608 6.453 3.169 2.2 6.292 4.477 9.361 6.823s6.123 4.716 9.046 7.277z"/><path d="m163.767 88.4261c-.512-4.228-.512-8.5025 0-12.7305.513 4.228.513 8.5025 0 12.7305z"/><path d="m158.351 90.4491c-1.686-1.3008-3.282-2.7143-4.777-4.2307-1.518-1.4905-2.931-3.084-4.23-4.7691 3.353 2.6276 6.377 5.6493 9.007 8.9998z"/><path d="m155.961 95.7028c-2.112.2737-4.24.4022-6.369.3846-2.127.0238-4.253-.1022-6.362-.3769 2.109-.2775 4.235-.406 6.362-.3846 2.129-.0202 4.257.1058 6.369.3769z"/><path d="m157.984 101.11c-2.63 3.351-5.652 6.375-9 9.008 2.625-3.358 5.647-6.385 9-9.015z"/><path d="m245.65 88.4261c-.267-2.1123-.393-4.2401-.377-6.3691-.015-2.1269.116-4.2524.392-6.3614.513 4.228.513 8.5025 0 12.7305z"/><path d="m251.064 90.4491c2.631-3.3505 5.655-6.3722 9.008-8.9998-1.299 1.6852-2.712 3.2787-4.231 4.7691-1.495 1.5165-3.091 2.9299-4.777 4.2307z"/><path d="m253.457 95.7028c2.112-.2711 4.24-.3971 6.369-.3769 2.127-.0216 4.253.1069 6.361.3846-2.109.2749-4.234.4009-6.361.3769-2.129.0176-4.257-.1109-6.369-.3846z"/><path d="m251.434 101.11c3.352 2.628 6.374 5.653 8.999 9.008-1.683-1.304-3.276-2.72-4.769-4.239-1.518-1.49-2.931-3.084-4.23-4.769z"/><path d="m166.104 189.95-16.537-3.099c-.265-.044-.516-.146-.737-.298-.22-.153-.405-.352-.539-.584-.135-.232-.216-.491-.239-.758s.013-.536.106-.787l13.004-38.515c.204-.555.594-1.023 1.104-1.324.509-.3 1.108-.414 1.692-.323l16.516 3.078c.267.043.521.145.744.299.222.154.408.356.543.59.135.235.216.496.237.766s-.019.541-.116.794l-13.004 38.514c-.196.557-.581 1.026-1.088 1.328-.507.301-1.104.414-1.686.319z"/><path d="m164.066 189.647-16.515-3.078c-.267-.043-.521-.145-.744-.299s-.408-.356-.543-.59c-.135-.235-.216-.496-.237-.766s.018-.541.115-.794l13.004-38.514c.204-.556.594-1.024 1.104-1.324s1.108-.415 1.692-.323l16.516 3.099c.266.04.52.14.743.292.222.151.408.351.544.584.135.233.216.493.237.762.021.268-.018.538-.115.789l-13.005 38.515c-.203.555-.593 1.023-1.103 1.324-.51.3-1.108.414-1.693.323z"/></g><path d="m167.752 185.378-20.721-3.88 11.661-34.549 20.741 3.88z" fill="#fafafa"/><path d="m167.752 185.378-20.721-3.88 11.661-34.549 20.741 3.88z" fill="#fff" stroke="#000" stroke-miterlimit="10" stroke-width=".75"/><path d="m42.5838 77.485c2.1674 10.8369 6.8921 32.511-.6502 39.771 0 0 2.9476 10.837 22.9526 10.837 22.0206 0 10.5334-10.837 10.5334-10.837-12.0289-2.861-11.7039-11.768-9.6228-20.1345z" fill="#fff" stroke="#000" stroke-miterlimit="10" stroke-width=".75"/><path d="m86.4092 120.963c0-1.626-2.4709-3.295-6.0686-4.595-1.929-.716-3.8146-3.425-6.7405-3.923-2.1674-.369-4.9634 1.495-7.7376 1.3-2.3191-.173-4.7466-2.427-7.4341-2.449-2.6876-.022-4.8549 2.168-7.4991 2.319-1.6472 0-3.2944-1.994-4.6816-1.864s-2.8826 2.493-4.2047 2.731c-1.7555.303-3.7279-1.452-4.9199-1.062-1.9077.607-2.1674 3.186-3.0127 3.88-2.4275 1.972-4.3348 3.836-2.1674 4.183 5.3537.845 5.5701-2.168 10.9886-2.168s5.4185 2.168 10.8369 2.059c5.4184-.108 5.3968-2.167 10.8369-2.167 5.4402 0 5.3318 1.495 10.8369 2.059 3.6408.61 7.3654.507 10.9669-.303z" fill="#000"/><path d="m20.0456 148.204c-.1538.362-.3077.723-.4538 1.092v.008c-.6231 1.461-1.2384 2.938-1.8615 4.454-1.1615 2.838-2.3307 5.753-3.423 8.661-.0085.014-.0138.03-.0154.046-.2538.662-.5 1.316-.7461 1.977-2.0384 5.5-4.01531 11.077-5.72296 16.669-.85382 2.746-1.58457 5.507-2.38455 8.284-.33076-3.046-.55896-6.12-.6846-9.223-.00636-.025-.00895-.051-.00769-.076-.08451-2.054-.1281-4.118-.13077-6.193 0-.715.0077-1.423.02308-2.13.0633-4.903.37652-9.799.93844-14.669l.02307-.185c.17692-1.577.3923-3.154.62307-4.723.03846-.223.06922-.454.10769-.684.03846-.27.08461-.547.13076-.816.26153-1.638.54614-3.269.86921-4.884.19999-1.023.41537-2.046.63845-3.069l5.8537 2.646 2.4538 1.107 2.923 1.323z" fill="#fff" stroke="#000" stroke-miterlimit="10" stroke-width=".75"/><path d="m106.128 121.928c-.008-.008-.008-.008-.016-.008-.038-.008-.076-.015-.107-.023-.477-.092-2.546-.508-5.592-1.069-4.0849-.739-9.9386-1.739-16.0923-2.562-2.9076-.392-5.8768-.738-8.769-1.007-.0615-.008-.1154-.008-.1769-.016-11.0892-.768-22.2184-.762-33.3069.016-.0461 0-.0846.007-.1308.007-2.8768.177-5.7485.406-8.6151.685-6.246.623-12.4561 1.51-18.6303 2.661-.0769.193-.1539.393-.2308.593-.6461 1.661-1.2692 3.346-1.8538 5.038v.008c-.1538.438-.3.877-.4461 1.315-1.6787 4.977-3.07831 10.044-4.19222 15.177-.22307 1.023-.43845 2.046-.63845 3.069-.32306 1.615-.60767 3.246-.8692 4.884-.04616.27-.09231.546-.13077.816-.03846.23-.06923.461-.10769.684-.23076 1.569-.44614 3.146-.62306 4.723l8.69209 5.546 5.6999 3.639c4.5229 26.56 4.6383 41.745 3.9537 60.521-.0615 1.562-.1231 3.146-.1923 4.769v.085h73.6904c.2693-1.646.5308-3.264.7846-4.854 2.415-15.092 4.292-28.015 5.723-39.068 1.246-9.584 2.169-17.769 2.831-24.761.8-8.454 1.23-15.161 1.4-20.484.615-18.623-1.846-20.277-2.054-20.384z" fill="#16ca4d"/><path d="m77.9597 231.479s-.0923 1.131-.2769 3.23c-.7308 8.377-2.8307 32.254-5.7614 61.845-5.2397-3.339-10.2601-7.011-15.0304-10.992-.6692-.554-1.3307-1.123-1.9923-1.7-.0546-.039-.1061-.083-.1538-.131 0 0-4.6845-3.007-4.8691-4.423-2.146-2.03-4.2254-4.13-6.2383-6.299-.0077 0-.0077-.008-.0154-.016-1.6998-1.823-3.346-3.687-4.9383-5.592-3.023-3.585-5.8666-7.313-8.5306-11.184-.5077-.731-1-1.462-1.4923-2.2-.7461-1.131-1.4768-2.274-2.1922-3.431-2.5306-4.069-4.8613-8.266-6.9921-12.592.6077-1.1 1.2641-2.195 1.9691-3.285.6923-1.099 1.4385-2.199 2.2384-3.315h.0693l6.6229.008 3.4461.008z" fill="#fff" stroke="#000" stroke-miterlimit="10" stroke-width=".75"/><path d="m104.736 312.092c-5.5453-1.813-10.9756-3.961-16.2613-6.43-.0615-.031-.1308-.062-.2-.1-.1077-.047-.2154-.093-.3231-.147l-.1384-.069c-4.6731-2.211-9.2232-4.674-13.6304-7.377-.7616-.461-1.5154-.93-2.2615-1.415-5.2397-3.339-10.2601-7.011-15.0304-10.992-.6692-.554-1.3307-1.123-1.9923-1.7-.0546-.039-.1061-.083-.1538-.131 0 0-4.6845-3.007-4.8691-4.423-.6462-4.961-1.2615-9.676-1.8461-14.061-1.9077-14.438-3.4307-25.399-4.1461-30.538-.2923-2.099-.4538-3.23-.4538-3.23h53.9909s.1154 1.131.3231 3.23c.9923 9.916 4.0923 41.453 6.9923 77.383z" fill="#fff" stroke="#000" stroke-miterlimit="10" stroke-width=".75"/><path d="m108.234 139.126v.433c-.216 12.116-1.885 32.511-6.914 66.799l-10.2731-40.248z" fill="#16ca4d"/><path d="m175.706 180.566 3.728-14.804-1.626-3.771-12.566 14.12-1.5-.92-1.322-6.654-2.189 2.731-1.385 13.308c-.897 1.662-1.548 3.444-1.933 5.293-6.563 5.681-13.571 10.825-20.957 15.383-1.804 1.049-3.706 1.92-5.679 2.601-.55.207-1.124.346-1.708.415l-.199-.61-1.149-3.424-1.083-3.533c-2.818-9.515-5.224-19.506-7.608-29.303l-6.784-29.823-18.0976 3.771c2.0374 10.295 4.3349 20.374 7.0656 30.495 2.731 10.122 5.505 20.178 9.103 30.344l1.409 3.792 1.539 3.815c.346.904.759 1.78 1.235 2.623.597 1.122 1.324 2.17 2.168 3.121 1.965 2.163 4.543 3.675 7.39 4.334 2.383.544 4.857.544 7.239 0 1.817-.374 3.584-.956 5.267-1.734 2.794-1.309 5.439-2.915 7.889-4.79 4.38-3.372 8.456-7.121 12.181-11.205 1.864-1.951 3.598-3.988 5.289-6.047 1.457-1.775 2.865-3.56 4.254-5.474l.102-.009zm-48.008 27.634c.135.022.267.057.395.104-.472.015-.677-.052-.395-.104z" fill="#fff" stroke="#000" stroke-miterlimit="10" stroke-width=".75"/><path d="m78.0205 35.0693c-3.6068-2.1325-7.6993-3.3067-11.8881-3.4108-4.1888-.104-8.3345.8655-12.0428 2.8163-3.7082 1.9508-6.8557 4.818-9.1428 8.3288-2.2871 3.5109-3.6378 7.5485-3.9236 11.7289-1.4738 17.9457-2.4709 25.5101 5.2017 35.9568 11.5521 15.6697 33.9411 13.5457 40.725-3.6196 6.1339-15.4533 7.4993-42.2205-8.9294-51.8004z" fill="#fff" stroke="#000" stroke-miterlimit="10" stroke-width=".75"/><path d="m82.4865 43.0453c2.5575 6.1554 1.8856 18.336-8.1927 17.0356s-7.1306-11.4654-7.1306-11.4654z" fill="#000"/><path d="m91.047 52.43c.899-3.8791.398-7.9512-1.4144-11.4967-1.8125-3.5456-4.8197-6.3365-8.4905-7.8797-66.5386-32.922228-73.75593 63.2226-57.739 68.1204 37.6475 11.531 63.8077 6.112 63.8077 6.112s-7.5165-14.7197-10.0344-29.0095c-.9205-.2569-1.7481-.7722-2.3846-1.4851-2.3689-2.5575-3.6377-5.9436-3.5329-9.4281-.0243-.8009.1145-1.5983.4079-2.3439.2933-.7455.7352-1.4237 1.2988-1.9932.5635-.5695 1.237-1.0186 1.9794-1.3198s1.5383-.4484 2.3394-.4326c3.2198-13.3816 13.7626-8.8438 13.7626-8.8438z" fill="#000"/><path d="m22.58 227.164-3.316 6.502c-.2601.521.3467 1.041 1.1922 1.041h77.397c.6719 0 1.2137-.325 1.257-.737l.6719-6.502c0-.455-.5418-.846-1.257-.846h-74.6663c-.2422-.032-.4885.001-.7134.097-.225.095-.4202.249-.5654.445z" fill="#000"/><path d="m32.6149 235.465h-1.9506c-.4118 0-.7154-.195-.6719-.455l.9321-8.669c0-.239.3685-.455.7802-.455h1.994c.3902 0 .6936.216.6719.455l-.9319 8.669c-.0701.155-.1881.282-.3365.364s-.3193.114-.4873.091z" fill="#fff" stroke="#000" stroke-miterlimit="10" stroke-width=".75"/><path d="m81.0772 235.465h-1.9941c-.3901 0-.6935-.195-.6718-.455l.9319-8.669c0-.239.3902-.455.7802-.455h1.9941c.4118 0 .7153.216.6719.455l-.932 8.669c-.0217.304-.3685.455-.7802.455z" fill="#fff" stroke="#000" stroke-miterlimit="10" stroke-width=".75"/><path d="m106.11 121.916c7.478 1.908 12.701 32.706 12.701 32.706l-28.8694 19.615s-11.5957-36.672-5.7651-44.973c6.0036-8.496 11.0102-10.122 21.9335-7.348z" fill="#16ca4d"/><path d="m118.811 154.622-28.8694 19.615s-11.5957-36.672-5.7651-44.973" stroke="#000" stroke-miterlimit="10" stroke-width=".75"/><path d="m19.9913 166.104c-1.5388-7.049-3.6009-13.973-6.169-20.715" stroke="#000" stroke-miterlimit="10" stroke-width=".75"/></svg>