<svg fill="none" height="331" viewBox="0 0 302 331" width="302" xmlns="http://www.w3.org/2000/svg"><g fill="#fff"><path d="m301 180.424c.033 22.687-5.102 45.083-15.016 65.49-.825 1.706-1.685 3.391-2.579 5.055-5.04 9.446-11.077 18.324-18.007 26.484-1.929 2.27-3.921 4.479-5.976 6.627-4.79 5.01-9.921 9.683-15.357 13.983-3.373 2.675-6.865 5.204-10.476 7.588-24.495 16.202-53.225 24.818-82.593 24.769-2.833 0-5.646-.08-8.436-.238-19.062-1.041-37.746-5.731-55.0385-13.817-.0635-.032-.1349-.064-.2064-.104-.1111-.047-.2222-.095-.3333-.15l-.1428-.072c-4.8215-2.282-9.516-4.822-14.0632-7.611-17.9935-11.018-33.4704-25.694-45.4273-43.078-.5238-.754-1.0317-1.508-1.5396-2.27-.7699-1.166-1.5238-2.346-2.2619-3.539-9.275-14.889-15.84677-31.3-19.41217-48.475-.60315-2.881-1.11901-5.794-1.54757-8.738-.74782-5.117-1.22993-10.269-1.44441-15.436-.00655-.026-.00923-.053-.00793-.08-.0872-2.119-.13217-4.248-.13492-6.388 0-.738.00794-1.468.02381-2.199.0653-5.058.38846-10.109.96823-15.134.19047-1.691.42062-3.381.66665-5.063.03968-.231.07142-.469.1111-.707.03968-.278.0873-.563.13492-.841.26984-1.691.56348-3.373.8968-5.04 1.33553-6.847 3.15486-13.591 5.4443-20.182v-.008c1.99109-5.748 4.33679-11.367 7.02359-16.824.0794-.175.1667-.35.254-.524.2778-.564.5555-1.127.8492-1.683 8.3796-16.3842 19.6966-31.0906 33.388-43.3875 2.119-1.9047 4.2909-3.7512 6.5157-5.5395h.0079c.2143-.1746.4365-.3492.6587-.5238.2302-.1826.4603-.3651.6984-.5476 2.373-1.8649 4.8068-3.6559 7.3014-5.3729.3254-.2222.6508-.4444.9762-.6587v-.0079c3.5475-2.4049 7.2035-4.6614 10.9679-6.7697 1.0397-.5794 2.0793-1.1508 3.1348-1.7063.8016-.4206 1.6111-.8413 2.4286-1.2539 1.8015-.9048 3.6189-1.7857 5.4601-2.619.4921-.2302.9921-.4524 1.4921-.6667.2777-.127.5476-.246.8253-.365 2.5159-1.0952 5.0714-2.1217 7.6665-3.0793.3968-.1508.7936-.2937 1.1908-.4365 1.325-.4841 2.666-.9444 4.007-1.3889.016 0 .024-.0079.04-.0079.262-.0873.532-.1746.794-.2619.27-.0873.547-.1746.817-.254.008-.0079.008-.0079.016 0 .008-.0079.008-.0079.016-.0079 1.54-.4841 3.087-.9524 4.651-1.3889h.008c.103-.0317.214-.0634.317-.0952h.008c.206-.0635.413-.119.627-.1746 5.956-1.6261 12.007-2.8798 18.118-3.7539.913-.1349 1.834-.2539 2.762-.365 14.533-1.8155 29.252-1.5108 43.698.9047 3.904.6508 7.756 1.4524 11.555 2.4047 15.368 3.8538 30.027 10.1249 43.427 18.5789 1.754 1.1031 3.482 2.2459 5.183 3.4285.841.5793 1.682 1.1666 2.507 1.7697 1.675 1.1985 3.321 2.4392 4.937 3.7222.746.5793 1.484 1.1666 2.214 1.7698 14.368 11.7248 26.448 26.0005 35.634 42.11.675 1.19 1.341 2.389 1.984 3.595.849 1.579 1.667 3.183 2.452 4.794.04.087.088.174.127.261 9.913 20.41 15.048 42.809 15.016 65.499z" stroke="#000" stroke-miterlimit="10" stroke-width=".75"/><path d="m285.984 11.2299v234.6841c-.826 1.706-1.685 3.391-2.579 5.055-5.041 9.446-11.078 18.324-18.008 26.484-1.928 2.27-3.92 4.479-5.976 6.627-4.789 5.01-9.921 9.683-15.357 13.983h-106.505c-4.444 0-8.055-4.579-8.055-10.229v-276.6041c0-5.65066 3.611-10.2299 8.055-10.2299h140.369c4.453 0 8.056 4.57924 8.056 10.2299z" stroke="#000" stroke-miterlimit="10" stroke-width=".75"/><path d="m283.406 21.7931v229.1759c-5.04 9.446-11.077 18.324-18.007 26.484h-133.131v-255.6599z" stroke="#000" stroke-miterlimit="10" stroke-width=".75"/><path d="m228.368 11.5209h-41.269c-.547 0-.992.4442-.992.992v1.1032c0 .5479.445.992.992.992h41.269c.548 0 .992-.4441.992-.992v-1.1032c0-.5478-.444-.992-.992-.992z" stroke="#000" stroke-miterlimit="10" stroke-width=".75"/><path d="m207.744 293.093c3.09 0 5.595-2.505 5.595-5.595s-2.505-5.595-5.595-5.595c-3.091 0-5.596 2.505-5.596 5.595s2.505 5.595 5.596 5.595z" stroke="#000" stroke-miterlimit="10" stroke-width=".75"/></g><path d="m257.455 206.198h-99.426v-84.108l49.705-31.571 49.721 31.571z" fill="#16ca4d"/><path d="m251.845 86.5189h-88.212v113.2431h88.212z" fill="#fff" stroke="#000" stroke-miterlimit="10" stroke-width=".75"/><path d="m202.37 154.271-20.198-20.444 6.785-6.706 11.802 11.944 24.507-38.427 8.047 5.127z" fill="#16ca4d"/><path d="m257.455 143.184v63.014h-99.426v-63.014c4.27 2.381 8.468 4.952 12.698 7.428 4.23 2.477 8.421 5.048 12.603 7.619 4.659 2.833 9.317 5.722 13.96 8.627l.151-.087c-.048 0-.079.079-.119.103 3.471 2.143 6.944 4.299 10.42 6.468 3.46-2.183 6.945-4.381 10.421-6.532-.04 0-.072-.071-.119-.103.046.033.097.059.15.08 4.64-2.895 9.294-5.773 13.96-8.635 4.185-2.556 8.381-5.09 12.587-7.603 4.27-2.452 8.444-4.984 12.714-7.365z" fill="#16ca4d"/><path d="m167.615 196.98-17.062-3.198c-.273-.045-.533-.15-.76-.307-.228-.158-.418-.363-.557-.603-.139-.239-.223-.506-.247-.781-.023-.276.014-.554.11-.813l13.417-39.737c.21-.573.612-1.056 1.138-1.366s1.144-.428 1.747-.334l17.04 3.176c.275.045.537.15.767.309s.421.366.56.609c.14.242.223.512.245.79s-.019.558-.119.819l-13.417 39.737c-.202.574-.599 1.059-1.123 1.369-.523.311-1.139.428-1.739.33z" fill="#000"/><path d="m165.512 196.667-17.039-3.175c-.276-.045-.538-.15-.768-.309s-.421-.367-.56-.609c-.14-.242-.223-.512-.245-.79-.022-.279.019-.558.119-.819l13.417-39.737c.21-.573.612-1.056 1.138-1.366s1.144-.428 1.747-.334l17.04 3.198c.274.042.536.144.766.301.23.156.422.362.561.603.14.24.223.509.245.786s-.019.555-.119.815l-13.417 39.737c-.21.573-.612 1.056-1.138 1.365-.526.31-1.143.428-1.747.334z" fill="#000"/><path d="m169.314 192.262-21.378-4.003 12.03-35.645 21.4 4.003z" fill="#fafafa"/><path d="m169.314 192.262-21.378-4.003 12.03-35.645 21.4 4.003z" fill="#fff" stroke="#000" stroke-miterlimit="10" stroke-width=".75"/><path d="m40.1748 80.9447c2.2362 11.1809 7.1109 33.5423-.6709 41.0343 0 0 3.0412 11.181 23.6812 11.181 22.7196 0 10.8678-11.181 10.8678-11.181-12.4108-2.952-12.0754-12.143-9.9283-20.775z" fill="#fff" stroke="#000" stroke-miterlimit="10" stroke-width=".75"/><path d="m85.3909 125.802c0-1.677-2.5493-3.399-6.2612-4.74-1.9903-.738-3.9357-3.533-6.9545-4.048-2.2363-.38-5.1209 1.543-7.9832 1.342-2.3928-.179-4.8973-2.504-7.6701-2.527-2.7729-.022-5.009 2.236-7.7372 2.393-1.6995 0-3.399-2.057-4.8302-1.923s-2.9741 2.571-4.3381 2.817c-1.8113.313-3.8463-1.498-5.0762-1.096-1.9682.627-2.2362 3.288-3.1083 4.003-2.5045 2.035-4.4723 3.958-2.2362 4.316 5.5236.872 5.747-2.236 11.3375-2.236 5.5904 0 5.5904 2.236 11.1808 2.124 5.5905-.112 5.5681-2.236 11.181-2.236s5.501 1.543 11.1809 2.124c3.7563.63 7.5992.524 11.315-.313z" fill="#000"/><path d="m16.9202 153.909c-.1587.373-.3174.746-.4682 1.127v.007c-.6429 1.508-1.2778 3.032-1.9206 4.596-1.1984 2.928-2.4047 5.936-3.5317 8.936-.0088.014-.0142.031-.0158.047-.2619.683-.5159 1.358-.7699 2.04-2.10308 5.675-4.14271 11.428-5.90457 17.198-.88093 2.833-1.63487 5.682-2.46025 8.547-.34126-3.142-.5767-6.314-.70633-9.515-.00655-.026-.00923-.053-.00793-.08-.0872-2.119-.13217-4.248-.13492-6.388 0-.738.00794-1.468.02381-2.199.0653-5.058.38846-10.109.96823-15.134l.0238-.191c.18254-1.627.40476-3.253.64285-4.872.03968-.231.07142-.469.1111-.707.03968-.278.0873-.563.13492-.841.26984-1.691.56348-3.373.8968-5.04.20634-1.055.42856-2.111.65871-3.166l6.03948 2.73 2.5317 1.143 3.0158 1.365z" fill="#fff" stroke="#000" stroke-miterlimit="10" stroke-width=".75"/><path d="m105.735 126.798c-.008-.008-.008-.008-.016-.008-.04-.008-.079-.016-.111-.024-.492-.095-2.627-.523-5.7696-1.103-4.2142-.762-10.2537-1.793-16.6027-2.642-3-.405-6.0634-.762-9.0474-1.04-.0635-.008-.1191-.008-.1825-.016-11.4412-.792-22.9237-.787-34.3642.016-.0476 0-.0873.008-.1349.008-2.9682.182-5.9311.418-8.8887.706-6.4442.643-12.8515 1.558-19.2217 2.746-.0793.198-.1587.405-.2381.611-.6666 1.714-1.30945 3.452-1.91261 5.198v.008c-.15873.453-.30952.905-.46031 1.357-1.73201 5.135-3.17601 10.363-4.32527 15.659-.23016 1.055-.45238 2.111-.65872 3.166-.33332 1.667-.62697 3.349-.8968 5.04-.04762.278-.09523.563-.13492.841-.03968.238-.07142.476-.1111.707-.23809 1.619-.46031 3.245-.64285 4.872l8.96798 5.722 5.8808 3.754c4.6666 27.404 4.7856 43.071 4.0793 62.443-.0635 1.611-.127 3.246-.1984 4.921v.087c24.1536 2.523 49.5711 2.366 76.0297 0 .2778-1.698.5476-3.368.8095-5.008 2.4915-15.571 4.4285-28.904 5.9045-40.308 1.286-9.889 2.238-18.333 2.921-25.547.825-8.722 1.269-15.643 1.444-21.135.635-19.213-1.905-20.92-2.119-21.031z" fill="#16ca4d"/><path d="m97.0858 243.16c-.2143-2.166-.3334-3.333-.3334-3.333h-20.0788l-45.5384-.072-3.5555-.007-6.8331-.008h-.0715c-.8253 1.15-1.5952 2.285-2.3094 3.42-.7302 1.127-1.4074 2.257-2.0317 3.389 2.1904 4.46 4.5951 8.791 7.2141 12.992.738 1.19 1.492 2.37 2.2618 3.539.5079.762 1.0159 1.516 1.5397 2.27 2.7459 3.992 5.6797 7.838 8.8013 11.539 1.6428 1.969 3.3412 3.892 5.0951 5.77.0079.008.0079.016.0159.016 2.0793 2.238 4.2247 4.405 6.4363 6.5.1905 1.46 5.0237 4.563 5.0237 4.563.0493.049.1023.094.1587.135.6825.595 1.3651 1.183 2.0555 1.754 4.9218 4.108 10.1015 7.896 15.5075 11.341.7699.5 1.5476.984 2.3333 1.46 4.5471 2.789 9.2417 5.329 14.0631 7.611l.1429.072c.1111.055.2222.103.3333.15.0714.04.1429.072.2063.104 5.4535 2.547 11.0562 4.763 16.7775 6.634-2.992-37.07-6.1904-69.609-7.2142-79.839z" fill="#fff" stroke="#000" stroke-miterlimit="10" stroke-width=".75"/><path d="m107.909 144.542v.447c-.224 12.5-1.946 33.543-7.134 68.919l-10.5992-41.526z" fill="#16ca4d"/><path d="m177.522 187.298 3.846-15.274-1.677-3.891-12.966 14.568-1.547-.949-1.364-6.865-2.259 2.817-1.428 13.731c-.925 1.715-1.597 3.554-1.995 5.461-6.771 5.861-14.001 11.169-21.622 15.872-1.861 1.082-3.824 1.981-5.859 2.683-.568.213-1.16.357-1.763.428l-.205-.629-1.185-3.533-1.118-3.645c-2.907-9.817-5.389-20.126-7.849-30.234l-6.999-30.769-18.6726 3.891c2.1021 10.621 4.4725 21.02 7.2906 31.463 2.817 10.443 5.679 20.819 9.391 31.306l1.454 3.913 1.588 3.936c.357.933.783 1.837 1.274 2.706.616 1.158 1.366 2.239 2.236 3.221 2.028 2.231 4.688 3.791 7.626 4.472 2.458.561 5.011.561 7.469 0 1.873-.386 3.697-.987 5.434-1.789 2.882-1.351 5.611-3.008 8.139-4.942 4.519-3.48 8.724-7.348 12.568-11.561 1.923-2.013 3.712-4.115 5.456-6.239 1.504-1.832 2.957-3.673 4.39-5.648l.105-.01zm-49.532 28.511c.139.023.275.059.407.107-.487.015-.698-.053-.407-.107z" fill="#fff" stroke="#000" stroke-miterlimit="10" stroke-width=".75"/><path d="m76.7373 37.1825c-3.7213-2.2002-7.9437-3.4117-12.2655-3.519-4.3217-.1074-8.5991.8928-12.4251 2.9056-3.8259 2.0127-7.0733 4.9709-9.433 8.5932-2.3597 3.6222-3.7533 7.7881-4.0482 12.1011-1.5206 18.5154-2.5493 26.32 5.3668 37.0983 11.9188 16.1673 35.0185 13.9753 42.0179-3.7344 6.3285-15.944 7.7373-43.5608-9.2129-53.4448z" fill="#fff" stroke="#000" stroke-miterlimit="10" stroke-width=".75"/><path d="m81.343 45.4115c2.6388 6.3508 1.9456 18.9181-8.4527 17.5764-10.3982-1.3417-7.3569-11.8293-7.3569-11.8293z" fill="#000"/><path d="m90.1768 55.0943c.9275-4.0023.4106-8.2036-1.4594-11.8617s-4.9727-6.5376-8.76-8.1298c-68.6508-33.96788-76.09728 65.2292-59.5719 70.2832 38.8426 11.897 65.8333 6.306 65.8333 6.306s-7.7552-15.1874-10.353-29.9308c-.9497-.265-1.8035-.7967-2.4602-1.5322-2.4442-2.6387-3.7533-6.1323-3.6451-9.7274-.0251-.8263.1181-1.6491.4208-2.4184s.7586-1.469 1.3401-2.0566 1.2764-1.0509 2.0424-1.3617c.7661-.3108 1.5873-.4627 2.4138-.4463 3.3217-13.8062 14.1992-9.1243 14.1992-9.1243z" fill="#000"/><path d="m105.716 126.786c7.715 1.969 13.104 33.744 13.104 33.744l-29.7859 20.238s-11.9638-37.836-5.9481-46.401c6.1941-8.766 11.3597-10.443 22.63-7.581z" fill="#16ca4d"/><path d="m118.82 160.53-29.7859 20.238s-11.9638-37.836-5.9481-46.401" stroke="#000" stroke-miterlimit="10" stroke-width=".75"/><path d="m16.8649 172.376c-1.5877-7.272-3.7152-14.416-6.3649-21.372" stroke="#000" stroke-miterlimit="10" stroke-width=".75"/><path d="m218.162 166.81 32.211 30.204" stroke="#000" stroke-miterlimit="10" stroke-width=".75"/><path d="m198.615 168.278-26.64 29.421" stroke="#000" stroke-miterlimit="10" stroke-width=".75"/><path d="m257.455 143.184-49.713 30.158-49.713-30.158" stroke="#000" stroke-miterlimit="10" stroke-width=".75"/></svg>