<svg fill="none" height="287" viewBox="0 0 302 287" width="302" xmlns="http://www.w3.org/2000/svg"><path d="m292.239 148.094c.016 15.015-2.427 29.931-7.232 44.157-1.108 3.296-2.354 6.547-3.71 9.733-.03.073-.066.153-.095.226-.204.474-.401.94-.613 1.414-.612 1.407-1.261 2.8-1.932 4.178-.065.153-.138.298-.211.452-.649 1.341-1.319 2.661-2.019 3.973-.11.226-.234.452-.35.67-.35.657-.7 1.305-1.065 1.954-.357.635-.714 1.269-1.079 1.896-.831 1.436-1.676 2.865-2.559 4.265-1.341 2.15-2.736 4.257-4.184 6.32-2.406 3.419-4.958 6.717-7.655 9.893-1.771 2.085-3.601 4.114-5.49 6.088-4.399 4.602-9.113 8.895-14.106 12.845-3.099 2.457-6.306 4.78-9.624 6.97-4.623 3.059-9.429 5.832-14.391 8.303-.721.365-1.45.722-2.179 1.072-9.027 4.314-18.501 7.621-28.25 9.864-10.184 2.341-20.601 3.52-31.05 3.514-2.603 0-5.186-.073-7.749-.219-17.51-.956-34.674-5.264-50.5588-12.692-.0583-.03-.1239-.059-.1896-.095-.102-.044-.2041-.088-.3061-.139l-.1313-.065c-4.429-2.096-8.7414-4.43-12.9184-6.992-16.529-10.121-30.7462-23.603-41.7298-39.571-.4811-.693-.9477-1.386-1.4143-2.086-.7069-1.071-1.3995-2.155-2.0777-3.251-8.5201-13.677-14.5569-28.752-17.8321-44.529-.5541-2.647-1.028-5.322-1.4216-8.027-.687-4.7-1.1299-9.433-1.3269-14.18-.006-.023-.0085-.048-.0073-.072-.0803-1.947-.1216-3.903-.1239-5.869 0-.678.0073-1.349.0219-2.02.0599-4.646.3568-9.286.8894-13.902.175-1.553.3864-3.106.6124-4.651.0364-.212.0656-.431.102-.649.0365-.255.0802-.518.124-.773.2478-1.553.5176-3.098.8238-4.629 1.2268-6.291 2.898-12.486 5.0011-18.54v-.007c1.829-5.2802 3.9838-10.4419 6.452-15.4554.0729-.1604.1531-.3207.2333-.4811.2551-.5177.5103-1.0353.78-1.5456 7.6977-15.0507 18.0935-28.5601 30.6704-39.8561 1.9464-1.7497 3.9415-3.4459 5.9853-5.0887h.0073c.1968-.1603.401-.3207.6051-.4811.2114-.1677.4228-.3354.6415-.5031 2.1798-1.713 4.4156-3.3582 6.7071-4.9355.2989-.2041.5978-.4083.8967-.6051v-.0073c3.2588-2.2089 6.6172-4.2818 10.0753-6.2186.955-.5322 1.91-1.0571 2.8796-1.5674.7364-.3864 1.48-.7728 2.2309-1.1519 1.6549-.8311 3.3243-1.6403 5.0157-2.4058.452-.2114.9113-.4156 1.3706-.6124.2551-.1166.503-.226.7582-.3353 2.3112-1.0061 4.6582-1.949 7.0422-2.8287.365-.1385.729-.2697 1.094-.401 1.217-.4447 2.449-.8675 3.681-1.2758.015 0 .022-.0073.037-.0073.24-.0801.488-.1603.729-.2405.248-.0802.503-.1604.751-.2333.007-.0073.007-.0073.014 0 .008-.0073.008-.0073.015-.0073 1.414-.4447 2.836-.8749 4.272-1.2758h.007c.095-.0292.197-.0583.292-.0875h.007c.19-.0583.379-.1094.576-.1604 5.471-1.4938 11.03-2.6455 16.644-3.4483.838-.1239 1.684-.2333 2.537-.3354 13.35-1.66771 26.871-1.38776 40.14.8311 3.587.5978 7.126 1.3342 10.615 2.209 1.99.4957 3.959 1.0425 5.913 1.6257 6.395 1.9049 12.64 4.2808 18.685 7.1081h.007c.153.0656.313.1385.467.2114 5.103 2.3992 10.052 5.1115 14.821 8.1214 1.611 1.0134 3.198 2.0632 4.76 3.1494.773.5322 1.546 1.0717 2.304 1.6258 1.538 1.1008 3.05 2.2405 4.535 3.4191.685.5322 1.363 1.0717 2.034 1.6258.554.452 1.108.9113 1.655 1.3851 2.245 1.8737 4.427 3.8324 6.546 5.876 4.079 3.8982 7.914 8.0446 11.482 12.4154 2.742 3.3536 5.322 6.8335 7.743 10.4398 1.873 2.7849 3.643 5.6402 5.307 8.5661.62 1.0935 1.232 2.1944 1.823 3.3025.78 1.4508 1.531 2.9234 2.252 4.4033.037.0802.081.1604.117.2406 1.239 2.5516 2.401 5.147 3.485 7.7861.255.6051.496 1.2174.743 1.8298v.0073c4.376 11.0899 7.282 22.7049 8.647 34.5489.612 5.31.918 10.65.918 15.995z" fill="#fff" stroke="#000" stroke-miterlimit="10" stroke-width=".75"/><path d="m208.64 90.6562c-16.135 2.7786-19.986 3.9648-27.168 14.7868-7.345 11.081-16.964 24.681-28.029 41.678l-29.004-13.552-11.634 20.214s31.197 20.034 42.718 23.934c8.628 2.909 10.659-.878 17.044-7.54 7.085-7.409 27.932-31.587 27.932-31.587z" fill="#fff" stroke="#000" stroke-miterlimit="10" stroke-width=".75"/><path d="m88.1861 101.055 1.9823-1.8515c.3021-.2156.6506-.3573 1.0174-.4138.3669-.0564.7419-.026 1.0949.0889l22.4883 5.1674c1.137.323 2.19.89 3.085 1.661.895.772 1.611 1.73 2.098 2.807l17.874 45.497c.21.369.303.793.268 1.216-.034.423-.196.826-.463 1.156l-2.047 1.917c-.302.224-.653.371-1.023.431-.371.059-.75.028-1.106-.09l-22.488-5.167c-1.137-.323-2.19-.89-3.086-1.661-.895-.772-1.611-1.73-2.098-2.807l-17.8735-45.497c-.23-.382-.3276-.83-.2776-1.274.05-.443.2448-.858.5542-1.18z" fill="#000"/><path d="m115.209 107.116c1.176.825 2.112 1.946 2.714 3.25l17.873 45.497c.199.36.292.769.269 1.18s-.161.807-.399 1.143l1.934-1.787c.272-.328.437-.73.475-1.153.038-.424-.054-.849-.264-1.22l-17.873-45.496c-.561-1.232-1.422-2.305-2.503-3.12z" fill="#000"/><path d="m135.78 155.96-17.874-45.496c-.495-1.075-1.215-2.03-2.113-2.801-.897-.771-1.95-1.34-3.086-1.668l-22.4886-5.151c-2.0798-.487-3.136.748-2.3561 2.73l17.8737 45.497c.487 1.077 1.203 2.034 2.098 2.806s1.948 1.339 3.085 1.662l22.489 5.167c2.096.471 3.152-.747 2.372-2.746z" fill="#000"/><path d="m118.282 120.099-3.348-8.531c-.092-.201-.227-.379-.395-.522-.169-.143-.366-.248-.58-.306l-4.208-.975c-.39-.081-.585.146-.439.52.65 1.625 2.681 6.841 3.347 8.514.095.198.228.376.393.521s.358.255.566.324l4.225.959c.39.097.585-.13.439-.504z" fill="#fff" stroke="#000" stroke-miterlimit="10" stroke-width=".75"/><path d="m114.82 113.648c-.239-.501-.583-.946-1.009-1.302-.427-.356-.925-.616-1.461-.761-1.008-.228-1.544.308-1.186 1.218.238.502.582.946 1.009 1.303.426.356.924.616 1.46.761 1.008.227 1.544-.309 1.187-1.219z" fill="#fff" stroke="#000" stroke-miterlimit="10" stroke-width=".75"/><path d="m116.445 117.954c-.239-.502-.583-.946-1.009-1.302-.427-.356-.925-.616-1.461-.761-1.008-.228-1.544.308-1.186 1.218.238.502.582.946 1.009 1.302.426.357.924.616 1.46.762 1.008.227 1.544-.309 1.187-1.219z" fill="#fff" stroke="#000" stroke-miterlimit="10" stroke-width=".75"/><path d="m93.3225 128.971c-2.6486-2.957-2.486-3.412-1.4137-5.184.7916-1.406 1.9081-2.603 3.2563-3.491 1.3483-.888 2.8893-1.44 4.4944-1.611 2.8275-.227 5.6705-.601 7.2145 0 1.544.602.634 3.786-2.957 5.005-5.6387 1.934-5.4437 3.51-5.4437 3.51 2.4077-.842 4.8597-1.553 7.3447-2.129 2.88-.115 5.765-.001 8.628.341 2.486.13 3.25 3.25-.715 4.761l4.549.227c3.25.163 4.436 1.625 2.194 3.916-.728.746-1.682 1.232-2.713 1.381 0 0 3.249-.373 3.525.732.537 3.152-1.429 4.208-7.961 6.905-6.224 2.568-7.166 6.175-5.622 8.433 0 0-2.763-1.235-5.233-2.567-1.819-.991-3.3955-2.145-2.9243-4.875 0 0-3.6722.472-4.1434-1.771-.2364-1.663-.1146-3.359.3572-4.972-.6992-.3-1.2993-.792-1.7306-1.418-.4313-.627-.6763-1.364-.7067-2.124-.166-1.442.1481-2.898.8937-4.143z" fill="#fff" stroke="#000" stroke-miterlimit="10" stroke-width=".75"/><path d="m113.731 130.157c-1.367-.13-2.744-.13-4.111 0-1.34.337-2.618.885-3.786 1.625-2.351 1.329-4.585 2.857-6.6778 4.566 2.5158-.977 4.9448-2.162 7.2628-3.543 1.084-.708 2.232-1.311 3.429-1.803 1.308-.214 2.604-.496 3.883-.845z" fill="#000"/><path d="m117.759 135.682c-1.478-.261-2.998-.144-4.419.341-1.401.463-2.756 1.056-4.047 1.771-2.561 1.371-4.974 3.004-7.197 4.874 2.655-1.157 5.248-2.453 7.767-3.883 2.417-1.515 5.094-2.568 7.896-3.103z" fill="#000"/><path d="m276.427 212.227c-.109.226-.233.452-.35.671-.35.656-.7 1.305-1.064 1.953-.358.635-.715 1.269-1.079 1.896-.831 1.436-1.677 2.865-2.559 4.265-1.342 2.15-2.737 4.257-4.185 6.32-2.406 3.419-4.957 6.717-7.655 9.893-1.771 2.085-3.601 4.115-5.489 6.088-4.4 4.603-9.114 8.895-14.107 12.845-3.098 2.457-6.306 4.78-9.623 6.97-4.623 3.059-9.429 5.832-14.391 8.303-.722.365-1.451.722-2.18 1.072-9.027 4.314-18.5 7.621-28.25 9.864-1.728-10.447-2.865-21.711-2.041-30.918.845-9.39 2.216-18.357 3.601-25.837.335-1.845.678-3.602 1.006-5.249.459-2.275.897-4.345 1.298-6.168 1.195-5.416 2.07-8.675 2.07-8.675l80.449-8.544 1.859 6.225z" fill="#fff" stroke="#000" stroke-miterlimit="10" stroke-width=".75"/><path d="m281.297 201.984c-.03.073-.066.153-.095.226-.204.474-.401.94-.613 1.414-.612 1.407-1.261 2.8-1.931 4.178-.066.153-.139.299-.212.452-.649 1.341-1.319 2.661-2.019 3.973-.11.226-.234.452-.35.671-.35.656-.7 1.305-1.065 1.953-.357.635-.714 1.269-1.079 1.896-.831 1.436-1.676 2.865-2.559 4.265-11.766 1.757-28.111 4.141-41.605 5.898-.012.005-.024.007-.037.007-11.081 1.436-20.23 2.449-23.314 2.347-2.039-.078-4.071-.272-6.088-.583-4.495-.692-8.932-1.718-13.275-3.069-.802-.255-1.254-.408-1.254-.408l1.4-5.548 1.407-5.577.75.116 8.311 1.247 76.068-12.241 7.414-1.195z" fill="#000"/><path d="m281.203 202.21c-.204.474-.401.94-.613 1.414-.612 1.407-1.261 2.8-1.932 4.178-.065.153-.138.299-.211.452-.649 1.341-1.32 2.661-2.019 3.973-.11.226-.234.452-.35.671-.35.656-.7 1.305-1.065 1.953-.357.635-.714 1.269-1.079 1.896-14.391 3.856-31.129 7.502-44.164 10.163-.012.005-.024.007-.037.007-12.729 2.602-21.907 4.257-21.907 4.257-2.63-.367-5.169-1.212-7.495-2.493-4.363-2.346-8.475-5.133-12.269-8.318-.292-.241-.584-.474-.861-.707-.233-.197-.459-.387-.678-.569 1.874-8.588 3.296-15.66 3.653-19.429 1.247-13.239-.153-25.428 0-31.632.141-4.91-.846-9.786-2.887-14.253-2.297-5.293-5.242-9.718-6.022-16.06-.178-1.498-.239-3.006-.182-4.513.262-7.05 2.916-14.296 6.226-20.26.009-.023.021-.045.036-.066 1.183-2.148 2.511-4.213 3.973-6.182 3.924-5.33 8.178-10.4089 12.737-15.2073 0 0 2.187-.3791 4.585-.8238 1.728-.3208 3.565-.678 4.775-.9551.037-.0072.066-.0145.095-.0218.642-.1094 1.283-.2042 1.925-.2771 2.094-.261 4.204-.3658 6.313-.3134.336-.0292.729-.0802 1.174-.1386h.022c4.469-.6051 14.012-2.3547 23.161-.5832.547.1021 1.094.2187 1.641.3499 1.006.2479 1.902.4521 2.741.6343h.007c2.705.5978 4.702.9113 7.181 1.3487h.014c1.298.2406 2.691.5322 3.974.802.004.0041.009.0067.014.0072.124.0292.248.0511.372.0802 1.721.3791 3.208.7291 3.966.9113.343.0875.532.1313.532.1313 4.258 3.5941 9.492 18.8964 6.758 37.1664-.24 1.574-.612 3.462-1.049 5.569-1.101 5.264-2.625 11.905-3.5 18.576v.015c-.284 2.201-.503 4.396-.612 6.546-.146 2.513-.093 5.034.16 7.539.54 5.008 5.278 11.883 9.295 22.381 1.456 3.77 2.642 7.639 3.551 11.577.02.067.037.135.051.204z" fill="#e55b2d"/><path d="m204.054 91.4846s-8.258-1.0742-17.632 5.0437c-9.373 6.1177-18.746 23.8257-18.746 23.8257l1.305 3.52c4.294 2.761 8.346 5.882 12.111 9.33 0 0 7.729-1.311 8.639-1.406s17.283-18.572 17.283-18.572z" fill="#e55b2d"/><path d="m194.519 15.2297c11.521-14.250182 26.99-17.35367 41.418-13.99014 8.547 1.99857 17.435 7.05192 19.938 16.07004 7.1 0 11.894 7.5556 12.739 21.1233s2.307 34.4799-2.097 41.3693c-.961 1.6038-2.257 2.9812-3.799 4.0384-1.543 1.0572-3.295 1.7692-5.137 2.0874 2.503-1.8007 4.242-4.4728 4.874-7.4906-2.117 3.1177-5.067 5.5781-8.514 7.1007-5.248 2.5836-9.847 3.6885-17.874 3.9647-9.749.3412-19.498-1.0561-24.048-3.0873 2.373-1.0113 4.249-2.9219 5.216-5.3133 0 0-4.371 5.5406-13.519 2.6648 4.046-.8612 6.337-5.7358 6.418-14.0389v-15.7452c-4.988-2.2586-10.171-3.2498-13.112-8.8393-2.059-4.2103-2.532-9.021-1.333-13.5515-1.093.893-1.974 2.0184-2.579 3.2944-.604 1.2761-.916 2.6707-.914 4.0825-1.952-3.7572-2.772-8.0003-2.36-12.2143.413-4.214 2.04-8.2176 4.683-11.525z" fill="#000"/><path d="m247.653 84.1568c0-2.9898.568-18.0037.568-18.0037.13 1.1212 5.541 4.2248 10.465-1.511 4.923-5.7358 5.297-11.8779 2.421-15.8264-3.25-4.3546-10.367-4.1758-13.292 2.8598-4.696 1.0724-6.776-6.1093-3.136-12.9986-.26-8.7418-9.229-8.3519-13.649-19.661-11.293 5.8333-21.724 1.0724-28.955 9.538-1.495 4.2247-2.681 10.8705-2.811 22.7483-.179 19.3523 5.517 22.6324 10.749 25.021 3.12 1.4299 12.22 1.406 18.622-.4687l-.19 7.9282c-.146 2.5186-7.717 3.868-10.089 4.6641-1.625.52-4.874 1.2024-4.874 1.2024s-7.101 6.6295 8.384 8.8393c23.138 3.2495 35.861-7.8152 35.861-7.8152s-1.625-.26-5.525-.9915c-3.899-.7314-4.549-2.5353-4.549-5.525z" fill="#fff" stroke="#000" stroke-miterlimit="10" stroke-width=".75"/><path d="m254.947 62.6923c0 .6261-.249 1.2264-.692 1.669-.443.4425-1.044.691-1.67.6908s-1.226-.249-1.669-.6918-.691-1.0433-.691-1.6694c0-.6262.248-1.2267.691-1.6695s1.043-.6916 1.669-.6918 1.227.2483 1.67.6908c.443.4426.692 1.0429.692 1.669z" fill="#fff"/><path d="m214.474 131.636c-5.265-3.933-7.913-5.444-10.351-6.142-2.437-.699-11.065-4.258-14.347-5.086-2.096-.52-2.941 2.811-.276 5.086 2.047 1.771 7.377 4.078 9.749 5.362 2.372 1.283 6.922 6.857 6.922 6.857z" fill="#fff" stroke="#000" stroke-miterlimit="10" stroke-width=".75"/><path d="m288.372 106.06c-5.216-11.114-9.75-12.1702-22.277-13.6328-11.862 11.5688-2.243 37.4538-2.243 37.4538l6.354 31.181s-31.426-8.449-34.984-10.724-13.096-12.528-16.249-15.599c-4.354-4.192-6.499-3.623-8.725-3.25-7.247 1.089-8.84 1.625-10.383 2.681-.452.313-.816.734-1.061 1.226-.244.492-.36 1.037-.337 1.585-1.933.244-4.874.195-5.183 3.348-.159.835-.198 1.688-.114 2.534-.49.079-.934.333-1.251.715-1.625 1.853 1.137 8.287 2.892 9.847 1.219 1.105 2.974 1.235 5.265.926 1.95-.26 1.04-2.242 1.04-2.242l2.73.162c5.898 4.176 6.19 12.479 13.99 14.315 3.223.321 6.41.935 9.521 1.836 16.785 5.639 44.294 22.749 59.243 24.016 14.624 1.251 14.169-6.499 14.397-15.453.162-8.026-7.426-59.843-12.625-70.925z" fill="#fff" stroke="#000" stroke-miterlimit="10" stroke-width=".75"/><path d="m198.417 136.933 8.596-1.739-8.417.553c-.129.381-.19.783-.179 1.186z" fill="#000"/><path d="m193.121 142.815 9.912-1.284-9.928.13c-.035.384-.03.771.016 1.154z" fill="#000"/><path d="m194.422 147.186c.329.5.79.899 1.332 1.153.515.263 1.061.46 1.625.585l-.13-.097c.26.52.536 1.023.829 1.527l.195-.26c-.282-.058-.573-.055-.853.01-.281.064-.544.188-.772.364-.405.342-.704.793-.861 1.3.252-.428.596-.794 1.007-1.073.405-.243.885-.329 1.349-.243h.39l-.179-.342-.829-1.527v-.081h-.097c-.554-.105-1.097-.257-1.625-.455-.518-.183-.989-.477-1.381-.861z" fill="#000"/><path d="m197.055 148.469c1.19.159 2.389.246 3.591.26.218.74.647 1.401 1.235 1.901.607.578 1.247 1.121 1.917 1.625l-2.73-.162c-.38-.472-.853-.859-1.39-1.139s-1.126-.445-1.73-.486z" fill="#000"/><path d="m224.683 98.8179s-7.484 4.3751-11.233 9.5301c0 0-5.624-8.28-5.624-12.185 0-3.9055.816-5.5021.816-5.5021s3.532-1.8985 6.592-1.4007c0 0 8.184 5.8076 9.449 9.5577z" fill="#e55b2d"/><path d="m215.234 89.2602s8.184 5.8076 9.449 9.5576c0 0-7.484 4.3752-11.233 9.5302 0 0-5.624-8.28-5.624-12.1851" stroke="#000" stroke-miterlimit="10" stroke-width=".75"/><path d="m228.445 99.0558s5.939 4.1372 7.189 9.9172c0 0 11.908-3.281 16.967-7.186 2.167-1.739 4.134-3.7137 5.865-5.8872 1.151-1.4026 2.224-2.8668 3.214-4.3862 0 0-6.183-2.489-10.346-2.3366-3.149.6817-6.253 1.5539-9.295 2.6118-5.468 1.8608-13.594 7.267-13.594 7.267z" fill="#e55b2d"/><path d="m251.334 89.177c-3.148.6817-6.253 1.5539-9.295 2.6118-5.468 1.8608-13.594 7.2669-13.594 7.2669s5.939 4.1373 7.189 9.9173c0 0 11.908-3.281 16.967-7.186 2.167-1.739 4.134-3.7137 5.865-5.8872" stroke="#000" stroke-miterlimit="10" stroke-width=".75"/><path d="m265.449 137.713s22.71-8.867 29.605-4.509l1.402-1.432c.823-.84 1.407-1.885 1.69-3.027.284-1.141.256-2.338-.08-3.466-2.333-7.825-8.129-25.4118-13.926-28.4912-7.498-3.9836-17.926-5.4482-19.391-5.4482-.905.003-1.809.0881-2.699.2545l-9.448 20.7139z" fill="#e55b2d"/><g stroke="#000" stroke-miterlimit="10" stroke-width=".75"><path d="m265.449 137.713c-5.317-7.365-9.265-14.523-10.777-21.311"/><path d="m181.092 133.204c.332-4.391 2.05-14.233 9.549-26.106"/><path d="m178.03 238.384-47.963-220.4878c-.377-1.8429-1.217-3.5593-2.442-4.9866-1.304-1.5262-2.994-2.6739-4.894-3.3229-1.899-.64898-3.938-.77539-5.903-.366l-107.10967 23.2925c-2.89477.6576-5.41004 2.4376-6.99305 4.9488s-2.104236 5.5482-1.44913 8.4436l.00729.0072 17.26346 79.3622 21.747 100.009c.1896.277.3791.546.5686.824 2.8751 4.188 5.9833 8.211 9.3098 12.05l-28.0094-128.747-12.31334-56.6088c-.97691-4.4981-.96962-7.509-.28433-9.5722.18773-.6238.48117-1.2107.86757-1.7351.0729-.0948.1458-.1895.2187-.2843h.0073c.0225-.033.0468-.0646.0729-.0948l.051-.051c.0073-.0146.0219-.0219.0292-.0365.02-.0281.042-.0549.0656-.0802h.0073c.077-.0903.1598-.1755.2478-.2551 0-.002.0008-.0038.0022-.0052.0014-.0013.0032-.0021.0051-.0021.158-.1594.3287-.3057.5104-.4374h.0145c.0875-.0729.175-.1385.2698-.2042h.0146c.0875-.0656.1822-.1239.277-.1822h.0146c.0452-.0345.0941-.0639.1458-.0875.051-.0292.0948-.0583.1458-.0875h.0146c.102-.0583.2041-.1093.3062-.1604h.0073s0-.0073.0072 0c.0326-.0198.0667-.0369.1021-.051.0656-.0365.1385-.0656.2041-.1021h.0146c.1094-.051.2114-.0947.3208-.1385h.0146c.054-.0263.1101-.0482.1677-.0656.051-.0219.1093-.0437.1676-.0656h.0146c.1094-.0438.2187-.0875.3354-.1239h.0073c.051-.0146.0947-.0292.1458-.0438.1458-.051.2916-.0948.4374-.1385l.1531-.0437c.1822-.0511.3645-.0948.554-.1458.4447-.1167.904-.2188 1.3706-.3208l19.2027-4.1774c.1128-.0229.2275-.0351.3426-.0364.0511 0 .1094.0073.175.0073l.0073.0073c.0173-.0007.0346.0017.051.0072.0365.0073.0802.0146.124.0219.0073 0 .0073.0073.0146 0 .051.0219.1093.0365.1603.0583h.0073c.1263.0479.2482.1065.3645.175h.0073c.0511.0365.1094.0729.1604.1167h.0146c.0716.0593.1397.1225.2041.1895.0383.032.0748.0661.1094.1021.0263.0248.0506.0517.0729.0802.0379.0379.0721.0794.1021.1239.1299.1683.2469.3462.3499.5322.0039.0043.0073.009.0103.0139.0143.0269.0275.0548.0412.0823.1464.2878.2541.5938.3202.9099v.0072l.1385.6562c.0848.4032.2043.7984.3572 1.181 0 .0019.0008.0038.0021.0052.0014.0013.0032.0021.0052.0021.0373.1082.0836.2131.1385.3135.051.0947.1021.1895.1531.277.0475.0886.1011.1739.1604.2552l.0875.1093c.0243.0382.0511.0747.0802.1094l.0145.0073c.0073.0073.0146.0218.0292.0364.1106.1187.2327.2261.3645.3208.0583.0437.1094.0802.1677.1166.0073-.0073.0073 0 .0146.0073.0729.0365.1385.0729.2114.1021.0516.0262.1052.0482.1604.0656.0176.0024.0348.0073.051.0146h.0073c.07.0305.1435.0525.2187.0656.1167.0219.2406.0437.3572.0583.9156.0214 1.8293-.0916 2.712-.3353l35.9632-7.8225h.0072l8.4276-1.8372c.6165-.1182 1.2252-.274 1.8226-.4666.3112-.1045.6096-.2439.8894-.4155.1736-.1084.3328-.2382.4739-.3864.6197-.6489.8603-1.6622.4885-3.3973l-.0802-.3937-.0584-.2624c-.1886-.7654-.1035-1.5727.2406-2.2819.0045-.0274.0172-.0529.0365-.0729.0123-.0355.0322-.0678.0583-.0948.0627-.1044.136-.2021.2187-.2916.0128-.0207.0274-.0402.0437-.0583.0206-.0278.0451-.0524.073-.0729h.0072c.0334-.0419.0727-.0788.1167-.1094.0073 0 .0073 0 .0146-.0073.0457-.0357.0945-.0674.1458-.0947.0568-.0387.118-.0705.1822-.0948.0073-.0073.0073-.0073.0146-.0073.0371-.019.0762-.0336.1167-.0437.0545-.0213.1105-.0384.1676-.0511l13.5377-2.9453.015-.0072 5.621-1.2175.022-.0073c.051-.0073.095-.0219.146-.0292.007 0 .021-.0073.029-.0073.08-.0146.153-.0291.233-.051h.022c.002 0 .004-.0008.005-.0021.001-.0014.002-.0033.002-.0052.131-.0219.27-.051.401-.0729h.022c.007 0 .007 0 .007-.0073.132-.0219.27-.0437.401-.0656.066-.0073.131-.0219.197-.0292.08-.0145.153-.0218.226-.0291.073-.0146.146-.0219.219-.0292.019-.006.038-.0085.058-.0073.022 0 .044-.0073.066-.0073.024-.0059.048-.0084.073-.0073.291-.0291.575-.051.859-.0583.123-.0044.244-.0038.366-.0041.159.0005.319 0 .474.0114.099.0056.196.011.293.0166.035.0027.07.0035.105.0065.12.0125.236.0287.355.0423.037.0049.074.0112.111.0167.188.0292.376.0671.557.1074.051.0146.109.0219.16.0364.095.0219.183.0511.278.0802.094.0292.189.0584.277.0875.094.0292.189.0656.277.1021.087.0364.182.0729.269.1166 2.508 1.13 4.571 3.9878 5.891 10.0825l4.053 18.6268 4.936 22.7093 1.99 9.1348 1.99 9.1347 1.991 9.1348v.0073l1.983 9.1276 1.99 9.127v.008l1.983 9.142 1.99 9.134 1.99 9.128v.007l1.983 9.142 1.991 9.128 1.99 9.142 1.983 9.142 1.99 9.127 1.99 9.142 1.983 9.142 1.99 9.128 1.991 9.142 1.881 8.654c.036.16.065.32.087.481h.007c.008.043.015.094.022.138.284 1.727.164 3.496-.35 5.169-.007.053-.022.104-.043.153-.051.153-.102.306-.161.452-.006.026-.016.05-.029.073-.036.088-.066.168-.102.248 0 .015-.007.022-.007.029-.008.007-.008.015-.015.029-.022.043-.042.086-.058.131-.11.248-.219.489-.35.729-.015.03-.037.066-.051.095-.437.811-.981 1.559-1.619 2.224-1.28 1.337-2.93 2.263-4.738 2.661h-.008l-82.9123 18.029v.007c1.0426.678 2.0949 1.341 3.1567 1.99 2.0704 1.269 4.1773 2.484 6.3207 3.645l80.6669-17.547c2.895-.659 5.41-2.439 6.994-4.949 1.584-2.511 2.108-5.547 1.456-8.444z" fill="#fff"/><path d="m169.822 237.736c-.029.138-.058.269-.088.408-.011.014-.016.033-.014.051l-.109.394c-.009.039-.021.079-.037.116-.021.095-.051.188-.087.277-.051.153-.102.306-.161.452-.022.066-.051.132-.073.197-.02.052-.047.1-.068.151-.004.01-.008.02-.012.031-.018.044-.042.085-.06.129-.108.248-.219.492-.345.729-.018.034-.039.066-.057.099-.435.811-.979 1.558-1.616 2.222-1.28 1.337-2.93 2.264-4.738 2.661h-.008l-82.9123 18.036v-.007c-.3499-.226-.7072-.452-1.0571-.692-3.4848-2.304-6.8505-4.761-10.0971-7.371-1.5601-1.247-3.0911-2.53-4.5929-3.849-.0729-.066-.1458-.131-.2187-.19-.0656-.065-.1385-.124-.2041-.182-.226-.197-.4447-.394-.6707-.598-.0511-.044-.1021-.087-.1531-.138-.0511-.044-.1021-.088-.1604-.139-.9332-.846-1.8566-1.701-2.7703-2.566-2.6609-2.53-5.2174-5.162-7.6694-7.895-.5614-.627-1.1155-1.254-1.6622-1.889l-28.0094-128.776-12.31336-56.6017c-.18044-.8293-.3164-1.592-.43159-2.3236-.00816-.0519-.01631-.1036-.02442-.1552-.05227-.3426-.09966-.678-.13852-.9997-.00313-.0273-.00546-.053-.00867-.0802-.0783-.6724-.12992-1.3049-.1504-1.892l-.00051-.0099c-.00824-.237-.0086-.463-.00787-.6867 0-.11.00087-.2197.00342-.3266.00474-.2013.0121-.3992.02435-.5899.00729-.116.01852-.2266.02851-.3387.02828-.3129.06673-.6112.11533-.8948.01866-.1094.03433-.2228.05584-.3281.02916-.143.06496-.277.09966-.4125.02851-.1118.05737-.223.08938-.3298.01924-.064.03332-.1353.05373-.1975.02187-.0678.05023-.1272.07385-.1929.02515-.0697.05183-.1371.07837-.2045.053-.1345.10695-.2675.16622-.3937.0226-.0483.0479-.0931.07152-.1403.19346-.3875.42946-.7522.70356-1.0875.0511-.0623.101-.1262.1542-.1857.0223-.0248.042-.0532.0644-.0776.0802-.0875.1677-.175.2552-.2552 0-.0019.0007-.0037.0021-.0051s.0032-.0021.0051-.0021c.0773-.0788.1602-.1518.2479-.2187.0802-.073.1676-.1459.2625-.2188h.0073s0-.0073.0072 0c.0875-.0729.175-.1385.2698-.2041 0 0 0 .0073.0073 0h.0073c.0875-.0656.1822-.1239.277-.1822h.0073c0-.0073.0073 0 .0073 0 .0948-.0657.1968-.1167.2916-.175h.0146c.102-.0583.2041-.1094.3062-.1604h.0073c0-.0073 0-.0073.0072 0 .1021-.0583.2042-.1021.3062-.1531h.0146c.1094-.051.2114-.0948.3208-.1385h.0073c.0073-.0073.0073 0 .0073 0 .1093-.051.2187-.0875.3353-.1312h.0073s0-.0073.0073 0c.1094-.0438.2187-.0875.3354-.124h.0073c.8742-.2772 1.7624-.5084 2.6609-.6926l19.2027-4.1773c.231-.0486.4699-.0461.6999.0073.0073 0 .0073.0073.0146 0 .051.0219.1093.0364.1603.0583h.0073c.1263.0479.2482.1064.3645.175h.0073c.0511.0364.1094.0729.1604.1166h.0073c.1121.0888.2192.1837.3208.2843.0073.0073 0 .0073 0 .0073.1073.1099.2071.2268.2989.35.0437.0656.0875.1385.1385.2041.0365.0656.0729.1385.1094.2114.1621.3075.2799.6364.3499.9769v.0073l.1458.6488c.0609.2839.1388.5639.2333.8384.1889.7759.6592 1.4539 1.3195 1.9028.0073-.0073.0073 0 .0146.0073.0981.0534.2001.0994.3051.1376.0393.0154.0772.0326.1178.0447h.0073c.0701.0304.1435.0525.2187.0656 1.0313.1183 2.0759.024 3.0693-.2771l35.9631-7.8225h.0073l8.4276-1.8371c.6164-.1183 1.2251-.2741 1.8225-.4666.3137-.0984.6128-.2381.8895-.4156.2069-.1229.394-.2767.5548-.4559.0298-.0339.0583-.0695.086-.1056.0568-.0702.1092-.1439.1567-.2207.0776-.1262.1426-.2598.1941-.3987.2357-.8519.2332-1.7521-.0073-2.6027l-.0875-.4009-.051-.2552c-.1519-.5205-.1603-1.0724-.0243-1.5973.1361-.5249.4114-1.0032.7971-1.3844.0073 0 .0073 0 .0145-.0073.0458-.0358.0946-.0675.1458-.0948.1467-.0951.3099-.1619.4812-.1968l13.5385-2.9453.014-.0073 5.621-1.2175.022-.0073c.051-.0073.095-.0218.146-.0291.087-.0219.175-.0365.262-.0584.01.0003.02-.0022.029-.0073.132-.0218.27-.051.401-.0729.008 0 .022-.0072.029-.0072.132-.0219.27-.0438.401-.0657.066-.0072.132-.0218.197-.0291.088-.0146.168-.0292.248-.0365.131-.0146.263-.0364.394-.0437.29-.0295.577-.0489.861-.0583.078-.003.156-.0031.234-.0043.204-.0024.406 0 .607.0101.127.0059.254.0153.381.0265.145.0132.288.0308.432.0516.204.0291.406.0679.606.1131.053.0121.105.025.158.0384 1.394.3468 2.641 1.1303 3.559 2.2361.19.2187.372.4592.554.7144.175.2552.35.5249.525.8165.272.4673.518.9492.736 1.4435.081.175.153.3572.234.5395.226.5613.444 1.1591.648 1.8153.27.8748.525 1.8371.759 2.9015l8.989 41.3288 1.99 9.1348 1.983 9.1347 1.99 9.1421 1.983 9.1279 1.99 9.134 1.983 9.142 1.991 9.135 1.982 9.135 1.991 9.142 1.99 9.135 1.983 9.142 1.99 9.135 1.983 9.134 1.99 9.142 1.991 9.135 1.983 9.135 1.99 9.142 1.881 8.654c.036.16.065.32.087.481.028.1.045.202.051.306.03.153.051.306.066.459.122 1.151.07 2.313-.153 3.449z" fill="#fff"/><path d="m71.3688 28.9763-12.1044 2.6328c-.1966.0411-.4014.0032-.5704-.1054-.1689-.1086-.2884-.2792-.3327-.475-.043-.1974-.0063-.4037.1022-.5741.1084-.1704.2798-.291.4768-.3356l12.1043-2.6328c.0983-.0214.1999-.0232.2988-.0054.099.0179.1935.0551.2782.1094.0846.0544.1577.1249.215.2076.0574.0826.0979.1757.1193.274.0413.1977.0027.4037-.1073.5732-.1099.1694-.2824.2885-.4798.3313z" fill="#fff"/></g><path d="m146.054 177.908-92.6909 20.16-17.0565-78.418 39.9378-39.5034 52.7526 19.3419z" fill="#e55b2d"/><path d="m121.75 91.3561-82.2363 17.8869 18.4085 84.634 82.2358-17.887z" fill="#fff" stroke="#000" stroke-miterlimit="10" stroke-width=".75"/><path d="m133.267 119.118 12.787 58.789-92.6906 20.161-12.7872-58.789c4.4713 1.39 8.9001 2.907 13.3458 4.357 4.4456 1.451 8.8737 2.998 13.2938 4.548 4.8959 1.703 9.8147 3.441 14.7562 5.213l.1229-.112c-.0444.009-.0595.083-.0901.12l11.0449 3.967c2.7849-2.729 5.5871-5.485 8.3913-8.194-.037.008-.081-.052-.132-.072.049.022.102.034.155.036 3.738-3.644 7.493-7.268 11.265-10.873 3.384-3.231 6.781-6.445 10.193-9.64 3.478-3.175 6.855-6.389 10.345-9.511z" fill="#e55b2d"/><path d="m107.864 134.708-15.986-10.801 10.802-15.987-6.2681-4.234-10.8014 15.986-15.9862-10.802-4.2356 6.268 15.9862 10.801-10.8014 15.986 6.2675 4.235 10.8021-15.985 15.9859 10.801z" fill="#e55b2d"/><path d="m224.682 98.8178s-4.202 14.6852-2.484 25.3082" stroke="#000" stroke-miterlimit="10" stroke-width=".75"/><path d="m227.79 105.14c.261-1.031-.082-2.008-.768-2.182-.685-.174-1.453.521-1.714 1.553-.262 1.031.082 2.008.767 2.182s1.453-.522 1.715-1.553z" fill="#000"/><path d="m226.763 112.739c.106-1.059-.379-1.974-1.082-2.045-.704-.07-1.36.731-1.466 1.79s.379 1.974 1.082 2.044c.704.071 1.36-.731 1.466-1.789z" fill="#000"/><path d="m226.04 120.448c.003-1.064-.568-1.928-1.275-1.93s-1.282.859-1.285 1.923.568 1.928 1.275 1.93 1.283-.859 1.285-1.923z" fill="#000"/><path d="m133.267 119.118-40.2173 38.254-52.4735-18.094" stroke="#000" stroke-miterlimit="10" stroke-width=".75"/><path d="m57.541 189.349 13.4328-39.588" stroke="#000" stroke-miterlimit="10" stroke-width=".75"/><path d="m138.084 171.774-27.031-31.527" stroke="#000" stroke-miterlimit="10" stroke-width=".75"/></svg>