<svg viewBox="0 0 500 500" xmlns="http://www.w3.org/2000/svg"><path d="m104.3234 294.4059c-81.6672 34.0383-81.6653 89.2251.0045 123.2633s214.0806 34.0382 295.7479 0 81.6653-89.225-.0044-123.2633-214.0806-34.0382-295.748 0z" fill="#fff" stroke="#000" stroke-miterlimit="10" stroke-width=".25"/><path d="m64.191 248.855 1.737.116 65.189-37.67-.868-.631z" fill="#fff" stroke="#000" stroke-miterlimit="10" stroke-width=".25"/><path d="m130.249 210.67-64.321 37.182v-98.882l64.32-37.181z" fill="#fff" stroke="#000" stroke-miterlimit="10" stroke-width=".25"/><path d="m132.8545 108.2893-68.6645 39.6772.0006 104.0141 68.6642-39.6772zm-1.7377 103.0114-65.1886 37.6705v-100.0012l65.1883-37.6705z" fill="#fff" stroke="#000" stroke-miterlimit="10" stroke-width=".25"/><path d="m131.117 211.301-.868-.631-.001-98.881.869-.49z" fill="#fff" stroke="#000" stroke-miterlimit="10" stroke-width=".25"/><path d="m132.855 108.289-.868-.5-68.664 39.677.867.5z" fill="#fff" stroke="#000" stroke-miterlimit="10" stroke-width=".25"/><path d="m63.323 147.466.867.5.001 104.015-.868-.501z" fill="#fff" stroke="#000" stroke-miterlimit="10" stroke-width=".25"/><path d="m65.928 182.817 64.319-37.198.87.522-65.189 37.67z" fill="#fff" stroke="#000" stroke-miterlimit="10" stroke-width=".25"/><path d="m131.117 146.141v1.942l-65.19 37.671.001-1.943z" fill="#fff" stroke="#000" stroke-miterlimit="10" stroke-width=".25"/><path d="m65.928 213.258 64.319-37.198.87.522-65.189 37.67z" fill="#fff" stroke="#000" stroke-miterlimit="10" stroke-width=".25"/><path d="m131.117 176.582v1.941l-65.19 37.671.001-1.942z" fill="#fff" stroke="#000" stroke-miterlimit="10" stroke-width=".25"/><path d="m65.928 150.422 64.32-37.174.457 2.035-64.777 37.456z" fill="#fff" stroke="#000" stroke-miterlimit="10" stroke-width=".25"/><path d="m65.928 150.422v.931l64.501-37.297-.181-.808z" fill="#fff" stroke="#000" stroke-miterlimit="10" stroke-width=".25"/><path d="m65.928 153.663 64.32-37.174.457 2.035-64.777 37.456z" fill="#fff" stroke="#000" stroke-miterlimit="10" stroke-width=".25"/><path d="m65.928 153.663v.931l64.501-37.297-.181-.808z" fill="#fff" stroke="#000" stroke-miterlimit="10" stroke-width=".25"/><path d="m65.928 156.904 64.32-37.174.457 2.035-64.777 37.456z" fill="#fff" stroke="#000" stroke-miterlimit="10" stroke-width=".25"/><path d="m65.928 156.904v.931l64.501-37.297-.181-.808z" fill="#fff" stroke="#000" stroke-miterlimit="10" stroke-width=".25"/><path d="m65.928 160.145 64.32-37.174.457 2.035-64.777 37.456z" fill="#fff" stroke="#000" stroke-miterlimit="10" stroke-width=".25"/><path d="m65.928 160.145v.931l64.501-37.297-.181-.808z" fill="#fff" stroke="#000" stroke-miterlimit="10" stroke-width=".25"/><path d="m65.928 163.386 64.32-37.174.457 2.035-64.777 37.456z" fill="#fff" stroke="#000" stroke-miterlimit="10" stroke-width=".25"/><path d="m65.928 163.386v.931l64.501-37.297-.181-.808z" fill="#fff" stroke="#000" stroke-miterlimit="10" stroke-width=".25"/><path d="m65.928 166.627 64.32-37.174.457 2.035-64.777 37.456z" fill="#fff" stroke="#000" stroke-miterlimit="10" stroke-width=".25"/><path d="m65.928 166.627v.93l64.501-37.296-.181-.808z" fill="#fff" stroke="#000" stroke-miterlimit="10" stroke-width=".25"/><path d="m65.928 169.868 64.32-37.174.457 2.035-64.777 37.456z" fill="#fff" stroke="#000" stroke-miterlimit="10" stroke-width=".25"/><path d="m65.928 169.868v.93l64.501-37.296-.181-.808z" fill="#fff" stroke="#000" stroke-miterlimit="10" stroke-width=".25"/><path d="m65.928 173.109 64.32-37.174.457 2.035-64.777 37.456z" fill="#fff" stroke="#000" stroke-miterlimit="10" stroke-width=".25"/><path d="m65.928 173.109v.93l64.501-37.296-.181-.808z" fill="#fff" stroke="#000" stroke-miterlimit="10" stroke-width=".25"/><path d="m65.928 176.35 64.32-37.174.457 2.035-64.777 37.455z" fill="#fff" stroke="#000" stroke-miterlimit="10" stroke-width=".25"/><path d="m65.928 176.35v.93l64.501-37.296-.181-.808z" fill="#fff" stroke="#000" stroke-miterlimit="10" stroke-width=".25"/><path d="m65.928 179.591 64.32-37.174.457 2.035-64.777 37.455z" fill="#fff" stroke="#000" stroke-miterlimit="10" stroke-width=".25"/><path d="m65.928 179.591v.93l64.501-37.296-.181-.808z" fill="#fff" stroke="#000" stroke-miterlimit="10" stroke-width=".25"/><path d="m141.646 204.19 1.737.117 65.189-37.671-.868-.63z" fill="#fff" stroke="#000" stroke-miterlimit="10" stroke-width=".25"/><path d="m207.704 166.006-64.321 37.181v-98.882l64.32-37.181z" fill="#fff" stroke="#000" stroke-miterlimit="10" stroke-width=".25"/><path d="m210.31 63.625-68.6644 39.677.0006 104.0141 68.6638-39.6772zm-1.7378 103.0113-65.1886 37.67v-100.0013l65.1883-37.6705z" fill="#fff" stroke="#000" stroke-miterlimit="10" stroke-width=".25"/><path d="m208.572 166.636-.868-.63-.001-98.882.868-.489z" fill="#fff" stroke="#000" stroke-miterlimit="10" stroke-width=".25"/><path d="m210.309 63.625-.867-.501-68.664 39.677.867.501z" fill="#fff" stroke="#000" stroke-miterlimit="10" stroke-width=".25"/><path d="m140.778 102.801.867.501.001 104.014-.868-.501z" fill="#fff" stroke="#000" stroke-miterlimit="10" stroke-width=".25"/><path d="m143.383 138.153 64.319-37.198.87.522-65.189 37.67z" fill="#fff" stroke="#000" stroke-miterlimit="10" stroke-width=".25"/><path d="m208.572 101.477v1.941l-65.19 37.671.001-1.942z" fill="#fff" stroke="#000" stroke-miterlimit="10" stroke-width=".25"/><path d="m143.383 168.593 64.319-37.198.87.522-65.189 37.67z" fill="#fff" stroke="#000" stroke-miterlimit="10" stroke-width=".25"/><path d="m208.572 131.917v1.942l-65.19 37.671.001-1.943z" fill="#fff" stroke="#000" stroke-miterlimit="10" stroke-width=".25"/><path d="m143.383 105.758 64.32-37.174.457 2.035-64.777 37.455z" fill="#fff" stroke="#000" stroke-miterlimit="10" stroke-width=".25"/><path d="m143.383 105.758v.93l64.501-37.296-.181-.808z" fill="#fff" stroke="#000" stroke-miterlimit="10" stroke-width=".25"/><path d="m143.383 108.999 64.32-37.174.457 2.035-64.777 37.455z" fill="#fff" stroke="#000" stroke-miterlimit="10" stroke-width=".25"/><path d="m143.383 108.998v.931l64.501-37.296-.181-.808z" fill="#fff" stroke="#000" stroke-miterlimit="10" stroke-width=".25"/><path d="m143.383 112.24 64.32-37.174.457 2.035-64.777 37.455z" fill="#fff" stroke="#000" stroke-miterlimit="10" stroke-width=".25"/><path d="m143.383 112.24v.93l64.501-37.296-.181-.808z" fill="#fff" stroke="#000" stroke-miterlimit="10" stroke-width=".25"/><path d="m143.383 115.481 64.32-37.174.457 2.035-64.777 37.455z" fill="#fff" stroke="#000" stroke-miterlimit="10" stroke-width=".25"/><path d="m143.383 115.481v.93l64.501-37.296-.181-.808z" fill="#fff" stroke="#000" stroke-miterlimit="10" stroke-width=".25"/><path d="m143.383 118.721 64.32-37.173.457 2.035-64.777 37.455z" fill="#fff" stroke="#000" stroke-miterlimit="10" stroke-width=".25"/><path d="m143.383 118.721v.931l64.501-37.296-.181-.808z" fill="#fff" stroke="#000" stroke-miterlimit="10" stroke-width=".25"/><path d="m143.383 121.962 64.32-37.173.457 2.035-64.777 37.455z" fill="#fff" stroke="#000" stroke-miterlimit="10" stroke-width=".25"/><path d="m143.383 121.962v.931l64.501-37.296-.181-.808z" fill="#fff" stroke="#000" stroke-miterlimit="10" stroke-width=".25"/><path d="m143.383 125.203 64.32-37.173.457 2.034-64.777 37.456z" fill="#fff" stroke="#000" stroke-miterlimit="10" stroke-width=".25"/><path d="m143.383 125.203v.931l64.501-37.296-.181-.808z" fill="#fff" stroke="#000" stroke-miterlimit="10" stroke-width=".25"/><path d="m143.383 128.444 64.32-37.174.457 2.035-64.777 37.456z" fill="#fff" stroke="#000" stroke-miterlimit="10" stroke-width=".25"/><path d="m143.383 128.444v.931l64.501-37.296-.181-.809z" fill="#fff" stroke="#000" stroke-miterlimit="10" stroke-width=".25"/><path d="m143.383 131.685 64.32-37.174.457 2.035-64.777 37.456z" fill="#fff" stroke="#000" stroke-miterlimit="10" stroke-width=".25"/><path d="m143.383 131.685v.931l64.501-37.297-.181-.808z" fill="#fff" stroke="#000" stroke-miterlimit="10" stroke-width=".25"/><path d="m143.383 134.926 64.32-37.174.457 2.035-64.777 37.456z" fill="#fff" stroke="#000" stroke-miterlimit="10" stroke-width=".25"/><path d="m143.383 134.926v.931l64.501-37.296-.181-.809z" fill="#fff" stroke="#000" stroke-miterlimit="10" stroke-width=".25"/><path d="m342.2238 80.7552-.634.365v77.7211a6.6871 6.6871 0 0 0 2.7924 5.3356l85.7268 49.49a1.821 1.821 0 0 0 1.746.188c.1369-.0678.6145-.3512.7226-.4146a2.4748 2.4748 0 0 0 .9579-2.2495v-77.7167z" fill="#fff" stroke="#000" stroke-miterlimit="10" stroke-width=".25"/><path d="m430.109 213.6665-85.7268-49.49a6.6874 6.6874 0 0 1 -2.7924-5.3356v-77.7209l91.3117 52.7189v77.7163c0 2.0565-1.2502 3.0018-2.7925 2.1113z" fill="#fff" stroke="#000" stroke-miterlimit="10" stroke-width=".25"/><g opacity=".15"><path d="m425.861 169.295-6.243-3.605v-9.61l6.243 3.604z" fill="#fff"/><g stroke="#000" stroke-miterlimit="10" stroke-width=".25"><path d="m425.861 169.295-6.243-3.605v-9.61l6.243 3.604z" fill="none"/><path d="m426.54 182.757-6.242-3.604v-9.611l6.242 3.605z" fill="#fff"/></g></g><g fill="#fff"><path d="m419.309 178.904 6.454 3.675.578-7.803-6.49-3.748z" stroke="#000" stroke-miterlimit="10" stroke-width=".25"/><path d="m419.85 171.028 6.491 3.748.001-1.203-6.492-3.747z" stroke="#000" stroke-miterlimit="10" stroke-width=".25"/><path d="m419.85 171.028 6.491 3.748.001-1.203-6.492-3.747z" opacity=".1" stroke="#000" stroke-miterlimit="10" stroke-width=".25"/><path d="m418.7677 165.3693s3.8319 2.146 4.3136 2.4128.796-.5067.8-.9772c.4818.3076 1.469.5006 1.5186-.1134l.4005-5.45-6.49-3.7483z" stroke="#000" stroke-miterlimit="10" stroke-width=".25"/><path d="m419.309 157.494 6.491 3.748.001-1.203-6.492-3.748z" stroke="#000" stroke-miterlimit="10" stroke-width=".25"/><path d="m425.196 167.019-1.777.784.553-1.448z" stroke="#000" stroke-miterlimit="10" stroke-width=".25"/><path d="m415.751 173.475-66.497-38.44v-44.722l66.497 38.44z" opacity=".15" stroke="#000" stroke-miterlimit="10" stroke-width=".25"/><path d="m414.1411 172.9709.1806-.1042a1.1548 1.1548 0 0 0 .5224-.9048v-42.06a1.1548 1.1548 0 0 0 -.5224-.9049l-65.0863-37.67a1.1533 1.1533 0 0 0 -1.0448 0l-.18.1041a1.1546 1.1546 0 0 0 -.5224.9047v42.06a1.155 1.155 0 0 0 .5224.905l65.0863 37.67a1.154 1.154 0 0 0 1.0442.0001z" stroke="#000" stroke-miterlimit="10" stroke-width=".25"/><path d="m414.8424 129.901v42.0611a1.1584 1.1584 0 0 1 -.5209.9078l-.1786.1041a1.1854 1.1854 0 0 1 -.93.052c.2382.067.4093-.067.4093-.3571v-42.0612a1.0544 1.0544 0 0 0 -.1562-.5133l1.2273-.7067a1.123 1.123 0 0 1 .1491.5133z" stroke="#000" stroke-miterlimit="10" stroke-width=".25"/><path d="m348.01 92.0346 65.0864 37.67a1.1549 1.1549 0 0 1 .5224.9047v42.06c0 .3331-.234.4682-.5224.3015l-65.0864-37.6694a1.155 1.155 0 0 1 -.5224-.905v-42.06c0-.3332.2339-.4683.5224-.3018z" stroke="#000" stroke-miterlimit="10" stroke-width=".25"/><path d="m408.155 164.8166-.0146-.007a1.6137 1.6137 0 0 1 -.7751-1.2294.5441.5441 0 0 1 .08-.3l-4.8156-9.539c-.1221.1874-.39.2142-.695.0351a1.6079 1.6079 0 0 1 -.7753-1.226.4418.4418 0 0 1 .16-.3778l-4.9722-6.6242a.5556.5556 0 0 1 -.6185-.0425 1.6192 1.6192 0 0 1 -.7754-1.2293.627.627 0 0 1 .023-.1749l-4.7011-10.6853c-.0839.2935-.3857.3677-.7523.1608a1.619 1.619 0 0 1 -.7751-1.2293.5139.5139 0 0 1 .0839-.3l-4.8194-5.2111c-.1221.1842-.3858.2079-.6912.0321a1.64 1.64 0 0 1 -.55-.5434l-5.1058 2.193a1.3619 1.3619 0 0 1 .2253.6826c0 .4328-.3476.58-.7752.3356a1.6194 1.6194 0 0 1 -.7752-1.2294.63.63 0 0 1 .0228-.1748l-4.701-3.9c-.0839.2936-.3895.3674-.7522.1574a1.6077 1.6077 0 0 1 -.7753-1.226.3955.3955 0 0 1 .2941-.4377v-.0033l-5.24-9.6142a.6858.6858 0 0 1 -.485-.1092 1.6077 1.6077 0 0 1 -.7752-1.226v-.0033l-4.6515-2.6848c0 .4295-.3475.58-.7789.332a1.6137 1.6137 0 0 1 -.7753-1.2294.4033.4033 0 0 1 .29-.4414l-5.2167-9.5791a.6662.6662 0 0 1 -.504-.104v37.3755l55.8617 32.2514z" stroke="#000" stroke-miterlimit="10" stroke-width=".25"/><path d="m357.75 107.6818a.5873.5873 0 0 0 -.2161.4914 1.7852 1.7852 0 0 0 .8711 1.38 1.0478 1.0478 0 0 0 .4423.1482.6294.6294 0 0 0 .2972-.0459.5007.5007 0 0 0 .2681-.2846l4.3363 2.5035a1.8294 1.8294 0 0 0 .86 1.2612 1.051 1.051 0 0 0 .4424.1482h.0031l5.1051 9.3722a.5874.5874 0 0 0 -.2164.4915 1.7862 1.7862 0 0 0 .8711 1.38 1.0512 1.0512 0 0 0 .4424.1481.6263.6263 0 0 0 .2968-.046.5015.5015 0 0 0 .1584-.1117l4.4457 3.6856a.7983.7983 0 0 0 -.01.0885 1.7856 1.7856 0 0 0 .8711 1.38 1.0518 1.0518 0 0 0 .4422.1481.6315.6315 0 0 0 .2974-.046.5606.5606 0 0 0 .3225-.5581 1.3957 1.3957 0 0 0 -.17-.621l4.7945-2.0591a1.7993 1.7993 0 0 0 .5187.471 1.0528 1.0528 0 0 0 .4423.1482.6276.6276 0 0 0 .2972-.046c.009-.0039.0153-.0108.024-.0151l4.616 4.9889a.73.73 0 0 0 -.0454.25 1.7863 1.7863 0 0 0 .8711 1.38 1.0515 1.0515 0 0 0 .442.1481.6313.6313 0 0 0 .2973-.046.52.52 0 0 0 .0626-.0393l4.5489 10.3351a.8029.8029 0 0 0 -.017.1511 1.7855 1.7855 0 0 0 .8712 1.38 1.05 1.05 0 0 0 .4424.1483.66.66 0 0 0 .1944-.0169l4.7979 6.3932a.6622.6622 0 0 0 -.1009.3688 1.7853 1.7853 0 0 0 .8711 1.38 1.05 1.05 0 0 0 .442.1483.6374.6374 0 0 0 .27-.0385l4.679 9.2615a.71.71 0 0 0 -.0578.2817 1.7853 1.7853 0 0 0 .8713 1.38 1.05 1.05 0 0 0 .4423.1481.6294.6294 0 0 0 .2972-.0459.5608.5608 0 0 0 .3227-.5582 1.7862 1.7862 0 0 0 -.8712-1.38.83.83 0 0 0 -.74-.1021l-.0127.008-4.66-9.2241a.69.69 0 0 0 .0784-.3347 1.7867 1.7867 0 0 0 -.8711-1.38.8608.8608 0 0 0 -.6768-.1187l-4.7838-6.3744a.6355.6355 0 0 0 .1265-.4 1.7869 1.7869 0 0 0 -.8708-1.38.8334.8334 0 0 0 -.74-.1022.5142.5142 0 0 0 -.1036.0652l-4.5269-10.2853a.7545.7545 0 0 0 .0359-.2268 1.7867 1.7867 0 0 0 -.8708-1.38.83.83 0 0 0 -.7395-.1023.5241.5241 0 0 0 -.0577.0363l-4.5982-4.9694a.7052.7052 0 0 0 .0613-.291 1.7868 1.7868 0 0 0 -.8711-1.38.8324.8324 0 0 0 -.7392-.1021.5605.5605 0 0 0 -.3226.5582 1.3854 1.3854 0 0 0 .1622.6061l-4.7962 2.06a1.7912 1.7912 0 0 0 -.5092-.457.8308.8308 0 0 0 -.74-.1021.4952.4952 0 0 0 -.18.1386l-4.4284-3.6712a.8065.8065 0 0 0 .0145-.13 1.7881 1.7881 0 0 0 -.8707-1.38.9869.9869 0 0 0 -.496-.1444l-5.0938-9.3514a.5721.5721 0 0 0 .2553-.5156 1.7875 1.7875 0 0 0 -.8708-1.38.8319.8319 0 0 0 -.74-.1021.504.504 0 0 0 -.2788.3116l-4.3224-2.4956a1.817 1.817 0 0 0 -.8635-1.2963.9894.9894 0 0 0 -.4962-.1442l-5.0069-9.1915-.4262-.0315zm49.8047 55.9138c0-.1445.0481-.2481.1315-.284a.2265.2265 0 0 1 .1068-.0148.6164.6164 0 0 1 .251.0885 1.4375 1.4375 0 0 1 .68 1.0774.2867.2867 0 0 1 -.1317.284.4328.4328 0 0 1 -.3575-.0736 1.4378 1.4378 0 0 1 -.6799-1.0775zm-6.2047-11.0327c0-.1443.0481-.2482.1316-.2839a.4328.4328 0 0 1 .3576.0736 1.439 1.439 0 0 1 .68 1.0775.4393.4393 0 0 1 -.0325.176l-.0076.0032a.1434.1434 0 0 0 -.0561.08.1689.1689 0 0 1 -.0359.025.4336.4336 0 0 1 -.3572-.0735 1.4385 1.4385 0 0 1 -.6799-1.0779zm-6.205-8.273a.2866.2866 0 0 1 .1316-.2839.4341.4341 0 0 1 .3577.0737 1.4384 1.4384 0 0 1 .68 1.0777.3527.3527 0 0 1 -.0739.2415.1633.1633 0 0 0 -.0246.0075.1542.1542 0 0 0 -.0446.0371.4455.4455 0 0 1 -.3458-.0762 1.4376 1.4376 0 0 1 -.6804-1.0773zm-6.205-11.9291c0-.1444.0481-.2479.1316-.2837a.435.435 0 0 1 .3575.0737 1.4388 1.4388 0 0 1 .68 1.0775.5345.5345 0 0 1 -.0068.0763.141.141 0 0 0 -.0391.1234.1865.1865 0 0 1 -.0858.0842.4326.4326 0 0 1 -.3573-.0736 1.4385 1.4385 0 0 1 -.6801-1.0778zm-6.2051-6.7061c0-.1443.0482-.2481.1317-.2838a.2259.2259 0 0 1 .1067-.015.6143.6143 0 0 1 .2506.0886 1.4382 1.4382 0 0 1 .68 1.0778.4412.4412 0 0 1 -.0317.174l-.0123.0051a.1442.1442 0 0 0 -.0573.0833.1731.1731 0 0 1 -.03.0212.4347.4347 0 0 1 -.3576-.0737 1.4386 1.4386 0 0 1 -.6799-1.0775zm-6.2052 2.6647c0-.1443.0482-.2478.1317-.2835a.2236.2236 0 0 1 .1066-.0149.6168.6168 0 0 1 .251.0885 1.4212 1.4212 0 0 1 .4308.4121.1608.1608 0 0 0 .024.0684.1938.1938 0 0 0 .051.0478 1.1453 1.1453 0 0 1 .1745.5492.2865.2865 0 0 1 -.1317.2839.434.434 0 0 1 -.3577-.0736 1.4385 1.4385 0 0 1 -.6799-1.0779zm-6.2046-5.1442a.2866.2866 0 0 1 .1316-.2838.4344.4344 0 0 1 .3577.0735 1.44 1.44 0 0 1 .68 1.078.54.54 0 0 1 -.0075.0861.1406.1406 0 0 0 -.0365.1106.1872.1872 0 0 1 -.0877.0867.4325.4325 0 0 1 -.3572-.0736 1.4379 1.4379 0 0 1 -.6802-1.0775zm-6.2051-11.3914a.2869.2869 0 0 1 .1317-.2839.4333.4333 0 0 1 .3576.0737 1.4388 1.4388 0 0 1 .68 1.0777c0 .1444-.0481.2479-.1316.2837a.4341.4341 0 0 1 -.3573-.0737 1.4376 1.4376 0 0 1 -.6804-1.0775zm-6.2041-3.5823c0-.1445.0481-.2479.1316-.2839a.4343.4343 0 0 1 .3577.0736 1.4664 1.4664 0 0 1 .6739 1.0135.1439.1439 0 0 0 0 .1341.2493.2493 0 0 1 -.1255.2138.4329.4329 0 0 1 -.3576-.0736 1.4381 1.4381 0 0 1 -.6801-1.0775z" stroke="#000" stroke-miterlimit="10" stroke-width=".25"/><path d="m352.5411 100.1254a.1775.1775 0 0 0 .2055-.1641v-1.5869l1.6506.7771a.2082.2082 0 0 0 .2723-.0689.1814.1814 0 0 0 -.1021-.2449l-1.9412-.9139a.2305.2305 0 0 0 -.1964-.0021.1593.1593 0 0 0 -.0944.1437v1.8655a.212.212 0 0 0 .2057.1945z" stroke="#000" stroke-miterlimit="10" stroke-width=".25"/><path d="m415.751 200.496-39.141-22.63v-23.289l39.141 22.63z" opacity=".15" stroke="#000" stroke-miterlimit="10" stroke-width=".25"/><path d="m414.1411 199.992.1806-.1043a1.1546 1.1546 0 0 0 .5224-.9048v-20.627a1.155 1.155 0 0 0 -.5224-.905l-37.73-21.8593a1.1551 1.1551 0 0 0 -1.0448 0l-.18.1041a1.1549 1.1549 0 0 0 -.5224.9048v20.6273a1.155 1.155 0 0 0 .5224.9049l37.73 21.8593a1.1546 1.1546 0 0 0 1.0442 0z" stroke="#000" stroke-miterlimit="10" stroke-width=".25"/><path d="m414.8424 178.355v20.6282a1.1584 1.1584 0 0 1 -.5209.9077l-.1786.104a1.185 1.185 0 0 1 -.93.0522c.2382.0669.4093-.067.4093-.3572v-20.6282a1.0544 1.0544 0 0 0 -.1562-.5133l1.2273-.7067a1.123 1.123 0 0 1 .1491.5133z" stroke="#000" stroke-miterlimit="10" stroke-width=".25"/><path d="m375.366 156.2989 37.73 21.8594a1.1549 1.1549 0 0 1 .5224.9048v20.6269c0 .3331-.234.4682-.5224.3016l-37.73-21.8593a1.155 1.155 0 0 1 -.5224-.9049v-20.6269c0-.333.2339-.4681.5224-.3016z" stroke="#000" stroke-miterlimit="10" stroke-width=".25"/><path d="m429.873 209.223-12.807-7.394v-21.533l12.807 7.394z" opacity=".15" stroke="#000" stroke-miterlimit="10" stroke-width=".25"/><path d="m428.9376 209.4265-12.1626-7.0222a.7118.7118 0 0 1 -.3221-.5578v-20.7891c0-.2055.1442-.2887.3221-.1861l12.1626 7.0222a.7119.7119 0 0 1 .3222.5579v20.7891c.0002.2055-.1442.2886-.3222.186z" stroke="#000" stroke-miterlimit="10" stroke-width=".25"/><path d="m427.7064 191.0386-9.7-5.6a.7043.7043 0 0 1 -.3612-.5034c0-.163.1617-.2016.3612-.0865l9.7 5.6a.7037.7037 0 0 1 .3612.5034c0 .1629-.1617.2016-.3612.0865z" stroke="#000" stroke-miterlimit="10" stroke-width=".25"/><path d="m427.7064 192.5725-9.7-5.6a.7042.7042 0 0 1 -.3612-.5035c0-.1629.1617-.2016.3612-.0864l9.7 5.6a.704.704 0 0 1 .3612.5036c0 .1626-.1617.2014-.3612.0863z" stroke="#000" stroke-miterlimit="10" stroke-width=".25"/><path d="m427.7064 195.758-9.7-5.6a.7046.7046 0 0 1 -.3612-.5036c0-.1629.1617-.2016.3612-.0864l9.7 5.6a.7042.7042 0 0 1 .3612.5036c0 .163-.1617.2017-.3612.0864z" stroke="#000" stroke-miterlimit="10" stroke-width=".25"/><path d="m427.7064 197.2919-9.7-5.6a.7042.7042 0 0 1 -.3612-.5036c0-.1629.1617-.2015.3612-.0864l9.7 5.6a.7042.7042 0 0 1 .3612.5035c0 .163-.1617.2017-.3612.0865z" stroke="#000" stroke-miterlimit="10" stroke-width=".25"/><path d="m427.7064 202.0115-9.7-5.6a.7042.7042 0 0 1 -.3612-.5035c0-.1629.1617-.2016.3612-.0865l9.7 5.6a.7041.7041 0 0 1 .3612.5035c0 .1629-.1617.2016-.3612.0865z" stroke="#000" stroke-miterlimit="10" stroke-width=".25"/><path d="m427.7064 200.4776-9.7-5.6a.7044.7044 0 0 1 -.3612-.5035c0-.163.1617-.2016.3612-.0865l9.7 5.6a.7042.7042 0 0 1 .3612.5035c0 .163-.1617.2017-.3612.0865z" stroke="#000" stroke-miterlimit="10" stroke-width=".25"/><path d="m422.1488 186.35.018.0166a.1709.1709 0 0 0 .0434.0336c.0332.0209.0494-.0048.08-.02.059-.0345.1431-.084.2439-.1432s.2189-.1281.3436-.2048.2589-.156.3907-.24c.0392-.026-.0332-.1558-.0772-.1338-.1386.0721-.2746.1486-.4032.2185s-.2473.1372-.349.1951l-.2461.14c-.0283.0194-.0585.02-.0571.06a.18.18 0 0 0 .0074.0545z" stroke="#000" stroke-miterlimit="10" stroke-width=".25"/><path d="m421.8978 186.5265c.189.327.4968.504.8214.3283l.0184-.01.0071-.0049a.35.35 0 0 0 .1369-.3137 1.0908 1.0908 0 0 0 -.4919-.8531.3615.3615 0 0 0 -.33-.0436l-.0181.01a.2569.2569 0 0 0 -.029.0194.6008.6008 0 0 0 -.1148.8676z" stroke="#000" stroke-miterlimit="10" stroke-width=".25"/><path d="m421.8978 186.5265c.189.327.4968.504.8214.3283l.0184-.01.0071-.0049a.35.35 0 0 0 .1369-.3137 1.0908 1.0908 0 0 0 -.4919-.8531.3615.3615 0 0 0 -.33-.0436l-.0181.01a.2569.2569 0 0 0 -.029.0194.6008.6008 0 0 0 -.1148.8676z" opacity=".15" stroke="#000" stroke-miterlimit="10" stroke-width=".25"/><path d="m421.5017 187.1732-.3644-.6227a3.5875 3.5875 0 0 0 .7687-.5312l.0139-.014.0121-.0122.0009.0015a.2121.2121 0 0 1 .2423.0094.7079.7079 0 0 1 .32.5547.2253.2253 0 0 1 -.0937.2072.1608.1608 0 0 1 -.0612.0187 3.3429 3.3429 0 0 0 -.8386.3886z" stroke="#000" stroke-miterlimit="10" stroke-width=".25"/><path d="m420.8234 186.67a.3819.3819 0 0 1 .5207-.3582l.008.0025.0148.0068a.4547.4547 0 0 1 .0606.0279.86.86 0 0 1 .389.6741.4161.4161 0 0 1 -.0116.0974.3837.3837 0 0 1 -.7617-.0664c0-.0124.0025-.0241.0036-.0363a.3837.3837 0 0 1 -.2234-.3478z" stroke="#000" stroke-miterlimit="10" stroke-width=".25"/><path d="m420.8234 186.67a.3819.3819 0 0 1 .5207-.3582l.008.0025.0148.0068a.4547.4547 0 0 1 .0606.0279.86.86 0 0 1 .389.6741.4161.4161 0 0 1 -.0116.0974.3837.3837 0 0 1 -.7617-.0664c0-.0124.0025-.0241.0036-.0363a.3837.3837 0 0 1 -.2234-.3478z" opacity=".15" stroke="#000" stroke-miterlimit="10" stroke-width=".25"/><path d="m421.2076 186.4746c-.2148-.1241-.389-.0236-.389.2247a.86.86 0 0 0 .389.674c.2149.1242.3892.0236.3892-.2246a.8605.8605 0 0 0 -.3892-.6741z" stroke="#000" stroke-miterlimit="10" stroke-width=".25"/><path d="m373.396 175.384-12.807-7.394v-21.533l12.807 7.394z" opacity=".15" stroke="#000" stroke-miterlimit="10" stroke-width=".25"/><path d="m372.4607 175.5871-12.1627-7.0221a.7124.7124 0 0 1 -.3221-.558v-20.789c0-.2055.1443-.2887.3221-.186l12.1627 7.0222a.7116.7116 0 0 1 .3221.5579v20.789c0 .2053-.1442.2889-.3221.186z" stroke="#000" stroke-miterlimit="10" stroke-width=".25"/><path d="m371.2294 157.1992-9.7-5.6a.7042.7042 0 0 1 -.3612-.5036c0-.1629.1617-.2015.3612-.0864l9.7 5.6a.7039.7039 0 0 1 .3612.5035c0 .1629-.1617.2016-.3612.0865z" stroke="#000" stroke-miterlimit="10" stroke-width=".25"/><path d="m371.2294 158.7331-9.7-5.6a.7041.7041 0 0 1 -.3612-.5035c0-.1629.1617-.2016.3612-.0865l9.7 5.6a.7042.7042 0 0 1 .3612.5035c0 .1628-.1617.2016-.3612.0865z" stroke="#000" stroke-miterlimit="10" stroke-width=".25"/><path d="m371.2294 161.9187-9.7-5.6a.7041.7041 0 0 1 -.3612-.5035c0-.1629.1617-.2016.3612-.0864l9.7 5.6a.7042.7042 0 0 1 .3612.5035c0 .1628-.1617.2016-.3612.0864z" stroke="#000" stroke-miterlimit="10" stroke-width=".25"/><path d="m371.2294 163.4526-9.7-5.6a.7041.7041 0 0 1 -.3612-.5035c0-.1628.1617-.2015.3612-.0864l9.7 5.6a.7046.7046 0 0 1 .3612.5036c0 .1628-.1617.2015-.3612.0863z" stroke="#000" stroke-miterlimit="10" stroke-width=".25"/><path d="m371.2294 168.1722-9.7-5.6a.7042.7042 0 0 1 -.3612-.5035c0-.163.1617-.2016.3612-.0864l9.7 5.6a.7042.7042 0 0 1 .3612.5035c0 .1627-.1617.2015-.3612.0864z" stroke="#000" stroke-miterlimit="10" stroke-width=".25"/><path d="m371.2294 166.6383-9.7-5.6a.7041.7041 0 0 1 -.3612-.5034c0-.163.1617-.2016.3612-.0865l9.7 5.6a.7042.7042 0 0 1 .3612.5035c0 .1628-.1617.2016-.3612.0864z" stroke="#000" stroke-miterlimit="10" stroke-width=".25"/><path d="m365.6719 152.5106.0178.0165a.1768.1768 0 0 0 .0434.0337c.0334.0208.0494-.0049.08-.02l.244-.1432c.1009-.0592.2188-.1281.3435-.2047s.259-.156.3907-.24c.0392-.0261-.0332-.156-.0772-.1339-.1386.0722-.2746.1487-.4032.2185s-.2473.1372-.349.1952l-.2461.14c-.0283.0194-.0585.02-.057.0595a.1733.1733 0 0 0 .0073.0545z" stroke="#000" stroke-miterlimit="10" stroke-width=".25"/><path d="m365.4208 152.6871c.1891.3271.4968.5041.8215.3283l.0182-.01.0072-.0048a.35.35 0 0 0 .137-.3138 1.0911 1.0911 0 0 0 -.4919-.8531.3615.3615 0 0 0 -.33-.0436l-.0181.01a.2282.2282 0 0 0 -.029.0193.6007.6007 0 0 0 -.1149.8677z" stroke="#000" stroke-miterlimit="10" stroke-width=".25"/><path d="m365.4208 152.6871c.1891.3271.4968.5041.8215.3283l.0182-.01.0072-.0048a.35.35 0 0 0 .137-.3138 1.0911 1.0911 0 0 0 -.4919-.8531.3615.3615 0 0 0 -.33-.0436l-.0181.01a.2282.2282 0 0 0 -.029.0193.6007.6007 0 0 0 -.1149.8677z" opacity=".15" stroke="#000" stroke-miterlimit="10" stroke-width=".25"/><path d="m365.0247 153.3338-.3645-.6227a3.583 3.583 0 0 0 .769-.5312l.0137-.014.0121-.0122.0009.0016a.2117.2117 0 0 1 .2424.0094.7081.7081 0 0 1 .32.5547.2255.2255 0 0 1 -.0937.2072.16.16 0 0 1 -.0612.0186 3.3467 3.3467 0 0 0 -.8387.3886z" stroke="#000" stroke-miterlimit="10" stroke-width=".25"/><path d="m364.3464 152.83a.382.382 0 0 1 .52-.3581l.0081.0024.0148.0069a.438.438 0 0 1 .0607.0279.86.86 0 0 1 .389.674.4226.4226 0 0 1 -.0115.0975.3837.3837 0 0 1 -.7618-.0663c0-.0125.0025-.0242.0036-.0363a.3837.3837 0 0 1 -.2229-.348z" stroke="#000" stroke-miterlimit="10" stroke-width=".25"/><path d="m364.3464 152.83a.382.382 0 0 1 .52-.3581l.0081.0024.0148.0069a.438.438 0 0 1 .0607.0279.86.86 0 0 1 .389.674.4226.4226 0 0 1 -.0115.0975.3837.3837 0 0 1 -.7618-.0663c0-.0125.0025-.0242.0036-.0363a.3837.3837 0 0 1 -.2229-.348z" opacity=".15" stroke="#000" stroke-miterlimit="10" stroke-width=".25"/><path d="m364.7307 152.6353c-.2149-.1242-.3891-.0236-.3891.2247a.86.86 0 0 0 .3891.6739c.2149.1243.389.0236.389-.2246a.86.86 0 0 0 -.389-.674z" stroke="#000" stroke-miterlimit="10" stroke-width=".25"/><path d="m359.259 167.357-12.807-7.394v-21.533l12.807 7.394z" opacity=".15" stroke="#000" stroke-miterlimit="10" stroke-width=".25"/><path d="m358.3235 167.56-12.1627-7.0222a.7119.7119 0 0 1 -.3222-.5579v-20.7889c0-.2055.1443-.2887.3222-.186l12.1627 7.0221a.7124.7124 0 0 1 .3221.5579v20.7891c0 .2059-.1443.2886-.3221.1859z" stroke="#000" stroke-miterlimit="10" stroke-width=".25"/><path d="m357.0922 149.1723-9.7-5.6006a.7034.7034 0 0 1 -.3612-.5033c0-.163.1617-.2017.3612-.0865l9.7 5.6005a.7037.7037 0 0 1 .3612.5034c0 .1628-.1617.2016-.3612.0865z" stroke="#000" stroke-miterlimit="10" stroke-width=".25"/><path d="m357.0922 150.7061-9.7-5.6a.7041.7041 0 0 1 -.3612-.5034c0-.163.1617-.2017.3612-.0865l9.7 5.6a.7042.7042 0 0 1 .3612.5036c0 .1628-.1617.2015-.3612.0863z" stroke="#000" stroke-miterlimit="10" stroke-width=".25"/><path d="m357.0922 153.8918-9.7-5.6a.7042.7042 0 0 1 -.3612-.5035c0-.1629.1617-.2016.3612-.0863l9.7 5.6a.7042.7042 0 0 1 .3612.5036c0 .1627-.1617.2014-.3612.0862z" stroke="#000" stroke-miterlimit="10" stroke-width=".25"/><path d="m357.0922 155.4256-9.7-5.6a.7042.7042 0 0 1 -.3612-.5036c0-.1629.1617-.2016.3612-.0863l9.7 5.6a.7041.7041 0 0 1 .3612.5035c0 .163-.1617.2015-.3612.0864z" stroke="#000" stroke-miterlimit="10" stroke-width=".25"/><path d="m357.0922 160.1452-9.7-5.6a.7044.7044 0 0 1 -.3612-.5035c0-.163.1617-.2017.3612-.0865l9.7 5.6a.7039.7039 0 0 1 .3612.5034c0 .163-.1617.2014-.3612.0866z" stroke="#000" stroke-miterlimit="10" stroke-width=".25"/><path d="m357.0922 158.6114-9.7-5.6a.7044.7044 0 0 1 -.3612-.5035c0-.163.1617-.2017.3612-.0864l9.7 5.6a.7041.7041 0 0 1 .3612.5035c0 .1628-.1617.2015-.3612.0864z" stroke="#000" stroke-miterlimit="10" stroke-width=".25"/><path d="m351.5347 144.4836.0178.0166a.1767.1767 0 0 0 .0435.0336c.0332.0209.0493-.0048.08-.02l.2439-.1433c.101-.0591.2189-.1279.3436-.2047s.259-.156.3907-.24c.0392-.026-.0331-.1558-.0772-.1337-.1386.0721-.2746.1486-.4032.2184s-.2473.1372-.349.1951l-.2462.14c-.0282.02-.0584.0206-.0569.06a.1791.1791 0 0 0 .0072.0545z" stroke="#000" stroke-miterlimit="10" stroke-width=".25"/><path d="m351.2835 144.66c.1891.327.4969.504.8216.3282l.0183-.01.0071-.0048a.35.35 0 0 0 .137-.3137 1.09 1.09 0 0 0 -.4921-.8531.3615.3615 0 0 0 -.3295-.0437l-.0182.01a.2362.2362 0 0 0 -.029.0194.6008.6008 0 0 0 -.1152.8677z" stroke="#000" stroke-miterlimit="10" stroke-width=".25"/><path d="m351.2835 144.66c.1891.327.4969.504.8216.3282l.0183-.01.0071-.0048a.35.35 0 0 0 .137-.3137 1.09 1.09 0 0 0 -.4921-.8531.3615.3615 0 0 0 -.3295-.0437l-.0182.01a.2362.2362 0 0 0 -.029.0194.6008.6008 0 0 0 -.1152.8677z" opacity=".15" stroke="#000" stroke-miterlimit="10" stroke-width=".25"/><path d="m350.8874 145.3069-.3644-.6227a3.5863 3.5863 0 0 0 .7689-.5313l.0139-.0139.0119-.0121.0009.0014a.2124.2124 0 0 1 .2425.0093.7086.7086 0 0 1 .32.5548.2254.2254 0 0 1 -.0937.2072.1615.1615 0 0 1 -.0611.0186 3.3508 3.3508 0 0 0 -.8389.3887z" stroke="#000" stroke-miterlimit="10" stroke-width=".25"/><path d="m350.2093 144.8032a.3818.3818 0 0 1 .5205-.3582l.008.0024.0148.0069a.45.45 0 0 1 .0607.0279.8607.8607 0 0 1 .3891.6741.4168.4168 0 0 1 -.0117.0975.3837.3837 0 0 1 -.7617-.0663c0-.0126.0025-.0243.0035-.0364a.3835.3835 0 0 1 -.2232-.3479z" stroke="#000" stroke-miterlimit="10" stroke-width=".25"/><path d="m350.2093 144.8032a.3818.3818 0 0 1 .5205-.3582l.008.0024.0148.0069a.45.45 0 0 1 .0607.0279.8607.8607 0 0 1 .3891.6741.4168.4168 0 0 1 -.0117.0975.3837.3837 0 0 1 -.7617-.0663c0-.0126.0025-.0243.0035-.0364a.3835.3835 0 0 1 -.2232-.3479z" opacity=".15" stroke="#000" stroke-miterlimit="10" stroke-width=".25"/><path d="m350.5935 144.6083c-.2149-.1241-.3892-.0236-.3892.2247a.8605.8605 0 0 0 .3892.674c.2149.1241.3891.0235.3891-.2246a.86.86 0 0 0 -.3891-.6741z" stroke="#000" stroke-miterlimit="10" stroke-width=".25"/><path d="m429.873 158.44-12.807-7.394v-21.533l12.807 7.394z" opacity=".15" stroke="#000" stroke-miterlimit="10" stroke-width=".25"/><path d="m428.9376 158.6429-12.1626-7.022a.712.712 0 0 1 -.3221-.558v-20.789c0-.2055.1442-.2888.3221-.1861l12.1626 7.0222a.7116.7116 0 0 1 .3223.5579v20.7891c.0001.2055-.1443.2887-.3223.1859z" stroke="#000" stroke-miterlimit="10" stroke-width=".25"/><path d="m427.7064 140.2551-9.7-5.6a.7043.7043 0 0 1 -.3612-.5034c0-.1631.1617-.2017.3612-.0864l9.7 5.6a.7041.7041 0 0 1 .3612.5037c0 .1625-.1616.201-.3612.0861z" stroke="#000" stroke-miterlimit="10" stroke-width=".25"/><path d="m427.7064 141.789-9.7-5.6a.7044.7044 0 0 1 -.3612-.5036c0-.1629.1617-.2016.3612-.0864l9.7 5.6a.7038.7038 0 0 1 .3612.5035c0 .1629-.1616.2015-.3612.0865z" stroke="#000" stroke-miterlimit="10" stroke-width=".25"/><path d="m427.7064 144.9745-9.7-5.6a.7042.7042 0 0 1 -.3612-.5036c0-.1628.1617-.2016.3612-.0864l9.7 5.6a.7038.7038 0 0 1 .3612.5034c0 .1633-.1616.2021-.3612.0866z" stroke="#000" stroke-miterlimit="10" stroke-width=".25"/><path d="m427.7064 146.5085-9.7-5.6a.7046.7046 0 0 1 -.3612-.5036c0-.1628.1617-.2016.3612-.0864l9.7 5.6a.7035.7035 0 0 1 .3612.5034c0 .163-.1616.2017-.3612.0866z" stroke="#000" stroke-miterlimit="10" stroke-width=".25"/><path d="m427.7064 151.2281-9.7-5.6005a.7038.7038 0 0 1 -.3612-.5033c0-.163.1617-.2018.3612-.0865l9.7 5.6a.7039.7039 0 0 1 .3612.5036c0 .1631-.1616.2018-.3612.0867z" stroke="#000" stroke-miterlimit="10" stroke-width=".25"/><path d="m427.7064 149.6942-9.7-5.6a.7039.7039 0 0 1 -.3612-.5034c0-.1629.1617-.2016.3612-.0864l9.7 5.6a.704.704 0 0 1 .3612.5035c0 .1627-.1616.2014-.3612.0863z" stroke="#000" stroke-miterlimit="10" stroke-width=".25"/><path d="m422.1489 135.5664.0179.0167a.1744.1744 0 0 0 .0435.0335c.0331.0208.0494-.0048.08-.0195l.2439-.1433c.1011-.0591.2189-.128.3436-.2048s.259-.1559.3907-.24c.0392-.0261-.0332-.1559-.0771-.1337-.1387.072-.2747.1485-.4033.2184s-.2473.1372-.349.195-.1868.1059-.2461.14c-.0282.0194-.0584.0206-.0571.06a.18.18 0 0 0 .0074.0545z" stroke="#000" stroke-miterlimit="10" stroke-width=".25"/><path d="m421.8979 135.7429c.189.3272.4967.5041.8214.3285l.0183-.01.0071-.0049a.35.35 0 0 0 .1369-.3139 1.0905 1.0905 0 0 0 -.4919-.853.3609.3609 0 0 0 -.33-.0436l-.0181.01a.24.24 0 0 0 -.029.0194.6005.6005 0 0 0 -.1147.8675z" stroke="#000" stroke-miterlimit="10" stroke-width=".25"/><path d="m421.8979 135.7429c.189.3272.4967.5041.8214.3285l.0183-.01.0071-.0049a.35.35 0 0 0 .1369-.3139 1.0905 1.0905 0 0 0 -.4919-.853.3609.3609 0 0 0 -.33-.0436l-.0181.01a.24.24 0 0 0 -.029.0194.6005.6005 0 0 0 -.1147.8675z" opacity=".15" stroke="#000" stroke-miterlimit="10" stroke-width=".25"/><path d="m421.5018 136.39-.3645-.6226a3.5885 3.5885 0 0 0 .7687-.5314l.0139-.014.0121-.0121.0009.0016a.2115.2115 0 0 1 .2423.0093.7079.7079 0 0 1 .32.5547.2249.2249 0 0 1 -.0937.2072.1585.1585 0 0 1 -.0612.0186 3.3461 3.3461 0 0 0 -.8385.3887z" stroke="#000" stroke-miterlimit="10" stroke-width=".25"/><path d="m420.8235 135.886a.3842.3842 0 0 1 .3843-.3842.3794.3794 0 0 1 .1363.0261l.008.0024.0148.0068a.4558.4558 0 0 1 .0606.028.8605.8605 0 0 1 .3891.6741.4231.4231 0 0 1 -.0116.0975.3838.3838 0 0 1 -.7618-.0665.3578.3578 0 0 1 .0037-.0362.3837.3837 0 0 1 -.2234-.348z" stroke="#000" stroke-miterlimit="10" stroke-width=".25"/><path d="m420.8235 135.886a.3842.3842 0 0 1 .3843-.3842.3794.3794 0 0 1 .1363.0261l.008.0024.0148.0068a.4558.4558 0 0 1 .0606.028.8605.8605 0 0 1 .3891.6741.4231.4231 0 0 1 -.0116.0975.3838.3838 0 0 1 -.7618-.0665.3578.3578 0 0 1 .0037-.0362.3837.3837 0 0 1 -.2234-.348z" opacity=".15" stroke="#000" stroke-miterlimit="10" stroke-width=".25"/><path d="m421.2078 135.6912c-.215-.1241-.3892-.0235-.3892.2245a.86.86 0 0 0 .3892.6741c.2147.1241.389.0236.389-.2247a.86.86 0 0 0 -.389-.6739z" stroke="#000" stroke-miterlimit="10" stroke-width=".25"/><path d="m433.3527 136.5368 2.132-3.7035-93.4506-53.9533-.0023.004a1.0346 1.0346 0 0 0 -1.0967.0826 3.3393 3.3393 0 0 0 -1.5109 2.617 1.0754 1.0754 0 0 0 .4147.9551l-.003.0049.03.0175.0014.0009z" stroke="#000" stroke-miterlimit="10" stroke-width=".25"/><path d="m432.9015 135.5538a3.3393 3.3393 0 0 1 1.5109-2.6169c.8345-.4818 1.5108-.0912 1.5108.8724a3.3393 3.3393 0 0 1 -1.5108 2.6169c-.8345.4817-1.5109.0912-1.5109-.8724z" stroke="#000" stroke-miterlimit="10" stroke-width=".25"/><path d="m412.594 179.323-36.889-21.298.033 19.322 36.934 21.324z" stroke="#000" stroke-miterlimit="10" stroke-width=".25"/><path d="m412.6723 198.6774-36.9454-21.33v-4.2827a3.1892 3.1892 0 0 1 .5224.623 5.6763 5.6763 0 0 1 .3309 1.34 1.4541 1.4541 0 0 0 .2331.5867 3.3238 3.3238 0 0 1 .1892.6953c.2016.6393.52.797.8439.866a3.6967 3.6967 0 0 1 1.2385.8383 3.6871 3.6871 0 0 0 .55.382c.2355.1148.37-.0541.56-.131a1.1268 1.1268 0 0 1 1.275.2659c.3947.3866.808.36 1.1992.78.3282.3524.6309.8137.967 1.1336.4015.3822.7979.3971 1.2059.6966a3.74 3.74 0 0 0 .9211.63c.6674.23 1.2128 1.034 1.8528 1.4513 1.0832.7065.7688-1.2792 1.2534-1.9466.2732-.3762.1641-1.0362.2888-1.5968a1.6055 1.6055 0 0 1 .2386-.5351c.0941-.1556.1417-.4183.2394-.551.0515-.07.23-.1534.3175-.0763.1717.1509.124.5484.2737.737.0973.1227.205.0367.3052.1162a1.4626 1.4626 0 0 1 .3134.5706 5.3971 5.3971 0 0 0 .7717 1.1107c.2437.3484.3316.7734.6144 1.1073.2123.2508.43.3677.623.2449.2948-.1877.3513-2.1509.5-2.4287.1829-.3422.2221-.9122.4569-1.1742.181-.2016.2035.1814.3605.108.0722-.0337.0729-.1867.1557-.2075.1039-.026.1865.09.2774.2284.1547.2361.2757.563.4274.7916.2565.3868.2712.0364.4526.0421.2068.0065.2833.4692.3683.7067a7.7627 7.7627 0 0 1 .3563 1.0511 5.6675 5.6675 0 0 0 .2728 1.3335c.07.0832.0763-.0521.1228-.0038a.7752.7752 0 0 1 .1324.38 2.4257 2.4257 0 0 0 .3131.9215c.2337.2994.3243-.0022.5192.0413.1619.0362.3242.2584.4867.2613.1074.002.1587-.116.2787-.062.0527.0238.12.1272.1843.1572.1617.0755.1671-.0393.3313.2018a2.3383 2.3383 0 0 0 .2976.4334.5113.5113 0 0 0 .4238.1263c.1485-.0268.2068-.1786.3064-.31.1146-.1509.1883-.0332.3311-.0431.1468-.0105.21-.1308.3557.1807a4.08 4.08 0 0 1 .1931 1.0157c.0595.38.1254.7638.1974 1.1452a4.7407 4.7407 0 0 0 .622 1.8691.9419.9419 0 0 0 .5359.4176c.1757.0212.3739-.0875.5617.05.0959.07.1144.1524.1943.23.2309.2251.4576.1576.6845.41a2.6332 2.6332 0 0 0 .5656.5144 4.9 4.9 0 0 1 .76.882 1.6875 1.6875 0 0 0 .9413.6335 1.94 1.94 0 0 0 .9058.0448c.2-.0681.3524.1.58.2559.18.1237.2822.0241.444.0528.1676.0295.3465.2365.5116.2824.14.0391.2355-.0848.3684-.07a.6634.6634 0 0 0 .3874-.0223c.4073-.1877.5612-.7121.69-1.347a2.811 2.811 0 0 1 .5036-1.4828c.2986-.2853.7971-.2229.9137-.8374a34.0436 34.0436 0 0 0 .45-4.0993c.13-2.3384.3393-4.2675.5-4.06.1926.2479-.014 4.3684.5956 5.5734z" stroke="#000" stroke-miterlimit="10" stroke-width=".25"/><path d="m431.4691 331.43c6.7357-6.95 10.692-31.5187 4.1223-37.0312h-33.4274c-6.5679 5.5108-2.6159 30.07 4.1157 37.0246.0576.0648.1239.1271.1845.1912.0771.0773.1541.155.2319.2294.19.1863.3919.3687.6089.5475.0533.0447.1075.0844.1611.1278.1649.1308.3278.2622.5082.3884a9.41 9.41 0 0 0 .8708.5627c5.5407 3.2348 14.5238 3.2348 20.0639 0h.0008a9.405 9.405 0 0 0 .8765-.567c.1679-.1176.3187-.24.4732-.3618.0663-.053.1331-.1024.1989-.1577.2092-.1729.4037-.349.5873-.5284.09-.0855.1789-.1754.2677-.2646.0512-.0538.1074-.1064.1557-.1609z" stroke="#000" stroke-miterlimit="10" stroke-width=".25"/><path d="m405.0667 292.1782c-7.6269 4.4533-7.6266 11.6731 0 16.126s19.9932 4.4532 27.62 0 7.6269-11.6726 0-16.1255-19.9929-4.4532-27.62-.0005z" stroke="#000" stroke-miterlimit="10" stroke-width=".25"/></g><path d="m408.7354 294.32c-5.6014 3.27-5.6011 8.5722 0 11.8424s14.6821 3.27 20.2834 0 5.601-8.5723 0-11.8427-14.6825-3.2697-20.2834.0003z"/><path d="m429.0186 299.9406c-5.6011-3.27-14.6822-3.27-20.2832 0a9.3462 9.3462 0 0 0 -3.355 3.111 9.3463 9.3463 0 0 0 3.355 3.1111c5.601 3.27 14.6821 3.27 20.2832 0a9.3434 9.3434 0 0 0 3.3551-3.1111 9.3411 9.3411 0 0 0 -3.3551-3.111z" fill="#e55b2d"/><path d="m407.68 247.2467 10.4823 10.818-10.6311-6.7121a31.5641 31.5641 0 0 0 .5565 10.9794 69.8171 69.8171 0 0 1 7.99 7.4055l-8.2254-4.5685s-1.3462 5.64-.1143 14.6761c.3227 2.3664 2.3155 7.0655 3.5088 10.5385a37.716 37.716 0 0 0 1.9479 4.6829c.0415.0973.091.1891.1388.2873q3.2009-1.31 6.6192-2.4869c1.7805-2.751 4.551-9.7564 5.9883-15.6025 5.483-22.3834-9.9779-37.6572-23.2113-43.8369a41.494 41.494 0 0 1 4.9503 13.8192z" fill="#e55b2d"/><path d="m417.34 249.4829a22.3459 22.3459 0 0 1 3.7122 9.3632 46.47 46.47 0 0 1 .7856 10.1 42.94 42.94 0 0 1 -5.07 19.3951l-.0038.0071a.3318.3318 0 0 0 .5824.3181l.0025-.0047a43.4285 43.4285 0 0 0 4.8209-19.7082 46.7105 46.7105 0 0 0 -.9547-10.14 22.4255 22.4255 0 0 0 -3.8751-9.3306z" fill="#fff"/><path d="m460.9839 255.4093a.09.09 0 0 1 -.0187.0174 187.4947 187.4947 0 0 0 -13.0426 18.4615l-12.7188 2.0918 9.3911 1.6073-5.0117 7.9993-12.5154 2.6334 9.7857 1.5572s-2.6824 9.5533-9.6691 13.5566c-3.8569 2.21-5.5327 2.268-6.9086 1.4526-1.68-.996-2.488-3.7329-3.1782-7.8158s.7009-12.34 4.5289-20.3689a25.0573 25.0573 0 0 1 3.9879-5.9058c9.2282-10.3484 26.7139-15.3824 35.3695-15.2866z" fill="#e55b2d"/><path d="m447.6842 259.6194a51.8577 51.8577 0 0 0 -17.6594 12.2871 34.8484 34.8484 0 0 0 -6.03 9.02 32.989 32.989 0 0 0 -2.7326 10.4671.035.035 0 0 0 .032.0382.0365.0365 0 0 0 .0379-.029 42.3688 42.3688 0 0 1 3.3019-10.1786 39.14 39.14 0 0 1 5.8122-8.943 52.8955 52.8955 0 0 1 17.2669-12.5975.0349.0349 0 0 0 .017-.0468.0353.0353 0 0 0 -.0459-.0175z" fill="#fff"/><path d="m374.3068 260.8778a29.0575 29.0575 0 0 1 3.5285-.1576 56.3961 56.3961 0 0 1 13.74 2.05c1.66.4524 3.3334.9834 4.9862 1.5964q1.2395.46 2.46.9818a39.0727 39.0727 0 0 1 11.0062 6.8512 24.7378 24.7378 0 0 1 3.9986 4.66c.1457.2213.3015.4361.44.6628l.0024.0045c.356.5868.68 1.1647.988 1.7386a33.745 33.745 0 0 1 4.5363 16.2647c.2188 4.0209-.7279 8.727-1.44 9.55a1.84 1.84 0 0 1 -.3253.2907c-1.0763.832-2.9318.5725-6.5017-1.0185-7.1525-3.1882-10.7013-12.5882-10.7013-12.5882l9.3155-2.4666-12.3676-1.32-5.6337-7.2483 8.9288-2.4763-12.5112-.7764a182.4343 182.4343 0 0 0 -14.43-16.5832.0832.0832 0 0 1 -.02-.0147z" fill="#e55b2d"/><path d="m377.8353 260.72a56.3961 56.3961 0 0 1 13.74 2.05c1.66.4524 3.3334.9834 4.9862 1.5964q1.2395.46 2.46.9818a39.0727 39.0727 0 0 1 11.0062 6.8512 24.7378 24.7378 0 0 1 3.9986 4.66c.1457.2213.3015.4361.44.6628l.0024.0045c.356.5868.68 1.1647.988 1.7386a33.745 33.745 0 0 1 4.5363 16.2647c.2188 4.0209-.7279 8.727-1.44 9.55a1.84 1.84 0 0 1 -.3253.2907 2.1217 2.1217 0 0 1 -.7242.3438c.2743-6.29-4.2135-21.769-9.43-27.8294-5.4276-6.305-17.7378-15.0453-33.7465-16.9923l.0113-.0173a29.1621 29.1621 0 0 1 3.497-.1555z" fill="#e55b2d"/><path d="m417.5421 305.7133a53.549 53.549 0 0 0 -2.1405-13.6619 44.5752 44.5752 0 0 0 -5.7432-12.6185 38.779 38.779 0 0 0 -10.1638-9.4663 51.7773 51.7773 0 0 0 -12.4848-6.02.0389.0389 0 0 0 -.0269.073 67.9238 67.9238 0 0 1 12.0768 6.5909 49.6676 49.6676 0 0 1 5.4246 4.2 30.3585 30.3585 0 0 1 4.6678 4.9831 44.0883 44.0883 0 0 1 5.8772 12.37 53.3006 53.3006 0 0 1 2.4351 13.5521.0389.0389 0 0 0 .0777-.0021z" fill="#fff"/><path d="m80.0116 348.9284c-6.7356-6.95-10.692-31.5187-4.1223-37.0311h33.4274c6.5679 5.5107 2.6159 30.07-4.1157 37.0245-.0576.0648-.1239.1272-.1845.1912-.0771.0774-.154.155-.2319.2294-.19.1864-.3919.3687-.6089.5475-.0533.0447-.1075.0844-.161.1278-.165.1308-.3279.2622-.5083.3885a9.4083 9.4083 0 0 1 -.8708.5626c-5.5407 3.2349-14.5238 3.2349-20.0639 0h-.0008a9.37 9.37 0 0 1 -.8764-.567c-.168-.1175-.3188-.24-.4733-.3617-.0663-.0531-.1331-.1025-.1989-.1578-.2092-.1729-.4037-.3489-.5873-.5283-.09-.0855-.1789-.1754-.2677-.2647-.0512-.0535-.1073-.106-.1557-.1609z" fill="#fff" stroke="#000" stroke-miterlimit="10" stroke-width=".25"/><path d="m106.414 309.6769c7.6269 4.4534 7.6266 11.6731 0 16.126s-19.9932 4.4532-27.62 0-7.6269-11.6725 0-16.1255 19.9929-4.4532 27.62-.0005z" fill="#fff" stroke="#000" stroke-miterlimit="10" stroke-width=".25"/><path d="m102.7454 311.8188c5.6013 3.27 5.601 8.5723 0 11.8424s-14.6822 3.27-20.2835 0-5.601-8.5722 0-11.8427 14.6825-3.2697 20.2835.0003z"/><path d="m82.4621 317.4393c5.6011-3.27 14.6822-3.27 20.2833 0a9.3457 9.3457 0 0 1 3.3546 3.1107 9.3466 9.3466 0 0 1 -3.3549 3.111c-5.6011 3.27-14.6822 3.27-20.2833 0a9.3432 9.3432 0 0 1 -3.3551-3.111 9.3413 9.3413 0 0 1 3.3554-3.1107z" fill="#e55b2d"/><path d="m103.801 264.7455-10.4823 10.8179 10.6311-6.712a31.5635 31.5635 0 0 1 -.5565 10.9793 69.8309 69.8309 0 0 0 -7.99 7.4056l8.2254-4.5686s1.3462 5.64.1143 14.6762c-.3227 2.3664-2.3155 7.0654-3.5088 10.5384a37.71 37.71 0 0 1 -1.9479 4.6829c-.0415.0973-.091.1891-.1388.2873q-3.2007-1.31-6.6192-2.4869c-1.7805-2.7509-4.551-9.7563-5.9883-15.6024-5.483-22.3835 9.9779-37.6572 23.2113-43.837a41.4964 41.4964 0 0 0 -4.9503 13.8193z" fill="#e55b2d"/><path d="m94.141 266.9816a22.3478 22.3478 0 0 0 -3.7122 9.3632 46.47 46.47 0 0 0 -.7856 10.0995 42.94 42.94 0 0 0 5.07 19.3951l.0038.0071a.3318.3318 0 1 1 -.5824.3181l-.0025-.0047a43.4285 43.4285 0 0 1 -4.8209-19.7082 46.709 46.709 0 0 1 .9547-10.14 22.4259 22.4259 0 0 1 3.8751-9.3301z" fill="#fff"/><path d="m50.4968 272.908a.0919.0919 0 0 0 .0187.0175 187.4685 187.4685 0 0 1 13.0426 18.4614l12.7188 2.0917-9.3911 1.6074 5.0117 7.9993 12.5154 2.6336-9.7856 1.5572s2.6823 9.5534 9.669 13.5566c3.8569 2.21 5.5327 2.268 6.9086 1.4526 1.68-.9959 2.488-3.7329 3.1783-7.8157s-.701-12.34-4.529-20.369a25.0546 25.0546 0 0 0 -3.9879-5.9057c-9.2282-10.3487-26.7138-15.3827-35.3695-15.2869z" fill="#e55b2d"/><path d="m63.7965 277.1182a51.854 51.854 0 0 1 17.6594 12.2871 34.8479 34.8479 0 0 1 6.03 9.02 32.9871 32.9871 0 0 1 2.7326 10.4671.0352.0352 0 0 1 -.032.0383.0366.0366 0 0 1 -.0379-.0291 42.368 42.368 0 0 0 -3.3019-10.1785 39.1347 39.1347 0 0 0 -5.8122-8.9431 52.8945 52.8945 0 0 0 -17.2669-12.5975.0349.0349 0 0 1 -.017-.0468.0353.0353 0 0 1 .0459-.0175z" fill="#fff"/><path d="m137.1739 278.3765a29.0778 29.0778 0 0 0 -3.5285-.1576 56.3918 56.3918 0 0 0 -13.74 2.05c-1.66.4523-3.3334.9834-4.9862 1.5964q-1.2395.46-2.46.9817a39.075 39.075 0 0 0 -11.0062 6.8512 24.7409 24.7409 0 0 0 -3.9986 4.66c-.1457.2213-.3015.4362-.4395.6628l-.0024.0045c-.356.5868-.6795 1.1647-.988 1.7387a33.7455 33.7455 0 0 0 -4.5363 16.2646c-.2188 4.021.7279 8.727 1.44 9.55a1.84 1.84 0 0 0 .3252.2907c1.0764.832 2.9318.5724 6.5017-1.0186 7.1525-3.1882 10.7013-12.5882 10.7013-12.5882l-9.3154-2.4666 12.3675-1.32 5.6337-7.2482-8.9288-2.4764 12.5113-.7763a182.3906 182.3906 0 0 1 14.43-16.5832.0849.0849 0 0 0 .02-.0148z" fill="#e55b2d"/><path d="m133.6454 278.2189a56.3918 56.3918 0 0 0 -13.74 2.05c-1.66.4523-3.3334.9834-4.9862 1.5964q-1.2395.46-2.46.9817a39.075 39.075 0 0 0 -11.0062 6.8512 24.7409 24.7409 0 0 0 -3.9986 4.66c-.1457.2213-.3015.4362-.4395.6628l-.0024.0045c-.356.5868-.6795 1.1647-.988 1.7387a33.7455 33.7455 0 0 0 -4.5363 16.2646c-.2188 4.021.7279 8.727 1.44 9.55a1.84 1.84 0 0 0 .3252.2907 2.1215 2.1215 0 0 0 .7242.3437c-.2743-6.2905 4.2136-21.769 9.43-27.8294 5.4276-6.305 17.7378-15.0453 33.7465-16.9922l-.0113-.0173a29.14 29.14 0 0 0 -3.4974-.1554z" fill="#e55b2d"/><path d="m93.9387 323.212a53.5452 53.5452 0 0 1 2.14-13.6619 44.578 44.578 0 0 1 5.7432-12.6185 38.779 38.779 0 0 1 10.1638-9.4663 51.777 51.777 0 0 1 12.4848-6.02.0389.0389 0 0 1 .0269.0729 67.93 67.93 0 0 0 -12.0768 6.5909 49.6924 49.6924 0 0 0 -5.4246 4.2 30.3628 30.3628 0 0 0 -4.6678 4.9831 44.0924 44.0924 0 0 0 -5.8772 12.37 53.3022 53.3022 0 0 0 -2.4351 13.5521.0388.0388 0 0 1 -.0776-.0021z" fill="#fff"/><path d="m277.43 354.812 2.532-1.369-2.574-.62z"/><path d="m303.2086 358.6527s-30.9716-12.706-31.2745-10.6271a3.0652 3.0652 0 0 0 .0617 1.2411c-.0276-.0366-.0608-.0717-.0862-.1085l.7048 3.8319a9.0382 9.0382 0 0 0 4.8155 1.8222c-.004-.1858-.0281-1.3338-.0419-1.989a15.4463 15.4463 0 0 1 2.74 1.3348c2.0008 1.2285 3.34 3.455 5.51 6.0192 1.5816 1.8686 4.3067 2.6677 8.317 3.091 4.3156.4555 8.0676-.513 9.0909-1.7119a3.0768 3.0768 0 0 0 .1627-2.9037z"/><path d="m302.3413 357.97c-.3045-.2979-1.4355-1.462-2.954-2.72a57.429 57.429 0 0 0 -4.5349-3.6058 17.0348 17.0348 0 0 1 -2.25-1.7319c-.5525-.5544-1.0838-1.13-1.5795-1.7358a32.4962 32.4962 0 0 1 -3.5454-5.4334 8.6866 8.6866 0 0 1 -1.0891-4.6852 108.9871 108.9871 0 0 1 .82-13.6648l-14.6793.24c.51 2.3166.81 6.2757 1.13 8.9179.4875 4.0191.628 4.9113-.7865 8.99a11.8378 11.8378 0 0 0 -1.074 3.6349c-.02 2.0656 1.6559 3.7877 3.494 4.73 1.5233.781 3.2545 1.0769 4.7356 1.9142a15.0633 15.0633 0 0 1 3.9308 3.6076c1.0739 1.2812 1.9543 2.81 3.4268 3.6842a13.3253 13.3253 0 0 0 5.0264 1.543 26.6016 26.6016 0 0 0 6.6787.0927c3.154-.3656 5.4662-1.609 3.2504-3.7776z" fill="#fff" stroke="#000" stroke-miterlimit="10" stroke-width=".25"/><path d="m300.5113 355.783c-1.3534-1.0628-3.2724-2.5844-5.5846-4.2905a5.709 5.709 0 0 0 -4.7095.6064c-4.4377 2.56-5.0838 5.9789-5.0838 5.9789a6.5253 6.5253 0 0 0 3.8141 3.1151c5.3134 2.105 14.6435 1.0309 14.6458-1.3951.0014-1.545-1.4389-2.7249-3.082-4.0148zm-27.3813-14.1277s-.2751.8062-1.0161 2.3943a4.3974 4.3974 0 0 0 .2179 4.6691 6.9527 6.9527 0 0 0 4.6994 2.9631c1.2818-4.6476-2.0479-9.0999-3.9012-10.0265z"/><path d="m249.4729 347.1488c.8631 1.3867-.256 6.6161-.0589 10.3386.1792 3.382 1.0806 9.2778.0417 12.6189-1.2313 3.96-3.7351 8.5553-8.39 4.8455-2.885-2.2992-4.5385-5.2715-4.9319-10.1407-.2733-3.3838 1.0769-8.0639 2.2363-12.2151 1.3542-4.8488 1.87-7.4412 1.87-7.4412z"/><path d="m239.9175 322.1986c-.3326 7.89.5851 13.4294.6385 18.4825a35.5649 35.5649 0 0 1 -.7193 6.8232c-.6628 3.2232-1.7872 7.7053-2.26 9.7947-.6607 2.9189-1.1613 4.7593-.1522 8.0337a3.8881 3.8881 0 0 0 .33.739c1.4091 2.6985 4.991 4.7365 6.1387 4.41a1.9755 1.9755 0 0 0 2.0168.7046 2.6963 2.6963 0 0 0 .3814-.093 2.7937 2.7937 0 0 0 .3828-.1547 3.9172 3.9172 0 0 0 1.9073-2.48 6.9836 6.9836 0 0 0 .1841-.714 25.2154 25.2154 0 0 0 .1506-8.2805c-.0907-1.8346.0161-4.1705.1778-7.13s.8659-12.2547 1.8946-16.6981c.7634-3.1018 1.7157-6.992 2.7191-11.14z" fill="#fff" stroke="#000" stroke-miterlimit="10" stroke-width=".25"/><path d="m236.8781 361.0993c2.8256-1.2463 11.0161-1.42 12.3216 2.567.0337 3.7541.0566 6.2987-2.3144 9.5657-3.15 4.3406-7.2608-.2612-8.8366-3.1831a15.0736 15.0736 0 0 1 -1.1706-8.9496z"/><path d="m250.5982 219.15c-3.99 7.1527-7.2093 13.1824-8.2485 32.0789-1.1727 21.3247-.998 29.4462-1.1 32.02s-1.7608 7.2937-3.1694 19.9672.0754 43.3994.0754 43.3994.9966 2.07 5.8433 2.54a12.3687 12.3687 0 0 0 7.0963-1.1361s7.1064-40.3433 8.859-47.97 6.8657-32.7094 6.8657-32.7094l2.7769 20.3936s-1.4156 6.9892-.1322 18.1213 3.6633 32.4272 3.6633 32.4272a15.7072 15.7072 0 0 0 6.6153 2.4028 11.2582 11.2582 0 0 0 7.2319-1.56s4.3319-44.1231 4.4241-56.7295-.8807-44.0639-4.7123-62.7569z" fill="#fff" stroke="#000" stroke-miterlimit="10" stroke-width=".25"/><path d="m270.9913 243.1271-4.1713 24.2129 2.777 20.3936-1.0921-20.654 3.7139-19.8658c3.0452-.7065 9.9888-4.3014 11.9275-9.4935-4.7209 4.866-13.155 5.4068-13.155 5.4068z"/><path d="m303.2805 195.7839s.216 1.8883-2.6167 5.5773c-2.6255 3.4193-1.46 8.0853 1.5089 8.7053s6.37-1.6362 10.5723-3.7057c4.3691-2.1517 12.0761-6.5469 15.9271-8.9037 2.36-1.444 5.0444-1.504 7.6321-2.19a17.1109 17.1109 0 0 0 6.9083-3.9572 10.5292 10.5292 0 0 0 2.0141-2.2875 4.8008 4.8008 0 0 0 .7881-2.5662 1.6659 1.6659 0 0 1 .6143-1.5716 2.8433 2.8433 0 0 0 .7462-1.9619 16.34 16.34 0 0 1 -.1783-2.6271c.0868-.635-.1332-1.6707-1.033-1.5479a1.49 1.49 0 0 0 -.5551.2382c-1.8265 1.1109-3.4936 2.46-5.3026 3.5972a8.8223 8.8223 0 0 1 -2.7529 1.4462c-1.3337.2058.05-1.4771.3438-1.9331a8.3937 8.3937 0 0 0 .7771-1.39 5.1889 5.1889 0 0 0 .2256-2.6372.765.765 0 0 0 -.1038-.3034.5731.5731 0 0 0 -.6617-.16 1.6445 1.6445 0 0 0 -.58.4369c-.8208.839-1.6171 1.7052-2.5032 2.475-.968.8408-2.0364 1.5606-2.9989 2.4076-1.3928 1.2259-2.5435 2.6965-3.924 3.9348a16.3546 16.3546 0 0 1 -4.8924 2.6477c-5.048 2.1802-14.6914 4.6853-19.9553 6.2763z" fill="#fff" stroke="#000" stroke-miterlimit="10" stroke-width=".25"/><path d="m275.4833 178.68c4.22.5555 7.9645 1.7921 13.7131 6.2709 8.7353 6.8056 14.0178 10.5487 14.0178 10.5487l13.0165-3.6777c-.5673 4.7226.77 8.9165 4.1494 10.88a104.8814 104.8814 0 0 1 -11.8017 6.2731c-7.0174 3.31-8.5722 2.771-13.5309-.4594-5.1361-3.3461-19.0033-11.6067-19.0033-11.6067z" fill="#e55b2d"/><path d="m252.9872 149.2346c-2.7988 2.8512-3.0881 7.4017-2.0037 11.1832a21.9456 21.9456 0 0 0 2.5491 5.0029 46.1312 46.1312 0 0 0 5.6873 7.545 6.28 6.28 0 0 0 2.9857 1.9762 27.8537 27.8537 0 0 0 6.1122.9715c.8387.0393 1.6988.2747 2.2786-.362a6.541 6.541 0 0 0 .9894-2.2889 29.6416 29.6416 0 0 1 3.7642-7.4525c1.34-1.9232 3.13-4.5951 5.2483-5.6286.8759-.4274 1.8623-.99 2.0157-1.9521a2.3816 2.3816 0 0 0 1.5077 2.563 1.5259 1.5259 0 0 1 -.2014-1.9832c.36-.6369.9449-1.1265 1.29-1.772a2.8577 2.8577 0 0 0 -.0771-2.7747 1.5951 1.5951 0 0 1 .6488 2.2341 2.6847 2.6847 0 0 0 1.3682-2.3033c.0034-2.2326-2.3043-2.9353-3.2916-4.6309a14.7907 14.7907 0 0 1 -.7766-2.5639 19.0563 19.0563 0 0 0 -.8465-1.9741 10.81 10.81 0 0 0 -2.6738-3.3653c-4.2455-3.5877-10.4076-3.3588-15.4464-1.8528a14.452 14.452 0 0 0 -6.58 3.8039 7.9584 7.9584 0 0 0 -2.3308 3.9158 8.1881 8.1881 0 0 0 -2.2173 1.7087z"/><path d="m246.0711 228.6387c-1.4538-1.8044.6982-1.623 1.5325-13.34.2152-3.0213-2.319-11.1706-2.319-11.1706s2.6021-5.1026.8357-19.6833l12.2179-6.0968 13.6958-.6046 5.543 2.0345a42.646 42.646 0 0 1 7.86 8.1851c3.8466 5.6855 4.4276 11.8661.2771 16.3871-.0619.894.5181 14.6012 1.6371 17.9511 1.0392 3.1111.8361 5.26-.8367 6.6484-6.2214 7.0549-25.5181 9.0817-40.4434-.3109z"/><path d="m256.6746 169.01a4.3092 4.3092 0 0 1 -3.89-1.4805c-2.0514-2.2535-2.244-4.5489-1.29-6.0782a3.1713 3.1713 0 0 1 4.0754-1.2125c1.4515.9078 1.4974 1.65 2.0467 2.676.5637 1.0533 1.9542.2236 1.4805-3.903 2.8154-1.3271 2.3611-6.0464 3.882-7.9725 2.3806-3.015 6.3053-2.235 7.5809-1.527a5.1148 5.1148 0 0 1 5.345-.3455c1.8939 1.0126 3.1549 3.1443 3.827 10.4749.6853 7.4729-.603 12.4532-2.327 14.039a8.3966 8.3966 0 0 1 -6.0209 1.6793l.0165 2.8171s7.5932 7.917-2.0882 7.2027a15.2183 15.2183 0 0 1 -10.9706-6.2129l-.0657-11.3325s-.1562.9038-1.6016 1.1756z" fill="#fff" stroke="#000" stroke-miterlimit="10" stroke-width=".25"/><path d="m281.3836 156.198c-.1777-.0151-.3629-.0286-.5543-.04a16.5918 16.5918 0 0 0 -5.4825.4183c-1.7185.5968-2.2983 1.2028-3.2687 1.2512-1.0382.0419-1.733-.5079-3.6387-.9422a19.054 19.054 0 0 0 -5.8832.093c-.2024.0295-.3986.06-.5857.0912a.8852.8852 0 0 0 -.59.9754 2.1876 2.1876 0 0 0 .6374 1.0749 1.3688 1.3688 0 0 1 .2226.4344 19.1517 19.1517 0 0 0 .92 3.0055 3.965 3.965 0 0 0 .8245 1.0575 3.2186 3.2186 0 0 0 .4052.3051c.0755.0467.1509.0909.231.1344a3.606 3.606 0 0 0 .6793.2747c.0376.011.0755.0219.1132.03.0573.0144.1181.03.1786.0425s.1225.0238.1862.0352a4.6 4.6 0 0 0 .5882.0627c.0808.0059.1645.0077.25.0093.1-.0006.205-.0014.3126-.0061a3.9 3.9 0 0 0 3.8664-2.4369c.5234-1.1764.26-2.7978 1.372-2.8433a.9141.9141 0 0 1 .1064.001.7886.7886 0 0 1 .0994.0111c.8337.15.8331 1.645 1.4223 2.6971a4.5542 4.5542 0 0 0 .8665 1.1383c.0642.0606.13.1179.2.173.0349.0289.07.0551.1062.081s.0727.0525.1105.0775c.0333.0229.0661.0443.1007.0653.0583.0355.0834.0506.1084.0646.0282.0169.0564.0321.0859.0468.0189.0112.0393.0216.06.0321a3.6727 3.6727 0 0 0 .9853.3315c.029.0051.06.0112.09.0159a5.3235 5.3235 0 0 0 1.1823.0618 3.2911 3.2911 0 0 0 3.2645-2.2605 18.691 18.691 0 0 0 .4861-3.07.896.896 0 0 1 .1786-.408 2.0051 2.0051 0 0 0 .4344-1.1434.9544.9544 0 0 0 -.6716-.9419zm-11.2846 4.8155a3.2925 3.2925 0 0 1 -.73 1.6409l-.0014.0006a3.36 3.36 0 0 1 -2.5673 1.0328 3.0547 3.0547 0 0 1 -2.6051-1.0566c-.0315-.0374-.0612-.0747-.088-.1113-.03-.0377-.0562-.074-.0811-.1107-.0248-.0345-.0477-.0694-.07-.1046-.02-.0309-.0395-.063-.0575-.0943-.0162-.0252-.0307-.05-.0438-.0751-.0143-.0232-.027-.0456-.0378-.0676-.02-.0372-.0406-.076-.0592-.1129v-.0014q-.0858-.1707-.1487-.3311l-.0036-.0081c-.027-.0681-.0523-.1351-.0758-.199-.0415-.1159-.0756-.2252-.1046-.3213l-.0183-.0617-.0182-.059c-.24-.7961-.5661-2.3672-.1753-2.7422a4.76 4.76 0 0 1 3.2689-.7039c.061 0 .1261.0043.1927.0093a7.9579 7.9579 0 0 1 .8293.1c.109.0181.217.0392.3231.0614a7.6454 7.6454 0 0 1 .8159.2165c.0874.0283.1714.058.2509.088.0958.0346.1868.0724.2732.1109.0182.0077.0363.0157.0548.0246.0349.0151.068.0306.1.0483a1.7063 1.7063 0 0 1 .566.3974 3.5384 3.5384 0 0 1 .2109 2.4301zm10.4487-.81a3.3551 3.3551 0 0 1 -1.524 2.6518 3.1518 3.1518 0 0 1 -1.3162.3429 3.0385 3.0385 0 0 1 -2.7644-1.0849l-.0084-.0117c-.02-.0246-.0377-.0484-.0543-.0715-.0215-.0282-.0414-.0568-.06-.0834-.01-.0136-.02-.0286-.03-.0436-.0267-.0409-.0534-.0832-.0773-.1242-.0287-.0482-.0558-.0959-.0816-.1457-.0137-.0229-.0257-.0468-.0375-.0706l-.02-.04c-.01-.0206-.019-.04-.0279-.06-.0071-.016-.0154-.0319-.0209-.0461a4.1431 4.1431 0 0 1 -.213-.5922 3.7619 3.7619 0 0 1 -.1057-2.4334 4.8872 4.8872 0 0 1 2.858-1.3208 8.2209 8.2209 0 0 1 .8211-.0968c.0329-.0019.0659-.0039.0976-.0053.0359-.002.0707-.0034.1053-.0046.0978-.0043.1941-.0047.2864-.005.0347 0 .0693 0 .1043.0014.0468.0017.092.0025.136.0055.0773.002.153.0076.2259.0146.1484.0123.2887.03.4183.0534.0336.006.0672.0122.0994.0188a.1249.1249 0 0 1 .0259.0052c.0214.0045.0442.0084.0674.0148.0336.0061.0687.0156.101.0236.0412.0094.0833.022.1216.0327.0723.0211.1382.043.2.0673.0126.0042.0233.0079.0358.0133a1.6758 1.6758 0 0 1 .4609.2525c.4106.3369.2986 1.9296.1763 2.7418zm-18.4961-1.6805-5.5043 2.5a6.799 6.799 0 0 0 -.9774-.7833l6.32-3.0273z"/><path d="m271.4225 175.2323c-3.7867-.14-8.9012-1.3576-10.2633-3.8 1.5044 2.4617 4.1379 3.1482 5.9524 3.5531a37.1976 37.1976 0 0 0 4.3109.5961z"/><path d="m272.034 177.743 5.5417 1.5554c5.131 4.0512 11.1851 11.09 11.4167 16.5678a28.7689 28.7689 0 0 1 -.9557 9.1659s-.5858 11.3436.562 17.2434 3.8465 20.1836 3.8465 20.1836a17.2809 17.2809 0 0 1 -7.3191 4.1479c-1.1761-7.5636-3.8953-36.1165-3.5707-42.7483s.5364-17.5357-9.5214-26.1157z" fill="#e55b2d"/><path d="m277.5757 179.2984c5.131 4.0512 11.1851 11.09 11.4167 16.5678a28.7689 28.7689 0 0 1 -.9557 9.1659s-.5858 11.3436.562 17.2434 3.8465 20.1836 3.8465 20.1836" fill="none" stroke="#000" stroke-miterlimit="10" stroke-width=".25"/><path d="m282.6527 207.4562c.4671-1.7525.9776-3.4932 1.4943-5.23.5236-1.7342 1.0134-3.4787 1.4846-5.22a20.8138 20.8138 0 0 0 .5527-2.621 2.8111 2.8111 0 0 0 -.9973-2.1977 24.2719 24.2719 0 0 0 -4.0965-3.4514l-.136-.0949.0335-.1638a8.6987 8.6987 0 0 0 .0489-2.8779 7.481 7.481 0 0 0 -.9418-2.73 8.6415 8.6415 0 0 0 -1.9951-2.1308 13.7809 13.7809 0 0 0 -2.5279-1.5547 12.3137 12.3137 0 0 1 2.6437 1.3973 8.0832 8.0832 0 0 1 2.1581 2.1094 7.8562 7.8562 0 0 1 1.0948 2.8385 8.57 8.57 0 0 1 -.0064 3.06l-.1025-.2584a23.4943 23.4943 0 0 1 4.23 3.5016 6.2116 6.2116 0 0 1 .8274 1.15 1.98 1.98 0 0 1 .1513.3394 1.22 1.22 0 0 1 .1077.3686 2.4256 2.4256 0 0 1 .01.7506 21.13 21.13 0 0 1 -.5977 2.6882c-.48 1.7558-1.0731 3.4714-1.6455 5.1916-.5784 1.7185-1.1923 3.4234-1.7903 5.1354z"/><path d="m258.3382 178.3476s1.6431 3.398 4.5185 10.3691 5.6571 13.3111 5.4689 19.7076-3.3526 39.6519-3.3526 39.6519-11.6326 0-16.6577-1.5955l.8-13.0257-3.0916 12.305a14.6187 14.6187 0 0 1 -4.4373-2.39c1.0363-14.0609 5.7843-20.1923 4.902-28.4379-.812-7.5871-5.7586-14.3734-1.2038-31.9408z" fill="#d12626"/><path d="m258.3382 178.3476s1.6431 3.398 4.5185 10.3691 5.6571 13.3111 5.4689 19.7076-3.3526 39.6519-3.3526 39.6519-11.6326 0-16.6577-1.5955l.8-13.0257-3.0916 12.305a14.6187 14.6187 0 0 1 -4.4373-2.39c1.0363-14.0609 5.7843-20.1923 4.902-28.4379-.812-7.5871-5.7586-14.3734-1.2038-31.9408z" fill="#e55b2d"/><path d="m267.0747 210.3042a14.7211 14.7211 0 0 0 -2.4269-4.474c-.9988-1.3825-2.099-2.6914-3.2287-3.9728-.556-.6485-1.126-1.2856-1.6991-1.9219l-.8628-.9561c-.1448-.1678-.2854-.3141-.4346-.5043a.922.922 0 0 1 -.1116-.1526 2.1919 2.1919 0 0 1 -.1034-.245 1.7649 1.7649 0 0 1 -.0381-.4319 7.7459 7.7459 0 0 1 .9483-2.5323c.4228-.7649.8755-1.4981 1.3646-2.2222l.0337.4263-2.5645-2.7055-1.2755-1.3619-.3162-.3438-.158-.1721a1.334 1.334 0 0 1 -.2161-.2737 1.3685 1.3685 0 0 1 -.0556-.5852c.0133-.1675.0354-.3287.0613-.4877a28.7831 28.7831 0 0 1 .9721-3.6471c.3923-1.1886.7941-2.3725 1.2475-3.5381-.3224 1.2079-.6576 2.4106-.9549 3.622a36.3976 36.3976 0 0 0 -.7744 3.6333 2.3352 2.3352 0 0 0 -.0054.7838c-.0429-.0657.03.0352.0872.0812l.1664.1654.3333.3309 1.3219 1.337 2.63 2.6928.1873.1917-.1536.2348c-.46.7042-.8987 1.4382-1.2945 2.18a7.5723 7.5723 0 0 0 -.8968 2.24 1.5777 1.5777 0 0 0 .0119.205.1.1 0 0 1 .0166.0533c.0009.0218.0525.0716.0761.1062.1126.15.2654.3169.3983.4755l.8468.9663c.5652.6466 1.1293 1.2962 1.68 1.9579a51.45 51.45 0 0 1 3.0807 4.15 20.255 20.255 0 0 1 1.28 2.2509 9.0263 9.0263 0 0 1 .8267 2.4439z"/><path d="m352.1619 341.7351 1.3122-11.6-13.994.8744s.2129 6.2967.4089 9.86c.1161 2.1074-2.8766 6.0186-2.8766 6.0186s6.5739 3.3435 10.0957 2.1732 5.3853-5.3278 5.3362-6.2343-.2824-1.0919-.2824-1.0919z" fill="#fff" stroke="#000" stroke-miterlimit="10" stroke-width=".25"/><path d="m321.1188 359.8555a2.9638 2.9638 0 0 0 .5478 3.0895 14.11 14.11 0 0 0 9.9612 2.3589c4.9713-.53 7.6813-1.9572 9.6918-3.519s4.8286-3.7646 7.08-4.2007a13.8573 13.8573 0 0 0 5.047-1.8806c.677-.6074.6277-3.3618.6277-3.3618z"/><path d="m352.264 341.7135a.7928.7928 0 0 1 .7407.6572c.1408.7613.271 2.97.58 4.2208a21.4171 21.4171 0 0 1 .382 6.6962c-.2955 1.4054-3.71 2.326-5.8937 3.0827a27.7668 27.7668 0 0 0 -7.1038 4.1459 20.3169 20.3169 0 0 1 -10.5286 3.5624c-3.8259-.0941-8.1148-1.36-9.0752-3.0815-1.1881-2.1305-2.0392-4.5962 3.6734-7.0225 1.0814-.4592 4.8874-2.5382 6.1853-3.293 3.5117-2.0428 5.9893-3.93 7.6484-7.6244a2.0743 2.0743 0 0 1 .8336-1.1242 1.877 1.877 0 0 1 1.1044-.0761 38.6306 38.6306 0 0 1 5.56 1.1189c.756.3622 1.83.7869 1.7986 1.7234a3.0325 3.0325 0 0 1 -.2289.9485c-.0712.19-.1283.4436.044.56.1629.11.383-.0082.5329-.1329a14.24 14.24 0 0 0 1.5571-1.7367 5.4378 5.4378 0 0 1 .9119-.8631 9.7657 9.7657 0 0 0 .981-.5875c.3498-.3243.2737-.735.2969-1.1741z" fill="#fff" stroke="#000" stroke-miterlimit="10" stroke-width=".25"/><path d="m340.9688 360.5163c1.002-.7668 2.0643-1.5058 3.13-2.1647v-.0049s-6.7335 3.7795-9.4012 1.9636c-1.7189-1.17-.871-2.54-.8221-2.9819s-6.0336-3.6725-7.7172-3.8947c-.4738.2413-.8709.4353-1.12.541-5.7129 2.4263-4.8615 4.892-3.6732 7.0225.96 1.7218 4.06 3.106 9.005 3.193 3.2339.0568 8.2384-1.8678 10.5987-3.6739z" fill="#fff" stroke="#000" stroke-miterlimit="10" stroke-width=".25"/><path d="m333.5522 357.6584a.3543.3543 0 0 0 .2223-.0719.3255.3255 0 0 0 .0565-.4711c-.9775-1.1888-5.6519-4.051-8.2517-3.8227a.3357.3357 0 1 0 .0641.6679c2.4275-.2075 6.8664 2.6279 7.6406 3.57a.3526.3526 0 0 0 .2682.1278z"/><path d="m336.6581 355.893a.3565.3565 0 0 0 .2222-.0719.3266.3266 0 0 0 .0566-.4711c-.9767-1.188-5.65-4.0481-8.2519-3.8219a.3375.3375 0 0 0 -.3153.3637.3442.3442 0 0 0 .3795.3044c2.4286-.2046 6.8664 2.6268 7.6407 3.569a.3529.3529 0 0 0 .2682.1278z"/><path d="m339.7634 354.2239a.3553.3553 0 0 0 .2221-.072.3262.3262 0 0 0 .0566-.4711c-.9775-1.1888-5.6518-4.0531-8.2518-3.8219a.3375.3375 0 0 0 -.3154.3639.3427.3427 0 0 0 .38.3044c2.4288-.2076 6.8666 2.6266 7.6408 3.5688a.3528.3528 0 0 0 .2677.1279z"/><path d="m342.6463 352.3057a.3547.3547 0 0 0 .2221-.072.3263.3263 0 0 0 .0566-.471c-.9764-1.189-5.6616-4.05-8.2519-3.8218a.3373.3373 0 0 0 -.3153.3636.3439.3439 0 0 0 .38.3045c2.4254-.2058 6.8664 2.6266 7.6407 3.5688a.3533.3533 0 0 0 .2678.1279z"/><path d="m345.4716 350.3864a.3553.3553 0 0 0 .2177-.0689.326.326 0 0 0 .0642-.47c-1.3425-1.6847-6.2472-4.0935-8.8461-3.8662a.3372.3372 0 0 0 -.3153.3637.3471.3471 0 0 0 .38.3043c2.34-.203 7.0369 2.1119 8.2286 3.6051a.3514.3514 0 0 0 .2709.132z"/><path d="m375.73 347.4458-2.5368-10.9405 13.0413-1.5343.2205 10.4991s1.2506 3.7943.4114 5.1407-9.514 2.5555-10.2871 1.6237-.8493-4.7887-.8493-4.7887z" fill="#fff" stroke="#000" stroke-miterlimit="10" stroke-width=".25"/><path d="m376.2475 371.1037c.3075 3.3707.9476 5.5622 2.3252 7.42s3.8928 2.2354 6.4078 1.4025 5.7147-2.7109 6.362-5.7086a16.9493 16.9493 0 0 0 -.2112-8.0779z"/><path d="m386.4547 345.47c1.0446-.0287.6808 4.5689 1.4034 9.07.7745 4.8244 2.4346 6.687 3.1172 10.6375.78 4.5138.57 6.5857-1.1221 9.5291s-7.8694 6.2775-11.0555 2.6175c-2.5971-2.984-2.7964-6.5583-2.69-11.1531a105.6579 105.6579 0 0 0 -.0777-11.661c-.2946-3.4081-1.1952-6.458-.3-6.929.0833.4965.1682 1.1286.2554 1.6157.0667.3739.2205 2.22.8051 2.18a6.4732 6.4732 0 0 0 -.0228-1.2927 1.4921 1.4921 0 0 1 .2561-1.1342 4.7681 4.7681 0 0 1 1.6962-.8316c1.0211-.2861 2.8422-.6274 3.8824-.816.5178-.0941 1.0384-.1681 1.56-.2143a4.4393 4.4393 0 0 1 1.3257.0405.8155.8155 0 0 1 .5769.4091 1.3316 1.3316 0 0 1 .0684.5173 3.3512 3.3512 0 0 0 .1557.927c.0417.1314.1488.2864.2972.2389a.2887.2887 0 0 0 .1624-.2938c-.0107-.5528-.0987-.947-.1441-1.5868-.0207-.2957-.0849-.6955-.0974-.9933-.0121-.2927-.023-.5858-.0525-.8768z" fill="#fff" stroke="#000" stroke-miterlimit="10" stroke-width=".25"/><path d="m390.704 363.8987c.1189.65.851 4.9624-.4387 5.88-1.3957.9936-2.2658-2.3674-2.2658-2.3674s-3.3519-.5965-8.1434 1.8084c.2676.6848-.4171 3.0986-1.7592 2.7361-1.3328-.36-1.9877-5.3246-1.996-5.3892-.0848 4.4036.1755 7.86 2.6968 10.7571 3.1861 3.66 9.3643.326 11.0555-2.6175s1.9019-5.0153 1.1219-9.5291c-.0781-.4514-.1702-.8735-.2711-1.2784z" fill="#fff" stroke="#000" stroke-miterlimit="10" stroke-width=".25"/><path d="m379.7572 369.3645a.47.47 0 0 0 .14-.0517 13.9312 13.9312 0 0 1 8.0117-1.5518.4252.4252 0 0 0 .4661-.2961.3235.3235 0 0 0 -.286-.4022 14.5829 14.5829 0 0 0 -8.5675 1.663.3524.3524 0 0 0 -.15.49.3707.3707 0 0 0 .3857.1488z"/><path d="m378.791 365.858a.4543.4543 0 0 0 .1275-.045 17.2447 17.2447 0 0 1 8.9707-1.7335.427.427 0 0 0 .4568-.31.3257.3257 0 0 0 -.3014-.3928 17.8575 17.8575 0 0 0 -9.4772 1.8346.3582.3582 0 0 0 -.17.487.3689.3689 0 0 0 .3936.1597z"/><path d="m387.5454 360.6918a.4215.4215 0 0 0 .3216-.2687.3229.3229 0 0 0 -.2539-.4225c-4.7129-.976-9.2739 1.64-9.4668 1.7533a.3517.3517 0 0 0 -.15.49.3966.3966 0 0 0 .5254.0963c.0434-.0247 4.4745-2.5621 8.86-1.6486a.421.421 0 0 0 .1637.0002z"/><path d="m387.1913 357.5a.421.421 0 0 0 .3189-.2625.32.32 0 0 0 -.2447-.4266 13.51 13.51 0 0 0 -9.6582 1.7454.3469.3469 0 0 0 -.1166.4954.398.398 0 0 0 .5343.0651 12.8633 12.8633 0 0 1 8.9961-1.6189.4211.4211 0 0 0 .1702.0021z"/><path d="m386.7779 353.9165a.4224.4224 0 0 0 .3173-.258.3206.3206 0 0 0 -.238-.43c-4.8619-1.1623-9.5286 1.7249-9.7242 1.85a.3485.3485 0 0 0 -.1293.4934.39.39 0 0 0 .5311.0768c.0456-.0283 4.554-2.816 9.0681-1.7359a.4168.4168 0 0 0 .175.0037z"/><path d="m384.2751 231.5247c4.5267 28.5914 1.7919 64.9944 1.7919 64.9944a106.0423 106.0423 0 0 1 1.3257 17.0124c-.1108 10.7146-.2369 25.89-.2369 25.89s-7.0583 5.5039-14.1461 1.7253c0 0-4.9645-19.9058-7.0679-35.4911-1.6815-12.46-4.7248-30.98-4.7248-30.98l-4.9231 19.7392s.5249 7.6856.3995 13.0716c-.146 6.2644-3.5577 30.2847-3.5577 30.2847s-7.9115 4.5328-13.9485-.1634c0 0-2.3277-34.9467-2.6224-42.4746-.5782-14.7655-.2134-45.5982 1.4158-64.2965z"/><path d="m344.1319 178.0941c-5.3609 2.1705-6.8936 7.0285-8.4933 19.9359-1.5938 12.8594-1.9912 16.3441-1.9912 16.3441s-10.42 7.8169-20.28 10.6078l2.2 10.2207s9.3448-2.29 14.4036-3.9138c8.3453-2.6784 12.5212-4.5208 15.1054-7.2486s5.8624-29.656 5.8624-29.656z" fill="#fff" stroke="#000" stroke-miterlimit="10" stroke-width=".25"/><path d="m344.1762 177.4263c-3.8 1.5315-6.3707 4.5571-7.2913 10.2931s-3.694 26.5367-3.694 26.5367a163.5908 163.5908 0 0 1 -14.6866 8.5075 21.9027 21.9027 0 0 1 1.8758 6.8093 14.3338 14.3338 0 0 1 -.1739 5.1687s11.9131-3.0885 18.1534-5.925 7.69-4.4789 8.4464-6.053 3.4037-18.0255 3.971-21.3032.8824-7.5925.8824-7.5925z" fill="#e55b2d"/><path d="m314.2659 225.0608c-.2948-.0537 2.7554-.5977-.8989-.0789s-4.7142-.1674-7.0722-.2173a.6692.6692 0 0 0 -.4892.12 6.6494 6.6494 0 0 0 -.456.6965c-.2114.2667-.4453.5266-.6817.7714-.3.3108-4.1211 5.0715-4.0631 5.1013l1.7984.94s5.8032 6.3972 9.4638 4.0465c.8309-.5335 1.8222-.2614 2.6715-.6366a5.059 5.059 0 0 0 2.0041-1.5635 4.6279 4.6279 0 0 0 .1786-3.4568l-.67-3.1854c-.21-.9989-.32-2.0862-1.4329-2.449a2.7079 2.7079 0 0 0 -.3524-.0882z" fill="#fff" stroke="#000" stroke-miterlimit="10" stroke-width=".25"/><path d="m368.76 174.8773c2.7825.5285 6.145 1.206 6.145 1.206 7.0662 3.01 8.2077 3.4634 9.6953 4.0773a110.7575 110.7575 0 0 1 -1.0175 24.5c-.43 2.8448-2.412 8.2872-2.3759 14.2451a91.9768 91.9768 0 0 0 1.8154 16.2812s-6.7065 7.2452-26.3289 6.0815c-15.4064-.9137-18.0881-6.6166-18.0881-6.6166s.5574-20.4757.7762-31.8293c.2873-14.9124 2.9555-22.79 6.2361-25.4463l9.8359-2.1382z" fill="#fff" stroke="#000" stroke-miterlimit="10" stroke-width=".25"/><path d="m374.3222 146.8a5.5519 5.5519 0 0 0 -2.9961-2.7083c-.6377-3.1669-4.7742-6.8588-12.57-7.0648a7.7594 7.7594 0 0 1 -2.7-.35c-.9383-.36-1.7556-.9687-2.6681-1.3829a6.9251 6.9251 0 0 0 -2.79-.6168 5.03 5.03 0 0 0 -2.2728.4684 3.2689 3.2689 0 0 0 -1.5979 1.6418 5.046 5.046 0 0 0 -.2346 2.1781 3.0976 3.0976 0 0 0 -1.9355.165 3.5712 3.5712 0 0 0 -1.95 1.4366 2.8551 2.8551 0 0 0 -.1921 2.25 4.7852 4.7852 0 0 0 1.2431 1.9354 2.4428 2.4428 0 0 0 -1.3691 2.929 3.071 3.071 0 0 0 2.6585 2.05c-.1514-.0135.089.8811.1249.9524a1.6532 1.6532 0 0 0 .8234.743 18.1287 18.1287 0 0 0 2.5636.813l3.6189 1.13 8.9761 2.8028 7.5323 2.352-.1046 3.9494.0058 5.6643a3.6436 3.6436 0 0 0 2.0687-1.7449 31.2623 31.2623 0 0 0 2.91-7.9676c1.8117-7.4182 1.6278-10.233.8555-11.6259z"/><path d="m373.6993 163.9922c-2.8953 1.5048-4.2955-.7793-4.2955-.7793l-.1259 11.6841c-3.0194 4.2765-8.5445 2.9609-12.8281 8.3065l-1.3366-.0346a11.6553 11.6553 0 0 1 -.3515-8.7131l-.06-2.6632a17.5382 17.5382 0 0 1 -2.5465-.18c-2.607-.34-4.8357-2.0827-5.6851-5.5591-1.0243-4.192-1.2052-13.3329.0381-17.4916.4014-1.3425.8158-2.8842 2.0549-3.5385 3.0752-1.6242 12.58-2.33 15.1245 1.4034-.2914 2.3048.4376 4.8241 2.5654 5.5326.1635 3.6305.724 5.3757 2.1675 5.9379 1.1736.4571 1.6921-1.3522 2.4678-2.2087a3.2718 3.2718 0 0 1 5.1194 1.0341 5.3291 5.3291 0 0 1 -2.3084 7.2695z" fill="#fff" stroke="#000" stroke-miterlimit="10" stroke-width=".25"/><path d="m352.8553 171.6943s7.4154.4321 10.6833-1.925" fill="none" stroke="#000" stroke-miterlimit="10" stroke-width=".25"/><path d="m379.99 248.9627c4.7879-1.7308 6.2816-3.2575 6.2816-3.2575l-3.1456-26.2164a141.5853 141.5853 0 0 1 2.2063-18.3906c1.6968-8.1148.6511-21.2071.6511-21.2071l-12.789-5.6986c.31 1.7489-.99 4.3344-1.6964 5.8178a67.1891 67.1891 0 0 0 -4.0654 9.8389q-1.5512 5.2048-2.6107 10.5393a148.8744 148.8744 0 0 0 -2.62 21.5979c-.3537 6.8328-.3156 13.6822-.018 20.5163.1048 2.4086.36 5.0794 2.146 6.6991a6.8632 6.8632 0 0 0 4.3351 1.5056 27.14 27.14 0 0 0 11.325-1.7447z" fill="#e55b2d"/><path d="m336.8849 243.0075s3.96 2.1157 4.2831 2.2915a4.5744 4.5744 0 0 0 4.6107-.0444c1.4511-.9112 1.6093-3.7791 1.6977-5.49.3418-6.6076.201-10.1733.3521-15.83.3579-13.3933 1.3744-26.7853 2.0943-40.1471a39.6621 39.6621 0 0 1 1.4561-9.1314l-7.2027 2.77s-5.4974 6.7809-5.7262 21.08l.2779 17.1672z" fill="#e55b2d"/><path d="m353.5333 184.9093s-2.19-3.6943-2.2625-5.2034l2.3334-2.646 1.0157 6.15z" fill="#e55b2d"/><path d="m356.638 183.198 4.042-3.04 3.597 2.177-6.26 3.584z" fill="#e55b2d"/><path d="m359.1168 220.8678c.4673-8.0918-2.4443-29.9671-2.43-32.83l-2.1436-.0509c-1.2171 3.5175-3.6813 26.3135-3.4721 31.8459.1009 2.6649 3.1547 7.2389 4.0869 7.36s3.8596-4.605 3.9588-6.325z" fill="#e55b2d"/><path d="m354.3923 188.497c.0448-.166.1031-.3715.15-.5067l.001-.0033 2.1434.0509c-.0013.2422.016.5439.0392.8929a3.9277 3.9277 0 0 1 -2.3336-.4338z" fill="#e55b2d"/><path d="m356.6379 183.1984a9.0948 9.0948 0 0 0 -2.018.012 4.7971 4.7971 0 0 0 -1.0866 1.6989 8.2683 8.2683 0 0 0 .99 3.1111 2.5331 2.5331 0 0 0 2.19.1839 5.8322 5.8322 0 0 0 1.3041-2.285 4.0528 4.0528 0 0 0 -1.3795-2.7209z" fill="#e55b2d"/><path d="m356.2845 183.1627c.0739.005.2733.0255.3534.0357a13.1394 13.1394 0 0 1 2.47-2.19c.5857-.2944 2.9654 3.8757 3.4114 4.9636.4559 1.0793.3636 1.0731 1.8564.1255a28.8994 28.8994 0 0 0 6.8025-6.2949c2.3737-3.007 2.5734-4.9187 2.5734-4.9187a33.3717 33.3717 0 0 1 -2.3644-3.1917c-.9161-1.73-1.0656-2.4129-2.0413-2.2847l-.0164 1.6073c-.1983 1.4881-1.73 1.9865-3.8532 3.7449-2.1237 1.7678-5.528 3.4025-6.34 4.1549a29.998 29.998 0 0 0 -2.8518 4.2481z" fill="#fff" stroke="#000" stroke-miterlimit="10" stroke-width=".25"/><path d="m349.3231 183.1623c.2229.6108 2.2533-4.1077 3.2013-3.9889.4577.0464 1.6123 2.6236 2.4388 4.0039a1.3706 1.3706 0 0 1 .15-.0084 17.46 17.46 0 0 1 -.6158-4.4036 32.5833 32.5833 0 0 1 .2643-4.3095l-.06-2.6632c-.3115 0-.61-.0175-.8754-.02-.2452.238-3.9128 4.2482-4.2561 6.0605a15.9109 15.9109 0 0 0 -.2471 5.3292z" fill="#fff" stroke="#000" stroke-miterlimit="10" stroke-width=".25"/><path d="m338.45 198.5065.2779 17.1672-.9028 13.39-.94 13.9441" fill="none" stroke="#000" stroke-miterlimit="10" stroke-width=".25"/><path d="m400.239 213.2172c.88 5.854 1.0517 6.8457.74 10.7767-.2324 2.9325-.5289 3.4324-1.5421 8.7732s-3.6447 15.112-3.5783 16.5337a24.2145 24.2145 0 0 1 .0482 4.06 17.1374 17.1374 0 0 1 -1.0471 4.7064c-.3914 1.0468-.6316 2.1842-1.0889 3.1972a11.9271 11.9271 0 0 1 -1.4278 1.9339 15.6734 15.6734 0 0 1 -1.3476 2.2466c-1.1352 1.1134-2.34 1.2905-3.4254 1.8191-.4646.7048-1.2372 2.1878-1.7569 2.8479-1.328 1.6861-1.6809-1.0321-1.6475-1.9544a13.8948 13.8948 0 0 1 .5064-2.9343 67.9571 67.9571 0 0 0 1.5559-7.3106c.0655-.4361.5579-2.2475-.157-2.2311a.8617.8617 0 0 0 -.5832.3582 21.6058 21.6058 0 0 0 -1.2268 1.8718 11.615 11.615 0 0 1 -1.1414 1.3273 3.8406 3.8406 0 0 1 -1.1525.9329c-.4594.2046-2.16.365-2.2456-.4316a.7921.7921 0 0 1 .084-.3743c.3374-.83.748-1.6287 1.087-2.4562a23.1228 23.1228 0 0 0 .9532-2.52 20.5284 20.5284 0 0 1 2.932-7.1575c2.8226-4.0271 3.0558-27.5458 3.0558-27.5458l-4.1373-16.1436a33.6838 33.6838 0 0 1 -2.4551-13.5949c.1657-5.6142 4.8289-8.7691 4.8289-8.7691 6.0009 2.2978 7.4277 3.0866 9.0787 8.5544s4.4983 19.5448 5.0904 23.4841z" fill="#fff" stroke="#000" stroke-miterlimit="10" stroke-width=".25"/><path d="m401.0678 217.3935c-.1942-1.3936-1.185-8.6713-3.5135-19.3031-2.2128-10.103-2.8473-11.73-4.955-14.0313-1.6577-1.81-3.8529-2.9234-6.6161-4.168 0 0-4.3172 2.9143-5.3377 11.4446-.757 6.3277 2.2748 14.25 2.2748 14.25l4.4249 14.8038-.3438 14.7706-.3479 4.574s1.9212-.306 6.1293.81c3.3314.8837 4.4147 2.222 4.4147 2.222l1.1338-4.5461c.6836-2.6008 1.7558-6.831 2.4143-10.1814a32 32 0 0 0 .3222-10.6451z" fill="#e55b2d"/><path d="m314.0874 235.2956a18.6687 18.6687 0 0 1 -8.1386-5.0285 1.5416 1.5416 0 0 1 -.5172-1.2479 1.6248 1.6248 0 0 1 .4674-.7273q.7532-.8058 1.5066-1.6115a10.1046 10.1046 0 0 0 1.6744-2.1504 2.4773 2.4773 0 0 0 .3189-1.6536c-.1256-.5594-.3138-.8175-.8853-.8627-.1973-.0156-.6364.2466-1.2377.7444-1.5986 1.3235-2.8541 1.4962-5.0567 2.8157-2.1424 1.2834-5.0083 2.37-6.7692 2.26v.001-.001c-5.3521-1.0016-29.3081-8.6844-29.3081-8.6844s-11.3348-20.6413-13.3906-24.8671-3.7017-8.0766-7.2906-10.4471c-5.1571 1.7611-9.841 9.6476-6.4148 17.4139s13.3628 23.8056 15.19 26.9215 3.4458 4.7083 8.0086 5.7426c4.3174.9788 24.1656 2.9337 29.6756 3.69l-.0657.1818c3.6393.4512 4.5449.9414 5.1267 1.198 2.4977 1.1013 6.1615.68 9.1735.3066a6.7361 6.7361 0 0 0 1.8269-.4186c.5485-.2339 1.0346-.5976 1.5854-.8258a26.3064 26.3064 0 0 1 2.9016-.6343 5.0383 5.0383 0 0 0 2.4789-1.4245c.0915-.1076.6124-.6426.62-.7835a2.1165 2.1165 0 0 1 -1.48.0927z" fill="#fff" stroke="#000" stroke-miterlimit="10" stroke-width=".25"/><path d="m245.2846 182.9915c-4.6281 1.9819-10.0546 8.7066-7.41 16.3233s13.9905 25.9383 15.9344 29.1634 3.179 4.7347 6.13 5.5581 17.3608 2.2645 17.3608 2.2645a22.9468 22.9468 0 0 0 2.2644-7.6366c.6176-4.7149-.892-5.9006-.892-5.9006l-12.1457-3.8947s-13.3808-25.5926-15.2335-28.9549-3.6448-5.954-6.0084-6.9225z" fill="#e55b2d"/><path d="m245.2846 182.9915c-4.6281 1.9819-10.0546 8.7066-7.41 16.3233s13.9905 25.9383 15.9344 29.1634 3.179 4.7347 6.13 5.5581 17.3608 2.2645 17.3608 2.2645a22.9468 22.9468 0 0 0 2.2644-7.6366c.6176-4.7149-.892-5.9006-.892-5.9006l-12.1457-3.8947s-10.9333-22.9534-13.2585-25.2587" fill="none" stroke="#000" stroke-miterlimit="10" stroke-width=".25"/><path d="m307.19 239.1205a3.3411 3.3411 0 0 1 -1.9791-.2121c-.8306-.6782-1.69-.944-2.3-1.8256a6.7468 6.7468 0 0 0 -.7232-.956 4.4214 4.4214 0 0 0 -1.6687-.94c-.578-.2126-1.0935-.5253-1.6945-.7185-.2908-.0933-.7534-.1051-.8979.2433a3.8106 3.8106 0 0 0 -.9054-.843c-.3709-.2262-1.2605-.5134-1.5072.0275a1.2611 1.2611 0 0 0 -.082.4727q-.0641 1.4631-.1282 2.9263a2.53 2.53 0 0 0 .0384.7274 2.13 2.13 0 0 0 1.159 1.2333 3.3721 3.3721 0 0 0 .9561.3645c.41.0781.8348.0441 1.2436.1263.8479.1707 1.5643.8263 2.428.8726.538.0289 1.0614-.1858 1.6-.2041.4434-.0151.8805.1034 1.3235.1294.5928.0346 2.6158-1.1392 3.1376-1.424z" fill="#fff" stroke="#000" stroke-miterlimit="10" stroke-width=".25"/><path d="m299.8279 227.1264c-.3981.1794-.8028.3458-1.1884.5506-1.0144.539-1.87 1.329-2.8264 1.966a5.9834 5.9834 0 0 1 -2.0146.9211c-.4929.1067-1.6088.2326-1.7968-.4474a.8786.8786 0 0 1 .1506-.625q.6181-1.1507 1.3353-2.2444a6.6307 6.6307 0 0 1 1.5619-1.92 14.8265 14.8265 0 0 1 2.5986-1.4144 6.163 6.163 0 0 1 1.2036-.4315 6.4494 6.4494 0 0 1 2.3252.08c1.1487.18 2.7779.3607 3.926.5445-.2222.1709-.7777.5738-.9275.6624-.48.2836-.9591.5674-1.4422.8448-.9472.5436-1.909 1.0643-2.9053 1.5133z" fill="#fff" stroke="#000" stroke-miterlimit="10" stroke-width=".25"/><path d="m179.0094 355.9654c-.2588 3.5753-.8483 5.94-2.1477 8.02s-3.6724 2.5749-6.1209 2.0568a9.2286 9.2286 0 0 1 -6.7235-5.6036c-.8618-2.3684-.4813-5.21.1164-8.5206z"/><path d="m169.1525 329.7459c-1.0005.0644-1.3634 4.8646-2.0076 9.6671-.6905 5.1477-2.3093 8.009-2.872 11.4782-.78 4.8087-.4756 6.9829 1.1756 9.9273s8.1732 6.0655 11.1848 1.9248c2.4554-3.376 2.6081-7.1559 2.4569-11.982a122.4126 122.4126 0 0 1 -.0485-12.28c.246-3.6139.5451-7.1155-.3174-7.53-.0743.53-.1489 1.2032-.2272 1.7237-.06.4-.1877 2.3563-.7477 2.3671a7.4773 7.4773 0 0 1 .0081-1.3627 1.6122 1.6122 0 0 0 -.2575-1.17 1.8761 1.8761 0 0 0 -1.1021-.5112 28.5 28.5 0 0 0 -2.966-.5014 14.89 14.89 0 0 0 -1.4959-.0842 8.2612 8.2612 0 0 0 -1.8405-.0091.8874.8874 0 0 0 -.548.483 1.57 1.57 0 0 0 -.06.5508 3.9966 3.9966 0 0 1 -.1392.99c-.0387.142-.1395.315-.2821.2783-.1156-.03-.16-.1749-.1586-.2945.0043-.5828.0844-1.0057.1209-1.6831.0169-.3131.0741-.74.0827-1.0541.0088-.3101.0161-.6194.0413-.928z" fill="#fff" stroke="#000" stroke-miterlimit="10" stroke-width=".25"/><path d="m167.9205 352.1373a.3495.3495 0 1 0 .3871-.3074.3493.3493 0 0 0 -.3871.3074z"/><path d="m168.3027 348.8087a.35.35 0 1 0 .3871-.3074.35.35 0 0 0 -.3871.3074z"/><path d="m168.6636 345.6676a.35.35 0 1 0 .3873-.3075.35.35 0 0 0 -.3873.3075z"/><path d="m169.0194 342.57a.3495.3495 0 1 0 .3872-.3073.3494.3494 0 0 0 -.3872.3073z"/><path d="m176.1415 343.2562a.35.35 0 1 0 .3872-.3074.3494.3494 0 0 0 -.3872.3074z"/><path d="m175.7833 346.3748a.35.35 0 1 0 .3873-.3075.35.35 0 0 0 -.3873.3075z"/><path d="m175.4223 349.5169a.35.35 0 1 0 .3872-.3074.35.35 0 0 0 -.3872.3074z"/><path d="m175.04 352.8471a.35.35 0 1 0 .3872-.3073.35.35 0 0 0 -.3872.3073z"/><path d="m172.076 354.377 3.016-23.223-1.29-.044z"/><path d="m168.25 352.3539a.1743.1743 0 0 0 .0537-.0028 12.66 12.66 0 0 1 7.0063.6705.1772.1772 0 1 0 .16-.3163 12.829 12.829 0 0 0 -7.2375-.7013.1772.1772 0 0 0 .0176.35z"/><path d="m168.6318 349.0249a.1729.1729 0 0 0 .0914-.0153c1.7743-.8086 5.2177-.2026 6.9691.6838a.1773.1773 0 1 0 .16-.3165c-1.8268-.9256-5.4056-1.5441-7.2759-.69a.1774.1774 0 0 0 .0554.3377z"/><path d="m168.9931 345.884a.1734.1734 0 0 0 .0915-.0153c1.7742-.8081 5.2167-.2028 6.9683.6835a.1773.1773 0 0 0 .16-.3163c-1.8248-.9269-5.4037-1.5439-7.2753-.69a.1774.1774 0 0 0 .0554.3378z"/><path d="m169.3484 342.7866a.1735.1735 0 0 0 .0916-.0152c1.7743-.8088 5.2174-.2021 6.969.6837a.1773.1773 0 0 0 .16-.3165c-1.8264-.9249-5.4043-1.5439-7.2761-.69a.1774.1774 0 0 0 .0554.3377z"/><path d="m201.097 341.652 4.258-1.453-1.289-2.892-2.665 2.33z"/><path d="m196.9791 333.924s-.2516 2.7352-.3159 3.5975 3.5336 3.66 4.4333 4.1307l.3046-2.0148a15.6661 15.6661 0 0 1 2.0079 3.3358c.67 1.2532 1.5017 3.61 3.4006 5.2572 2.8191 2.4455 7.2886 3.78 11.88 4.0893s7.2588-.7391 8.5965-1.6956a3.0384 3.0384 0 0 0 1.4974-3.2879c-.2901-1.1781-31.8044-13.4122-31.8044-13.4122z"/><path d="m209.5646 324.9514.1045-1.5888c.848.0009.8791 2.3066 2.0531 4.3654a41.119 41.119 0 0 0 6.2152 8.4726c4.53 4.3918 8.608 7.1872 10.629 9.1646 2.7046 2.6443-2.3109 6.5607-9.8012 5.909-3.7177-.3239-10.2754-2.4-12.0664-4.6586s-2.8275-5.7231-4.2666-7.3681-4.5855-3.3543-5.4531-5.3235c-.4764-1.0821-.131-3.5619.2386-5.6677.34-1.932.489-4.9052 1.5752-4.63l.047 1.0008c.4209.8628 1.4136 2.2956 4.4011 2.8949 1.492.299 5.96.5712 6.3236-2.5706z" fill="#fff" stroke="#000" stroke-miterlimit="10" stroke-width=".25"/><path d="m205.6493 327.675c1.4371-.0792 2.9942-.5062 3.6347-1.78.0077-.0151.02-.0253.0271-.0408a3.6388 3.6388 0 0 0 .874 3.0863c1.2928 1.6113 9.4278 12.9433 9.4278 12.9433s-7.6071-9.3754-9.0671-11.1417c-2.159-2.6113-2.8594-2.93-4.9039-3.0639z" fill="#fff" opacity=".15" stroke="#000" stroke-miterlimit="10" stroke-width=".25"/><path d="m207.432 330.6667a.459.459 0 1 1 -.39-.519.4588.4588 0 0 1 .39.519z" opacity=".15"/><path d="m209.571 333.1828a.4591.4591 0 1 1 -.39-.5192.459.459 0 0 1 .39.5192z" opacity=".15"/><path d="m211.71 335.6988a.459.459 0 1 1 -.39-.5192.4588.4588 0 0 1 .39.5192z" opacity=".15"/><path d="m213.8488 338.2147a.4591.4591 0 1 1 -.39-.5191.4591.4591 0 0 1 .39.5191z" opacity=".15"/><path d="m215.9876 340.7307a.459.459 0 1 1 -.39-.519.459.459 0 0 1 .39.519z" opacity=".15"/><path d="m206.9572 330.7858a.1849.1849 0 0 1 -.1048-.32 7.5522 7.5522 0 0 1 5.2509-1.8927h.0036a.1847.1847 0 0 1 -.0371.3676 7.3023 7.3023 0 0 0 -4.9672 1.7964.1848.1848 0 0 1 -.1454.0487z"/><path d="m209.0975 333.2934a.1846.1846 0 0 1 -.1049-.3193 7.549 7.549 0 0 1 5.2509-1.8927h.0035a.1848.1848 0 0 1 -.037.3677 7.3134 7.3134 0 0 0 -4.9672 1.7963.1852.1852 0 0 1 -.1453.048z"/><path d="m211.2351 335.8177a.1849.1849 0 0 1 -.1049-.32 7.55 7.55 0 0 1 5.2509-1.8927h.0036a.1848.1848 0 0 1 -.0369.3677 7.312 7.312 0 0 0 -4.9672 1.7964.1857.1857 0 0 1 -.1455.0486z"/><path d="m213.3738 338.3337a.1845.1845 0 0 1 -.105-.3191 7.5489 7.5489 0 0 1 5.2511-1.8936h.0034a.1847.1847 0 0 1 -.0367.3676 7.3132 7.3132 0 0 0 -4.9675 1.7971.1841.1841 0 0 1 -.1453.048z"/><path d="m215.5131 340.8493a.1846.1846 0 0 1 -.1049-.3192 7.55 7.55 0 0 1 5.2508-1.8929h.0036a.1848.1848 0 0 1 -.0369.3677 7.313 7.313 0 0 0 -4.9673 1.7963.1841.1841 0 0 1 -.1453.0481z"/><path d="m169.9666 221.5837c-2.0268 28.8591-2.908 61.0119-2.908 61.0119a158.1057 158.1057 0 0 0 -.9363 17.52c-.0967 10.5021.5638 36.1872.5638 36.1872s6.6691 4.7343 13.8707 1.1644c0 0 5.3408-28.4148 7.7423-43.6486 1.92-12.1791 4.5255-27.824 4.5255-27.824l2.1954 14.5644a94.3909 94.3909 0 0 0 -.79 17.0052c.41 6.128 2.6286 29.427 2.6286 29.427s8.6633 7.0921 15.44.2881c0 0 3.22-38.9695 3.6537-46.3412.8517-14.459.3456-40.63 0-58.9779z"/><path d="m192.8246 265.9944 3.7421-25.021s7.03-.7865 10.7319-3.9573c0 0-2.469 4.2812-9.1248 5.7488l-3.52 22.6892.3664 15.1049z" fill="#fff" stroke="#000" stroke-miterlimit="10" stroke-width=".25"/><path d="m211.2525 164.8155c5.1132 1.6117 8.6827 4.0292 11.02 10.888 2.4065 7.0614 7.0378 19.6449 8.6478 24.8316-.9967 2.8146-8.2536 5.3973-11.17 4.0614s-10.1225-21.8653-10.1225-21.8653z" fill="#fff" stroke="#000" stroke-miterlimit="10" stroke-width=".25"/><path d="m186.6987 161.4792c-2.8274.4847-6.2445 1.11-6.2445 1.11-7.21 2.92-8.374 3.3584-9.8914 3.9531a59.9262 59.9262 0 0 0 -1.5706 24.2724 168.8011 168.8011 0 0 1 1.1341 17.9651c.0105 7.9634-.6366 17.736-.6366 17.736s8.6879 5.6724 28.579 4.8494c15.6175-.6462 18.0292-6.3309 18.0292-6.3309s.49-23.2028.4738-34.7035c-.0208-15.1059-3.21-23.1526-6.4837-25.9018l-9.9214-2.3434z" fill="#fff" stroke="#000" stroke-miterlimit="10" stroke-width=".25"/><path d="m180.9012 131.6786a4.9957 4.9957 0 0 1 3.8183-3.3725c.7894-3.3406 5.6885-7.2341 12.4265-6.3991s10.0318 2.91 12.15 6.9985.3236 6.9385.3236 6.9385l-19.7143-1.2652a18.3037 18.3037 0 0 1 -.241 2.8079c-.4717 2.9894-3.3742 6.5-3.3742 6.5l-.0288 4.198-.2063 6.0153a3.8715 3.8715 0 0 1 -2.1352-1.9263c-.6512-1.4438-1.3053-3.6556-2.2556-8.7908s-1.6805-9.4045-.763-11.7043z"/><path d="m180.9988 149.3957c2.1422 1.5595 4.2568-.6036 4.2568-.6036l-.2149 11.74s.0361 3.0757 3.7182 5.4009c5.2221 3.2978 7.4913 5.022 9.62 8.3411 2.0594-5.2345 5.1529-8.7914 1.9393-13.0423l.0515-2.766a27.3837 27.3837 0 0 0 2.9072-.1426c2.7808-.2688 4.642-2.3532 5.6427-5.2876 1.6057-4.7192 1.8414-13.11-.1483-21.7742-3.4821-2.9823-12.5-3.126-19.2235.6026-.0083 5.5029-1.673 7.852-1.78 9.8447a5.2072 5.2072 0 0 1 -1.2794 1.4737c-1.0607.8161-1.7494-1.4959-2.5431-2.4332-.8018-.93-3.4984-2.2969-5.042.5334-1.5628 2.8823.2442 6.7709 2.0955 8.1131z" fill="#fff" stroke="#000" stroke-miterlimit="10" stroke-width=".25"/><path d="m187.7265 140.99c.2309 5.9044 2.2607 6.33 4.3543 6.6917 2.7722.4791 4.1569-1.01 9.1231-.9686 3.0129.0253 3.95.9283 5.6568 1.6468 1.2617.5309 2.5772.4683 2.7871-.7472a42.1022 42.1022 0 0 0 .4217-7.6393 55.7919 55.7919 0 0 1 -.0146 10.7176c-.434 2.771-1.1921 5.3626-2.7372 6.6479-2.1394 1.78-6.617 2.0139-12.1616.7423-5.4634-1.253-7.5837-3.1335-8.2353-5.1-2.1148-6.3828-1.2368-9.3864-1.9556-10.596s2.7613-1.3952 2.7613-1.3952z"/><path d="m200.51 148.4784c-2.8352-.0832-3.7669.4241-3.919 2.3645-.2177 2.7777-.0871 3.7152.9723 3.8686 1.25.1809 2.1676.2647 2.2177-.5228a3.107 3.107 0 0 0 -.1653-1.7831c-.4356-.534-.2814-.6113.9639-.5723 1.2887.04 1.2265.2567.8551.6372-.2721.2786-.257 1.2341-.2592 1.7817-.0024.6008.1293.8337 1.92.6768 1.564-.1371 1.3079-1.3919 1.2986-3.78-.0064-1.608-.6748-2.5765-3.8841-2.6706z" fill="#fff" stroke="#000" stroke-miterlimit="10" stroke-width=".25"/><path d="m201.4876 173.2223s2.313-3.8406 2.4-5.4154l-2.4168-2.7792-1.1049 6.4133z" fill="#e55b2d"/><path d="m198.259 171.414-4.198-3.203-3.77 2.247 6.509 3.786z" fill="#e55b2d"/><path d="m196.336 213.1747c-.6327-9.0271 2.0148-33.5067 1.9484-36.7032l2.2364-.0956c1.3334 3.9057 4.3138 29.3161 4.1945 35.4976-.0576 2.9776-3.1632 8.14-4.1341 8.2927s-4.1112-5.0727-4.2452-6.9915z" fill="#e55b2d"/><path d="m200.6878 176.9426c-.05-.1844-.1144-.413-.1655-.5629l-.0012-.0038-2.2362.0956c.0057.27-.0069.6078-.025.9979a3.8785 3.8785 0 0 0 2.4279-.5268z" fill="#e55b2d" opacity=".15"/><path d="m198.2589 171.4139a9.4892 9.4892 0 0 1 2.1065.0271 5.008 5.008 0 0 1 1.1222 1.7813 7.6064 7.6064 0 0 1 -.9668 3.1536 2.6712 2.6712 0 0 1 -2.2364.0956 4.6635 4.6635 0 0 1 -1.4843-2.2271 4.2316 4.2316 0 0 1 1.4588-2.8305z" fill="#e55b2d"/><path d="m198.6282 171.3791c-.0772.0047-.2855.0247-.3693.0348a13.721 13.721 0 0 0 -2.5629-2.304c-.6094-.3115-3.1237 4.0246-3.5971 5.157-.4837 1.1234-.3873 1.1175-1.9389.1176a30.1718 30.1718 0 0 1 -7.0557-6.62c-2.4562-3.1562-2.6508-5.1533-2.6508-5.1533a34.8279 34.8279 0 0 0 2.4913-3.3148c.9688-1.8 1.1468-2.6693 2.1643-2.5284l-.008 1.292c.1962 1.5548 1.7884 2.63 3.992 4.4813 2.2041 1.8608 5.746 3.5919 6.588 4.3833a31.3006 31.3006 0 0 1 2.9471 4.4545z" fill="#fff" stroke="#000" stroke-miterlimit="10" stroke-width=".25"/><path d="m205.8952 171.4291c-.237.636-2.3226-4.3044-3.313-4.1872-.4781.0452-1.702 2.7272-2.5749 4.1621a1.3574 1.3574 0 0 0 -.1564-.01 18.23 18.23 0 0 0 .6746-4.5926 34.0107 34.0107 0 0 0 -.2448-4.5006l.0634-3.4492c.3252.0019.5872.2133 1.5992 1.3952s3.3872 3.7221 3.7324 5.6166a16.6068 16.6068 0 0 1 .2195 5.5657z" fill="#fff" stroke="#000" stroke-miterlimit="10" stroke-width=".25"/><path d="m193.7155 210.9225c-.2773-.3644-1.1261.3954-2.9335.797-2.308.5128-3.2046.4318-5.653 1.0715a12.1642 12.1642 0 0 1 -3.4063.6294l8.9146 1.8263a9.8214 9.8214 0 0 0 2.5012-1.5225 2.1043 2.1043 0 0 0 .577-2.8017z" fill="#c76668"/><path d="m232.8381 186.67c.6285-.2668 1.0721-.0117.9906.57l-4.1674 29.78-41.8191 17.75 4.27-29.8276a2.2737 2.2737 0 0 1 1.2883-1.5355l23.8858-10.1369 1.6978-3.0251a1.0663 1.0663 0 0 1 .5168-.4476l9.9029-4.2118a1.034 1.034 0 0 1 1.3653.4219l.49 1.3328z" fill="#e55b2d"/><path d="m229.661 215.601-40.405 17.148 4.225-28.156 41.713-17.703z" fill="#fff" stroke="#000" stroke-miterlimit="10" stroke-width=".25"/><path d="m187.8422 234.77 6.9925-28.2021a2.6191 2.6191 0 0 1 1.3967-1.5271l39.4371-16.7364c.6284-.2667 1.0234-.0152.8821.5615l-6.8895 28.1548z" fill="#e55b2d"/><path d="m234.1352 198.7371c1.7961 2.1806 1.8157 3.9 1.1531 6.7708s-2.53 6.2894-3.5794 7.2153-3.0147 2.242-5.2236 1.7953c-2.1858-.4423-2.2723-3.2686-3.2617-4.4477-1.5821-1.8852.5484-3.2815 2.6026-3.5639a12.6792 12.6792 0 0 0 7.169-3.1081z" fill="#fff" stroke="#000" stroke-miterlimit="10" stroke-width=".25"/><path d="m196.9426 215.3089a33.5881 33.5881 0 0 1 -6.3053-.0622l-8.9146-1.8263c-3.9708.4607-15.31-7.4884-15.31-7.4884s2.6366-7.59 6.3421-18.3343c3.0172-7.8364 2.103-15.3738-2.0878-20.5147-6.3454 2.5-8.6264 3.2814-11.0208 10.6924-1.8861 5.8382-5.5326 21.8513-7.091 27.9438-.8931 3.4909-1.24 6.5778 2.5694 8.752a108.9033 108.9033 0 0 0 19.6311 7.83c4.0153 1.1391 6.24 2.2553 10.48 2.8787a36.5645 36.5645 0 0 0 6.8955.5149 9.8459 9.8459 0 0 0 2.449-.26 14.9654 14.9654 0 0 0 3.4231-2.1854 2.389 2.389 0 0 0 .822-.8282c.2408-.4931.1383-1.1188.4472-1.5723.2608-.3827.7508-.5446 1.0533-.8951.5289-.6126.4668-1.5741.8834-2.2672.3566-.5932 1.08-1.2789.6992-2.0344-.6031-1.1938-2.1139-.5778-4.9658-.3433z" fill="#fff" stroke="#000" stroke-miterlimit="10" stroke-width=".25"/><path d="m171.0675 166.3447c-3.4107 1.1593-7.95 3.3892-9.1443 5.141s-3.9409 6.7274-6.5415 15.4046c-2.3053 7.6925-4.1585 14.0488-4.846 19.0024-.7218 5.2.3935 6.8957 3.9 9.0988s20.2177 7.6656 20.2177 7.6656-.1076-6.4909 4.3406-10.4748l-11.1357-6.4958s3.78-11.2307 5.373-15.1508 4.8945-17.1325-2.1638-24.191z" fill="#fff" stroke="#000" stroke-miterlimit="10" stroke-width=".25"/><path d="m143.087 377.657 2.664-1.364-2.661-.705z"/><path d="m169.7913 382.2564s-31.893-13.9371-32.2568-11.7835a3.1855 3.1855 0 0 0 .0349 1.2915c-.0278-.0386-.0615-.0759-.087-.1149l.6423 4a9.3956 9.3956 0 0 0 4.9623 2.0076c0-.1932.0022-1.3869.0033-2.0683a16.06 16.06 0 0 1 2.8163 1.452c2.0506 1.3241 3.3905 3.67 5.5856 6.3865 1.6 1.9794 4.4136 2.8743 8.5719 3.4088 4.475.5752 8.3977-.343 9.49-1.565a3.1988 3.1988 0 0 0 .2372-3.0147z"/><path d="m168.906 381.5263c-.31-.317-1.4577-1.5536-3.0063-2.8968a59.7491 59.7491 0 0 0 -4.6288-3.8548 17.7293 17.7293 0 0 1 -2.2981-1.8532c-.5611-.5892-1.1-1.2-1.6007-1.8414a34.68 34.68 0 0 1 -3.918-6.4719 15.204 15.204 0 0 1 -1.3832-3.409 22.0091 22.0091 0 0 1 -.43-3.7987c-.1234-5.7518-.0115-6.6671-.0487-11.0451l-13.3839.6334c.4751 2.42 1.19 5.7254 1.4609 8.4794.4119 4.189.5369 5.12-1.0295 9.3262a12.3052 12.3052 0 0 0 -1.202 3.7528c-.07 2.1465 1.6317 3.976 3.52 4.9986 1.5649.8477 3.3575 1.196 4.8771 2.1013a15.6635 15.6635 0 0 1 4.0007 3.8425c1.0861 1.357 1.9651 2.9667 3.4751 3.91a13.852 13.852 0 0 0 5.1882 1.7223 27.6568 27.6568 0 0 0 6.94.254c3.2865-.3053 5.7192-1.5432 3.4672-3.8496z" fill="#fff" stroke="#000" stroke-miterlimit="10" stroke-width=".25"/><path d="m167.0553 379.21c-1.3818-1.1365-3.34-2.7632-5.7035-4.5911a5.935 5.935 0 0 0 -4.9094.5193c-4.673 2.5558-5.4252 6.0946-5.4252 6.0946a6.7833 6.7833 0 0 0 3.891 3.3279c5.4732 2.3133 15.1963 1.4166 15.2559-1.1047.0379-1.606-1.4313-2.866-3.1088-4.246zm-28.1274-15.33s-.305.8316-1.1128 2.4646a4.5723 4.5723 0 0 0 .1165 4.8584 7.2289 7.2289 0 0 0 4.8147 3.1908c1.4418-4.801-1.9139-9.5073-3.8184-10.5138z"/><path d="m114.3451 370.7436c.9273 1.4227-.1219 6.8829.1643 10.7479.26 3.5116 1.3256 9.62.3185 13.116-1.1935 4.1432-3.6959 8.9743-8.6151 5.22-3.049-2.327-4.8325-5.38-5.3478-10.4332-.3579-3.5114.9436-8.4057 2.0582-12.746 1.302-5.07 1.7815-7.7755 1.7815-7.7755z"/><path d="m103.8684 345.0174c-.1737 8.2085.9011 13.9466 1.0667 19.1979a36.9554 36.9554 0 0 1 -.5988 7.1081c-.6186 3.3649-1.6895 8.0484-2.1356 10.2305-.6232 3.0486-1.1033 4.9724.017 8.3541a4.0529 4.0529 0 0 0 .3588.7609c1.5235 2.7742 5.2913 4.8145 6.4771 4.45a2.054 2.054 0 0 0 2.1118.6886 2.8335 2.8335 0 0 0 .3945-.1049 2.9334 2.9334 0 0 0 .3945-.1693 4.0734 4.0734 0 0 0 1.9283-2.62 7.2479 7.2479 0 0 0 .1759-.7463 26.2123 26.2123 0 0 0 -.0242-8.6105c-.1343-1.9049-.0741-4.3352.0294-7.4154s.6327-12.7572 1.6051-17.3985c.7257-3.2408 1.6307-7.3051 2.5834-11.6387z" fill="#fff" stroke="#000" stroke-miterlimit="10" stroke-width=".25"/><path d="m101.5576 385.52c2.91-1.3572 11.42-1.7165 12.8639 2.3995.1168 3.9013.1961 6.5459-2.1972 9.9935-3.18 4.5806-7.5531-.113-9.2548-3.1159a15.6714 15.6714 0 0 1 -1.4119-9.2771z"/><path d="m112.7225 237.6694c-3.9915 7.5219-6.9455 13.665-7.0565 35.869s.0418 28.4221-.0084 31.1-1.5427 7.4834-2.73 20.6877 1.06 39.4346 1.06 39.4346.7 1.9289 5.748 2.3117c4.6568.3533 6.5556-1.5971 6.5556-1.5971s6.2656-35.9518 7.921-43.9182 6.4237-34.15 6.4237-34.15l3.3314 21.1377s-1.3191 7.2961.2578 18.8394 4.6746 33.37 4.6746 33.37a13.0342 13.0342 0 0 0 7.0813 2.0378 12.0757 12.0757 0 0 0 6.2469-1.7236s3.1221-45.4423 2.9421-58.5484-.5335-45.7831-4.924-65.13z" fill="#fff" stroke="#000" stroke-miterlimit="10" stroke-width=".25"/><path d="m148 256.2413c-1.902 5.4392-9.041 9.3274-12.1909 10.1283l-3.4276 20.7304 1.5859 21.4451-3.3315-21.1377 3.8076-25.2593s8.7549-.746 13.5565-5.9068z"/><path d="m139.8473 197.18c7.7646 1.0529 10.6825 5.1683 14.3222 11.6581 3.1227 5.5676 6.716 11.8855 6.716 11.8855 1.1067-.897 10.1634-8.3411 12.3221-11.21 2.2825-3.034 1.4673-4.47 1.4732-6.564s.7435-3.7145.3218-6.9882c-.2014-1.562 1.4858-1.2258 2.1608-.3136 1.3616 1.8394 1.2038 5.18 2.0962 5.0225a7.9541 7.9541 0 0 0 2.39-2.6048c1.659-2.5506 1.9984-4.8854 3.3578-7.5851.5224-1.0374 1.2237-2.184 2.5433-2.1453a3.1676 3.1676 0 0 1 .4.06.4875.4875 0 0 1 .3584.4047 4.9239 4.9239 0 0 1 -.0068 1.067c-.03.2527-.1557.9878-.1557.9878s1.1867.188 1.37.6948a3.8606 3.8606 0 0 1 -.0528 2.4068c.4956.35 1.2647 1.2365.4761 3.1092.4516.1918 1.4037 1.4672.618 4.003a32.4275 32.4275 0 0 1 -3.0134 6.6905c-1.9445 3.1037-3.8027 4.2464-6.4216 7.4933s-7.4729 10.3724-11.8368 15.3478c-5.0622 5.7716-7.1068 7.2759-12.0156 4.5729-2.5427-1.4-16.1885-20.0662-16.1885-20.0662z" fill="#fff" stroke="#000" stroke-miterlimit="10" stroke-width=".25"/><path d="m140.2823 196.9287c6.2966 1.2935 8.628 3.3078 10.7475 6.257s10.1095 17.3309 10.1095 17.3309l9.3307-8.1133s-.2233 2.6336 2.3908 5.6716 4.3 2.4417 4.3 2.4417-6.0662 9.2861-10.0932 13.2425-6.6295 3.7138-10.0618 1.433-16.36-19.8738-16.36-19.8738z"/><path d="m151.0088 243.01c-.45-3.6072-.79-6.3387-.9043-7.8559-.0286-3.7368.0768-9.5587.0768-9.5587 6.6433-6.0921 3.5294-12.3293 1.0523-16.0915a52.636 52.636 0 0 0 -11.3863-12.3239 80.5925 80.5925 0 0 0 -11.936-1.4758 33.3333 33.3333 0 0 0 -8.9638.86c-2.5347.4741-8.8128 2.0331-8.8128 2.0331-1.866 1.0262-3.4865 3.0918-3.4249 8.8221a28.6676 28.6676 0 0 0 2.2636 11.7185 83.3082 83.3082 0 0 1 3.4768 12.46c1.0352 4.1355.3522 7.18-1.4981 11.0559-.8925 1.8694-.0818 3.7956 5.2316 6.37 3.564 1.7265 16.8375 4.144 27.85.7654 4.3214-1.3259 7.2168-4.7761 6.9751-6.7792z" fill="#fff" stroke="#000" stroke-miterlimit="10" stroke-width=".25"/><path d="m113.4384 178.5835c2.5015 5.3569 5.3367 7.3091 7.671 12.1671 5.9229-.25 13.2254-9.6465 20.0585-13.6405 3.9882-2.3311 6.5863-5.256 5.4513-10.0485-1.8627-7.8643-8.3645-12.0119-19.5275-9.5565-4.52.9943-9.5246 4.6483-10.4 9.7589-5.5103 1.9577-4.929 7.7311-3.2533 11.3195z"/><path d="m140.6487 166.0217c1.1862.5342 3.099 3.3207 3.5763 14.1616.3862 8.7764-2.6527 11.9291-4.3541 12.7024a14.5509 14.5509 0 0 1 -5.8305.87l.02 3.1729c2.4007 1.9343 3.6126 6.9835 1.8419 11.0391-7.5872-1.9685-12.7711-6.0756-14.8617-9.8789v-10.1762s-2.1251 1.7267-4.9626-.4114c-2.3425-1.7645-2.7981-5.37-1.2089-7.2375a3.9761 3.9761 0 0 1 6.3293.74s3.4488 2.2949 3.14-3.2351c-.3477-6.2326 2.0785-12.523 6.3548-11.2578 7.6636 2.2669 7.5238-1.6484 9.9555-.4891z" fill="#fff" stroke="#000" stroke-miterlimit="10" stroke-width=".25"/><path d="m134.1457 193.622c-2.8438-.1642-8.6637-1.5354-10.1031-4.6255a7.1716 7.1716 0 0 0 4.6924 3.8085 19.9967 19.9967 0 0 0 5.4107 1.0446z"/><path d="m121.0438 195.5833s6.925 13.5029 9.395 20.0781 1.7962 12.0148 1.87 24.2154c.0566 9.3953 0 23.5774 0 23.5774s-20.4629.2729-26.4537-7.2645c1.13-4.75 5.1223-14.2352 6.0937-17.2813s.8243-7.2379-1.5409-13.97-3.9536-11.8487-4.2116-16.9312 1.849-8.4219 3.0817-9.386z"/><path d="m134.0527 195.4385v1.49s12.719 11.8253 13.5409 23.8428 1.5408 39.1423 1.5408 39.1423a18.2309 18.2309 0 0 0 4.5356-3.7936c-.5293-5.4568-2.3783-27.0178-1.8647-29.4887s6.4062-8.081 1.0272-16.1131a65.0987 65.0987 0 0 0 -12.55-13.589z"/><path d="m128.927 231.4373 2.1235 3.7548-2.3621-3.6113c-.79-1.2024-1.5481-2.4246-2.3213-3.6378l-.5774-.9114-.2887-.4557-.2165-.3418-.0671-.1655a3.0005 3.0005 0 0 1 -.0948-1.1869 9.13 9.13 0 0 1 .1408-1.0968 36.2643 36.2643 0 0 1 .96-3.88 22.1963 22.1963 0 0 1 -2.8671-.767 7.619 7.619 0 0 1 -2.9659-1.6776 2.3457 2.3457 0 0 1 -.5087-.8034 1.8552 1.8552 0 0 1 -.0934-.4988l-.0282-.4133-.1091-1.6322-.2185-3.2647c-.2566-4.3548-.5032-8.711-.6513-13.08.4854 4.3431.8728 8.6993 1.25 13.057l.2569 3.27.1283 1.6351.0327.4033a1.2084 1.2084 0 0 0 .0607.3028 1.69 1.69 0 0 0 .3729.5623 7.6044 7.6044 0 0 0 2.7043 1.4928 21.8591 21.8591 0 0 0 3.1024.8543l.3611.0723-.1094.3462a37.2347 37.2347 0 0 0 -1.0891 4.1278c-.0641.3466-.1235.6953-.1571 1.0375a2.6411 2.6411 0 0 0 .0229.9481l.0247.088.068.1162.952 1.6277c.7222 1.2418 1.4594 2.475 2.1645 3.728zm23.173-9.8073c-.03.3488-.089.68-.1407 1.0146q-.1775.9956-.3923 1.976c-.5641 2.6184-1.2437 5.2045-1.9754 7.7763.5206-2.6221 1.05-5.2419 1.5271-7.8641q.1752-.9838.3141-1.9683c.0379-.3267.0835-.656.0982-.9741a1.8634 1.8634 0 0 0 -.107-.8717 12.7824 12.7824 0 0 0 -2.0808-3.2695l-.1266-.1575.0816-.1861a18.6563 18.6563 0 0 0 .9926-2.8593 10.4935 10.4935 0 0 0 .268-1.4665 3.8578 3.8578 0 0 0 -.0551-1.411 3.4955 3.4955 0 0 0 -.7109-1.2053c-.3091-.399-.636-.794-.97-1.1818-.6629-.7808-1.3543-1.5423-2.0448-2.3034-1.3816-1.5229-2.773-3.0407-4.1983-4.526s-2.8311-2.9915-4.35-4.3847c.8263.6192 1.5942 1.3112 2.3614 2.0006.7654.6922 1.5254 1.3906 2.2626 2.1121 1.4777 1.44 2.9471 2.889 4.3651 4.39.7035.7563 1.4069 1.5119 2.0875 2.2936.343.3886.6784.7835 1.0054 1.1948a4.0828 4.0828 0 0 1 .8456 1.4328 4.4965 4.4965 0 0 1 .0944 1.6572 9.4337 9.4337 0 0 1 -.2967 1.5686 19.1306 19.1306 0 0 1 -.9941 2.7755 12.69 12.69 0 0 1 2.03 3.3372 2.6414 2.6414 0 0 1 .1261.5434 3.5005 3.5005 0 0 1 -.017.5566z" fill="#fafafa"/><path d="m109.8554 198.4724c-6.1121 1.0735-8.5382 4.8033-11.2252 12.7408-3.6712 10.8444-6.8944 21.5273-7.5888 26.9572l14.4186-3.9434 7.711-15.5222s2.8944-12.4679-3.3156-20.2324z"/><path d="m139.086 259.511-31.194-4.795-4.744-39.991 31.194 4.796z" fill="#e55b2d"/><path d="m137.933 257.757-29.887-4.601-4.425-37.296 29.887 4.601z" fill="#fafafa"/><path d="m134.0934 246.4614-2.9876-25.1821-27.9592-6.5641 4.7466 40.0086 29.56 6.941a.7437.7437 0 0 0 .9467-.8706l-1.5134-12.756a1.4205 1.4205 0 0 0 -1.0267-1.164z" fill="#e55b2d"/><path d="m91.2447 238.17c-.0193 4.1.6083 4.7831 5.1063 7.0875s15.8462 5.852 24.8375 6.72c5.8583.5654 8.8739.29 11.1485-.6107a9.4085 9.4085 0 0 0 5.8693-10.3036c.9751-2.83-.5081-3.213-1.7266-3.52l.22 1.852a11.0861 11.0861 0 0 1 -5.0492 1.8217c-2.4215.0329-.1733-2.803.2609-4.5133s.3452-2.6976-1.0562-3.5065c-.7872-.007-1.0455 1.0791-3.4891 3.5106-1.8555 1.8462-3.3021 5.2158-6.1773 4.8256-2.257-.3064-15.6346-6.5121-15.6346-6.5121l-.6063-5.1252z" fill="#fff" stroke="#000" stroke-miterlimit="10" stroke-width=".25"/><path d="m91.0414 238.17c-.1735 2.5552.2778 3.8953 1.4583 4.9959s6.0409 3.392 9.0267 4.4335 10.8188 3.1594 12.3183 3.4371c-1.5557-2.43-1.1738-7.2214.1455-9.3739s3.0588-1.6283 3.0588-1.6283l-11.513-5.18-.8318-7.01z"/></svg>