<svg viewBox="0 0 500 500" xmlns="http://www.w3.org/2000/svg"><g fill="#fff"><path d="m102.1238 260.3152c-81.6672 34.0383-81.6653 89.2251.0045 123.2633s214.0806 34.0382 295.7479 0 81.6653-89.225-.0045-123.2633-214.0806-34.0382-295.7479 0z" stroke="#000" stroke-miterlimit="10" stroke-width=".25"/><path d="m429.27 297.339c6.7357-6.95 10.692-31.5187 4.1223-37.0312h-33.4279c-6.568 5.5108-2.6159 30.07 4.1157 37.0246.0576.0648.1239.1271.1845.1912.0771.0773.154.155.2319.2294.19.1863.3919.3687.6089.5475.0533.0447.1075.0844.1611.1278.1649.1308.3278.2622.5081.3884a9.3976 9.3976 0 0 0 .8709.5627c5.5407 3.2348 14.5237 3.2348 20.0639 0h.0008a9.4037 9.4037 0 0 0 .8764-.567c.1679-.1176.3188-.24.4733-.3618.0662-.053.1331-.1024.1989-.1577.2091-.1729.4036-.349.5873-.5284.09-.0855.1789-.1754.2676-.2646.0513-.0535.1075-.1061.1563-.1609z" stroke="#000" stroke-miterlimit="10" stroke-width=".25"/><path d="m402.8671 258.0875c-7.6269 4.4533-7.6267 11.673 0 16.126s19.9932 4.4532 27.62 0 7.6269-11.6726 0-16.1255-19.9929-4.4533-27.62-.0005z" stroke="#000" stroke-miterlimit="10" stroke-width=".25"/></g><path d="m406.5357 260.2294c-5.6013 3.27-5.6011 8.5722 0 11.8424s14.6822 3.27 20.2835 0 5.601-8.5722 0-11.8426-14.6826-3.2698-20.2835.0002z"/><path d="m426.819 265.85c-5.6011-3.27-14.6822-3.27-20.2833 0a9.347 9.347 0 0 0 -3.355 3.111 9.3472 9.3472 0 0 0 3.355 3.1111c5.6011 3.27 14.6822 3.27 20.2833 0a9.3434 9.3434 0 0 0 3.3551-3.1111 9.3411 9.3411 0 0 0 -3.3551-3.111z" fill="#e55b2d"/><path d="m405.48 213.156 10.4823 10.818-10.631-6.7121a31.5641 31.5641 0 0 0 .5565 10.9794 69.8171 69.8171 0 0 1 7.99 7.4055l-8.2255-4.5685s-1.3461 5.64-.1142 14.6761c.3226 2.3664 2.3155 7.0655 3.5087 10.5385a37.7313 37.7313 0 0 0 1.9479 4.6829c.0416.0972.091.1891.1388.2873q3.2009-1.31 6.6193-2.4869c1.78-2.751 4.5509-9.7564 5.9883-15.6025 5.483-22.3834-9.978-37.6572-23.2114-43.8369a41.494 41.494 0 0 1 4.9503 13.8192z"/><path d="m415.14 215.3922a22.3449 22.3449 0 0 1 3.7123 9.3631 46.4643 46.4643 0 0 1 .7855 10.1 42.9387 42.9387 0 0 1 -5.07 19.3952l-.0039.007a.3318.3318 0 1 0 .5825.3181l.0025-.0047a43.4291 43.4291 0 0 0 4.8209-19.7081 46.723 46.723 0 0 0 -.9547-10.14 22.4244 22.4244 0 0 0 -3.8751-9.3306z" fill="#fff"/><path d="m458.7843 221.3186a.0973.0973 0 0 1 -.0187.0174 187.4637 187.4637 0 0 0 -13.0426 18.4615l-12.7188 2.0917 9.391 1.6073-5.0117 7.9993-12.5153 2.6342 9.7857 1.5572s-2.6824 9.5533-9.6692 13.5565c-3.8569 2.21-5.5326 2.2681-6.9085 1.4526-1.68-.9959-2.488-3.7329-3.1783-7.8157s.701-12.34 4.529-20.3689a25.0522 25.0522 0 0 1 3.9879-5.9058c9.2282-10.3491 26.7139-15.3831 35.3695-15.2873z" fill="#e55b2d"/><path d="m445.4846 225.5287a51.8554 51.8554 0 0 0 -17.6594 12.2871 34.8484 34.8484 0 0 0 -6.03 9.02 32.9837 32.9837 0 0 0 -2.7326 10.4671.0349.0349 0 0 0 .0319.0382.0365.0365 0 0 0 .0379-.029 42.3734 42.3734 0 0 1 3.302-10.1786 39.1308 39.1308 0 0 1 5.8122-8.943 52.8951 52.8951 0 0 1 17.2668-12.5975.035.035 0 0 0 .0171-.0468.0353.0353 0 0 0 -.0459-.0175z" fill="#fff"/><path d="m372.1071 226.7871a29.0592 29.0592 0 0 1 3.5286-.1576 56.3919 56.3919 0 0 1 13.74 2.05c1.66.4524 3.3334.9834 4.9862 1.5964q1.2395.46 2.46.9817a39.0747 39.0747 0 0 1 11.0061 6.8513 24.7347 24.7347 0 0 1 3.9987 4.66c.1456.2213.3015.4361.44.6628l.0024.0044c.3559.5869.68 1.1648.9879 1.7387a33.745 33.745 0 0 1 4.5364 16.2647c.2188 4.0209-.7279 8.7269-1.44 9.55a1.8443 1.8443 0 0 1 -.3253.2907c-1.0764.832-2.9319.5724-6.5017-1.0185-7.1525-3.1882-10.7013-12.5883-10.7013-12.5883l9.3155-2.4665-12.3676-1.32-5.6337-7.2483 8.9288-2.4763-12.5112-.7764a182.4343 182.4343 0 0 0 -14.43-16.5832.0791.0791 0 0 1 -.02-.0148z" fill="#e55b2d"/><path d="m375.6357 226.63a56.3919 56.3919 0 0 1 13.74 2.05c1.66.4524 3.3334.9834 4.9862 1.5964q1.2395.46 2.46.9817a39.0747 39.0747 0 0 1 11.0061 6.8513 24.7347 24.7347 0 0 1 3.9987 4.66c.1456.2213.3015.4361.44.6628l.0024.0044c.3559.5869.68 1.1648.9879 1.7387a33.745 33.745 0 0 1 4.5364 16.2647c.2188 4.0209-.7279 8.7269-1.44 9.55a1.8443 1.8443 0 0 1 -.3253.2907 2.1205 2.1205 0 0 1 -.7242.3437c.2742-6.29-4.2135-21.7689-9.43-27.8293-5.4276-6.3051-17.7378-15.0453-33.7464-16.9923l.0113-.0173a29.1612 29.1612 0 0 1 3.4969-.1555z" fill="#e55b2d"/><path d="m415.3425 271.6226a53.5527 53.5527 0 0 0 -2.14-13.6619 44.58 44.58 0 0 0 -5.7433-12.6186 38.78 38.78 0 0 0 -10.1637-9.4663 51.7814 51.7814 0 0 0 -12.4849-6.02.0389.0389 0 0 0 -.0269.0729 67.9237 67.9237 0 0 1 12.0763 6.5913 49.6592 49.6592 0 0 1 5.4247 4.2 30.3582 30.3582 0 0 1 4.6677 4.9831 44.0865 44.0865 0 0 1 5.8773 12.37 53.3021 53.3021 0 0 1 2.4351 13.5522.0389.0389 0 0 0 .0777-.0021z" fill="#fff"/><path d="m77.8119 314.8377c-6.7355-6.95-10.692-31.5187-4.1223-37.0312h33.4274c6.568 5.5108 2.616 30.07-4.1156 37.0246-.0577.0648-.124.1272-.1845.1912-.0771.0773-.154.155-.2319.2294-.19.1863-.3919.3687-.6089.5475-.0534.0447-.1075.0844-.161.1278-.165.1308-.3279.2622-.5083.3885a9.417 9.417 0 0 1 -.8709.5626c-5.5406 3.2348-14.5237 3.2348-20.0638 0h-.0008a9.3847 9.3847 0 0 1 -.8765-.567c-.1679-.1175-.3187-.24-.4732-.3618-.0663-.053-.1332-.1024-.199-.1577-.2091-.1729-.4036-.349-.5872-.5283-.09-.0856-.1789-.1755-.2677-.2647-.0513-.0535-.1077-.1061-.1558-.1609z" fill="#fff" stroke="#000" stroke-miterlimit="10" stroke-width=".25"/><path d="m104.2143 275.5862c7.6269 4.4534 7.6267 11.6731 0 16.126s-19.9932 4.4532-27.62 0-7.6269-11.6726 0-16.1255 19.993-4.4532 27.62-.0005z" fill="#fff" stroke="#000" stroke-miterlimit="10" stroke-width=".25"/><path d="m100.5457 277.7281c5.6013 3.27 5.6011 8.5723 0 11.8424s-14.6822 3.27-20.2835 0-5.601-8.5723 0-11.8427 14.6826-3.2697 20.2835.0003z"/><path d="m80.2625 283.3486c5.601-3.27 14.6821-3.27 20.2832 0a9.347 9.347 0 0 1 3.355 3.111 9.3455 9.3455 0 0 1 -3.355 3.1111c-5.6011 3.27-14.6822 3.27-20.2832 0a9.3437 9.3437 0 0 1 -3.3552-3.1111 9.3432 9.3432 0 0 1 3.3552-3.111z" fill="#e55b2d"/><path d="m101.6014 230.6548-10.4823 10.8179 10.631-6.7121a31.5641 31.5641 0 0 1 -.5565 10.9794 69.8145 69.8145 0 0 0 -7.99 7.4056l8.2254-4.5686s1.3462 5.64.1142 14.6761c-.3226 2.3664-2.3154 7.0655-3.5087 10.5385a37.7313 37.7313 0 0 1 -1.9479 4.6829c-.0415.0973-.091.1891-.1388.2873q-3.2007-1.31-6.6192-2.4869c-1.7805-2.7509-4.551-9.7564-5.9883-15.6024-5.4831-22.3835 9.9779-37.6572 23.2113-43.837a41.4964 41.4964 0 0 0 -4.9502 13.8193z"/><path d="m91.9414 232.8909a22.3474 22.3474 0 0 0 -3.7123 9.3632 46.4633 46.4633 0 0 0 -.7855 10.1 42.94 42.94 0 0 0 5.07 19.3951l.0039.0071a.3318.3318 0 0 1 -.5824.3181l-.0025-.0047a43.4285 43.4285 0 0 1 -4.8209-19.7082 46.709 46.709 0 0 1 .9547-10.14 22.4246 22.4246 0 0 1 3.875-9.3306z" fill="#fff"/><path d="m48.2972 238.8173a.0919.0919 0 0 0 .0187.0175 187.4892 187.4892 0 0 1 13.0426 18.4614l12.7188 2.0917-9.3911 1.6073 5.0117 7.9994 12.5154 2.6336-9.7856 1.5572s2.6823 9.5534 9.669 13.5566c3.8569 2.21 5.5327 2.268 6.9086 1.4526 1.68-.996 2.4879-3.7329 3.1783-7.8158s-.701-12.34-4.529-20.3689a25.0573 25.0573 0 0 0 -3.9879-5.9058c-9.2283-10.3486-26.7138-15.3826-35.3695-15.2868z" fill="#e55b2d"/><path d="m61.5969 243.0275a51.856 51.856 0 0 1 17.6594 12.287 34.8535 34.8535 0 0 1 6.03 9.02 32.9843 32.9843 0 0 1 2.7325 10.4671.0349.0349 0 0 1 -.0319.0382.0365.0365 0 0 1 -.0379-.029 42.368 42.368 0 0 0 -3.3019-10.1785 39.1347 39.1347 0 0 0 -5.8122-8.9431 52.8955 52.8955 0 0 0 -17.2669-12.5975.0351.0351 0 0 1 -.0171-.0468.0354.0354 0 0 1 .046-.0174z" fill="#fff"/><path d="m134.9743 244.2858a29.0575 29.0575 0 0 0 -3.5285-.1576 56.3911 56.3911 0 0 0 -13.74 2.05c-1.66.4523-3.3334.9834-4.9862 1.5964q-1.24.46-2.46.9817a39.0727 39.0727 0 0 0 -11.0062 6.8512 24.7372 24.7372 0 0 0 -3.9986 4.66c-.1457.2213-.3015.4362-.4395.6628l-.0025.0045c-.3559.5868-.6794 1.1647-.9879 1.7387a33.7444 33.7444 0 0 0 -4.5363 16.2646c-.2189 4.0209.7278 8.727 1.44 9.55a1.84 1.84 0 0 0 .3253.2906c1.0764.832 2.9318.5725 6.5017-1.0185 7.1525-3.1882 10.7012-12.5882 10.7012-12.5882l-9.3153-2.4666 12.3675-1.32 5.6336-7.2482-8.9288-2.4764 12.5114-.7764a182.3772 182.3772 0 0 1 14.43-16.5831.0826.0826 0 0 0 .02-.0148z" fill="#e55b2d"/><path d="m91.7391 289.1213a53.55 53.55 0 0 1 2.14-13.6619 44.581 44.581 0 0 1 5.7433-12.6185 38.7774 38.7774 0 0 1 10.1638-9.4663 51.7715 51.7715 0 0 1 12.4848-6.02.0389.0389 0 0 1 .0269.0729 67.92 67.92 0 0 0 -12.0768 6.5909 49.6676 49.6676 0 0 0 -5.4246 4.2 30.3628 30.3628 0 0 0 -4.6678 4.9831 44.0883 44.0883 0 0 0 -5.8772 12.37 53.2934 53.2934 0 0 0 -2.4351 13.5521.0388.0388 0 0 1 -.0776-.0021z" fill="#fff"/><path d="m275.23 320.722 2.532-1.37-2.574-.62z"/><path d="m301.0089 324.562s-30.9715-12.706-31.2744-10.6271a3.0629 3.0629 0 0 0 .0616 1.241c-.0275-.0365-.0608-.0716-.0861-.1084l.7048 3.8319a9.0382 9.0382 0 0 0 4.8155 1.8222c-.004-.1858-.0282-1.3338-.0419-1.989a15.4463 15.4463 0 0 1 2.74 1.3348c2.0008 1.2285 3.34 3.455 5.51 6.0192 1.5816 1.8686 4.3067 2.6677 8.317 3.0909 4.3156.4556 8.0676-.5129 9.0908-1.7118a3.0763 3.0763 0 0 0 .1627-2.9037z" fill="#e55b2d"/><path d="m300.1417 323.8792c-.3045-.2979-1.4355-1.462-2.954-2.72a57.4244 57.4244 0 0 0 -4.5349-3.6058 17.0348 17.0348 0 0 1 -2.25-1.7319c-.5526-.5544-1.0838-1.13-1.5795-1.7358a32.503 32.503 0 0 1 -3.5455-5.4334 8.6869 8.6869 0 0 1 -1.089-4.6853 108.9865 108.9865 0 0 1 .82-13.6647l-14.6792.24c.51 2.3166.81 6.2757 1.13 8.9179.4875 4.0191.628 4.9113-.7865 8.99a11.8364 11.8364 0 0 0 -1.074 3.635c-.02 2.0656 1.6558 3.7877 3.4939 4.73 1.5234.781 3.2546 1.0769 4.7357 1.9142a15.0613 15.0613 0 0 1 3.9307 3.6076c1.074 1.2812 1.9543 2.81 3.4269 3.6841a13.3237 13.3237 0 0 0 5.0264 1.5431 26.6015 26.6015 0 0 0 6.6787.0927c3.1539-.3656 5.4661-1.609 3.2503-3.7777z" fill="#fff" stroke="#000" stroke-miterlimit="10" stroke-width=".25"/><path d="m298.3117 321.6923c-1.3535-1.0628-3.2724-2.5844-5.5846-4.2905a5.7086 5.7086 0 0 0 -4.7095.6064c-4.4377 2.56-5.0838 5.9789-5.0838 5.9789a6.5245 6.5245 0 0 0 3.8141 3.115c5.3134 2.1051 14.6434 1.031 14.6457-1.395.0014-1.5452-1.4388-2.7249-3.0819-4.0148zm-27.3817-14.1277s-.2751.8063-1.0161 2.3942a4.3975 4.3975 0 0 0 .2179 4.6692 6.9529 6.9529 0 0 0 4.6993 2.9631c1.2823-4.6476-2.0474-9.1-3.9011-10.0265z" fill="#e55b2d"/><path d="m247.2732 313.058c.8632 1.3868-.256 6.6162-.0588 10.3387.1791 3.382 1.0806 9.2778.0416 12.6189-1.2312 3.96-3.735 8.5553-8.39 4.8455-2.885-2.2992-4.5385-5.2715-4.9319-10.1407-.2733-3.3838 1.0769-8.064 2.2363-12.2151 1.3542-4.8488 1.87-7.4412 1.87-7.4412z" fill="#e55b2d"/><path d="m237.7179 288.1079c-.3326 7.89.5851 13.4294.6384 18.4825a35.549 35.549 0 0 1 -.7193 6.8232c-.6627 3.2232-1.7872 7.7053-2.26 9.7947-.6607 2.9189-1.1614 4.7593-.1523 8.0337a3.8948 3.8948 0 0 0 .33.739c1.4091 2.6985 4.991 4.7364 6.1387 4.41a1.9754 1.9754 0 0 0 2.0168.7047 2.7134 2.7134 0 0 0 .3814-.093 2.8053 2.8053 0 0 0 .3827-.1547 3.9175 3.9175 0 0 0 1.9074-2.48 7.036 7.036 0 0 0 .1841-.714 25.2116 25.2116 0 0 0 .1505-8.2805c-.0907-1.8346.0162-4.1705.1779-7.13s.8658-12.2547 1.8946-16.6981c.7633-3.1018 1.7156-6.992 2.7191-11.14z" fill="#fff" stroke="#000" stroke-miterlimit="10" stroke-width=".25"/><path d="m234.6785 327.0086c2.8255-1.2463 11.016-1.42 12.3216 2.567.0337 3.7541.0566 6.2987-2.3144 9.5656-3.15 4.3407-7.2609-.2611-8.8367-3.183a15.0735 15.0735 0 0 1 -1.1705-8.9496z" fill="#e55b2d"/><path d="m248.3985 185.0589c-3.99 7.1526-7.2093 13.1824-8.2484 32.0789-1.1728 21.3247-.998 29.4462-1.1 32.02s-1.7608 7.2937-3.1694 19.9671.0754 43.4.0754 43.4.9965 2.07 5.8433 2.54a12.369 12.369 0 0 0 7.0963-1.1361s7.1063-40.3433 8.859-47.9705 6.8663-32.7091 6.8663-32.7091l2.7769 20.3936s-1.4157 6.9892-.1323 18.1213 3.6634 32.4272 3.6634 32.4272a15.7065 15.7065 0 0 0 6.6153 2.4028 11.2582 11.2582 0 0 0 7.2319-1.56s4.3319-44.1232 4.4241-56.73-.8807-44.0638-4.7124-62.7569z" fill="#fff" stroke="#000" stroke-miterlimit="10" stroke-width=".25"/><path d="m301.0809 161.6932s.216 1.8882-2.6168 5.5773c-2.6254 3.4193-1.46 8.0853 1.509 8.7053s6.37-1.6362 10.5723-3.7057c4.3691-2.1517 12.0761-6.5469 15.9271-8.9038 2.3595-1.4439 5.0443-1.5039 7.6321-2.19a17.1109 17.1109 0 0 0 6.9083-3.9572 10.5318 10.5318 0 0 0 2.0141-2.2875 4.8022 4.8022 0 0 0 .7881-2.5662 1.6657 1.6657 0 0 1 .6143-1.5716 2.8438 2.8438 0 0 0 .7461-1.962 16.338 16.338 0 0 1 -.1782-2.627c.0868-.635-.1332-1.6707-1.0331-1.5479a1.4881 1.4881 0 0 0 -.555.2382c-1.8266 1.1109-3.4936 2.46-5.3026 3.5972a8.8255 8.8255 0 0 1 -2.7529 1.4462c-1.3338.2058.05-1.4771.3437-1.9331a8.3793 8.3793 0 0 0 .7771-1.39 5.1881 5.1881 0 0 0 .2256-2.6373.7649.7649 0 0 0 -.1037-.3033.5729.5729 0 0 0 -.6617-.16 1.6433 1.6433 0 0 0 -.5805.4368c-.8209.8391-1.6171 1.7053-2.5033 2.4751-.9679.8408-2.0364 1.5606-2.9988 2.4076-1.3928 1.2258-2.5436 2.6965-3.924 3.9348a16.3558 16.3558 0 0 1 -4.8924 2.6477c-5.0475 2.1803-14.6909 4.6853-19.9548 6.2764z" fill="#fff" stroke="#000" stroke-miterlimit="10" stroke-width=".25"/><path d="m275.3761 145.2077c4.4785 1.0259 7.0892 1.6473 12.8378 6.1261 8.7354 6.8057 12.8007 10.0748 12.8007 10.0748l13.0165-3.6777c-.5673 4.7226.77 8.9165 4.1494 10.88a104.8787 104.8787 0 0 1 -11.8018 6.2731c-7.0173 3.31-8.5722 2.771-13.5308-.4594-5.1361-3.3461-19.0034-11.6067-19.0034-11.6067z" fill="#e55b2d"/><path d="m251.5925 115.1438c-2.5781 2.8513-2.8446 7.4018-1.8457 11.1833a22.704 22.704 0 0 0 2.3481 5.0029 46.0174 46.0174 0 0 0 5.239 7.545 5.776 5.776 0 0 0 2.75 1.9762c1.8356.5507 2.1609-2.3765 4.063-2.28a6.1152 6.1152 0 0 0 3.3013-1.3928c.49-.584 1.05 2.7211 1.2764 1.9932a30.6889 30.6889 0 0 1 3.4676-7.4523c1.2347-1.9232 2.8832-4.5951 4.8346-5.6286.8069-.4274 1.7155-.99 1.8568-1.9521a2.4132 2.4132 0 0 0 1.3889 2.563 1.622 1.622 0 0 1 -.1855-1.9833c.3317-.6368.87-1.1264 1.1878-1.7719a3.0722 3.0722 0 0 0 -.071-2.7748 1.6656 1.6656 0 0 1 .5977 2.2342 2.7286 2.7286 0 0 0 1.26-2.3034c.003-2.2326-2.1228-2.9352-3.0322-4.6308a15.7543 15.7543 0 0 1 -.7154-2.564 19.97 19.97 0 0 0 -.78-1.974 10.7144 10.7144 0 0 0 -2.4631-3.3653c-3.9108-3.5877-9.5871-3.3588-14.2287-1.8528a13.1136 13.1136 0 0 0 -6.0609 3.8039 8.1169 8.1169 0 0 0 -2.1471 3.9158 7.659 7.659 0 0 0 -2.0416 1.7086z"/><path d="m243.8715 194.548c-1.4538-1.8044.6982-1.623 1.5325-13.34.2151-3.0213-2.319-11.1706-2.319-11.1706s2.6021-5.1026.8357-19.6834l12.2179-6.0967 8.983-.3966 10.2557 1.8264a42.6471 42.6471 0 0 1 7.86 8.1852c3.8465 5.6855 4.4275 11.8661.277 16.3871-.0618.894.5182 14.6011 1.6372 17.9511 1.0392 3.1111.8361 5.26-.8367 6.6483-6.2214 7.055-25.518 9.0818-40.4433-.3108z" fill="#fff" stroke="#000" stroke-miterlimit="10" stroke-width=".25"/><path d="m254.9892 134.92a3.8118 3.8118 0 0 1 -3.5835-1.4805c-1.89-2.2535-2.0671-4.5489-1.1882-6.0783.7221-1.2568 2.5042-2.0611 3.7541-1.2124 1.3372.9078 1.3794 1.65 1.8854 2.6759.5193 1.0534 1.8.2236 1.3637-3.9029 2.5936-1.3272 2.1751-6.0464 3.5761-7.9725a5.4875 5.4875 0 0 1 6.9832-1.527 4.4043 4.4043 0 0 1 4.9237-.3456c1.7446 1.0127 2.9062 3.1444 3.5253 10.475.6313 7.4729-.5555 12.4532-2.1435 14.039-1.0926 1.0911-7.8029 1.168-10.2237 1.0168l.6886 3.265s10.9986 8.1316 2.08 7.4173c-6.6824-.5354-10.1058-6.2129-10.1058-6.2129l-.06-11.3326s-.1437.9032-1.4754 1.1757z" fill="#fff" stroke="#000" stroke-miterlimit="10" stroke-width=".25"/><path d="m277.75 122.1073c-.1637-.0151-.3343-.0286-.5106-.04a14.1219 14.1219 0 0 0 -5.05.4182c-1.583.5969-2.1171 1.2029-3.011 1.2513-.9563.0419-1.5964-.5079-3.3519-.9422a16.1861 16.1861 0 0 0 -5.4194.0929c-.1864.03-.3672.06-.5395.0913a.8906.8906 0 0 0 -.5438.9754 2.2271 2.2271 0 0 0 .5872 1.0749 1.4122 1.4122 0 0 1 .205.4344 20.3878 20.3878 0 0 0 .8471 3.0055 3.9444 3.9444 0 0 0 .76 1.0575 2.9981 2.9981 0 0 0 .3733.3051c.07.0466.139.0909.2128.1344a3.1726 3.1726 0 0 0 .6257.2746c.0347.0111.07.0219.1043.03.0528.0143.1088.03.1645.0425s.1129.0237.1716.0352a3.9122 3.9122 0 0 0 .5418.0627c.0744.0059.1515.0077.2306.0093.0921-.0006.1888-.0014.288-.0061a3.6076 3.6076 0 0 0 3.5616-2.437c.4822-1.1763.24-2.7977 1.2638-2.8432a.7753.7753 0 0 1 .098.001.671.671 0 0 1 .0916.0111c.768.15.7675 1.645 1.31 2.6971a4.5376 4.5376 0 0 0 .7982 1.1383c.0591.06.12.1179.1838.173.0322.0289.0645.055.0979.081s.0669.0525.1018.0774c.0307.023.0609.0444.0927.0654.0538.0354.0768.0506.1.0646.0259.0169.0519.032.0791.0468.0174.0112.0362.0216.0549.0321a3.2047 3.2047 0 0 0 .9077.3315c.0267.0051.0548.0112.083.0159a4.5229 4.5229 0 0 0 1.0891.0618 3.08 3.08 0 0 0 3.0071-2.2605 20.1924 20.1924 0 0 0 .4478-3.07.9341.9341 0 0 1 .1645-.408 2.1049 2.1049 0 0 0 .4-1.1434c-.0046-.4864-.3358-.9156-.6183-.9418zm-10.395 4.8155a3.44 3.44 0 0 1 -.6722 1.6408l-.0012.0007a2.9842 2.9842 0 0 1 -2.365 1.0328 2.7177 2.7177 0 0 1 -2.4-1.0567c-.029-.0373-.0564-.0747-.0811-.1112-.0274-.0377-.0517-.074-.0747-.1107-.0228-.0345-.044-.0694-.0641-.1046-.0184-.0309-.0364-.063-.053-.0943-.0149-.0252-.0283-.05-.04-.0751-.0132-.0232-.0248-.0456-.0348-.0676-.0188-.0373-.0374-.0761-.0545-.1129v-.0014c-.0527-.1138-.0982-.2239-.137-.3311l-.0032-.0081c-.0249-.0681-.0483-.1351-.07-.199-.0383-.1159-.07-.2252-.0963-.3214l-.0169-.0616-.0168-.059c-.2206-.7961-.5214-2.3672-.1614-2.7423a4.1237 4.1237 0 0 1 3.0111-.7038c.0563 0 .1162.0043.1776.0093a6.7811 6.7811 0 0 1 .7639.1c.1.0181.2.0392.2977.0614a6.6084 6.6084 0 0 1 .7515.2165c.0805.0283.1579.058.2311.088.0883.0346.1721.0724.2517.1109.0168.0077.0334.0156.05.0245.0322.0152.0627.0307.0922.0484a1.5825 1.5825 0 0 1 .5214.3974 3.8156 3.8156 0 0 1 .1944 2.4301zm9.625-.81a3.4355 3.4355 0 0 1 -1.4038 2.6518 3.0528 3.0528 0 0 1 -3.759-.7421l-.0077-.0116c-.0182-.0247-.0347-.0484-.05-.0715-.02-.0282-.0381-.0568-.0552-.0834-.0091-.0136-.0184-.0286-.0275-.0436-.0246-.0409-.0493-.0832-.0712-.1242-.0265-.0482-.0514-.0959-.0752-.1457-.0126-.0229-.0237-.0468-.0346-.0706l-.018-.04c-.0094-.0206-.0175-.04-.0257-.06-.0066-.0161-.0142-.0319-.0193-.0461a4.3721 4.3721 0 0 1 -.1961-.5923 4.0649 4.0649 0 0 1 -.0967-2.4335 4.3716 4.3716 0 0 1 2.6326-1.3207 6.9779 6.9779 0 0 1 .7564-.0968c.03-.0019.0608-.0039.09-.0053.0331-.002.0651-.0034.0971-.0046.09-.0043.1788-.0047.2637-.005.0321 0 .0639 0 .0961.0014.0431.0016.0848.0025.1253.0055.0712.002.1409.0076.2081.0146a3.7438 3.7438 0 0 1 .3853.0534c.031.006.0619.0121.0916.0188a.1089.1089 0 0 1 .0239.0052c.02.0045.0407.0083.0621.0147.0309.0062.0632.0157.093.0237.038.0094.0767.022.112.0327.0666.0211.1273.043.1844.0673a.3281.3281 0 0 1 .0329.0133 1.5141 1.5141 0 0 1 .4246.2524c.3771.3371.2735 1.9294.1609 2.742zm-17.038-1.6806-5.07 2.5a6.3745 6.3745 0 0 0 -.9-.7833l5.822-3.0273z"/><path d="m265.1216 143.86 10.2545 1.3474c5.131 4.0511 11.185 11.09 11.4167 16.5678a28.773 28.773 0 0 1 -.9557 9.1659s-.5858 11.3436.5619 17.2434 3.8466 20.1836 3.8466 20.1836a17.2817 17.2817 0 0 1 -7.3191 4.1479c-1.1762-7.5636-3.8953-36.1165-3.5708-42.7483s-1.3739-20.023-14.2341-25.9077z" fill="#e55b2d"/><path d="m282.812 152.8092c2.2407 2.9939 3.863 6.1818 3.9808 8.9663a28.773 28.773 0 0 1 -.9557 9.1659s-.5858 11.3436.5619 17.2434 3.8466 20.1836 3.8466 20.1836" fill="none" stroke="#000" stroke-miterlimit="10" stroke-width=".25"/><path d="m256.1386 144.2569s1.6431 3.3979 4.5185 10.3691 5.6571 13.3111 5.4689 19.7076-3.3527 39.6519-3.3527 39.6519-11.6325 0-16.6576-1.5956l.8-13.0256-3.0912 12.3051a14.6175 14.6175 0 0 1 -4.4373-2.39c1.0363-14.0609 5.7843-20.1923 4.902-28.4379-.812-7.5871-5.7587-14.3734-1.2038-31.9408z" fill="#d12626"/><path d="m256.1386 144.2569s1.6431 3.3979 4.5185 10.3691 5.6571 13.3111 5.4689 19.7076-3.3527 39.6519-3.3527 39.6519-11.6325 0-16.6576-1.5956l.8-13.0256-3.0912 12.3051a14.6175 14.6175 0 0 1 -4.4373-2.39c1.0363-14.0609 5.7843-20.1923 4.902-28.4379-.812-7.5871-5.7587-14.3734-1.2038-31.9408z" fill="#e55b2d"/><path d="m349.9623 307.6444 1.3122-11.6-13.994.8744s.2128 6.2967.4089 9.86c.1161 2.1073-2.8767 6.0186-2.8767 6.0186s6.574 3.3435 10.0957 2.1732 5.3854-5.3278 5.3363-6.2343-.2824-1.0919-.2824-1.0919z" fill="#fff" stroke="#000" stroke-miterlimit="10" stroke-width=".25"/><path d="m318.9192 325.7648a2.964 2.964 0 0 0 .5477 3.09 14.1092 14.1092 0 0 0 9.9612 2.3588c4.9714-.5295 7.6813-1.9571 9.6919-3.519s4.8286-3.7645 7.08-4.2007a13.8558 13.8558 0 0 0 5.0469-1.88c.677-.6074.6277-3.3619.6277-3.3619z"/><path d="m350.0644 307.6228a.7928.7928 0 0 1 .7407.6572c.1408.7613.271 2.97.58 4.2208a21.4165 21.4165 0 0 1 .382 6.6961c-.2955 1.4055-3.71 2.3261-5.8938 3.0827a27.7678 27.7678 0 0 0 -7.1038 4.146 20.3166 20.3166 0 0 1 -10.5286 3.5624c-3.8258-.0942-8.1147-1.36-9.0751-3.0815-1.1882-2.1306-2.0392-4.5962 3.6733-7.0225 1.0815-.4593 4.8875-2.5382 6.1854-3.2931 3.5116-2.0427 5.9893-3.93 7.6483-7.6243a2.0748 2.0748 0 0 1 .8336-1.1242 1.8771 1.8771 0 0 1 1.1044-.0761 38.6292 38.6292 0 0 1 5.56 1.1189c.7559.3622 1.83.7869 1.7986 1.7234a3.0327 3.0327 0 0 1 -.229.9485c-.0711.19-.1282.4436.044.56.163.11.383-.0082.533-.1329a14.2307 14.2307 0 0 0 1.557-1.7367 5.4346 5.4346 0 0 1 .912-.8631 9.7828 9.7828 0 0 0 .9809-.5875c.35-.3244.2738-.735.2971-1.1741z"/><path d="m338.7691 326.4256c1.0021-.7668 2.0644-1.5058 3.13-2.1648v-.0048s-6.7334 3.78-9.4011 1.9636c-1.7189-1.17-.871-2.54-.8221-2.9819s-6.0337-3.6725-7.7172-3.8948c-.4738.2413-.871.4354-1.12.5411-5.7128 2.4263-4.8615 4.8919-3.6731 7.0225.96 1.7217 4.06 3.106 9.0049 3.193 3.2338.0568 8.2384-1.8679 10.5986-3.6739z"/><path d="m373.53 313.3551-2.5368-10.94 13.0414-1.5343.2205 10.4991s1.2506 3.7943.4114 5.1406-9.514 2.5556-10.2871 1.6238-.8494-4.7892-.8494-4.7892z" fill="#fff" stroke="#000" stroke-miterlimit="10" stroke-width=".25"/><path d="m374.0479 337.013c.3075 3.3706.9476 5.5622 2.3252 7.42s3.8928 2.2354 6.4078 1.4025 5.7147-2.7109 6.3619-5.7087a16.9488 16.9488 0 0 0 -.2111-8.0778z"/><path d="m384.2551 311.38c1.0446-.0287.6807 4.5689 1.4033 9.07.7746 4.8244 2.4347 6.687 3.1173 10.6375.78 4.5138.57 6.5857-1.1222 9.5291s-7.8694 6.2775-11.0554 2.6175c-2.5972-2.984-2.7964-6.5583-2.69-11.1531a105.6357 105.6357 0 0 0 -.0781-11.661c-.2947-3.4082-1.1952-6.458-.3-6.929.0834.4965.1683 1.1286.2555 1.6157.0667.3739.22 2.22.8051 2.18a6.4732 6.4732 0 0 0 -.0228-1.2927 1.4917 1.4917 0 0 1 .2561-1.1342 4.7656 4.7656 0 0 1 1.6962-.8316c1.0211-.2861 2.8421-.6275 3.8824-.8161.5177-.094 1.0384-.168 1.56-.2143a4.4461 4.4461 0 0 1 1.3257.0405.8155.8155 0 0 1 .5768.4092 1.3316 1.3316 0 0 1 .0685.5173 3.3512 3.3512 0 0 0 .1557.927c.0416.1314.1487.2863.2972.2389a.2889.2889 0 0 0 .1624-.2938c-.0107-.5528-.0987-.947-.1441-1.5868-.0208-.2958-.0849-.6955-.0974-.9933-.0118-.2934-.0227-.5868-.0522-.8768z"/><path d="m388.5044 329.808c.1189.6505.851 4.9624-.4387 5.88-1.3957.9935-2.2659-2.3674-2.2659-2.3674s-3.3519-.5965-8.1433 1.8084c.2676.6848-.4172 3.0986-1.7593 2.7361-1.3327-.36-1.9876-5.3246-1.9959-5.3892-.0848 4.4036.1755 7.86 2.6968 10.7571 3.186 3.66 9.3643.326 11.0554-2.6175s1.902-5.0153 1.1219-9.5291c-.078-.4514-.1701-.8736-.271-1.2784z"/><path d="m382.0755 197.434c4.5267 28.5913 1.7919 64.9944 1.7919 64.9944a106.0423 106.0423 0 0 1 1.3257 17.0124c-.1109 10.7146-.2369 25.89-.2369 25.89s-7.0584 5.5039-14.1461 1.7253c0 0-4.9645-19.9058-7.0679-35.4911-1.6816-12.46-4.7248-30.98-4.7248-30.98l-4.9231 19.7392s.5249 7.6855.3994 13.0716c-.1459 6.2643-3.5576 30.2847-3.5576 30.2847s-7.9115 4.5328-13.9485-.1634c0 0-2.3277-34.9467-2.6225-42.4746-.5781-14.7655-.2133-45.5982 1.4158-64.2965z" fill="#e55b2d"/><path d="m398.9237 190.9375c-.23 2.93-1.4876 13.6767-2.2276 16.7967h-14.0625c1.34-8.26 3.0024-22.14 3.0024-22.14l-4.11-16.02c-.05.33-.09.66-.14 1-.43 2.84-2.41 8.28-2.38 14.24a91.8809 91.8809 0 0 0 1.82 16.28s-6.71 7.25-26.33 6.08c-15.41-.91-18.09-6.61-18.09-6.61s.07-2.65.17-6.56a90.99 90.99 0 0 1 -8.8 3.19c-5.06 1.63-14.0086 5.0158-14.0086 5.0158-2.8417-4.37-4.1339-8.68-3.1071-12.8977 9.86-2.79 20.7857-9.0281 20.7857-9.0281s.4-3.49 1.99-16.34c1.6-12.91 5.2356-19.0543 9.98-20.66s8.95-3.3736 18.4586-3.3736 18.02 4.5229 19.5 5.1429c6.01 2.29 9.9214 5.1206 11.5714 10.5907s4.5 19.54 5.09 23.48c.8801 5.86 1.2077 7.8833.8877 11.8133z" fill="#fff" stroke="#000" stroke-miterlimit="10" stroke-width=".25"/><path d="m393.656 215.2143a22.92 22.92 0 0 1 .05 4.06 16.9117 16.9117 0 0 1 -1.05 4.7c-.39 1.05-.63 2.19-1.08 3.2a11.75 11.75 0 0 1 -1.43 1.93c-.53.72-.7 1.61-1.35 2.25-1.14 1.11-2.34 1.29-3.43 1.82-.46.7-1.23 2.19-1.75 2.85-1.33 1.68-1.68-1.04-1.65-1.96a13.9447 13.9447 0 0 1 .51-2.93 67.931 67.931 0 0 0 1.55-7.31c.07-.44.56-2.25-.15-2.23a.8729.8729 0 0 0 -.59.35 19.48 19.48 0 0 0 -1.22 1.88 11.0988 11.0988 0 0 1 -1.15 1.32 3.9945 3.9945 0 0 1 -1.15.94c-.46.2-2.16.36-2.24-.44a.71.71 0 0 1 .08-.37c.34-.83.75-1.63 1.09-2.46a22.4534 22.4534 0 0 0 .95-2.52 20.6186 20.6186 0 0 1 2.93-7.15 15.4873 15.4873 0 0 0 1.58-5.41h11.05a61.2565 61.2565 0 0 0 -1.55 7.48z" fill="#fff" stroke="#000" stroke-miterlimit="10" stroke-width=".25"/><path d="m311.1674 190.8912c-3.6542.5187-4.7142-.1674-7.0722-.2173a.6692.6692 0 0 0 -.4892.12 6.639 6.639 0 0 0 -.456.6965c-.2114.2667-.4453.5265-.6818.7714-.3.3107-4.121 5.0715-4.0631 5.1013l1.7985.94s5.8032 6.3972 9.4637 4.0464c.831-.5334 1.8222-.2613 2.6716-.6366a5.0586 5.0586 0 0 0 2.0041-1.5635 4.6276 4.6276 0 0 0 .1786-3.4567l-.67-3.1855c-.21-.9988-.32-2.0862-1.4328-2.4489-.1159-.0383-1.2514-.1671-1.2514-.1671z" fill="#fff" stroke="#000" stroke-miterlimit="10" stroke-width=".25"/><path d="m372.4692 112.71a5.0308 5.0308 0 0 0 -2.5451-2.7083c-.5417-3.1669-4.0554-6.8588-10.6776-7.0648a5.67 5.67 0 0 1 -2.2938-.35c-.7971-.36-1.4913-.9687-2.2664-1.3829a5.1526 5.1526 0 0 0 -2.37-.6169 3.7339 3.7339 0 0 0 -1.9306.4685 3.0879 3.0879 0 0 0 -1.3573 1.6418 5.8921 5.8921 0 0 0 -.1994 2.1781 2.2653 2.2653 0 0 0 -1.644.165 3.1255 3.1255 0 0 0 -1.6568 1.4365 3.3138 3.3138 0 0 0 -.1632 2.25 4.9487 4.9487 0 0 0 1.056 1.9354 2.5913 2.5913 0 0 0 -1.163 2.929 2.721 2.721 0 0 0 2.2582 2.05c-.1285-.0135.0756.8811.1061.9524a1.5148 1.5148 0 0 0 .7.7429 13.7675 13.7675 0 0 0 2.1776.813l3.0741 1.13q3.8125 1.4013 7.6248 2.8028l6.3983 2.352-.0889 3.9494.0049 5.6643a3.2181 3.2181 0 0 0 1.7573-1.7449 34.84 34.84 0 0 0 2.4722-7.9677c1.5388-7.4186 1.3826-10.2335.7266-11.6256z"/><path d="m371.94 129.9014a2.4269 2.4269 0 0 1 -3.6489-.7792l.2 13.601c-2.5647 4.2765-4.9018 4.9822-7.7946 4.58s-4.3631-2.3167-3.5357-4.58l1.8992-5.9464s-4.0925.9534-5.42.7451c-2.2144-.34-4.1076-2.0826-4.8292-5.559-.87-4.192-1.0237-13.3329.0324-17.4916.341-1.3425.693-2.8842 1.7456-3.5385 2.6122-1.6242 10.6863-2.33 12.8474 1.4033-.2475 2.3049.3717 4.8242 2.1792 5.5327.1389 3.6305.615 5.3757 1.8412 5.9379.9968.4571 1.4373-1.3522 2.0962-2.2087a2.5682 2.5682 0 0 1 4.3487 1.0341 5.81 5.81 0 0 1 -1.9615 7.2693z" fill="#fff" stroke="#000" stroke-miterlimit="10" stroke-width=".25"/><path d="m336.25 164.416.278 17.167-.903 13.39-.94 13.944" fill="none" stroke="#000" stroke-miterlimit="10" stroke-width=".25"/><path d="m311.8877 201.2049a18.67 18.67 0 0 1 -8.1386-5.0285 1.542 1.542 0 0 1 -.5172-1.2479 1.6265 1.6265 0 0 1 .4674-.7274q.7533-.8057 1.5067-1.6114a10.1046 10.1046 0 0 0 1.6742-2.1506 2.4781 2.4781 0 0 0 .3189-1.6537c-.1256-.5593-.3138-.8174-.8854-.8626-.1973-.0156-.6363.2466-1.2377.7444-1.5986 1.3235-2.8541 1.4962-5.0566 2.8157-2.1425 1.2834-5.0083 2.37-6.7692 2.26v.001-.001c-5.3521-1.0016-29.3082-8.6844-29.3082-8.6844s-11.3348-20.6413-13.3905-24.8671-3.7017-8.0766-7.2906-10.4471c-5.1571 1.7611-9.841 9.6476-6.4148 17.4139s13.3627 23.8056 15.19 26.9215 3.4457 4.7082 8.0086 5.7426c4.3174.9788 24.1655 2.9337 29.6756 3.69l-.0657.1818c3.6392.4512 4.5449.9414 5.1267 1.198 2.4976 1.1013 6.1614.68 9.1735.3066a6.7363 6.7363 0 0 0 1.8268-.4186c.5485-.2339 1.0346-.5976 1.5855-.8258a26.3246 26.3246 0 0 1 2.9016-.6344 5.0374 5.0374 0 0 0 2.4788-1.4244c.0915-.1076.6125-.6426.62-.7835a2.1172 2.1172 0 0 1 -1.4798.0929z" fill="#fff" stroke="#000" stroke-miterlimit="10" stroke-width=".25"/><path d="m243.085 148.9008c-4.6281 1.9819-10.0547 8.7066-7.41 16.3233s13.99 25.9382 15.9344 29.1634 3.1789 4.7347 6.13 5.5581 17.3606 2.2644 17.3606 2.2644a22.9453 22.9453 0 0 0 2.2645-7.6366c.6176-4.7149-.8921-5.9006-.8921-5.9006l-12.1457-3.8947s-13.3807-25.5926-15.2335-28.9549-3.6446-5.9532-6.0082-6.9224z" fill="#e55b2d"/><path d="m243.085 148.9008c-4.6281 1.9819-10.0547 8.7066-7.41 16.3233s13.99 25.9382 15.9344 29.1634 3.1789 4.7347 6.13 5.5581 17.3606 2.2644 17.3606 2.2644a22.9453 22.9453 0 0 0 2.2645-7.6366c.6176-4.7149-.8921-5.9006-.8921-5.9006l-12.1457-3.8947s-10.9336-22.9533-13.2587-25.2581" fill="none" stroke="#000" stroke-miterlimit="10" stroke-width=".25"/><path d="m304.99 205.03a3.3413 3.3413 0 0 1 -1.9791-.2121c-.8305-.6782-1.6894-.944-2.3-1.8257a6.7582 6.7582 0 0 0 -.7232-.956 4.4238 4.4238 0 0 0 -1.6688-.94c-.5779-.2125-1.0934-.5252-1.6944-.7184-.2908-.0933-.7535-.1051-.8979.2433a3.8125 3.8125 0 0 0 -.9054-.843c-.371-.2262-1.26-.5134-1.5072.0275a1.2609 1.2609 0 0 0 -.082.4726q-.064 1.4631-.1282 2.9264a2.5262 2.5262 0 0 0 .0384.7274 2.13 2.13 0 0 0 1.159 1.2333 3.3751 3.3751 0 0 0 .9561.3645c.41.0781.8348.0441 1.2436.1263.8479.1707 1.5643.8263 2.4279.8726.538.0289 1.0615-.1858 1.6-.2041.4434-.0151.88.1034 1.3235.1294.5932.0344 2.6162-1.1394 3.1377-1.424z" fill="#fff" stroke="#000" stroke-miterlimit="10" stroke-width=".25"/><path d="m297.6283 193.0357c-.3982.1794-.8028.3457-1.1884.5506-1.0144.5389-1.8706 1.329-2.8264 1.966a5.983 5.983 0 0 1 -2.0147.9211c-.4928.1067-1.6087.2326-1.7967-.4474a.8789.8789 0 0 1 .1505-.625q.6182-1.1506 1.3353-2.2444a6.631 6.631 0 0 1 1.562-1.92 14.8265 14.8265 0 0 1 2.5986-1.4144 6.163 6.163 0 0 1 1.2036-.4315 6.4494 6.4494 0 0 1 2.3252.08c1.1486.18 2.7779.3606 3.9259.5445-.2221.1709-.7776.5738-.9274.6624-.48.2836-.9591.5674-1.4423.8448-.9472.5436-1.909 1.0643-2.9052 1.5133z" fill="#fff" stroke="#000" stroke-miterlimit="10" stroke-width=".25"/><path d="m176.81 321.8747c-.2587 3.5753-.8482 5.94-2.1476 8.02s-3.6724 2.5749-6.1209 2.0568a9.2291 9.2291 0 0 1 -6.7236-5.6036c-.8617-2.3684-.4812-5.21.1164-8.5206z"/><path d="m166.9529 295.6552c-1 .0644-1.3634 4.8646-2.0076 9.6671-.6905 5.1476-2.3093 8.009-2.8721 11.4782-.78 4.8087-.4755 6.9829 1.1757 9.9272s8.1732 6.0656 11.1848 1.9249c2.4553-3.376 2.6081-7.1559 2.4569-11.982a122.3847 122.3847 0 0 1 -.0485-12.28c.246-3.6138.5451-7.1155-.3174-7.53-.0744.53-.149 1.2032-.2272 1.7237-.06.3995-.1877 2.3563-.7477 2.3671a7.4594 7.4594 0 0 1 .0081-1.3627 1.6122 1.6122 0 0 0 -.2575-1.17 1.8764 1.8764 0 0 0 -1.1021-.5112 28.5 28.5 0 0 0 -2.966-.5014 14.8937 14.8937 0 0 0 -1.4959-.0842 8.2621 8.2621 0 0 0 -1.8406-.0091.8874.8874 0 0 0 -.5479.4829 1.573 1.573 0 0 0 -.06.5509 3.9872 3.9872 0 0 1 -.1392.99c-.0386.142-.1394.3149-.282.2782-.1156-.03-.16-.1748-.1586-.2944.0043-.5828.0844-1.0058.1208-1.6831.017-.3131.0742-.74.0828-1.0541.0083-.3101.016-.6194.0412-.928z" fill="#e55b2d"/><path d="m198.897 307.562 4.258-1.454-1.288-2.891-2.665 2.33z"/><path d="m194.78 299.8333s-.2517 2.7352-.3159 3.5974 3.5336 3.66 4.4333 4.1308l.3046-2.0148a15.6661 15.6661 0 0 1 2.0079 3.3358c.67 1.2532 1.5017 3.61 3.4006 5.2572 2.819 2.4455 7.2885 3.78 11.88 4.0893s7.2589-.7391 8.5966-1.6956a3.0386 3.0386 0 0 0 1.4974-3.2879c-.2908-1.1781-31.8045-13.4122-31.8045-13.4122z"/><path d="m207.365 290.8607.1045-1.5889c.848.001.8791 2.3067 2.0531 4.3655a41.1186 41.1186 0 0 0 6.2151 8.4726c4.53 4.3917 8.6081 7.1872 10.629 9.1645 2.7047 2.6444-2.3108 6.5608-9.8011 5.909-3.7178-.3238-10.2754-2.4-12.0664-4.6585s-2.8276-5.7231-4.2667-7.3681-4.5854-3.3543-5.453-5.3235c-.4764-1.0821-.1311-3.562.2386-5.6677.34-1.932.489-4.9052 1.5752-4.63l.047 1.0008c.4208.8628 1.4135 2.2956 4.4011 2.8949 1.492.2987 5.9599.5711 6.3236-2.5706z" fill="#e55b2d"/><path d="m167.767 187.493c-2.0268 28.8591-2.9081 61.0119-2.9081 61.0119a158.1449 158.1449 0 0 0 -.9362 17.52c-.0967 10.5021.5637 36.1872.5637 36.1872s6.6692 4.7343 13.8708 1.1644c0 0 5.3407-28.4149 7.7423-43.6486 1.92-12.1791 4.5254-27.824 4.5254-27.824l2.1958 14.5646a94.39 94.39 0 0 0 -.79 17.0051c.41 6.1281 2.6285 29.4271 2.6285 29.4271s8.6634 7.0921 15.44.2881c0 0 3.22-38.97 3.6538-46.3412.8517-14.459.3456-40.63 0-58.9779z" fill="#fff" stroke="#000" stroke-miterlimit="10" stroke-width=".25"/><path d="m181.0142 100.108c1.0429-2.9155 3.1915-3.1436 3.1915-3.1436.66-3.1138 4.7548-6.7431 10.3869-5.9648s8.3853 2.7127 10.1562 6.5235.27 6.4676.27 6.4676l-16.4786-1.1793a18.9791 18.9791 0 0 1 -.2015 2.6173c-.3942 2.7866-2.82 6.0589-2.82 6.0589l-.024 3.9131-.1725 5.607a3.3425 3.3425 0 0 1 -1.7848-1.7955 40.6311 40.6311 0 0 1 -1.8854-8.1942c-.7938-4.7868-1.4048-8.7662-.6378-10.91z"/><path d="m220.0732 141.6128c-2.3376-6.8588-5.9071-9.2763-11.02-10.888l-14.9495-3.3948-9.5624.2288c-6.8452 1.5842-17.9758 2.9812-24.8177 9.8362s-10.7 29.4535-11.3875 34.407c-.7219 5.2.3935 6.8958 3.9 9.0988 2.2793 1.4322 10.1364 4.2408 15.358 6.0317-.1542 3.2307-.3037 5.4926-.3037 5.4926s7.0149 11.6972 26.906 10.8743c15.6175-.6463 21.8571-5.9433 21.8571-5.9433s-1.866-20.1129-1.7393-31.6772c1.2483 2.5425 2.4136 4.45 3.2369 4.827 2.9166 1.3359 10.1735-1.2469 11.17-4.0614-1.6102-5.1868-6.2411-17.7704-8.6479-24.8317zm-52.4621 24.2718c.143 2.2683.2544 4.6878.2962 7.023l-2.2489-1.3118s.8716-2.5878 1.9527-5.7112z" fill="#e55b2d"/><path d="m181.0957 116.6227c1.7907 1.4536 3.5582-.5626 3.5582-.5626l-.18 10.9429a6.7678 6.7678 0 0 0 3.1079 5.0343c4.365 3.074 6.66 2.8771 7.9411 2.4277s2.54-3.5953-1.4687-5.6926l-.6975-3.9489s4.9666.2751 6.36.1205c2.3243-.2506 3.88-2.1935 4.7165-4.9287 1.3421-4.3989 1.5392-12.2207-.1239-20.2964-2.9106-2.78-10.4482-2.9139-16.0684.5617-.0069 5.1294-1.3984 7.319-1.4879 9.1765a4.7237 4.7237 0 0 1 -1.07 1.3737c-.8865.7607-1.4622-1.3944-2.1256-2.268-.67-.8672-2.9242-2.1411-4.2145.4972-1.305 2.6869.2054 6.3116 1.7528 7.5627z" fill="#fff" stroke="#000" stroke-miterlimit="10" stroke-width=".25"/><path d="m186.7192 108.7876c.193 5.5036 1.89 5.9 3.64 6.2375 2.3172.4466 3.4747-.9418 7.6257-.9028 2.5185.0236 3.3015.8652 4.7284 1.535 1.0546.4949 2.1542.4365 2.33-.6965a43.6967 43.6967 0 0 0 .3525-7.1208 57.9705 57.9705 0 0 1 -.0122 9.99c-.3627 2.5829-.9964 4.9986-2.288 6.1967-1.7882 1.6588-5.5309 1.8772-10.1654.6919-4.5667-1.1679-6.339-2.9208-6.8836-4.7541-1.7678-5.9495-1.0339-8.7493-1.6347-9.8768s2.3073-1.3001 2.3073-1.3001z"/><path d="m197.4046 115.7677c-2.37-.0776-3.1486.3953-3.2758 2.2039-.1819 2.5893-.0728 3.4631.8128 3.6061 1.0448.1686 1.8118.2468 1.8537-.4873a3.2038 3.2038 0 0 0 -.1382-1.662c-.3641-.4978-.2352-.57.8057-.5335 1.0772.0376 1.0252.2393.7147.5939a3.664 3.664 0 0 0 -.2166 1.6607c-.002.56.108.7772 1.6047.631 1.3073-.1278 1.0932-1.2975 1.0854-3.5234-.0053-1.4989-.5639-2.4017-3.2464-2.4894z" fill="#fff" stroke="#000" stroke-miterlimit="10" stroke-width=".25"/><path d="m198.4882 142.8519c-.05-.1845-.1144-.413-.1655-.5629l-.0012-.0038-2.2362.0956c.0057.27-.007.6078-.0251.9978a3.8787 3.8787 0 0 0 2.428-.5267z" fill="#e55b2d" opacity=".15"/><path d="m191.5159 176.8318c-.2773-.3644-1.1261.3954-2.9335.7969-2.3081.5129-3.2046.4319-5.6531 1.0716a12.1627 12.1627 0 0 1 -3.4063.6294l8.9147 1.8263a9.8243 9.8243 0 0 0 2.5012-1.5225 2.1044 2.1044 0 0 0 .577-2.8017z"/><path d="m230.6385 152.58c.6285-.2667 1.0721-.0116.9906.57l-4.1674 29.78-41.8191 17.7494 4.27-29.8276a2.2734 2.2734 0 0 1 1.2883-1.5355l23.8858-10.1363 1.6978-3.0251a1.0665 1.0665 0 0 1 .5167-.4476l9.9029-4.2118a1.0341 1.0341 0 0 1 1.3654.4218l.49 1.3329z"/><path d="m227.461 181.51-40.404 17.148 4.224-28.156 41.713-17.702z" fill="#fff" stroke="#000" stroke-miterlimit="10" stroke-width=".25"/><path d="m185.6426 200.6792 6.9925-28.2021a2.6191 2.6191 0 0 1 1.3967-1.5271l39.437-16.7364c.6285-.2667 1.0234-.0152.8821.5615l-6.8894 28.1549z"/><path d="m194.7429 181.2181a33.5827 33.5827 0 0 1 -6.3052-.0621l-8.9147-1.826c-3.9707.4607-14.4785 6.7493-6.9674 8.8806 4.0153 1.1391 6.24 2.2552 10.48 2.8787a36.5641 36.5641 0 0 0 6.8954.5149 9.8449 9.8449 0 0 0 2.449-.26 14.9672 14.9672 0 0 0 3.4232-2.1854 2.39 2.39 0 0 0 .822-.8282c.2408-.4931.1382-1.1188.4472-1.5723.2608-.3827.7507-.5446 1.0532-.8952.529-.6126.4669-1.574.8835-2.2671.3566-.5933 1.08-1.2789.6991-2.0344-.6026-1.194-2.1134-.5779-4.9653-.3435z" fill="#fff" stroke="#000" stroke-miterlimit="10" stroke-width=".25"/><path d="m231.9356 164.6464c1.7961 2.1806 1.8157 3.8995 1.1531 6.7708s-2.53 6.2894-3.5794 7.2152-3.0148 2.2421-5.2237 1.7954c-2.1858-.4424-2.2722-3.2686-3.2617-4.4477-1.5821-1.8852.5484-3.2815 2.6026-3.5639a12.6793 12.6793 0 0 0 7.1691-3.1081z" fill="#fff" stroke="#000" stroke-miterlimit="10" stroke-width=".25"/><path d="m140.887 343.566 2.664-1.364-2.66-.705z"/><path d="m167.5917 348.1656s-31.893-13.937-32.2568-11.7834a3.1855 3.1855 0 0 0 .0349 1.2915c-.0279-.0386-.0615-.076-.087-.1149l.6422 4a9.396 9.396 0 0 0 4.9623 2.0076c0-.1932.0023-1.387.0034-2.0683a16.06 16.06 0 0 1 2.8163 1.452c2.05 1.3241 3.39 3.67 5.5855 6.3865 1.6 1.9794 4.4137 2.8743 8.572 3.4088 4.475.5752 8.3976-.343 9.49-1.565a3.199 3.199 0 0 0 .2372-3.0148z" fill="#e55b2d"/><path d="m166.7063 347.4356c-.3094-.317-1.4577-1.5536-3.0063-2.8968a59.7241 59.7241 0 0 0 -4.6287-3.8548 17.7377 17.7377 0 0 1 -2.2981-1.8532c-.5611-.5893-1.1-1.2-1.6007-1.8414a34.6774 34.6774 0 0 1 -3.918-6.4719 15.1993 15.1993 0 0 1 -1.3832-3.409 22.01 22.01 0 0 1 -.43-3.7988c-.1234-5.7517-.0116-6.667-.0488-11.045l-13.3839.6334c.4751 2.42 1.19 5.7253 1.461 8.4794.4119 4.1889.5369 5.12-1.03 9.3262a12.3019 12.3019 0 0 0 -1.202 3.7527c-.07 2.1466 1.6317 3.9761 3.52 4.9987 1.5649.8477 3.3575 1.196 4.8771 2.1012a15.6619 15.6619 0 0 1 4.0006 3.8426c1.0862 1.357 1.9651 2.9667 3.4751 3.91a13.8525 13.8525 0 0 0 5.1883 1.7223 27.6566 27.6566 0 0 0 6.94.254c3.287-.3052 5.7197-1.5432 3.4676-3.8496z" fill="#fff" stroke="#000" stroke-miterlimit="10" stroke-width=".25"/><path d="m164.8556 345.1192c-1.3817-1.1366-3.34-2.7634-5.7035-4.5913a5.9361 5.9361 0 0 0 -4.9093.5194c-4.6731 2.5558-5.4252 6.0946-5.4252 6.0946a6.7841 6.7841 0 0 0 3.8909 3.3279c5.4733 2.3132 15.1964 1.4167 15.256-1.1047.0378-1.606-1.4313-2.8663-3.1089-4.2459zm-28.1272-15.33s-.3052.8317-1.1129 2.4648a4.5717 4.5717 0 0 0 .1165 4.8582 7.2287 7.2287 0 0 0 4.8147 3.1909c1.4418-4.801-1.9139-9.5073-3.8183-10.5142z" fill="#e55b2d"/><path d="m112.1454 336.6529c.9274 1.4227-.1218 6.8829.1644 10.7479.26 3.5116 1.3256 9.62.3185 13.1159-1.1935 4.1433-3.6959 8.9744-8.6151 5.22-3.049-2.327-4.8325-5.38-5.3478-10.4332-.358-3.5115.9436-8.4057 2.0582-12.746 1.3019-5.07 1.7815-7.7755 1.7815-7.7755z" fill="#e55b2d"/><path d="m101.6687 310.9267c-.1736 8.2084.9012 13.9466 1.0668 19.1979a36.9478 36.9478 0 0 1 -.5989 7.1081c-.6186 3.3649-1.6894 8.0484-2.1356 10.23-.6231 3.0485-1.1032 4.9724.0171 8.3541a4.0525 4.0525 0 0 0 .3587.7609c1.5236 2.7742 5.2913 4.8145 6.4772 4.45a2.0539 2.0539 0 0 0 2.1118.6886 2.8409 2.8409 0 0 0 .3945-.1049 2.9519 2.9519 0 0 0 .3945-.1693 4.0734 4.0734 0 0 0 1.9283-2.62 7.28 7.28 0 0 0 .1759-.7463 26.215 26.215 0 0 0 -.0242-8.6105c-.1343-1.9049-.0742-4.3352.0294-7.4154s.6327-12.7572 1.605-17.3985c.7258-3.2408 1.6308-7.3051 2.5835-11.6387z" fill="#fff" stroke="#000" stroke-miterlimit="10" stroke-width=".25"/><path d="m99.3579 351.4288c2.91-1.3572 11.42-1.7165 12.8639 2.3995.1169 3.9013.1961 6.5459-2.1971 9.9935-3.18 4.5806-7.5531-.1131-9.2548-3.1159a15.6707 15.6707 0 0 1 -1.412-9.2771z" fill="#e55b2d"/><path d="m110.5229 203.5787c-3.9916 7.5218-6.9455 13.6649-7.0565 35.869s.0418 28.4221-.0085 31.1-1.5426 7.4834-2.73 20.6876 1.06 39.4346 1.06 39.4346.7 1.9289 5.7479 2.3118c4.6569.3533 6.5556-1.5971 6.5556-1.5971s6.2657-35.9518 7.9211-43.9182 6.4237-34.15 6.4237-34.15l3.3314 21.1377s-1.3191 7.296.2578 18.8394 4.6746 33.37 4.6746 33.37a13.0342 13.0342 0 0 0 7.0813 2.0378 12.075 12.075 0 0 0 6.2468-1.7237s3.1217-45.4426 2.9425-58.5485-.5335-45.7831-4.9241-65.13z" fill="#fff" stroke="#000" stroke-miterlimit="10" stroke-width=".25"/><path d="m137.6477 163.0891c7.7646 1.0529 10.6824 5.1683 14.3222 11.6581 3.1227 5.5676 6.716 11.8855 6.716 11.8855 1.1067-.897 10.1634-8.3411 12.322-11.21 2.2826-3.034 1.4673-4.47 1.4733-6.564s.7435-3.7145.3217-6.9882c-.2013-1.562 1.4859-1.2259 2.1609-.3136 1.3615 1.8394 1.2037 5.18 2.0962 5.0224a7.9524 7.9524 0 0 0 2.39-2.6047c1.6589-2.5506 1.9984-4.8854 3.3578-7.5851.5223-1.0374 1.2237-2.184 2.5432-2.1453a3.1469 3.1469 0 0 1 .4.06.4874.4874 0 0 1 .3585.4047 4.923 4.923 0 0 1 -.0068 1.0669c-.03.2528-.1557.9879-.1557.9879s1.1866.1879 1.37.6948a3.8613 3.8613 0 0 1 -.0528 2.4068c.4956.35 1.2647 1.2364.476 3.1092.4517.1918 1.4038 1.4672.618 4.003a32.427 32.427 0 0 1 -3.0133 6.6905c-1.9445 3.1037-3.8027 4.2463-6.4216 7.4933s-7.4729 10.3733-11.8365 15.3484c-5.0623 5.7716-7.1068 7.2759-12.0156 4.5729-2.5427-1.4-16.1885-20.0662-16.1885-20.0662z" fill="#fff" stroke="#000" stroke-miterlimit="10" stroke-width=".25"/><path d="m138.0826 162.838c6.2966 1.2934 8.6281 3.3078 10.7476 6.257s10.1098 17.3309 10.1098 17.3309l9.3307-8.1133s-.2234 2.6336 2.3907 5.6715 4.3 2.4418 4.3 2.4418-6.0661 9.2861-10.0932 13.2425-6.63 3.7138-10.0617 1.433-16.36-19.8738-16.36-19.8738z" fill="#e55b2d"/><path d="m148.8092 208.92c-.45-3.6072-.79-6.3387-.9043-7.8559-.0286-3.7369.0768-9.5587.0768-9.5587 6.6433-6.0921 3.5294-12.3294 1.0523-16.0915a52.636 52.636 0 0 0 -11.3863-12.3243 80.5947 80.5947 0 0 0 -11.936-1.4758 33.3341 33.3341 0 0 0 -8.9639.86c-2.5346.4741-8.8128 2.0331-8.8128 2.0331-1.866 1.0261-3.4864 3.0917-3.4249 8.8221a28.6669 28.6669 0 0 0 2.2637 11.7184 83.3243 83.3243 0 0 1 3.4768 12.46c1.0352 4.1355.3522 7.18-1.4981 11.0559-.8926 1.8694-.0818 3.7956 5.2316 6.37 3.5639 1.7265 16.8375 4.1439 27.85.7654 4.3214-1.3261 7.2167-4.7763 6.9751-6.7787z" fill="#fff" stroke="#000" stroke-miterlimit="10" stroke-width=".25"/><path d="m112.53 143.6773c2.3015 5.1564 4.91 7.0355 7.0575 11.7117 5.4493-.2408 12.1678-9.2855 18.4545-13.13 3.6692-2.2438 6.06-5.0593 5.0153-9.6724-1.7137-7.57-7.6956-11.5622-17.9658-9.1987-4.1587.9571-8.763 4.4743-9.5681 9.3936-5.0703 1.8845-4.5355 7.4417-2.9934 10.8958z"/><path d="m118.8441 161.4925s6.9251 13.5029 9.395 20.0782 1.7963 12.0147 1.87 24.2153c.0567 9.3954 0 23.5775 0 23.5775s-20.4628.2729-26.4536-7.2645c1.13-4.75 5.1223-14.2352 6.0937-17.2813s.8243-7.2379-1.5409-13.97-3.9536-11.8487-4.2116-16.9312 1.849-8.4219 3.0816-9.386z" fill="#e55b2d"/><path d="m151.47 222.0288c-.5292-5.4569-2.3782-27.0178-1.8647-29.4887s6.4063-8.081 1.0273-16.1132a65.1016 65.1016 0 0 0 -12.55-13.5889l-9.2972-1.238s15.7867 13.0631 16.6085 25.0806 1.5409 39.1423 1.5409 39.1423" fill="#e55b2d"/><path d="m137.5639 131.5857c1.0914.5143 2.8512 3.1965 3.29 13.6316.3554 8.4478-2.4406 11.4824-4.0059 12.2268-1.3066.6216-6.4549.1544-8.1753-.6964l1.2374 5.3952c3.9143 2.3258 8.6624 8.9233 3.2865 9.8188s-12.3563-6.0508-14.28-9.7117l.6066-9.5928s-1.9552 1.662-4.5658-.396c-2.1552-1.6985-2.5744-5.1693-1.1122-6.9665a3.5672 3.5672 0 0 1 5.8232.712s3.1729 2.2089 2.889-3.114c-.32-5.9993 1.9123-12.0543 5.8466-10.8364 7.0512 2.1823 6.9226-1.5863 9.1599-.4706z" fill="#fff" stroke="#000" stroke-miterlimit="10" stroke-width=".25"/><path d="m151.47 222.0288c-.5292-5.4569-2.3782-27.0178-1.8647-29.4887s6.4063-8.081 1.0273-16.1132a57.6058 57.6058 0 0 0 -4.8447-6.2114" fill="none" stroke="#000" stroke-miterlimit="10" stroke-width=".25"/><path d="m107.6557 164.3817c-6.112 1.0735-8.5382 4.8033-11.2252 12.7408-3.6712 10.8444-6.8943 21.5273-7.5887 26.9572l14.4186-3.9434 7.7109-15.5222s2.8945-12.4679-3.3156-20.2324z" fill="#e55b2d"/><path d="m88.8418 204.08 14.4186-3.9434 7.7109-15.5222a32.7375 32.7375 0 0 0 .0194-12.9964" fill="none" stroke="#000" stroke-miterlimit="10" stroke-width=".25"/><path d="m136.886 225.42-31.193-4.795-4.745-39.99 31.194 4.795z"/><path d="m135.733 223.667-29.887-4.602-4.424-37.296 29.887 4.602z" fill="#fafafa"/><path d="m131.8938 212.3707-2.9877-25.1821-27.9591-6.5641 4.7465 40.0086 29.56 6.941a.7437.7437 0 0 0 .9467-.8706l-1.5134-12.756a1.4205 1.4205 0 0 0 -1.0267-1.164z"/><path d="m89.0451 204.08c-.0193 4.1.6083 4.7831 5.1063 7.0875s15.8461 5.852 24.8374 6.72c5.8583.5653 8.8739.29 11.1486-.6107a9.4087 9.4087 0 0 0 5.8693-10.3036c.9751-2.83-.5081-3.213-1.7267-3.52l.22 1.852a11.0858 11.0858 0 0 1 -5.0492 1.8216c-2.4215.033-.1733-2.8029.2608-4.5132s.3452-2.6976-1.0561-3.5065c-.7872-.0071-1.0455 1.0791-3.4892 3.5106-1.8554 1.8461-3.302 5.2158-6.1773 4.8255-2.2569-.3063-15.6345-6.512-15.6345-6.512l-.6063-5.1253z" fill="#fff" stroke="#000" stroke-miterlimit="10" stroke-width=".25"/><path d="m88.8418 204.08c-.1736 2.5552.2778 3.8953 1.4582 4.9959s6.041 3.392 9.0267 4.4334 10.8189 3.16 12.3183 3.4372c-1.5556-2.43-1.1737-7.2215.1455-9.3739s3.0588-1.6283 3.0588-1.6283l-11.513-5.18-.8317-7.01z" fill="#e55b2d"/></svg>