<svg fill="none" height="402" viewBox="0 0 423 402" width="423" xmlns="http://www.w3.org/2000/svg"><path d="m368.011 217.499c0 3.437-.094 6.852-.281 10.243-.117 2.204-.279 4.395-.486 6.573-.34 3.748-.793 7.463-1.359 11.146-.107.738-.223 1.466-.35 2.195.01 0 .01 0 0 .009-.456 2.777-.974 5.528-1.553 8.253-.126.612-.262 1.223-.398 1.835-.272 1.223-.563 2.437-.855 3.641-.213.864-.427 1.718-.65 2.573-.806 3.087-1.689 6.142-2.651 9.165-2.665 8.388-5.936 16.572-9.786 24.486-.495 1.029-1.01 2.058-1.525 3.068-.534 1.049-1.077 2.088-1.631 3.117-.942 1.777-1.922 3.524-2.922 5.262-2.728 4.748-5.664 9.353-8.806 13.816-2.719 3.874-5.58 7.631-8.583 11.272-.019.02-.039.049-.058.068l-1.661 1.981c-2.359 2.777-4.796 5.479-7.31 8.107l-.117.116c-1.699 1.787-3.447 3.535-5.223 5.234-1.874 1.805-3.787 3.582-5.738 5.301-2.331 2.068-4.713 4.071-7.146 6.01-.185.145-.379.301-.563.446-2.35 1.864-4.758 3.68-7.214 5.418-1.321.951-2.654 1.877-4 2.777-.534.378-1.068.738-1.602 1.087-5.903 3.902-12.026 7.458-18.341 10.651-.388.194-.776.388-1.165.573-.631.32-1.262.631-1.903.942-.942.456-1.883.902-2.835 1.339-.233.107-.466.214-.699.311-2.379 1.097-4.786 2.136-7.223 3.117-1.049.427-2.098.835-3.156 1.242-1.34.515-2.679 1.01-4.039 1.496-8.367 2.992-16.944 5.361-25.661 7.087-2.097.427-4.213.816-6.349 1.146h-.01c-6.632 1.086-13.319 1.803-20.03 2.146-2.126.106-4.262.184-6.418.213-1.068.029-2.136.039-3.213.039-.515 0-1.029 0-1.534-.01-2.952-.019-5.874-.116-8.787-.281-4.214-.233-8.389-.609-12.525-1.127-14.298-1.767-28.335-5.229-41.816-10.311-4.418-1.65-8.748-3.485-12.991-5.466-.078-.039-.165-.077-.253-.126-.135-.058-.271-.116-.407-.184l-.175-.088c-5.899-2.791-11.6417-5.899-17.2045-9.311-.466-.291-.9418-.582-1.4078-.874-21.4178-13.379-39.8552-31.02-54.1667-51.826-.6408-.923-1.2622-1.845-1.8836-2.777-.9414-1.427-1.8638-2.871-2.767-4.33-.3399-.554-.6797-1.107-1.0195-1.661-9.0941-14.954-15.9871-31.14-20.46663-48.059-.84462-3.166-1.59869-6.36-2.2622-9.583-.73789-3.524-1.36898-7.088-1.89326-10.69-.29127-1.971-.54695-3.951-.76702-5.942-.48545-4.272-.8188-8.586-1.00003-12.942-.00803-.032-.0113-.064-.00971-.097-.10693-2.592-.16194-5.198-.16505-7.816 0-.903.00971-1.796.02913-2.689.05825-4.981.32363-9.907.79614-14.777.1165-1.253.24272-2.496.38836-3.738.23302-2.068.51458-4.136.81556-6.195.04854-.281.08738-.572.13592-.864.04855-.34.1068-.689.16506-1.029.3301-2.068.68933-4.126 1.09711-6.165 1.63384-8.377 3.85955-16.628 6.66042-24.69v-.01c.2136-.621.4369-1.243.6602-1.854 2.2869-6.389 4.9353-12.642 7.9323-18.729.0971-.214.2039-.427.3107-.641.3398-.689.6796-1.379 1.0388-2.058 2.2525-4.398 4.6668-8.69 7.243-12.874 9.2295-14.934 20.5447-28.4721 33.6029-40.2055 2.5922-2.3302 5.2493-4.5891 7.9711-6.7769h.0098c.2621-.2136.534-.4272.8058-.6408.2816-.2233.5631-.4466.8544-.6699 2.903-2.2814 5.8805-4.4724 8.9323-6.573.3981-.2719.7962-.5437 1.1942-.8059v-.0097c4.34-2.9418 8.8126-5.7024 13.4179-8.2818 1.2719-.7088 2.5438-1.4078 3.8351-2.0874.9806-.5146 1.9708-1.0292 2.9708-1.5341 2.204-1.1068 4.427-2.1845 6.68-3.2039.602-.2816 1.214-.5535 1.825-.8156.34-.1553.67-.301 1.01-.4466 3.078-1.3399 6.204-2.5956 9.379-3.7671.485-.1845.971-.3593 1.456-.534 1.622-.5923 3.263-1.1554 4.903-1.6991.02 0 .029-.0097.049-.0097.32-.1068.65-.2136.971-.3204.33-.1068.67-.2136 1-.3107.01-.0097.01-.0097.019 0 .01-.0097.01-.0097.02-.0097 1.233-.3884 2.466-.767 3.718-1.1263.651-.2038 1.311-.3883 1.971-.5728h.01c.126-.0388.262-.0777.388-.1165h.01c.252-.0777.505-.1456.767-.2136 7.286-1.9894 14.689-3.5232 22.166-4.5924 1.116-.165 2.242-.3107 3.378-.4466 1.835-.233 3.67-.4369 5.525-.6116 3.709-.3496 7.447-.5858 11.214-.7088 2.048-.068 4.107-.1036 6.175-.1068 9.003-.0024 17.995.6531 26.903 1.9612 1.224.1748 2.437.369 3.641.5728 4.777.7962 9.489 1.7768 14.137 2.9419 3.573.8932 7.1 1.8932 10.583 3.0001.699.2136 1.398.4369 2.097.6699 1.009.3301 2.019.6699 3.029 1.0194.66.2331 1.33.4661 1.99.7185.661.2233 1.311.4661 1.971.7088 1.476.5533 2.942 1.1293 4.398 1.7282 3.156 1.2717 6.263 2.6278 9.321 4.0681 2.719 1.2719 5.398 2.615 8.039 4.0292.476.2427.942.4952 1.408.7573.621.3398 1.243.6797 1.864 1.0292.466.2524.922.5146 1.388.7864 1.884 1.068 3.748 2.1748 5.593 3.3205.485.2913.971.5923 1.447.8932.446.2816.893.5632 1.339.8641 1.476.9321 2.933 1.8998 4.369 2.903.214.136.428.2816.632.4272.796.5437 1.582 1.0972 2.369 1.6603l.009.0097c.233.1553.457.3301.69.4952 2.048 1.466 4.061 2.9839 6.039 4.5535.912.7087 1.815 1.4272 2.708 2.1651 6.377 5.1991 12.394 10.8238 18.011 16.8355.835.8835 1.66 1.7864 2.476 2.6894.786.8835 1.563 1.767 2.339 2.6602.195.2233.398.4564.593.6894 3.068 3.5729 5.993 7.2589 8.777 11.0589.262.359.524.718.767 1.077 1.019 1.379 1.99 2.767 2.932 4.166.611.903 1.223 1.815 1.825 2.728 2.048 3.136 4.006 6.34 5.874 9.612.825 1.456 1.641 2.922 2.427 4.398 1.039 1.932 2.039 3.893 3 5.864.049.107.107.214.156.321 4.113 8.461 7.564 17.229 10.32 26.224.389 1.252.758 2.514 1.117 3.786.223.796.456 1.592.66 2.408.01.019.01.049.02.068v.01c.068.233.126.466.184.699.097.359.194.718.282 1.087.077.253.136.515.203.777.35 1.398.69 2.796 1.01 4.214.651 2.835 1.233 5.709 1.738 8.592.359 2.029.69 4.078.981 6.127 1.073 7.486 1.679 15.031 1.815 22.592.03 1.175.039 2.36.039 3.544z" fill="#fff" stroke="#000" stroke-miterlimit="10" stroke-width=".75"/><path d="m266.037 381.922c-.631.32-1.262.631-1.903.942-.941.456-1.883.902-2.835 1.339-.233.107-.466.214-.699.311-2.378 1.097-4.786 2.136-7.223 3.117-1.049.427-2.097.835-3.156 1.242-1.34.515-2.679 1.01-4.039 1.496-8.367 2.992-16.944 5.361-25.661 7.087-2.097.427-4.213.816-6.349 1.146h-.01c-6.632 1.086-13.319 1.803-20.03 2.146-2.126.106-4.262.184-6.417.213-1.068.029-2.136.039-3.214.039-.515 0-1.029 0-1.534-.01 12.69-14.505 26.399-29.408 38.253-42.185 5.719-6.166 11.001-11.836 15.535-16.729.107-.107.194-.214.291-.311 4.117-4.456 7.602-8.243 10.204-11.165l4.515 12.33 5.408 14.768 7.981 21.796z" fill="#fff" stroke="#000" stroke-miterlimit="10" stroke-width=".75"/><path d="m326.174 334.153c-.019.02-.038.049-.058.068l-1.66 1.981c-2.359 2.777-4.796 5.479-7.311 8.107l-.117.116c-1.699 1.787-3.446 3.534-5.223 5.234-1.874 1.805-3.787 3.582-5.738 5.301-2.33 2.068-4.712 4.071-7.146 6.01-.184.145-.379.301-.563.446-2.35 1.864-4.757 3.68-7.214 5.418-1.32.951-2.654 1.877-4 2.777-.534.378-1.068.738-1.602 1.087-5.902 3.902-12.026 7.458-18.34 10.651-.389.194-.777.388-1.165.573-.631.32-1.263.631-1.903.941-.942.457-1.884.903-2.835 1.34-.233.107-.466.214-.699.311-.476-.942-.952-1.913-1.418-2.922h-.01c-3.977-8.437-6.457-17.501-7.33-26.788-.699-7.658-.138-15.378 1.66-22.855l63.051 1.913z" fill="#fff" stroke="#000" stroke-miterlimit="10" stroke-width=".75"/><path d="m263.364 159.418c-15.004 1.901-23.036 5.652-27.841 10.679s-47.414 73.84-47.414 73.84l-7.82-3.725s6.171 7.814 1.154 25.786c-5.018 17.971-12.461 15.627-12.461 15.627 7.059 5.163 14.473 9.819 22.189 13.935 8.126 3.751 12.507 1.25 21.198-7.814 8.692-9.064 46.426-53.836 46.426-53.836z" fill="#e55b2d"/><path d="m358.643 286.909c.126 7.69 3.825 20.088 9.893 39.438-7.33-4.485-14.66-9.777-21.797-14.981-1.068-.776-2.126-1.543-3.174-2.301-2.728 4.748-5.664 9.353-8.806 13.816-2.719 3.874-5.58 7.631-8.583 11.272-.02.02-.039.049-.059.068l-1.66 1.981c-2.359 2.777-4.796 5.479-7.311 8.107l-.116.117c-1.699 1.786-3.447 3.534-5.224 5.233-1.874 1.806-3.786 3.582-5.738 5.301-2.33 2.068-4.712 4.071-7.146 6.01-.184.145-.378.301-.563.446-2.349 1.864-4.757 3.68-7.213 5.418-12.292-1.33-24.04-4.301-33.972-9.136-1.845-.903-3.632-1.855-5.331-2.894-5.737-3.336-10.764-7.766-14.796-13.039-.078-.116-.165-.233-.253-.349-2.725-3.727-4.796-7.89-6.126-12.311 4.757-25.001 4.097-24.71 4.32-35.137 0 0-1.242-17.807-2.301-29.351v-.009c-.048-.534-.097-1.049-.155-1.564-.175-1.864-.34-3.524-.495-4.835-5.13-6.598-8.465-14.411-9.68-22.68-2.34-19.331 2.233-31.855 16.845-50.584 6.854-8.45 14.472-16.251 22.758-23.302.447-.388.893-.757 1.34-1.126.214-.184.437-.369.651-.553 0 0 1.524-.185 6.155-.466h.019c.845-.068 1.797-.127 2.855-.185 1.767-.029 3.621-.048 5.553-.048.515-.01 1.03-.01 1.564-.01h.058c13.22-.077 26.429.753 39.535 2.485.32.039.631.088.942.136.388.059.767.117 1.155.175.709.117 1.408.223 2.097.34 4.825.79 9.597 1.87 14.292 3.233.388.126.767.233 1.146.359 6.644 2.029 13.177 4.405 19.573 7.117.486.204.961.398 1.437.612.067.023.132.052.194.087.279.155.543.338.787.544.817.658 1.534 1.434 2.126 2.301.656.953 1.225 1.964 1.699 3.019 1.542 3.638 2.578 7.47 3.078 11.389 1.175 7.845 1.398 18.496.019 32.389-.107 1.117-.281 2.573-.505 4.301-.058.437-.126.894-.184 1.36-.884 6.602-2.34 16.35-3.835 25.952-.107.718-.223 1.427-.33 2.146v.009c-.224 1.408-.437 2.806-.651 4.185-.689 4.379-1.359 8.563-1.951 12.253-1.243 7.796-2.136 13.262-2.136 13.262z" fill="#fff" stroke="#000" stroke-miterlimit="10" stroke-width=".75"/><path d="m330.729 30.907c9.439-4.3321 20.314-1.8194 27.394 6.3292 6.831 8.1265 8.409 19.9252 9.422 30.9686 1.9 19.1004 3.329 38.2612 4.287 57.4832.424 8.595 1.86 17.113 2.567 25.734.785 9.706 1.413 19.421 1.884 29.145.392 2.469-.021 4.999-1.178 7.215-1.349 1.633-3.269 2.694-5.37 2.969-4.882 1.078-9.932 1.147-14.842.202-4.909-.945-9.573-2.884-13.706-5.697-13.331-9.012-20.798-26.437-21.811-43.679-.223-11.158.741-22.307 2.874-33.261 1.131-8.141 2.654-16.1984 4.569-24.1707 1.296-5.0268 2.898-9.9495 3.934-15.0285 2.137-10.4663 1.912-21.2776-.659-31.6458z" fill="#000"/><path d="m340.787 30.7245c4.857 4.568 8.202 10.5116 9.587 17.0341.506 1.7615.506 3.6301 0 5.3915-.494 1.2176-1.382 2.234-2.523 2.8859-1.14.6519-2.467.9014-3.766.7085-2.57-.5231-4.891-1.8889-6.596-3.8809-4.052-4.3092-6.669-9.7691-7.49-15.6275-.4-2.7609-.141-7.1362 2.356-8.8296 2.661-1.9794 6.242.3647 8.432 2.318z" fill="#e55b2d"/><path d="m247.582 72.3461c-5.794-13.5441-.989-31.9323 5.253-40.6838 8.998-12.6843 23.413-18.4926 45.389-17.7372 16.7.599 36.91 8.1523 40.56 26.9575 15.688 8.1524 10.859 32.0625 7.067 42.1684-8.079 21.253-19.927 38.053-19.833 49.227z" fill="#000"/><path d="m256.557 43.4612c-3.746 3.2558-9.917 12.3458-8.975 28.8849.495 5.0009-.941 11.1999-.941 20.5504 0 35.3695 8.856 42.7675 17.524 46.8825 5.159 2.605 8.009 2.891 16.229 2.787v16.409s-12.319 10.835-3.815 39.069c38.841-29.119 49.464-41.673 49.464-41.673l.259-39.929c.212.183 5.134 4.975 13.19 0 8.715-5.209 12.107-21.4877 6.383-28.9629s-13.873-2.8651-17.477 3.7506-12.554 4.7925-9.893-5.2092c-4.075-2.136-9.186-6.7459-5.441-25.2125.422-2.9861.222-6.0272-.589-8.9319-.811-2.9048-2.214-5.6102-4.122-7.9459-6.783-6.6417-19.95-5.2092-27.393 3.1777-10.153-9.1163-16.678-10.3666-24.403-3.6467z" fill="#fff" stroke="#000" stroke-miterlimit="10" stroke-width=".75"/><path d="m259.36 24.4997h48.733c32.976 14.3253 20.822 61.1559 13.921 66.86-19.573-9.1161-18.302-30.7081-16.841-43.0019-9.917 10.4184-26.452 17.8675-34.201 18.7531 3.58-4.7924 6.595-16.6433 6.595-16.6433-3.258 7.5054-8.605 13.9157-15.404 18.4666-12.037 7.6575-20.257 2.6045-20.257 2.6045s-4.099-32.5835 17.454-47.039z" fill="#000"/><path d="m374.322 329.697c-1.932-1.049-3.864-2.175-5.786-3.35-7.331-4.485-14.661-9.777-21.797-14.981-1.068-.777-2.127-1.544-3.175-2.301-2.728 4.748-5.663 9.353-8.806 13.816-2.719 3.874-5.58 7.631-8.583 11.272-.019.02-.039.049-.058.068l-1.66 1.981c-2.36 2.777-4.797 5.479-7.311 8.107l-.107.107c-.156-3.505-.321-7.03-.486-10.554-.611-13.272-1.262-26.554-1.854-39.059v-.03c-.068-1.31-.117-2.602-.194-3.883-.903-19.292-1.651-36.487-1.932-48.613-.127-5.185-.156-9.447-.078-12.544.786-30.079 2.214-41.322 6.175-55.361 1.246-4.052 2.286-8.164 3.117-12.321.106-.524.203-1.058.301-1.583.135-.689.252-1.408.368-2.107v-.019c.243-1.417.457-2.835.641-4.262.569 1.134 1.373 2.134 2.36 2.932l.009.01c2.097 1.912 5.981 4.514 13.01 7.01 1.865.66 3.933 1.31 6.272 1.951 4.296 1.332 8.67 2.395 13.098 3.185 1.291.233 2.592.436 3.893.621.214.039.427.068.641.097h.029c.088.214.155.437.233.66 1.023 2.984 1.857 6.029 2.495 9.117.767 3.67 1.36 7.544 1.806 11.593v.009c.764 7.539 1.107 15.114 1.029 22.69-.019 5.049-.174 10.127-.427 15.146-.087 1.748-.184 3.486-.301 5.214-.563 8.855-1.378 17.36-2.204 24.894-.077.69-.155 1.359-.223 2.02v.009c-.563 4.981-1.117 9.486-1.583 13.331-.514 4.175-.932 7.563-1.145 9.923-1.476 15.553 5.32 18.476 12.233 45.205z" fill="#e55b2d" stroke="#000" stroke-miterlimit="10" stroke-width=".75"/><path d="m280.018 152.594-.707 3.021c0 8.622-16.064 22.347-27.299 42.663s-13.049 40.163-12.272 66.131c.4 13.7-1.107 47.247-2.992 77.773l-15.545 16.748c1.602-12.502 3.391-25.265 4.71-31.255 2.026-9.377 1.885-24.692 1.885-43.914.08-8.33-.384-16.657-1.39-24.926 0 0-11.141-15.289-4.711-43.627s41.526-55.843 41.526-55.843c2.255-.758 4.551-1.384 6.878-1.875 3.536-1.118 6.88-2.769 9.917-4.896z" fill="#e55b2d" stroke="#000" stroke-miterlimit="10" stroke-width=".75"/><path d="m326.066 142.019c1.893 8.386 6.21 16.031 12.413 21.983 0 0-5.276 27.322-4.358 40.762.919 13.44 3.392 26.384 0 26.306-4.575-.785-9.075-1.961-13.449-3.516 0 0 8.079 13.023 7.302 17.19-.778 4.168-13.309 50.165-13.309 50.165s-5.252-53.29-4.428-68.918c.825-15.627 3.368-44.278 8.386-60.765 3.486-11.538 7.443-23.207 7.443-23.207z" fill="#e55b2d" stroke="#000" stroke-miterlimit="10" stroke-width=".75"/><path d="m239.338 287.486c-.706-15.003-7.796-52.614-8.715-60.14-.918-7.527 8.715-14.352 8.715-14.352s-5.794 1.641-7.702 0c-1.908-1.64 9.775-20.394 19.762-32.765 9.987-12.372 29.043-31.256 29.043-31.256v9.924c-5.496 6.608-10.377 13.705-14.58 21.201-8.739 16.045-25.039 33.365-26.523 107.388z" fill="#e55b2d" stroke="#000" stroke-miterlimit="10" stroke-width=".75"/><path d="m302.111 231.566c-7.066-6.876-10.811-9.611-14.273-11.018-3.463-1.406-15.476-8.126-20.139-9.845-2.968-1.068-4.546 4.141-.942 8.1 2.756 3.048 10.199 7.371 13.426 9.69 3.227 2.318 9.257 11.773 9.257 11.773z" fill="#fff" stroke="#000" stroke-miterlimit="10" stroke-width=".75"/><path d="m421.888 314.162c-.127 14.302-2.758 25.234-23.953 23.593-7.281-.563-14.874-3.407-22.544-7.485l-1.068-.573c-1.932-1.049-3.864-2.175-5.786-3.35-7.331-4.485-14.661-9.777-21.797-14.981-1.068-.777-2.127-1.544-3.175-2.301-9.573-6.971-18.729-13.525-26.972-17.36-.32-.136-.631-.262-.942-.388h-.009c-.379-.146-.758-.291-1.136-.427-.078-.029-.165-.068-.233-.097-3.65-1.359-7.403-2.421-11.224-3.175-11.02-3.835-10.544-17.117-18.602-24.486l-3.913-.593h-.02s1.107 3.282-1.737 3.467c-3.36.194-5.855-.214-7.496-2.117-2.349-2.709-5.602-13.282-3.107-16.049.48-.555 1.154-.906 1.884-.981-.033-1.36.118-2.718.446-4.039.874-5.009 5.02-4.563 7.826-4.718.012-.858.233-1.7.642-2.454.409-.755.995-1.398 1.707-1.876.997-.604 2.072-1.068 3.195-1.379h.009c2.185-.612 5.573-1.107 12.04-1.641 1.893-.146 3.767-.437 6.184.816 2.366 1.397 4.427 3.256 6.059 5.466.738.913 1.485 1.806 2.243 2.699.708.864 1.427 1.709 2.165 2.544 4.039 4.689 8.239 9.204 12.602 13.544 1.418 1.427 2.854 2.825 4.301 4.214 3.078 2.572 18.806 8.835 29.952 13.097.136.049.272.107.408.155.321.117.631.233.942.36.864.32 1.68.631 2.456.922 1.389.524 2.651 1 3.719 1.388l.019.01c2.399.903 3.874 1.437 3.874 1.437l-.087-.262-1.99-6.253-3.729-11.68-1.058-3.291-.272-.864-.301-.961-3.078-9.632s-5.417-27.399-2.505-53.06c.47-4.406 1.252-8.773 2.34-13.068.33-1.359.719-2.699 1.146-3.99.282-.913.583-1.806.913-2.69.136-.369.272-.738.417-1.107.019-.044.035-.089.049-.136 4.521.473 8.962 1.527 13.214 3.136h.009c10.399 4.088 17.282 12.079 22.108 27.128 5.912 18.437 24.01 98.643 23.865 113.488z" fill="#fff" stroke="#000" stroke-miterlimit="10" stroke-width=".75"/><path d="m362.411 169.836c10.222 1.928 19.549 2.605 27.228 12.033 7.679 9.429 9.752 17.79 15.169 40.294 5.418 22.503 10.67 45.528 14.886 68.084s4.711 36.464-1.813 43.731c-6.525 7.267-18.844 6.069-25.109 4.792-6.265-1.276-17.901-7.553-17.901-7.553s6.03-9.195 3.485-28.312c-2.544-19.117-11.494-27.036-11.494-27.036l3.557 1.146s-7.75-21.852-13.144-36.933-3.745-57.145 5.136-70.246z" fill="#e55b2d"/><path d="m278.346 238.103 12.601-1.745h-12.201c-.221.558-.356 1.146-.4 1.745z" fill="#000"/><path d="m270.077 246.854 14.439-.859-14.321-.99c-.1.611-.14 1.23-.118 1.849z" fill="#000"/><path d="m271.491 253.964c.396.824 1.017 1.52 1.79 2.006.724.492 1.518.869 2.356 1.12l-.189-.156c.331.859.683 1.693 1.037 2.604l.33-.39c-.4-.115-.821-.135-1.23-.058s-.795.248-1.126.5c-.639.501-1.115 1.181-1.366 1.954.388-.65.92-1.203 1.555-1.615.607-.324 1.317-.399 1.979-.208l.541.156-.235-.573c-.33-.86-.66-1.693-1.013-2.605v-.13h-.118c-.812-.23-1.6-.535-2.355-.911-.774-.407-1.443-.986-1.956-1.694z" fill="#000"/><path d="m275.143 256.309c1.7.387 3.423.665 5.158.833.208 1.19.756 2.293 1.578 3.178.803.992 1.668 1.932 2.591 2.813l-3.933-.599c-.453-.795-1.073-1.481-1.817-2.012-.745-.531-1.596-.893-2.494-1.062z" fill="#000"/><g stroke="#000"><path d="m218.978 61.883-68.313 306.339c-2.136 14.583-16.243 23.71-30.826 21.05-4.418-1.651-8.748-3.486-12.991-5.467-.078-.038-.165-.077-.253-.126-.135-.058-.271-.116-.407-.184l-.175-.088c-5.899-2.791-11.6417-5.899-17.2045-9.311-.466-.291-.9418-.582-1.4078-.873-21.4178-13.38-39.8552-31.021-54.1667-51.827-.6408-.923-1.2622-1.845-1.8836-2.777-.9414-1.427-1.8638-2.871-2.767-4.33-11.3469-18.215-19.38654-38.291-23.74833-59.303-.73789-3.524-1.36898-7.088-1.89326-10.69-.29127-1.971-.54695-3.951-.76702-5.942-.48545-4.272-.8188-8.586-1.00003-12.942-.00803-.031-.0113-.064-.00971-.097-.10693-2.592-.16194-5.198-.16505-7.816 0-.903.00971-1.796.02913-2.689.05825-4.981.32363-9.907.79614-14.777l9.92263-44.545 29.6805-133.2276c1.6604-7.1037 6.073-13.25775 12.2682-17.10995 6.1952-3.8522 13.6662-5.0874602 20.7717-3.43438l124.3727 27.78723c4.675 1.0271 9.003 3.2482 12.563 6.4468 3.606 3.1489 6.236 7.2642 7.578 11.8595s1.34 9.4788-.004 14.0734z" fill="#fff" stroke-miterlimit="10" stroke-width=".75"/><path d="m211.812 61.4847-67.885 304.4363c-1.126 5.033-4.203 9.413-8.555 12.178-4.353 2.766-9.626 3.69-14.66 2.57l-33.3113-7.447c-21.4177-13.379-39.8552-31.02-54.1667-51.826-.6408-.923-1.2622-1.845-1.8835-2.777-.9415-1.427-1.8639-2.871-2.7671-4.33-11.3469-18.215-19.38653-38.291-23.74832-59.303-.73788-3.525-1.36897-7.088-1.89326-10.69-.29127-1.971-.54694-3.951-.76702-5.942l26.0979-117.168 21.3696-95.9063c1.1253-5.032 4.2028-9.4113 8.556-12.175 4.3531-2.7637 9.6256-3.6857 14.6583-2.5633l29.6024 6.5925c1.582.3916 2.943 1.3947 3.786 2.7889.843 1.3943 1.098 3.0659.71 4.6482l-.981 4.369c-.193.7816-.23 1.5936-.109 2.3896.121.7959.398 1.5602.814 2.2491.417.689.965 1.289 1.614 1.7659.648.4768 1.385.8211 2.167 1.0131l22.437 5.0002 24.583 5.4759c1.589.3168 3.237-.0064 4.588-.8992 1.351-.8927 2.295-2.2829 2.626-3.8679l.971-4.3691c.158-.7907.47-1.5425.919-2.2125.448-.67 1.024-1.2451 1.695-1.6923.671-.4473 1.423-.7579 2.214-.9142s1.605-.1552 2.396.0033l5.437 1.2136 18.68 4.1555c.015.0079.032.0112.049.0097 5.035 1.125 9.418 4.2031 12.185 8.5577 2.767 4.3547 3.692 9.6298 2.572 14.6663z" fill="#fff" stroke-miterlimit="10" stroke-width=".75"/><path d="m196.303 74.8883c-.019.0851-3.389-.5651-7.489-1.445-4.1-.8798-7.442-1.6577-7.42-1.7533.021-.0957 3.389.5652 7.489 1.445 4.1.8797 7.439 1.6686 7.42 1.7533z" fill="#e55b2d" stroke-miterlimit="10" stroke-width=".75"/><path d="m195.48 78.7333c-.019.085-3.389-.5653-7.489-1.4451s-7.442-1.6576-7.421-1.7534c.022-.0957 3.389.5653 7.489 1.4451 4.101.8798 7.445 1.6471 7.421 1.7534z" fill="#e55b2d" stroke-miterlimit="10" stroke-width=".75"/><path d="m194.662 82.5569c-.019.0851-3.389-.5651-7.49-1.445-4.1-.8798-7.441-1.6577-7.42-1.7533.021-.0957 3.389.5652 7.489 1.4451 4.1.8798 7.442 1.6576 7.421 1.7532z" fill="#e55b2d" stroke-miterlimit="10" stroke-width=".75"/><path d="m57.6172 56.7387.3189.0711.8611.1918 3.2083.6254-.1063.0767.5162-2.3176.296-1.3289c.1069-.2449.2887-.4497.5193-.5848s.4981-.1936.7641-.167l1.5202.3385c.2848.1113.5206.3204.6651.5898.1444.2694.1882.5815.1233.8803l-.7531 3.3807-.1156-.182 4.0293.8975-.1845.1262 1.1177-5.0179.2842-1.2757c.0213-.1961.0001-.3945-.0621-.5817-.0623-.1872-.1642-.3587-.2988-.503l-1.3682-2.1235-1.3267-2.0583-.6493-.9927c-.1495-.3297-.3883-.6109-.6893-.8119-.1481-.0782-.3123-.1211-.4797-.1255-.1674-.0043-.3335.0299-.4855.1002-.2895.1475-.611.3884-.9076.5678l-1.8023 1.0264c-1.125.7426-2.263 1.3929-3.136 2.0576-.3054.428-.4904.9301-.5359 1.454l-.3173 1.4246-.5092 2.2856-.3267 1.4671c-.0239.1767-.0628.351-.1165.5209l.1068-.4783.322-1.4459.5139-2.3069.3221-1.4458.1748-.7865c.065-.2948.2065-.5673.4103-.7901.9479-.7485 2.0208-1.3575 3.153-2.1319l1.5541-1.2161c.3052-.2135.6211-.4111.9465-.5922.1921-.0894.4021-.1335.6139-.1289.2117.0046.4196.0578.6076.1555.35.2209.6317.5348.8135.9065l.6493.9927 1.3291 2.0479 1.3787 2.1263c.1315.1847.2445.3818.3376.5885.0936.231.1149.4849.0611.7282l-.2865 1.2864-1.1177 5.0166-.0331.1489-.1596-.0356-4.0184-.8951-.1489-.0331.0331-.1489.7507-3.3701c.06-.2334.0319-.4807-.0789-.6948-.1108-.214-.2965-.3797-.5218-.4655l-1.4563-.3245c-.2147-.0244-.4316.0197-.6197.1261s-.3376.2696-.4273.4662l-.2865 1.2863-.5353 2.4026-.0956-.0213-3.1892-.7102-.8505-.1894z" fill="#e55b2d" stroke-miterlimit="10" stroke-width=".75"/><path d="m181.545 131.786-134.6642-29.334c-3.5105-.765-6.9763 1.461-7.741 4.971l-19.2362 88.308c-.7647 3.511 1.4612 6.977 4.9718 7.741l134.6646 29.334c3.51.765 6.976-1.461 7.741-4.971l19.236-88.308c.765-3.511-1.461-6.977-4.972-7.741z" fill="#fff" stroke-miterlimit="10" stroke-width=".75"/></g><path d="m128.625 195.725-16.944-26.268 26.268-16.944-6.643-10.3-26.268 16.945-16.9444-26.268-10.2993 6.643 16.9442 26.268-26.2678 16.944 6.6429 10.299 26.2674-16.943 16.945 26.268z" fill="#e55b2d"/><path d="m156.581 241.93-134.6641-29.334c-3.5105-.765-6.9763 1.461-7.741 4.972l-6.34565 29.131c-.7647 3.51 1.46124 6.976 4.97175 7.741l134.664 29.334c3.511.765 6.977-1.461 7.741-4.972l6.346-29.131c.765-3.511-1.461-6.977-4.972-7.741z" fill="#fff" stroke="#000" stroke-miterlimit="10" stroke-width=".75"/><path d="m148.442 301.783-6.34 29.137c-.368 1.685-1.39 3.155-2.841 4.087s-3.212 1.25-4.897.884l-106.7997-23.263c-9.0941-14.954-15.9871-31.14-20.46664-48.059.57354-.028 1.14824.021 1.70878.145l134.66456 29.331c.834.182 1.625.526 2.327 1.013.701.487 1.3 1.108 1.762 1.826.461.719.777 1.521.928 2.362.152.841.136 1.703-.046 2.537z" fill="#fff" stroke="#000" stroke-miterlimit="10" stroke-width=".75"/><path d="m45.6201 155.084 28.1376 6.129" stroke="#000" stroke-miterlimit="10" stroke-width="6"/><path d="m130.218 174.972 28.137 6.13" stroke="#000" stroke-miterlimit="10" stroke-width="6"/></svg>